<?xml version="1.0" encoding="utf-8" standalone="no"?>
<!DOCTYPE svg PUBLIC "-//W3C//DTD SVG 1.1//EN"
  "http://www.w3.org/Graphics/SVG/1.1/DTD/svg11.dtd">
<svg xmlns:xlink="http://www.w3.org/1999/xlink" width="618.991875pt" height="498.144375pt" viewBox="0 0 618.991875 498.144375" xmlns="http://www.w3.org/2000/svg" version="1.1">
 <metadata>
  <rdf:RDF xmlns:dc="http://purl.org/dc/elements/1.1/" xmlns:cc="http://creativecommons.org/ns#" xmlns:rdf="http://www.w3.org/1999/02/22-rdf-syntax-ns#">
   <cc:Work>
    <dc:type rdf:resource="http://purl.org/dc/dcmitype/StillImage"/>
    <dc:date>2025-12-02T17:19:59.572327</dc:date>
    <dc:format>image/svg+xml</dc:format>
    <dc:creator>
     <cc:Agent>
      <dc:title>Matplotlib v3.9.4, https://matplotlib.org/</dc:title>
     </cc:Agent>
    </dc:creator>
   </cc:Work>
  </rdf:RDF>
 </metadata>
 <defs>
  <style type="text/css">*{stroke-linejoin: round; stroke-linecap: butt}</style>
 </defs>
 <g id="figure_1">
  <g id="patch_1">
   <path d="M 0 498.144375 
L 618.991875 498.144375 
L 618.991875 0 
L 0 0 
z
" style="fill: #ffffff"/>
  </g>
  <g id="axes_1">
   <g id="patch_2">
    <path d="M 53.791875 450.72 
L 611.791875 450.72 
L 611.791875 7.2 
L 53.791875 7.2 
z
" style="fill: #ffffff"/>
   </g>
   <g id="matplotlib.axis_1">
    <g id="xtick_1">
     <g id="line2d_1">
      <path d="M 117.065121 450.72 
L 117.065121 7.2 
" clip-path="url(#p7f6fbfba33)" style="fill: none; stroke-dasharray: 0.5,0.825; stroke-dashoffset: 0; stroke: #cccccc; stroke-opacity: 0.3; stroke-width: 0.5"/>
     </g>
     <g id="text_1">
      <!-- -15 -->
      <g style="fill: #262626" transform="translate(108.394183 462.809375) scale(0.12 -0.12)">
       <defs>
        <path id="ArialMT-2d" d="M 203 1375 
L 203 1941 
L 1931 1941 
L 1931 1375 
L 203 1375 
z
" transform="scale(0.015625)"/>
        <path id="ArialMT-31" d="M 2384 0 
L 1822 0 
L 1822 3584 
Q 1619 3391 1289 3197 
Q 959 3003 697 2906 
L 697 3450 
Q 1169 3672 1522 3987 
Q 1875 4303 2022 4600 
L 2384 4600 
L 2384 0 
z
" transform="scale(0.015625)"/>
        <path id="ArialMT-35" d="M 266 1200 
L 856 1250 
Q 922 819 1161 601 
Q 1400 384 1738 384 
Q 2144 384 2425 690 
Q 2706 997 2706 1503 
Q 2706 1984 2436 2262 
Q 2166 2541 1728 2541 
Q 1456 2541 1237 2417 
Q 1019 2294 894 2097 
L 366 2166 
L 809 4519 
L 3088 4519 
L 3088 3981 
L 1259 3981 
L 1013 2750 
Q 1425 3038 1878 3038 
Q 2478 3038 2890 2622 
Q 3303 2206 3303 1553 
Q 3303 931 2941 478 
Q 2500 -78 1738 -78 
Q 1113 -78 717 272 
Q 322 622 266 1200 
z
" transform="scale(0.015625)"/>
       </defs>
       <use xlink:href="#ArialMT-2d"/>
       <use xlink:href="#ArialMT-31" x="33.300781"/>
       <use xlink:href="#ArialMT-35" x="88.916016"/>
      </g>
     </g>
    </g>
    <g id="xtick_2">
     <g id="line2d_2">
      <path d="M 210.248957 450.72 
L 210.248957 7.2 
" clip-path="url(#p7f6fbfba33)" style="fill: none; stroke-dasharray: 0.5,0.825; stroke-dashoffset: 0; stroke: #cccccc; stroke-opacity: 0.3; stroke-width: 0.5"/>
     </g>
     <g id="text_2">
      <!-- -10 -->
      <g style="fill: #262626" transform="translate(201.57802 462.809375) scale(0.12 -0.12)">
       <defs>
        <path id="ArialMT-30" d="M 266 2259 
Q 266 3072 433 3567 
Q 600 4063 929 4331 
Q 1259 4600 1759 4600 
Q 2128 4600 2406 4451 
Q 2684 4303 2865 4023 
Q 3047 3744 3150 3342 
Q 3253 2941 3253 2259 
Q 3253 1453 3087 958 
Q 2922 463 2592 192 
Q 2263 -78 1759 -78 
Q 1097 -78 719 397 
Q 266 969 266 2259 
z
M 844 2259 
Q 844 1131 1108 757 
Q 1372 384 1759 384 
Q 2147 384 2411 759 
Q 2675 1134 2675 2259 
Q 2675 3391 2411 3762 
Q 2147 4134 1753 4134 
Q 1366 4134 1134 3806 
Q 844 3388 844 2259 
z
" transform="scale(0.015625)"/>
       </defs>
       <use xlink:href="#ArialMT-2d"/>
       <use xlink:href="#ArialMT-31" x="33.300781"/>
       <use xlink:href="#ArialMT-30" x="88.916016"/>
      </g>
     </g>
    </g>
    <g id="xtick_3">
     <g id="line2d_3">
      <path d="M 303.432794 450.72 
L 303.432794 7.2 
" clip-path="url(#p7f6fbfba33)" style="fill: none; stroke-dasharray: 0.5,0.825; stroke-dashoffset: 0; stroke: #cccccc; stroke-opacity: 0.3; stroke-width: 0.5"/>
     </g>
     <g id="text_3">
      <!-- -5 -->
      <g style="fill: #262626" transform="translate(298.098419 462.809375) scale(0.12 -0.12)">
       <use xlink:href="#ArialMT-2d"/>
       <use xlink:href="#ArialMT-35" x="33.300781"/>
      </g>
     </g>
    </g>
    <g id="xtick_4">
     <g id="line2d_4">
      <path d="M 396.61663 450.72 
L 396.61663 7.2 
" clip-path="url(#p7f6fbfba33)" style="fill: none; stroke-dasharray: 0.5,0.825; stroke-dashoffset: 0; stroke: #cccccc; stroke-opacity: 0.3; stroke-width: 0.5"/>
     </g>
     <g id="text_4">
      <!-- 0 -->
      <g style="fill: #262626" transform="translate(393.280068 462.809375) scale(0.12 -0.12)">
       <use xlink:href="#ArialMT-30"/>
      </g>
     </g>
    </g>
    <g id="xtick_5">
     <g id="line2d_5">
      <path d="M 489.800467 450.72 
L 489.800467 7.2 
" clip-path="url(#p7f6fbfba33)" style="fill: none; stroke-dasharray: 0.5,0.825; stroke-dashoffset: 0; stroke: #cccccc; stroke-opacity: 0.3; stroke-width: 0.5"/>
     </g>
     <g id="text_5">
      <!-- 5 -->
      <g style="fill: #262626" transform="translate(486.463904 462.809375) scale(0.12 -0.12)">
       <use xlink:href="#ArialMT-35"/>
      </g>
     </g>
    </g>
    <g id="xtick_6">
     <g id="line2d_6">
      <path d="M 582.984303 450.72 
L 582.984303 7.2 
" clip-path="url(#p7f6fbfba33)" style="fill: none; stroke-dasharray: 0.5,0.825; stroke-dashoffset: 0; stroke: #cccccc; stroke-opacity: 0.3; stroke-width: 0.5"/>
     </g>
     <g id="text_6">
      <!-- 10 -->
      <g style="fill: #262626" transform="translate(576.311178 462.809375) scale(0.12 -0.12)">
       <use xlink:href="#ArialMT-31"/>
       <use xlink:href="#ArialMT-30" x="55.615234"/>
      </g>
     </g>
    </g>
    <g id="text_7">
     <!-- t-SNE 成分 1 -->
     <g style="fill: #262626" transform="translate(260.791875 487.850625) scale(0.24 -0.24)">
      <defs>
       <path id="SimSun-74" d="M 1500 900 
Q 1500 550 1625 425 
Q 1750 300 2000 300 
Q 2250 300 2400 462 
Q 2550 625 2600 925 
L 2725 875 
Q 2675 525 2462 300 
Q 2250 75 1900 75 
Q 1525 75 1337 300 
Q 1150 525 1150 1000 
L 1150 2750 
L 400 2750 
L 400 2900 
L 600 2900 
Q 900 2900 1087 3087 
Q 1275 3275 1325 3675 
L 1350 3875 
L 1500 3875 
L 1500 2900 
L 2500 2900 
L 2500 2750 
L 1500 2750 
L 1500 900 
z
" transform="scale(0.015625)"/>
       <path id="SimSun-2d" d="M 200 2225 
L 200 2450 
L 2975 2450 
L 2975 2225 
L 200 2225 
z
" transform="scale(0.015625)"/>
       <path id="SimSun-53" d="M 1500 2150 
Q 825 2450 575 2675 
Q 325 2900 325 3375 
Q 325 3750 637 4087 
Q 950 4425 1525 4425 
Q 1775 4425 2000 4350 
Q 2225 4250 2325 4250 
Q 2400 4250 2462 4287 
Q 2525 4325 2575 4425 
L 2675 3400 
L 2550 3350 
Q 2325 3875 2087 4062 
Q 1850 4250 1475 4250 
Q 1000 4250 825 3987 
Q 650 3725 650 3425 
Q 650 3150 812 2987 
Q 975 2825 1700 2500 
Q 2300 2250 2562 1937 
Q 2825 1625 2825 1200 
Q 2825 750 2512 400 
Q 2200 50 1600 50 
Q 1350 50 1150 150 
Q 925 225 800 225 
Q 725 225 650 175 
Q 575 125 475 50 
L 275 1275 
L 425 1325 
Q 600 700 912 462 
Q 1225 225 1625 225 
Q 2050 225 2262 475 
Q 2475 725 2475 1200 
Q 2475 1450 2237 1687 
Q 2000 1925 1500 2150 
z
" transform="scale(0.015625)"/>
       <path id="SimSun-4e" d="M 2525 1100 
L 2575 1100 
L 2575 4025 
Q 2575 4125 2525 4175 
Q 2475 4225 2350 4225 
L 2150 4225 
L 2150 4375 
L 3150 4375 
L 3150 4225 
L 2950 4225 
Q 2850 4225 2787 4175 
Q 2725 4125 2725 4025 
L 2725 100 
L 2575 100 
L 675 3825 
L 625 3825 
L 625 450 
Q 625 350 687 300 
Q 750 250 850 250 
L 1050 250 
L 1050 100 
L 50 100 
L 50 250 
L 250 250 
Q 375 250 425 300 
Q 475 350 475 450 
L 475 4025 
Q 475 4125 425 4175 
Q 375 4225 250 4225 
L 100 4225 
L 100 4375 
L 825 4375 
L 2525 1100 
z
" transform="scale(0.015625)"/>
       <path id="SimSun-45" d="M 200 4225 
L 200 4375 
L 2650 4375 
L 2925 3525 
L 2800 3475 
Q 2600 3850 2375 4037 
Q 2150 4225 1875 4225 
L 1175 4225 
Q 1075 4225 1012 4175 
Q 950 4125 950 4025 
L 950 2475 
L 1675 2475 
Q 1925 2475 2037 2600 
Q 2150 2725 2150 2975 
L 2150 3125 
L 2300 3125 
L 2300 1650 
L 2150 1650 
L 2150 1750 
Q 2150 2025 2037 2175 
Q 1925 2325 1675 2325 
L 950 2325 
L 950 450 
Q 950 350 1012 300 
Q 1075 250 1175 250 
L 1825 250 
Q 2200 250 2462 462 
Q 2725 675 2875 1125 
L 3000 1075 
L 2725 100 
L 175 100 
L 175 250 
L 325 250 
Q 450 250 500 300 
Q 550 350 550 450 
L 550 4025 
Q 550 4125 500 4175 
Q 450 4225 325 4225 
L 200 4225 
z
" transform="scale(0.015625)"/>
       <path id="SimSun-20" d="M 0 0 
Q 0 0 0 0 
z
" transform="scale(0.015625)"/>
       <path id="SimSun-6210" d="M 4325 5075 
Q 4850 4775 5025 4612 
Q 5200 4450 5162 4287 
Q 5125 4125 5025 4062 
Q 4925 4000 4900 4000 
Q 4800 4000 4750 4200 
Q 4675 4475 4250 5000 
L 4325 5075 
z
M 5625 100 
L 5925 1175 
L 6025 1150 
Q 5925 375 5925 125 
Q 5925 -125 6050 -350 
Q 6100 -450 6000 -450 
Q 5825 -450 5350 -275 
Q 4875 -100 4250 675 
Q 3475 -125 2550 -525 
L 2525 -425 
Q 3525 225 4050 950 
Q 3550 1875 3400 3650 
L 1425 3650 
L 1400 2450 
L 2550 2450 
L 2775 2700 
L 3150 2350 
L 2925 2175 
Q 2850 675 2725 437 
Q 2600 200 2250 50 
Q 2175 400 1575 625 
L 1575 725 
Q 2050 650 2237 625 
Q 2425 600 2475 837 
Q 2525 1075 2575 2300 
L 1400 2300 
Q 1325 225 350 -600 
L 300 -525 
Q 950 400 987 1462 
Q 1025 2525 1025 3075 
Q 1025 3625 1000 4025 
L 1450 3800 
L 3375 3800 
Q 3300 4625 3250 5150 
L 3900 4900 
L 3725 4700 
Q 3725 4300 3775 3800 
L 5150 3800 
L 5500 4150 
L 6000 3650 
L 3775 3650 
Q 3925 2000 4300 1325 
Q 4500 1625 4700 2100 
Q 4900 2575 5100 3175 
L 5625 2775 
L 5400 2650 
Q 4975 1625 4525 975 
Q 5050 350 5625 100 
z
" transform="scale(0.015625)"/>
       <path id="SimSun-5206" d="M 2350 5050 
L 2850 4675 
L 2625 4550 
Q 2200 3750 1687 3125 
Q 1175 2500 375 2025 
L 325 2100 
Q 975 2625 1475 3337 
Q 1975 4050 2350 5050 
z
M 4100 4975 
L 3900 4850 
Q 4175 3850 4800 3300 
Q 5425 2750 6125 2625 
L 6125 2550 
Q 5750 2500 5600 2225 
Q 4775 2675 4287 3425 
Q 3800 4175 3625 5175 
L 4100 4975 
z
M 1375 2625 
L 4225 2625 
L 4475 2875 
L 4825 2525 
L 4625 2375 
Q 4575 400 4375 -12 
Q 4175 -425 3675 -600 
Q 3600 -200 2975 -25 
L 2975 75 
Q 3600 -25 3787 -12 
Q 3975 0 4075 275 
Q 4175 550 4275 2475 
L 2975 2475 
Q 2825 1400 2375 662 
Q 1925 -75 650 -625 
L 600 -525 
Q 1725 50 2112 837 
Q 2500 1625 2575 2475 
L 1800 2475 
L 1575 2425 
L 1375 2625 
z
" transform="scale(0.015625)"/>
       <path id="SimSun-31" d="M 1825 4450 
L 1825 650 
Q 1825 450 1950 350 
Q 2075 250 2300 250 
L 2550 250 
L 2550 100 
L 725 100 
L 725 250 
L 950 250 
Q 1200 250 1312 350 
Q 1425 450 1425 650 
L 1425 3675 
Q 1425 3775 1362 3837 
Q 1300 3900 1175 3900 
L 725 3900 
L 725 4050 
L 950 4050 
Q 1250 4050 1437 4150 
Q 1625 4250 1725 4450 
L 1825 4450 
z
" transform="scale(0.015625)"/>
      </defs>
      <use xlink:href="#SimSun-74"/>
      <use xlink:href="#SimSun-2d" x="50"/>
      <use xlink:href="#SimSun-53" x="100"/>
      <use xlink:href="#SimSun-4e" x="150"/>
      <use xlink:href="#SimSun-45" x="200"/>
      <use xlink:href="#SimSun-20" x="250"/>
      <use xlink:href="#SimSun-6210" x="300"/>
      <use xlink:href="#SimSun-5206" x="400"/>
      <use xlink:href="#SimSun-20" x="500"/>
      <use xlink:href="#SimSun-31" x="550"/>
     </g>
    </g>
   </g>
   <g id="matplotlib.axis_2">
    <g id="ytick_1">
     <g id="line2d_7">
      <path d="M 53.791875 434.447122 
L 611.791875 434.447122 
" clip-path="url(#p7f6fbfba33)" style="fill: none; stroke-dasharray: 0.5,0.825; stroke-dashoffset: 0; stroke: #cccccc; stroke-opacity: 0.3; stroke-width: 0.5"/>
     </g>
     <g id="text_8">
      <!-- -15 -->
      <g style="fill: #262626" transform="translate(32.95 438.74181) scale(0.12 -0.12)">
       <use xlink:href="#ArialMT-2d"/>
       <use xlink:href="#ArialMT-31" x="33.300781"/>
       <use xlink:href="#ArialMT-35" x="88.916016"/>
      </g>
     </g>
    </g>
    <g id="ytick_2">
     <g id="line2d_8">
      <path d="M 53.791875 341.395008 
L 611.791875 341.395008 
" clip-path="url(#p7f6fbfba33)" style="fill: none; stroke-dasharray: 0.5,0.825; stroke-dashoffset: 0; stroke: #cccccc; stroke-opacity: 0.3; stroke-width: 0.5"/>
     </g>
     <g id="text_9">
      <!-- -10 -->
      <g style="fill: #262626" transform="translate(32.95 345.689696) scale(0.12 -0.12)">
       <use xlink:href="#ArialMT-2d"/>
       <use xlink:href="#ArialMT-31" x="33.300781"/>
       <use xlink:href="#ArialMT-30" x="88.916016"/>
      </g>
     </g>
    </g>
    <g id="ytick_3">
     <g id="line2d_9">
      <path d="M 53.791875 248.342895 
L 611.791875 248.342895 
" clip-path="url(#p7f6fbfba33)" style="fill: none; stroke-dasharray: 0.5,0.825; stroke-dashoffset: 0; stroke: #cccccc; stroke-opacity: 0.3; stroke-width: 0.5"/>
     </g>
     <g id="text_10">
      <!-- -5 -->
      <g style="fill: #262626" transform="translate(39.623125 252.637582) scale(0.12 -0.12)">
       <use xlink:href="#ArialMT-2d"/>
       <use xlink:href="#ArialMT-35" x="33.300781"/>
      </g>
     </g>
    </g>
    <g id="ytick_4">
     <g id="line2d_10">
      <path d="M 53.791875 155.290781 
L 611.791875 155.290781 
" clip-path="url(#p7f6fbfba33)" style="fill: none; stroke-dasharray: 0.5,0.825; stroke-dashoffset: 0; stroke: #cccccc; stroke-opacity: 0.3; stroke-width: 0.5"/>
     </g>
     <g id="text_11">
      <!-- 0 -->
      <g style="fill: #262626" transform="translate(43.61875 159.585468) scale(0.12 -0.12)">
       <use xlink:href="#ArialMT-30"/>
      </g>
     </g>
    </g>
    <g id="ytick_5">
     <g id="line2d_11">
      <path d="M 53.791875 62.238667 
L 611.791875 62.238667 
" clip-path="url(#p7f6fbfba33)" style="fill: none; stroke-dasharray: 0.5,0.825; stroke-dashoffset: 0; stroke: #cccccc; stroke-opacity: 0.3; stroke-width: 0.5"/>
     </g>
     <g id="text_12">
      <!-- 5 -->
      <g style="fill: #262626" transform="translate(43.61875 66.533354) scale(0.12 -0.12)">
       <use xlink:href="#ArialMT-35"/>
      </g>
     </g>
    </g>
    <g id="text_13">
     <!-- t-SNE 成分 2 -->
     <g style="fill: #262626" transform="translate(25.85625 300.96) rotate(-90) scale(0.24 -0.24)">
      <defs>
       <path id="SimSun-32" d="M 2325 3325 
Q 2325 3775 2125 4012 
Q 1925 4250 1525 4250 
Q 1225 4250 1012 4087 
Q 800 3925 800 3675 
Q 800 3525 900 3425 
Q 975 3325 975 3225 
Q 975 3100 912 3037 
Q 850 2975 725 2975 
Q 575 2975 487 3062 
Q 400 3150 400 3350 
Q 400 3875 775 4150 
Q 1150 4425 1575 4425 
Q 2175 4425 2462 4125 
Q 2750 3825 2750 3375 
Q 2750 3075 2612 2775 
Q 2475 2475 2175 2200 
Q 1450 1500 1062 1062 
Q 675 625 600 475 
L 2075 475 
Q 2300 475 2450 650 
Q 2600 825 2650 1175 
L 2800 1175 
L 2650 100 
L 325 100 
L 325 425 
Q 450 650 737 1000 
Q 1025 1350 1500 1825 
Q 1925 2250 2125 2625 
Q 2325 3000 2325 3325 
z
" transform="scale(0.015625)"/>
      </defs>
      <use xlink:href="#SimSun-74"/>
      <use xlink:href="#SimSun-2d" x="50"/>
      <use xlink:href="#SimSun-53" x="100"/>
      <use xlink:href="#SimSun-4e" x="150"/>
      <use xlink:href="#SimSun-45" x="200"/>
      <use xlink:href="#SimSun-20" x="250"/>
      <use xlink:href="#SimSun-6210" x="300"/>
      <use xlink:href="#SimSun-5206" x="400"/>
      <use xlink:href="#SimSun-20" x="500"/>
      <use xlink:href="#SimSun-32" x="550"/>
     </g>
    </g>
   </g>
   <g id="PathCollection_1">
    <defs>
     <path id="mdaf69d255e" d="M 0 3.872983 
C 1.027127 3.872983 2.012324 3.464901 2.738613 2.738613 
C 3.464901 2.012324 3.872983 1.027127 3.872983 0 
C 3.872983 -1.027127 3.464901 -2.012324 2.738613 -2.738613 
C 2.012324 -3.464901 1.027127 -3.872983 0 -3.872983 
C -1.027127 -3.872983 -2.012324 -3.464901 -2.738613 -2.738613 
C -3.464901 -2.012324 -3.872983 -1.027127 -3.872983 0 
C -3.872983 1.027127 -3.464901 2.012324 -2.738613 2.738613 
C -2.012324 3.464901 -1.027127 3.872983 0 3.872983 
z
" style="stroke: #000000; stroke-opacity: 0.7; stroke-width: 0.3"/>
    </defs>
    <g clip-path="url(#p7f6fbfba33)">
     <use xlink:href="#mdaf69d255e" x="550.987071" y="147.58178" style="fill: #0173b2; fill-opacity: 0.7; stroke: #000000; stroke-opacity: 0.7; stroke-width: 0.3"/>
     <use xlink:href="#mdaf69d255e" x="579.357444" y="119.313455" style="fill: #0173b2; fill-opacity: 0.7; stroke: #000000; stroke-opacity: 0.7; stroke-width: 0.3"/>
     <use xlink:href="#mdaf69d255e" x="545.366285" y="148.37944" style="fill: #0173b2; fill-opacity: 0.7; stroke: #000000; stroke-opacity: 0.7; stroke-width: 0.3"/>
     <use xlink:href="#mdaf69d255e" x="546.659336" y="148.097425" style="fill: #0173b2; fill-opacity: 0.7; stroke: #000000; stroke-opacity: 0.7; stroke-width: 0.3"/>
     <use xlink:href="#mdaf69d255e" x="439.456587" y="71.540613" style="fill: #0173b2; fill-opacity: 0.7; stroke: #000000; stroke-opacity: 0.7; stroke-width: 0.3"/>
     <use xlink:href="#mdaf69d255e" x="531.087965" y="111.257346" style="fill: #0173b2; fill-opacity: 0.7; stroke: #000000; stroke-opacity: 0.7; stroke-width: 0.3"/>
     <use xlink:href="#mdaf69d255e" x="537.867391" y="116.425579" style="fill: #0173b2; fill-opacity: 0.7; stroke: #000000; stroke-opacity: 0.7; stroke-width: 0.3"/>
     <use xlink:href="#mdaf69d255e" x="544.649066" y="113.439612" style="fill: #0173b2; fill-opacity: 0.7; stroke: #000000; stroke-opacity: 0.7; stroke-width: 0.3"/>
     <use xlink:href="#mdaf69d255e" x="489.438218" y="95.965346" style="fill: #0173b2; fill-opacity: 0.7; stroke: #000000; stroke-opacity: 0.7; stroke-width: 0.3"/>
     <use xlink:href="#mdaf69d255e" x="496.849782" y="114.593792" style="fill: #0173b2; fill-opacity: 0.7; stroke: #000000; stroke-opacity: 0.7; stroke-width: 0.3"/>
     <use xlink:href="#mdaf69d255e" x="443.845836" y="61.028589" style="fill: #0173b2; fill-opacity: 0.7; stroke: #000000; stroke-opacity: 0.7; stroke-width: 0.3"/>
     <use xlink:href="#mdaf69d255e" x="492.359109" y="63.070786" style="fill: #0173b2; fill-opacity: 0.7; stroke: #000000; stroke-opacity: 0.7; stroke-width: 0.3"/>
     <use xlink:href="#mdaf69d255e" x="412.452489" y="29.633644" style="fill: #0173b2; fill-opacity: 0.7; stroke: #000000; stroke-opacity: 0.7; stroke-width: 0.3"/>
     <use xlink:href="#mdaf69d255e" x="432.959907" y="76.056796" style="fill: #0173b2; fill-opacity: 0.7; stroke: #000000; stroke-opacity: 0.7; stroke-width: 0.3"/>
     <use xlink:href="#mdaf69d255e" x="567.070333" y="134.738206" style="fill: #0173b2; fill-opacity: 0.7; stroke: #000000; stroke-opacity: 0.7; stroke-width: 0.3"/>
     <use xlink:href="#mdaf69d255e" x="469.759738" y="63.620282" style="fill: #0173b2; fill-opacity: 0.7; stroke: #000000; stroke-opacity: 0.7; stroke-width: 0.3"/>
     <use xlink:href="#mdaf69d255e" x="539.719176" y="133.832815" style="fill: #0173b2; fill-opacity: 0.7; stroke: #000000; stroke-opacity: 0.7; stroke-width: 0.3"/>
     <use xlink:href="#mdaf69d255e" x="443.3523" y="69.431309" style="fill: #0173b2; fill-opacity: 0.7; stroke: #000000; stroke-opacity: 0.7; stroke-width: 0.3"/>
     <use xlink:href="#mdaf69d255e" x="402.309831" y="43.609342" style="fill: #0173b2; fill-opacity: 0.7; stroke: #000000; stroke-opacity: 0.7; stroke-width: 0.3"/>
     <use xlink:href="#mdaf69d255e" x="402.862742" y="27.36" style="fill: #0173b2; fill-opacity: 0.7; stroke: #000000; stroke-opacity: 0.7; stroke-width: 0.3"/>
     <use xlink:href="#mdaf69d255e" x="578.287894" y="136.804595" style="fill: #0173b2; fill-opacity: 0.7; stroke: #000000; stroke-opacity: 0.7; stroke-width: 0.3"/>
     <use xlink:href="#mdaf69d255e" x="485.91568" y="88.22895" style="fill: #0173b2; fill-opacity: 0.7; stroke: #000000; stroke-opacity: 0.7; stroke-width: 0.3"/>
     <use xlink:href="#mdaf69d255e" x="551.347427" y="147.119463" style="fill: #0173b2; fill-opacity: 0.7; stroke: #000000; stroke-opacity: 0.7; stroke-width: 0.3"/>
     <use xlink:href="#mdaf69d255e" x="424.977686" y="69.051957" style="fill: #0173b2; fill-opacity: 0.7; stroke: #000000; stroke-opacity: 0.7; stroke-width: 0.3"/>
     <use xlink:href="#mdaf69d255e" x="566.102571" y="136.931888" style="fill: #0173b2; fill-opacity: 0.7; stroke: #000000; stroke-opacity: 0.7; stroke-width: 0.3"/>
     <use xlink:href="#mdaf69d255e" x="449.783865" y="82.85441" style="fill: #0173b2; fill-opacity: 0.7; stroke: #000000; stroke-opacity: 0.7; stroke-width: 0.3"/>
     <use xlink:href="#mdaf69d255e" x="533.127846" y="135.63383" style="fill: #0173b2; fill-opacity: 0.7; stroke: #000000; stroke-opacity: 0.7; stroke-width: 0.3"/>
     <use xlink:href="#mdaf69d255e" x="432.4092" y="76.62633" style="fill: #0173b2; fill-opacity: 0.7; stroke: #000000; stroke-opacity: 0.7; stroke-width: 0.3"/>
     <use xlink:href="#mdaf69d255e" x="579.169153" y="136.028151" style="fill: #0173b2; fill-opacity: 0.7; stroke: #000000; stroke-opacity: 0.7; stroke-width: 0.3"/>
     <use xlink:href="#mdaf69d255e" x="570.387028" y="134.373181" style="fill: #0173b2; fill-opacity: 0.7; stroke: #000000; stroke-opacity: 0.7; stroke-width: 0.3"/>
     <use xlink:href="#mdaf69d255e" x="552.514998" y="118.04787" style="fill: #0173b2; fill-opacity: 0.7; stroke: #000000; stroke-opacity: 0.7; stroke-width: 0.3"/>
     <use xlink:href="#mdaf69d255e" x="521.124309" y="130.507767" style="fill: #0173b2; fill-opacity: 0.7; stroke: #000000; stroke-opacity: 0.7; stroke-width: 0.3"/>
     <use xlink:href="#mdaf69d255e" x="489.637271" y="70.886739" style="fill: #0173b2; fill-opacity: 0.7; stroke: #000000; stroke-opacity: 0.7; stroke-width: 0.3"/>
    </g>
   </g>
   <g id="PathCollection_2">
    <path d="M 467.99068 83.124877 
L 463.80738 91.491478 
L 472.17398 91.491478 
L 467.99068 83.124877 
z
" clip-path="url(#p7f6fbfba33)" style="fill: none; stroke: #0173b2; stroke-opacity: 0.999; stroke-width: 1.2"/>
    <path d="M 555.059385 108.752412 
L 550.876085 117.119012 
L 559.242685 117.119012 
L 555.059385 108.752412 
z
" clip-path="url(#p7f6fbfba33)" style="fill: none; stroke: #0173b2; stroke-opacity: 0.999; stroke-width: 1.2"/>
    <path d="M 561.084037 140.336101 
L 556.900736 148.702702 
L 565.267337 148.702702 
L 561.084037 140.336101 
z
" clip-path="url(#p7f6fbfba33)" style="fill: none; stroke: #0173b2; stroke-opacity: 0.999; stroke-width: 1.2"/>
    <path d="M 552.93086 131.885552 
L 548.74756 140.252152 
L 557.11416 140.252152 
L 552.93086 131.885552 
z
" clip-path="url(#p7f6fbfba33)" style="fill: none; stroke: #0173b2; stroke-opacity: 0.999; stroke-width: 1.2"/>
    <path d="M 418.886053 32.897798 
L 414.702753 41.264398 
L 423.069353 41.264398 
L 418.886053 32.897798 
z
" clip-path="url(#p7f6fbfba33)" style="fill: none; stroke: #0173b2; stroke-opacity: 0.999; stroke-width: 1.2"/>
    <path d="M 424.933412 33.887415 
L 420.750112 42.254016 
L 429.116712 42.254016 
L 424.933412 33.887415 
z
" clip-path="url(#p7f6fbfba33)" style="fill: none; stroke: #0173b2; stroke-opacity: 0.999; stroke-width: 1.2"/>
    <path d="M 585.047565 126.156715 
L 580.864265 134.523315 
L 589.230865 134.523315 
L 585.047565 126.156715 
z
" clip-path="url(#p7f6fbfba33)" style="fill: none; stroke: #0173b2; stroke-opacity: 0.999; stroke-width: 1.2"/>
    <path d="M 557.727635 108.340621 
L 553.544335 116.707221 
L 561.910936 116.707221 
L 557.727635 108.340621 
z
" clip-path="url(#p7f6fbfba33)" style="fill: none; stroke: #0173b2; stroke-opacity: 0.999; stroke-width: 1.2"/>
    <path d="M 426.909546 56.527142 
L 422.726246 64.893742 
L 431.092846 64.893742 
L 426.909546 56.527142 
z
" clip-path="url(#p7f6fbfba33)" style="fill: none; stroke: #0173b2; stroke-opacity: 0.999; stroke-width: 1.2"/>
    <path d="M 539.697563 145.225531 
L 535.514263 153.592131 
L 543.880864 153.592131 
L 539.697563 145.225531 
z
" clip-path="url(#p7f6fbfba33)" style="fill: none; stroke: #0173b2; stroke-opacity: 0.999; stroke-width: 1.2"/>
    <path d="M 585.932147 125.329434 
L 581.748847 133.696034 
L 590.115447 133.696034 
L 585.932147 125.329434 
z
" clip-path="url(#p7f6fbfba33)" style="fill: none; stroke: #0173b2; stroke-opacity: 0.999; stroke-width: 1.2"/>
    <path d="M 468.272837 87.480816 
L 464.089537 95.847416 
L 472.456137 95.847416 
L 468.272837 87.480816 
z
" clip-path="url(#p7f6fbfba33)" style="fill: none; stroke: #0173b2; stroke-opacity: 0.999; stroke-width: 1.2"/>
    <path d="M 518.716128 99.948758 
L 514.532828 108.315358 
L 522.899428 108.315358 
L 518.716128 99.948758 
z
" clip-path="url(#p7f6fbfba33)" style="fill: none; stroke: #0173b2; stroke-opacity: 0.999; stroke-width: 1.2"/>
    <path d="M 518.361096 142.06002 
L 514.177795 150.426621 
L 522.544396 150.426621 
L 518.361096 142.06002 
z
" clip-path="url(#p7f6fbfba33)" style="fill: none; stroke: #0173b2; stroke-opacity: 0.999; stroke-width: 1.2"/>
    <path d="M 102.502338 57.627101 
L 98.319038 65.993701 
L 106.685638 65.993701 
L 102.502338 57.627101 
z
" clip-path="url(#p7f6fbfba33)" style="fill: none; stroke: #0173b2; stroke-opacity: 0.999; stroke-width: 1.2"/>
    <path d="M 475.795547 85.464279 
L 471.612247 93.830879 
L 479.978847 93.830879 
L 475.795547 85.464279 
z
" clip-path="url(#p7f6fbfba33)" style="fill: none; stroke: #0173b2; stroke-opacity: 0.999; stroke-width: 1.2"/>
    <path d="M 480.789385 117.329888 
L 476.606085 125.696489 
L 484.972686 125.696489 
L 480.789385 117.329888 
z
" clip-path="url(#p7f6fbfba33)" style="fill: none; stroke: #0173b2; stroke-opacity: 0.999; stroke-width: 1.2"/>
    <path d="M 428.467947 56.771474 
L 424.284647 65.138074 
L 432.651248 65.138074 
L 428.467947 56.771474 
z
" clip-path="url(#p7f6fbfba33)" style="fill: none; stroke: #0173b2; stroke-opacity: 0.999; stroke-width: 1.2"/>
    <path d="M 413.589278 46.196355 
L 409.405978 54.562955 
L 417.772578 54.562955 
L 413.589278 46.196355 
z
" clip-path="url(#p7f6fbfba33)" style="fill: none; stroke: #0173b2; stroke-opacity: 0.999; stroke-width: 1.2"/>
    <path d="M 475.742502 82.240787 
L 471.559202 90.607387 
L 479.925802 90.607387 
L 475.742502 82.240787 
z
" clip-path="url(#p7f6fbfba33)" style="fill: none; stroke: #0173b2; stroke-opacity: 0.999; stroke-width: 1.2"/>
    <path d="M 575.110951 106.39556 
L 570.927651 114.76216 
L 579.294251 114.76216 
L 575.110951 106.39556 
z
" clip-path="url(#p7f6fbfba33)" style="fill: none; stroke: #0173b2; stroke-opacity: 0.999; stroke-width: 1.2"/>
    <path d="M 436.805946 68.143126 
L 432.622645 76.509727 
L 440.989246 76.509727 
L 436.805946 68.143126 
z
" clip-path="url(#p7f6fbfba33)" style="fill: none; stroke: #0173b2; stroke-opacity: 0.999; stroke-width: 1.2"/>
    <path d="M 552.361809 90.53932 
L 548.178508 98.90592 
L 556.545109 98.90592 
L 552.361809 90.53932 
z
" clip-path="url(#p7f6fbfba33)" style="fill: none; stroke: #0173b2; stroke-opacity: 0.999; stroke-width: 1.2"/>
    <path d="M 562.994571 139.864021 
L 558.811271 148.230622 
L 567.177871 148.230622 
L 562.994571 139.864021 
z
" clip-path="url(#p7f6fbfba33)" style="fill: none; stroke: #0173b2; stroke-opacity: 0.999; stroke-width: 1.2"/>
    <path d="M 487.36663 77.429449 
L 483.18333 85.79605 
L 491.54993 85.79605 
L 487.36663 77.429449 
z
" clip-path="url(#p7f6fbfba33)" style="fill: none; stroke: #0173b2; stroke-opacity: 0.999; stroke-width: 1.2"/>
    <path d="M 84.205185 50.225153 
L 80.021885 58.591753 
L 88.388485 58.591753 
L 84.205185 50.225153 
z
" clip-path="url(#p7f6fbfba33)" style="fill: none; stroke: #0173b2; stroke-opacity: 0.999; stroke-width: 1.2"/>
    <path d="M 483.436539 81.974239 
L 479.253239 90.340839 
L 487.619839 90.340839 
L 483.436539 81.974239 
z
" clip-path="url(#p7f6fbfba33)" style="fill: none; stroke: #0173b2; stroke-opacity: 0.999; stroke-width: 1.2"/>
    <path d="M 480.483772 115.520098 
L 476.300472 123.886698 
L 484.667072 123.886698 
L 480.483772 115.520098 
z
" clip-path="url(#p7f6fbfba33)" style="fill: none; stroke: #0173b2; stroke-opacity: 0.999; stroke-width: 1.2"/>
    <path d="M 428.918299 38.883752 
L 424.734999 47.250352 
L 433.101599 47.250352 
L 428.918299 38.883752 
z
" clip-path="url(#p7f6fbfba33)" style="fill: none; stroke: #0173b2; stroke-opacity: 0.999; stroke-width: 1.2"/>
    <path d="M 428.745377 56.953917 
L 424.562077 65.320517 
L 432.928677 65.320517 
L 428.745377 56.953917 
z
" clip-path="url(#p7f6fbfba33)" style="fill: none; stroke: #0173b2; stroke-opacity: 0.999; stroke-width: 1.2"/>
    <path d="M 480.720256 117.764632 
L 476.536956 126.131233 
L 484.903556 126.131233 
L 480.720256 117.764632 
z
" clip-path="url(#p7f6fbfba33)" style="fill: none; stroke: #0173b2; stroke-opacity: 0.999; stroke-width: 1.2"/>
    <path d="M 503.44057 98.348524 
L 499.25727 106.715124 
L 507.62387 106.715124 
L 503.44057 98.348524 
z
" clip-path="url(#p7f6fbfba33)" style="fill: none; stroke: #0173b2; stroke-opacity: 0.999; stroke-width: 1.2"/>
    <path d="M 147.881559 68.729219 
L 143.698259 77.095819 
L 152.064859 77.095819 
L 147.881559 68.729219 
z
" clip-path="url(#p7f6fbfba33)" style="fill: none; stroke: #0173b2; stroke-opacity: 0.999; stroke-width: 1.2"/>
    <path d="M 586.428239 124.887111 
L 582.244939 133.253712 
L 590.611539 133.253712 
L 586.428239 124.887111 
z
" clip-path="url(#p7f6fbfba33)" style="fill: none; stroke: #0173b2; stroke-opacity: 0.999; stroke-width: 1.2"/>
   </g>
   <g id="PathCollection_3">
    <defs>
     <path id="mfb53ceef89" d="M 0 3.872983 
C 1.027127 3.872983 2.012324 3.464901 2.738613 2.738613 
C 3.464901 2.012324 3.872983 1.027127 3.872983 0 
C 3.872983 -1.027127 3.464901 -2.012324 2.738613 -2.738613 
C 2.012324 -3.464901 1.027127 -3.872983 0 -3.872983 
C -1.027127 -3.872983 -2.012324 -3.464901 -2.738613 -2.738613 
C -3.464901 -2.012324 -3.872983 -1.027127 -3.872983 0 
C -3.872983 1.027127 -3.464901 2.012324 -2.738613 2.738613 
C -2.012324 3.464901 -1.027127 3.872983 0 3.872983 
z
" style="stroke: #000000; stroke-opacity: 0.7; stroke-width: 0.3"/>
    </defs>
    <g clip-path="url(#p7f6fbfba33)">
     <use xlink:href="#mfb53ceef89" x="452.836305" y="349.08525" style="fill: #de8f05; fill-opacity: 0.7; stroke: #000000; stroke-opacity: 0.7; stroke-width: 0.3"/>
     <use xlink:href="#mfb53ceef89" x="471.102546" y="430.56" style="fill: #de8f05; fill-opacity: 0.7; stroke: #000000; stroke-opacity: 0.7; stroke-width: 0.3"/>
     <use xlink:href="#mfb53ceef89" x="454.982053" y="263.141474" style="fill: #de8f05; fill-opacity: 0.7; stroke: #000000; stroke-opacity: 0.7; stroke-width: 0.3"/>
     <use xlink:href="#mfb53ceef89" x="457.388621" y="359.283786" style="fill: #de8f05; fill-opacity: 0.7; stroke: #000000; stroke-opacity: 0.7; stroke-width: 0.3"/>
     <use xlink:href="#mfb53ceef89" x="458.75943" y="379.679065" style="fill: #de8f05; fill-opacity: 0.7; stroke: #000000; stroke-opacity: 0.7; stroke-width: 0.3"/>
     <use xlink:href="#mfb53ceef89" x="459.044707" y="347.757856" style="fill: #de8f05; fill-opacity: 0.7; stroke: #000000; stroke-opacity: 0.7; stroke-width: 0.3"/>
     <use xlink:href="#mfb53ceef89" x="454.113769" y="389.651754" style="fill: #de8f05; fill-opacity: 0.7; stroke: #000000; stroke-opacity: 0.7; stroke-width: 0.3"/>
     <use xlink:href="#mfb53ceef89" x="450.651389" y="282.82471" style="fill: #de8f05; fill-opacity: 0.7; stroke: #000000; stroke-opacity: 0.7; stroke-width: 0.3"/>
     <use xlink:href="#mfb53ceef89" x="458.288609" y="357.244721" style="fill: #de8f05; fill-opacity: 0.7; stroke: #000000; stroke-opacity: 0.7; stroke-width: 0.3"/>
     <use xlink:href="#mfb53ceef89" x="451.502624" y="358.693727" style="fill: #de8f05; fill-opacity: 0.7; stroke: #000000; stroke-opacity: 0.7; stroke-width: 0.3"/>
     <use xlink:href="#mfb53ceef89" x="461.401749" y="408.822845" style="fill: #de8f05; fill-opacity: 0.7; stroke: #000000; stroke-opacity: 0.7; stroke-width: 0.3"/>
     <use xlink:href="#mfb53ceef89" x="451.82989" y="347.432672" style="fill: #de8f05; fill-opacity: 0.7; stroke: #000000; stroke-opacity: 0.7; stroke-width: 0.3"/>
     <use xlink:href="#mfb53ceef89" x="448.598894" y="264.635569" style="fill: #de8f05; fill-opacity: 0.7; stroke: #000000; stroke-opacity: 0.7; stroke-width: 0.3"/>
     <use xlink:href="#mfb53ceef89" x="454.576237" y="418.092772" style="fill: #de8f05; fill-opacity: 0.7; stroke: #000000; stroke-opacity: 0.7; stroke-width: 0.3"/>
     <use xlink:href="#mfb53ceef89" x="449.821913" y="391.327174" style="fill: #de8f05; fill-opacity: 0.7; stroke: #000000; stroke-opacity: 0.7; stroke-width: 0.3"/>
     <use xlink:href="#mfb53ceef89" x="479.484906" y="343.080297" style="fill: #de8f05; fill-opacity: 0.7; stroke: #000000; stroke-opacity: 0.7; stroke-width: 0.3"/>
     <use xlink:href="#mfb53ceef89" x="457.605532" y="418.269403" style="fill: #de8f05; fill-opacity: 0.7; stroke: #000000; stroke-opacity: 0.7; stroke-width: 0.3"/>
     <use xlink:href="#mfb53ceef89" x="458.533624" y="312.351382" style="fill: #de8f05; fill-opacity: 0.7; stroke: #000000; stroke-opacity: 0.7; stroke-width: 0.3"/>
     <use xlink:href="#mfb53ceef89" x="451.382751" y="333.251617" style="fill: #de8f05; fill-opacity: 0.7; stroke: #000000; stroke-opacity: 0.7; stroke-width: 0.3"/>
     <use xlink:href="#mfb53ceef89" x="452.523009" y="376.112565" style="fill: #de8f05; fill-opacity: 0.7; stroke: #000000; stroke-opacity: 0.7; stroke-width: 0.3"/>
     <use xlink:href="#mfb53ceef89" x="462.386552" y="393.466587" style="fill: #de8f05; fill-opacity: 0.7; stroke: #000000; stroke-opacity: 0.7; stroke-width: 0.3"/>
     <use xlink:href="#mfb53ceef89" x="457.567399" y="301.707888" style="fill: #de8f05; fill-opacity: 0.7; stroke: #000000; stroke-opacity: 0.7; stroke-width: 0.3"/>
     <use xlink:href="#mfb53ceef89" x="458.814506" y="290.864229" style="fill: #de8f05; fill-opacity: 0.7; stroke: #000000; stroke-opacity: 0.7; stroke-width: 0.3"/>
     <use xlink:href="#mfb53ceef89" x="448.543161" y="294.927175" style="fill: #de8f05; fill-opacity: 0.7; stroke: #000000; stroke-opacity: 0.7; stroke-width: 0.3"/>
     <use xlink:href="#mfb53ceef89" x="450.039504" y="399.248019" style="fill: #de8f05; fill-opacity: 0.7; stroke: #000000; stroke-opacity: 0.7; stroke-width: 0.3"/>
     <use xlink:href="#mfb53ceef89" x="450.614296" y="250.66287" style="fill: #de8f05; fill-opacity: 0.7; stroke: #000000; stroke-opacity: 0.7; stroke-width: 0.3"/>
     <use xlink:href="#mfb53ceef89" x="448.340113" y="300.56481" style="fill: #de8f05; fill-opacity: 0.7; stroke: #000000; stroke-opacity: 0.7; stroke-width: 0.3"/>
     <use xlink:href="#mfb53ceef89" x="450.433469" y="405.937897" style="fill: #de8f05; fill-opacity: 0.7; stroke: #000000; stroke-opacity: 0.7; stroke-width: 0.3"/>
     <use xlink:href="#mfb53ceef89" x="450.352103" y="317.568561" style="fill: #de8f05; fill-opacity: 0.7; stroke: #000000; stroke-opacity: 0.7; stroke-width: 0.3"/>
     <use xlink:href="#mfb53ceef89" x="449.441753" y="403.05948" style="fill: #de8f05; fill-opacity: 0.7; stroke: #000000; stroke-opacity: 0.7; stroke-width: 0.3"/>
     <use xlink:href="#mfb53ceef89" x="469.839705" y="429.890198" style="fill: #de8f05; fill-opacity: 0.7; stroke: #000000; stroke-opacity: 0.7; stroke-width: 0.3"/>
     <use xlink:href="#mfb53ceef89" x="441.189134" y="291.633981" style="fill: #de8f05; fill-opacity: 0.7; stroke: #000000; stroke-opacity: 0.7; stroke-width: 0.3"/>
     <use xlink:href="#mfb53ceef89" x="456.460591" y="368.310101" style="fill: #de8f05; fill-opacity: 0.7; stroke: #000000; stroke-opacity: 0.7; stroke-width: 0.3"/>
     <use xlink:href="#mfb53ceef89" x="484.665152" y="350.326547" style="fill: #de8f05; fill-opacity: 0.7; stroke: #000000; stroke-opacity: 0.7; stroke-width: 0.3"/>
     <use xlink:href="#mfb53ceef89" x="460.278435" y="423.262208" style="fill: #de8f05; fill-opacity: 0.7; stroke: #000000; stroke-opacity: 0.7; stroke-width: 0.3"/>
     <use xlink:href="#mfb53ceef89" x="450.903167" y="384.206013" style="fill: #de8f05; fill-opacity: 0.7; stroke: #000000; stroke-opacity: 0.7; stroke-width: 0.3"/>
    </g>
   </g>
   <g id="PathCollection_4">
    <path d="M 90.832568 56.100438 
L 86.649268 64.467038 
L 95.015868 64.467038 
L 90.832568 56.100438 
z
" clip-path="url(#p7f6fbfba33)" style="fill: none; stroke: #de8f05; stroke-opacity: 0.999; stroke-width: 1.2"/>
    <path d="M 469.420191 367.536672 
L 465.236891 375.903272 
L 473.603491 375.903272 
L 469.420191 367.536672 
z
" clip-path="url(#p7f6fbfba33)" style="fill: none; stroke: #de8f05; stroke-opacity: 0.999; stroke-width: 1.2"/>
    <path d="M 453.360621 365.993033 
L 449.17732 374.359633 
L 457.543921 374.359633 
L 453.360621 365.993033 
z
" clip-path="url(#p7f6fbfba33)" style="fill: none; stroke: #de8f05; stroke-opacity: 0.999; stroke-width: 1.2"/>
    <path d="M 449.47467 284.98406 
L 445.29137 293.35066 
L 453.65797 293.35066 
L 449.47467 284.98406 
z
" clip-path="url(#p7f6fbfba33)" style="fill: none; stroke: #de8f05; stroke-opacity: 0.999; stroke-width: 1.2"/>
    <path d="M 457.489094 336.062205 
L 453.305794 344.428806 
L 461.672394 344.428806 
L 457.489094 336.062205 
z
" clip-path="url(#p7f6fbfba33)" style="fill: none; stroke: #de8f05; stroke-opacity: 0.999; stroke-width: 1.2"/>
    <path d="M 415.702265 48.520244 
L 411.518965 56.886844 
L 419.885565 56.886844 
L 415.702265 48.520244 
z
" clip-path="url(#p7f6fbfba33)" style="fill: none; stroke: #de8f05; stroke-opacity: 0.999; stroke-width: 1.2"/>
    <path d="M 88.248386 47.821113 
L 84.065086 56.187713 
L 92.431686 56.187713 
L 88.248386 47.821113 
z
" clip-path="url(#p7f6fbfba33)" style="fill: none; stroke: #de8f05; stroke-opacity: 0.999; stroke-width: 1.2"/>
    <path d="M 450.904367 330.854096 
L 446.721067 339.220696 
L 455.087667 339.220696 
L 450.904367 330.854096 
z
" clip-path="url(#p7f6fbfba33)" style="fill: none; stroke: #de8f05; stroke-opacity: 0.999; stroke-width: 1.2"/>
    <path d="M 462.003988 399.463755 
L 457.820688 407.830355 
L 466.187288 407.830355 
L 462.003988 399.463755 
z
" clip-path="url(#p7f6fbfba33)" style="fill: none; stroke: #de8f05; stroke-opacity: 0.999; stroke-width: 1.2"/>
    <path d="M 398.775436 30.542681 
L 394.592136 38.909281 
L 402.958736 38.909281 
L 398.775436 30.542681 
z
" clip-path="url(#p7f6fbfba33)" style="fill: none; stroke: #de8f05; stroke-opacity: 0.999; stroke-width: 1.2"/>
    <path d="M 459.215078 327.690713 
L 455.031778 336.057314 
L 463.398379 336.057314 
L 459.215078 327.690713 
z
" clip-path="url(#p7f6fbfba33)" style="fill: none; stroke: #de8f05; stroke-opacity: 0.999; stroke-width: 1.2"/>
    <path d="M 396.819424 24.646417 
L 392.636124 33.013018 
L 401.002724 33.013018 
L 396.819424 24.646417 
z
" clip-path="url(#p7f6fbfba33)" style="fill: none; stroke: #de8f05; stroke-opacity: 0.999; stroke-width: 1.2"/>
    <path d="M 217.502267 85.761549 
L 213.318966 94.128149 
L 221.685567 94.128149 
L 217.502267 85.761549 
z
" clip-path="url(#p7f6fbfba33)" style="fill: none; stroke: #de8f05; stroke-opacity: 0.999; stroke-width: 1.2"/>
    <path d="M 399.18065 31.898756 
L 394.99735 40.265356 
L 403.36395 40.265356 
L 399.18065 31.898756 
z
" clip-path="url(#p7f6fbfba33)" style="fill: none; stroke: #de8f05; stroke-opacity: 0.999; stroke-width: 1.2"/>
    <path d="M 460.921268 381.845887 
L 456.737968 390.212487 
L 465.104568 390.212487 
L 460.921268 381.845887 
z
" clip-path="url(#p7f6fbfba33)" style="fill: none; stroke: #de8f05; stroke-opacity: 0.999; stroke-width: 1.2"/>
    <path d="M 231.94746 92.698372 
L 227.76416 101.064972 
L 236.130761 101.064972 
L 231.94746 92.698372 
z
" clip-path="url(#p7f6fbfba33)" style="fill: none; stroke: #de8f05; stroke-opacity: 0.999; stroke-width: 1.2"/>
    <path d="M 225.99991 80.993775 
L 221.81661 89.360375 
L 230.18321 89.360375 
L 225.99991 80.993775 
z
" clip-path="url(#p7f6fbfba33)" style="fill: none; stroke: #de8f05; stroke-opacity: 0.999; stroke-width: 1.2"/>
    <path d="M 151.301927 70.342121 
L 147.118626 78.708721 
L 155.485227 78.708721 
L 151.301927 70.342121 
z
" clip-path="url(#p7f6fbfba33)" style="fill: none; stroke: #de8f05; stroke-opacity: 0.999; stroke-width: 1.2"/>
    <path d="M 243.377645 84.068274 
L 239.194344 92.434874 
L 247.560945 92.434874 
L 243.377645 84.068274 
z
" clip-path="url(#p7f6fbfba33)" style="fill: none; stroke: #de8f05; stroke-opacity: 0.999; stroke-width: 1.2"/>
    <path d="M 462.378367 397.171706 
L 458.195067 405.538307 
L 466.561667 405.538307 
L 462.378367 397.171706 
z
" clip-path="url(#p7f6fbfba33)" style="fill: none; stroke: #de8f05; stroke-opacity: 0.999; stroke-width: 1.2"/>
    <path d="M 449.654012 303.370579 
L 445.470712 311.73718 
L 453.837312 311.73718 
L 449.654012 303.370579 
z
" clip-path="url(#p7f6fbfba33)" style="fill: none; stroke: #de8f05; stroke-opacity: 0.999; stroke-width: 1.2"/>
    <path d="M 458.779697 331.632199 
L 454.596396 339.998799 
L 462.962997 339.998799 
L 458.779697 331.632199 
z
" clip-path="url(#p7f6fbfba33)" style="fill: none; stroke: #de8f05; stroke-opacity: 0.999; stroke-width: 1.2"/>
    <path d="M 459.601108 290.99094 
L 455.417808 299.35754 
L 463.784408 299.35754 
L 459.601108 290.99094 
z
" clip-path="url(#p7f6fbfba33)" style="fill: none; stroke: #de8f05; stroke-opacity: 0.999; stroke-width: 1.2"/>
    <path d="M 230.545068 91.898608 
L 226.361767 100.265208 
L 234.728368 100.265208 
L 230.545068 91.898608 
z
" clip-path="url(#p7f6fbfba33)" style="fill: none; stroke: #de8f05; stroke-opacity: 0.999; stroke-width: 1.2"/>
    <path d="M 110.108592 59.061597 
L 105.925292 67.428197 
L 114.291892 67.428197 
L 110.108592 59.061597 
z
" clip-path="url(#p7f6fbfba33)" style="fill: none; stroke: #de8f05; stroke-opacity: 0.999; stroke-width: 1.2"/>
    <path d="M 451.744343 409.796911 
L 447.561042 418.163512 
L 455.927643 418.163512 
L 451.744343 409.796911 
z
" clip-path="url(#p7f6fbfba33)" style="fill: none; stroke: #de8f05; stroke-opacity: 0.999; stroke-width: 1.2"/>
    <path d="M 289.847646 77.95995 
L 285.664346 86.32655 
L 294.030946 86.32655 
L 289.847646 77.95995 
z
" clip-path="url(#p7f6fbfba33)" style="fill: none; stroke: #de8f05; stroke-opacity: 0.999; stroke-width: 1.2"/>
    <path d="M 237.413476 81.560437 
L 233.230176 89.927038 
L 241.596776 89.927038 
L 237.413476 81.560437 
z
" clip-path="url(#p7f6fbfba33)" style="fill: none; stroke: #de8f05; stroke-opacity: 0.999; stroke-width: 1.2"/>
   </g>
   <g id="PathCollection_5">
    <defs>
     <path id="mb483c1c9c1" d="M 0 3.872983 
C 1.027127 3.872983 2.012324 3.464901 2.738613 2.738613 
C 3.464901 2.012324 3.872983 1.027127 3.872983 0 
C 3.872983 -1.027127 3.464901 -2.012324 2.738613 -2.738613 
C 2.012324 -3.464901 1.027127 -3.872983 0 -3.872983 
C -1.027127 -3.872983 -2.012324 -3.464901 -2.738613 -2.738613 
C -3.464901 -2.012324 -3.872983 -1.027127 -3.872983 0 
C -3.872983 1.027127 -3.464901 2.012324 -2.738613 2.738613 
C -2.012324 3.464901 -1.027127 3.872983 0 3.872983 
z
" style="stroke: #000000; stroke-opacity: 0.7; stroke-width: 0.3"/>
    </defs>
    <g clip-path="url(#p7f6fbfba33)">
     <use xlink:href="#mb483c1c9c1" x="175.530545" y="70.17135" style="fill: #029e73; fill-opacity: 0.7; stroke: #000000; stroke-opacity: 0.7; stroke-width: 0.3"/>
     <use xlink:href="#mb483c1c9c1" x="233.814965" y="97.80114" style="fill: #029e73; fill-opacity: 0.7; stroke: #000000; stroke-opacity: 0.7; stroke-width: 0.3"/>
     <use xlink:href="#mb483c1c9c1" x="119.914855" y="66.117616" style="fill: #029e73; fill-opacity: 0.7; stroke: #000000; stroke-opacity: 0.7; stroke-width: 0.3"/>
     <use xlink:href="#mb483c1c9c1" x="159.516582" y="75.18784" style="fill: #029e73; fill-opacity: 0.7; stroke: #000000; stroke-opacity: 0.7; stroke-width: 0.3"/>
     <use xlink:href="#mb483c1c9c1" x="230.914861" y="85.668556" style="fill: #029e73; fill-opacity: 0.7; stroke: #000000; stroke-opacity: 0.7; stroke-width: 0.3"/>
     <use xlink:href="#mb483c1c9c1" x="201.692911" y="76.826033" style="fill: #029e73; fill-opacity: 0.7; stroke: #000000; stroke-opacity: 0.7; stroke-width: 0.3"/>
     <use xlink:href="#mb483c1c9c1" x="243.505898" y="99.893014" style="fill: #029e73; fill-opacity: 0.7; stroke: #000000; stroke-opacity: 0.7; stroke-width: 0.3"/>
     <use xlink:href="#mb483c1c9c1" x="166.495559" y="68.418849" style="fill: #029e73; fill-opacity: 0.7; stroke: #000000; stroke-opacity: 0.7; stroke-width: 0.3"/>
     <use xlink:href="#mb483c1c9c1" x="89.517158" y="59.736896" style="fill: #029e73; fill-opacity: 0.7; stroke: #000000; stroke-opacity: 0.7; stroke-width: 0.3"/>
     <use xlink:href="#mb483c1c9c1" x="284.223065" y="110.159424" style="fill: #029e73; fill-opacity: 0.7; stroke: #000000; stroke-opacity: 0.7; stroke-width: 0.3"/>
     <use xlink:href="#mb483c1c9c1" x="119.935419" y="56.689116" style="fill: #029e73; fill-opacity: 0.7; stroke: #000000; stroke-opacity: 0.7; stroke-width: 0.3"/>
     <use xlink:href="#mb483c1c9c1" x="197.858103" y="75.835191" style="fill: #029e73; fill-opacity: 0.7; stroke: #000000; stroke-opacity: 0.7; stroke-width: 0.3"/>
     <use xlink:href="#mb483c1c9c1" x="104.388203" y="55.887932" style="fill: #029e73; fill-opacity: 0.7; stroke: #000000; stroke-opacity: 0.7; stroke-width: 0.3"/>
     <use xlink:href="#mb483c1c9c1" x="245.467051" y="99.150648" style="fill: #029e73; fill-opacity: 0.7; stroke: #000000; stroke-opacity: 0.7; stroke-width: 0.3"/>
     <use xlink:href="#mb483c1c9c1" x="192.00484" y="80.370268" style="fill: #029e73; fill-opacity: 0.7; stroke: #000000; stroke-opacity: 0.7; stroke-width: 0.3"/>
     <use xlink:href="#mb483c1c9c1" x="179.113202" y="80.170866" style="fill: #029e73; fill-opacity: 0.7; stroke: #000000; stroke-opacity: 0.7; stroke-width: 0.3"/>
     <use xlink:href="#mb483c1c9c1" x="175.010016" y="70.019212" style="fill: #029e73; fill-opacity: 0.7; stroke: #000000; stroke-opacity: 0.7; stroke-width: 0.3"/>
     <use xlink:href="#mb483c1c9c1" x="91.920514" y="51.232682" style="fill: #029e73; fill-opacity: 0.7; stroke: #000000; stroke-opacity: 0.7; stroke-width: 0.3"/>
     <use xlink:href="#mb483c1c9c1" x="110.980359" y="55.526178" style="fill: #029e73; fill-opacity: 0.7; stroke: #000000; stroke-opacity: 0.7; stroke-width: 0.3"/>
     <use xlink:href="#mb483c1c9c1" x="271.086989" y="99.167256" style="fill: #029e73; fill-opacity: 0.7; stroke: #000000; stroke-opacity: 0.7; stroke-width: 0.3"/>
     <use xlink:href="#mb483c1c9c1" x="212.151458" y="89.93255" style="fill: #029e73; fill-opacity: 0.7; stroke: #000000; stroke-opacity: 0.7; stroke-width: 0.3"/>
     <use xlink:href="#mb483c1c9c1" x="240.139419" y="86.790616" style="fill: #029e73; fill-opacity: 0.7; stroke: #000000; stroke-opacity: 0.7; stroke-width: 0.3"/>
     <use xlink:href="#mb483c1c9c1" x="254.865752" y="102.244196" style="fill: #029e73; fill-opacity: 0.7; stroke: #000000; stroke-opacity: 0.7; stroke-width: 0.3"/>
     <use xlink:href="#mb483c1c9c1" x="192.384071" y="84.323689" style="fill: #029e73; fill-opacity: 0.7; stroke: #000000; stroke-opacity: 0.7; stroke-width: 0.3"/>
     <use xlink:href="#mb483c1c9c1" x="250.517382" y="90.960805" style="fill: #029e73; fill-opacity: 0.7; stroke: #000000; stroke-opacity: 0.7; stroke-width: 0.3"/>
     <use xlink:href="#mb483c1c9c1" x="79.155511" y="52.647593" style="fill: #029e73; fill-opacity: 0.7; stroke: #000000; stroke-opacity: 0.7; stroke-width: 0.3"/>
     <use xlink:href="#mb483c1c9c1" x="272.411446" y="99.797165" style="fill: #029e73; fill-opacity: 0.7; stroke: #000000; stroke-opacity: 0.7; stroke-width: 0.3"/>
    </g>
   </g>
   <g id="PathCollection_6">
    <path d="M 171.966249 75.578494 
L 167.782948 83.945094 
L 176.149549 83.945094 
L 171.966249 75.578494 
z
" clip-path="url(#p7f6fbfba33)" style="fill: none; stroke: #029e73; stroke-opacity: 0.999; stroke-width: 1.2"/>
    <path d="M 280.319305 102.072629 
L 276.136005 110.439229 
L 284.502605 110.439229 
L 280.319305 102.072629 
z
" clip-path="url(#p7f6fbfba33)" style="fill: none; stroke: #029e73; stroke-opacity: 0.999; stroke-width: 1.2"/>
    <path d="M 200.180145 83.046466 
L 195.996845 91.413066 
L 204.363445 91.413066 
L 200.180145 83.046466 
z
" clip-path="url(#p7f6fbfba33)" style="fill: none; stroke: #029e73; stroke-opacity: 0.999; stroke-width: 1.2"/>
    <path d="M 458.60745 312.379288 
L 454.42415 320.745888 
L 462.79075 320.745888 
L 458.60745 312.379288 
z
" clip-path="url(#p7f6fbfba33)" style="fill: none; stroke: #029e73; stroke-opacity: 0.999; stroke-width: 1.2"/>
    <path d="M 123.866861 63.144829 
L 119.683561 71.511429 
L 128.050161 71.511429 
L 123.866861 63.144829 
z
" clip-path="url(#p7f6fbfba33)" style="fill: none; stroke: #029e73; stroke-opacity: 0.999; stroke-width: 1.2"/>
    <path d="M 124.341038 52.853283 
L 120.157738 61.219883 
L 128.524338 61.219883 
L 124.341038 52.853283 
z
" clip-path="url(#p7f6fbfba33)" style="fill: none; stroke: #029e73; stroke-opacity: 0.999; stroke-width: 1.2"/>
    <path d="M 155.379946 59.810858 
L 151.196646 68.177458 
L 159.563246 68.177458 
L 155.379946 59.810858 
z
" clip-path="url(#p7f6fbfba33)" style="fill: none; stroke: #029e73; stroke-opacity: 0.999; stroke-width: 1.2"/>
    <path d="M 455.084286 317.797413 
L 450.900985 326.164013 
L 459.267586 326.164013 
L 455.084286 317.797413 
z
" clip-path="url(#p7f6fbfba33)" style="fill: none; stroke: #029e73; stroke-opacity: 0.999; stroke-width: 1.2"/>
    <path d="M 272.870391 104.103196 
L 268.687091 112.469796 
L 277.053691 112.469796 
L 272.870391 104.103196 
z
" clip-path="url(#p7f6fbfba33)" style="fill: none; stroke: #029e73; stroke-opacity: 0.999; stroke-width: 1.2"/>
    <path d="M 280.676764 103.829092 
L 276.493464 112.195692 
L 284.860064 112.195692 
L 280.676764 103.829092 
z
" clip-path="url(#p7f6fbfba33)" style="fill: none; stroke: #029e73; stroke-opacity: 0.999; stroke-width: 1.2"/>
    <path d="M 453.848532 269.275792 
L 449.665232 277.642392 
L 458.031832 277.642392 
L 453.848532 269.275792 
z
" clip-path="url(#p7f6fbfba33)" style="fill: none; stroke: #029e73; stroke-opacity: 0.999; stroke-width: 1.2"/>
    <path d="M 149.041256 69.435681 
L 144.857956 77.802281 
L 153.224556 77.802281 
L 149.041256 69.435681 
z
" clip-path="url(#p7f6fbfba33)" style="fill: none; stroke: #029e73; stroke-opacity: 0.999; stroke-width: 1.2"/>
    <path d="M 457.367853 281.292311 
L 453.184553 289.658911 
L 461.551153 289.658911 
L 457.367853 281.292311 
z
" clip-path="url(#p7f6fbfba33)" style="fill: none; stroke: #029e73; stroke-opacity: 0.999; stroke-width: 1.2"/>
    <path d="M 131.732055 59.116084 
L 127.548755 67.482684 
L 135.915356 67.482684 
L 131.732055 59.116084 
z
" clip-path="url(#p7f6fbfba33)" style="fill: none; stroke: #029e73; stroke-opacity: 0.999; stroke-width: 1.2"/>
    <path d="M 209.432163 76.107917 
L 205.248862 84.474517 
L 213.615463 84.474517 
L 209.432163 76.107917 
z
" clip-path="url(#p7f6fbfba33)" style="fill: none; stroke: #029e73; stroke-opacity: 0.999; stroke-width: 1.2"/>
    <path d="M 147.186103 59.792897 
L 143.002803 68.159497 
L 151.369404 68.159497 
L 147.186103 59.792897 
z
" clip-path="url(#p7f6fbfba33)" style="fill: none; stroke: #029e73; stroke-opacity: 0.999; stroke-width: 1.2"/>
    <path d="M 167.97699 74.266559 
L 163.79369 82.633159 
L 172.16029 82.633159 
L 167.97699 74.266559 
z
" clip-path="url(#p7f6fbfba33)" style="fill: none; stroke: #029e73; stroke-opacity: 0.999; stroke-width: 1.2"/>
    <path d="M 124.885224 53.006424 
L 120.701924 61.373024 
L 129.068524 61.373024 
L 124.885224 53.006424 
z
" clip-path="url(#p7f6fbfba33)" style="fill: none; stroke: #029e73; stroke-opacity: 0.999; stroke-width: 1.2"/>
    <path d="M 459.485381 293.118471 
L 455.302081 301.485071 
L 463.668681 301.485071 
L 459.485381 293.118471 
z
" clip-path="url(#p7f6fbfba33)" style="fill: none; stroke: #029e73; stroke-opacity: 0.999; stroke-width: 1.2"/>
    <path d="M 450.621348 250.00744 
L 446.438047 258.374041 
L 454.804648 258.374041 
L 450.621348 250.00744 
z
" clip-path="url(#p7f6fbfba33)" style="fill: none; stroke: #029e73; stroke-opacity: 0.999; stroke-width: 1.2"/>
    <path d="M 185.670913 70.600128 
L 181.487613 78.966728 
L 189.854214 78.966728 
L 185.670913 70.600128 
z
" clip-path="url(#p7f6fbfba33)" style="fill: none; stroke: #029e73; stroke-opacity: 0.999; stroke-width: 1.2"/>
    <path d="M 262.188556 93.414901 
L 258.005256 101.781501 
L 266.371856 101.781501 
L 262.188556 93.414901 
z
" clip-path="url(#p7f6fbfba33)" style="fill: none; stroke: #029e73; stroke-opacity: 0.999; stroke-width: 1.2"/>
    <path d="M 280.727996 104.006237 
L 276.544696 112.372838 
L 284.911296 112.372838 
L 280.727996 104.006237 
z
" clip-path="url(#p7f6fbfba33)" style="fill: none; stroke: #029e73; stroke-opacity: 0.999; stroke-width: 1.2"/>
    <path d="M 213.410242 77.531901 
L 209.226942 85.898501 
L 217.593542 85.898501 
L 213.410242 77.531901 
z
" clip-path="url(#p7f6fbfba33)" style="fill: none; stroke: #029e73; stroke-opacity: 0.999; stroke-width: 1.2"/>
    <path d="M 266.349195 102.398824 
L 262.165895 110.765424 
L 270.532495 110.765424 
L 266.349195 102.398824 
z
" clip-path="url(#p7f6fbfba33)" style="fill: none; stroke: #029e73; stroke-opacity: 0.999; stroke-width: 1.2"/>
    <path d="M 449.900116 263.870588 
L 445.716816 272.237188 
L 454.083416 272.237188 
L 449.900116 263.870588 
z
" clip-path="url(#p7f6fbfba33)" style="fill: none; stroke: #029e73; stroke-opacity: 0.999; stroke-width: 1.2"/>
    <path d="M 450.585134 249.9678 
L 446.401834 258.3344 
L 454.768434 258.3344 
L 450.585134 249.9678 
z
" clip-path="url(#p7f6fbfba33)" style="fill: none; stroke: #029e73; stroke-opacity: 0.999; stroke-width: 1.2"/>
    <path d="M 450.683275 248.450676 
L 446.499974 256.817277 
L 454.866575 256.817277 
L 450.683275 248.450676 
z
" clip-path="url(#p7f6fbfba33)" style="fill: none; stroke: #029e73; stroke-opacity: 0.999; stroke-width: 1.2"/>
    <path d="M 98.120234 48.196684 
L 93.936933 56.563284 
L 102.303534 56.563284 
L 98.120234 48.196684 
z
" clip-path="url(#p7f6fbfba33)" style="fill: none; stroke: #029e73; stroke-opacity: 0.999; stroke-width: 1.2"/>
    <path d="M 123.150948 63.210036 
L 118.967648 71.576636 
L 127.334248 71.576636 
L 123.150948 63.210036 
z
" clip-path="url(#p7f6fbfba33)" style="fill: none; stroke: #029e73; stroke-opacity: 0.999; stroke-width: 1.2"/>
    <path d="M 157.383027 60.744666 
L 153.199726 69.111267 
L 161.566327 69.111267 
L 157.383027 60.744666 
z
" clip-path="url(#p7f6fbfba33)" style="fill: none; stroke: #029e73; stroke-opacity: 0.999; stroke-width: 1.2"/>
    <path d="M 147.009507 59.88982 
L 142.826207 68.256421 
L 151.192807 68.256421 
L 147.009507 59.88982 
z
" clip-path="url(#p7f6fbfba33)" style="fill: none; stroke: #029e73; stroke-opacity: 0.999; stroke-width: 1.2"/>
    <path d="M 200.935319 83.173716 
L 196.752019 91.540317 
L 205.118619 91.540317 
L 200.935319 83.173716 
z
" clip-path="url(#p7f6fbfba33)" style="fill: none; stroke: #029e73; stroke-opacity: 0.999; stroke-width: 1.2"/>
    <path d="M 259.83573 90.115083 
L 255.65243 98.481683 
L 264.01903 98.481683 
L 259.83573 90.115083 
z
" clip-path="url(#p7f6fbfba33)" style="fill: none; stroke: #029e73; stroke-opacity: 0.999; stroke-width: 1.2"/>
   </g>
   <g id="patch_3">
    <path d="M 53.791875 450.72 
L 53.791875 7.2 
" style="fill: none; stroke: #262626; stroke-width: 1.25; stroke-linejoin: miter; stroke-linecap: square"/>
   </g>
   <g id="patch_4">
    <path d="M 611.791875 450.72 
L 611.791875 7.2 
" style="fill: none; stroke: #262626; stroke-width: 1.25; stroke-linejoin: miter; stroke-linecap: square"/>
   </g>
   <g id="patch_5">
    <path d="M 53.791875 450.72 
L 611.791875 450.72 
" style="fill: none; stroke: #262626; stroke-width: 1.25; stroke-linejoin: miter; stroke-linecap: square"/>
   </g>
   <g id="patch_6">
    <path d="M 53.791875 7.2 
L 611.791875 7.2 
" style="fill: none; stroke: #262626; stroke-width: 1.25; stroke-linejoin: miter; stroke-linecap: square"/>
   </g>
   <g id="legend_1">
    <g id="patch_7">
     <path d="M 218.191875 104.775 
L 599.791875 104.775 
L 599.791875 19.2 
L 218.191875 19.2 
z
" style="fill: #ffffff; opacity: 0.8; stroke: #000000; stroke-linejoin: miter"/>
    </g>
    <g id="line2d_12">
     <defs>
      <path id="meb89bb99fd" d="M 0 4 
C 1.060812 4 2.078319 3.578535 2.828427 2.828427 
C 3.578535 2.078319 4 1.060812 4 0 
C 4 -1.060812 3.578535 -2.078319 2.828427 -2.828427 
C 2.078319 -3.578535 1.060812 -4 0 -4 
C -1.060812 -4 -2.078319 -3.578535 -2.828427 -2.828427 
C -3.578535 -2.078319 -4 -1.060812 -4 0 
C -4 1.060812 -3.578535 2.078319 -2.828427 2.828427 
C -2.078319 3.578535 -1.060812 4 0 4 
z
" style="stroke: #000000; stroke-opacity: 0.9; stroke-width: 0.3"/>
     </defs>
     <g>
      <use xlink:href="#meb89bb99fd" x="246.991875" y="34.63125" style="fill: #0173b2; fill-opacity: 0.9; stroke: #000000; stroke-opacity: 0.9; stroke-width: 0.3"/>
     </g>
    </g>
    <g id="text_14">
     <!-- 源域：消极 -->
     <g style="fill: #262626" transform="translate(273.391875 43.03125) scale(0.24 -0.24)">
      <defs>
       <path id="SimSun-6e90" d="M 3575 3525 
L 3575 2800 
L 5225 2800 
L 5225 3525 
L 3575 3525 
z
M 3575 2650 
L 3575 1900 
L 5225 1900 
L 5225 2650 
L 3575 2650 
z
M 3375 1325 
L 3825 975 
Q 3550 850 3250 500 
Q 2925 150 2275 -325 
L 2225 -250 
Q 3125 625 3375 1325 
z
M 4800 1150 
L 4850 1225 
Q 5675 700 5812 525 
Q 5950 350 5950 200 
Q 5950 75 5875 -87 
Q 5800 -250 5750 -250 
Q 5675 -250 5550 50 
Q 5375 475 4800 1150 
z
M 3225 1475 
Q 3250 2125 3250 2700 
Q 3250 3275 3225 3875 
L 3575 3675 
L 3925 3675 
Q 4175 4250 4225 4550 
L 2700 4550 
Q 2700 3525 2687 2575 
Q 2675 1625 2325 875 
Q 1975 125 1275 -550 
L 1225 -475 
Q 1850 300 2100 1112 
Q 2350 1925 2350 3112 
Q 2350 4300 2325 4950 
L 2700 4700 
L 5300 4700 
L 5650 5050 
L 6125 4550 
L 4350 4550 
L 4750 4325 
Q 4550 4250 4437 4137 
Q 4325 4025 4075 3675 
L 5200 3675 
L 5375 3925 
L 5750 3600 
L 5550 3425 
Q 5550 1875 5575 1675 
L 5225 1500 
L 5225 1750 
L 4575 1750 
L 4575 100 
Q 4600 -400 4050 -550 
Q 4025 -200 3450 -75 
L 3450 25 
Q 3775 0 4000 -12 
Q 4225 -25 4225 175 
L 4225 1750 
L 3575 1750 
L 3575 1625 
L 3225 1475 
z
M 2150 4250 
Q 1375 1525 1312 1200 
Q 1250 875 1237 425 
Q 1225 -25 1250 -200 
Q 1250 -300 1150 -300 
Q 1075 -300 912 -237 
Q 750 -175 750 25 
Q 750 200 800 375 
Q 875 625 875 775 
Q 875 925 762 1025 
Q 650 1125 275 1225 
L 275 1325 
Q 725 1275 837 1287 
Q 950 1300 1087 1512 
Q 1225 1725 2050 4275 
L 2150 4250 
z
M 275 3575 
Q 1150 3175 1150 2925 
Q 1150 2675 1050 2562 
Q 950 2450 900 2450 
Q 825 2450 750 2700 
Q 625 3025 225 3500 
L 275 3575 
z
M 825 5025 
Q 1550 4725 1625 4512 
Q 1700 4300 1587 4137 
Q 1475 3975 1425 3975 
Q 1325 3975 1275 4175 
Q 1150 4500 775 4950 
L 825 5025 
z
" transform="scale(0.015625)"/>
       <path id="SimSun-57df" d="M 2500 1375 
Q 2525 1825 2525 2350 
Q 2525 2875 2500 3275 
L 2825 3075 
L 3425 3075 
L 3600 3300 
L 3950 3000 
L 3750 2850 
L 3750 2075 
Q 3750 1925 3775 1600 
L 3450 1450 
L 3450 1700 
L 2825 1700 
L 2825 1500 
L 2500 1375 
z
M 2825 2925 
L 2825 1850 
L 3450 1850 
L 3450 2925 
L 2825 2925 
z
M 1850 625 
Q 2275 625 3975 1075 
L 4000 975 
Q 2325 425 2100 175 
L 1850 625 
z
M 4125 4625 
Q 4125 4900 4100 5250 
L 4625 4950 
L 4450 4775 
L 4450 3925 
L 5325 3925 
L 5650 4250 
L 6125 3775 
L 4450 3775 
Q 4450 2575 4650 1525 
Q 4825 1850 5012 2400 
Q 5200 2950 5250 3275 
L 5725 2875 
Q 5550 2800 5325 2200 
Q 5075 1600 4825 1100 
Q 5125 525 5675 125 
Q 5800 525 5975 1200 
L 6075 1175 
Q 6000 600 5987 212 
Q 5975 -175 6050 -425 
Q 6075 -525 6000 -525 
Q 5900 -525 5512 -300 
Q 5125 -75 4575 800 
Q 3750 -175 2700 -625 
L 2650 -550 
Q 3825 200 4400 1125 
Q 4125 2200 4125 3775 
L 2875 3775 
Q 2550 3775 2275 3700 
L 2050 3925 
L 4125 3925 
L 4125 4625 
z
M 4800 5050 
L 4850 5125 
Q 5375 4925 5525 4800 
Q 5675 4675 5675 4550 
Q 5675 4450 5612 4325 
Q 5550 4200 5525 4200 
Q 5450 4200 5375 4375 
Q 5225 4650 4800 5050 
z
M 275 3350 
L 1200 3350 
L 1200 4275 
Q 1200 4575 1175 5125 
L 1750 4850 
L 1550 4675 
L 1550 3350 
L 1725 3350 
L 2000 3625 
L 2425 3200 
L 1550 3200 
L 1550 1250 
L 2350 1450 
L 2375 1350 
Q 675 725 550 500 
L 275 975 
Q 700 1050 1200 1175 
L 1200 3200 
L 1100 3200 
Q 775 3200 500 3125 
L 275 3350 
z
" transform="scale(0.015625)"/>
       <path id="SimSun-ff1a" d="M 1550 675 
Q 1700 575 1687 337 
Q 1675 100 1500 0 
Q 1325 -100 1250 -100 
Q 1175 -100 1000 0 
Q 825 100 812 350 
Q 800 600 962 687 
Q 1125 775 1250 775 
Q 1400 775 1550 675 
z
M 1550 2187 
Q 1725 2100 1725 1837 
Q 1725 1575 1525 1487 
Q 1325 1400 1250 1400 
Q 1125 1400 962 1512 
Q 800 1625 812 1862 
Q 825 2100 1000 2187 
Q 1175 2275 1275 2275 
Q 1375 2275 1550 2187 
z
" transform="scale(0.015625)"/>
       <path id="SimSun-6d88" d="M 3900 3350 
Q 3900 4900 3875 5225 
L 4450 4950 
L 4250 4800 
L 4250 3350 
L 5050 3350 
L 5250 3600 
L 5650 3275 
L 5450 3100 
L 5450 125 
Q 5450 -400 4900 -600 
Q 4850 -200 4100 -75 
L 4100 25 
Q 4625 0 4875 -25 
Q 5100 -25 5100 250 
L 5100 1250 
L 3050 1250 
L 3050 -400 
L 2675 -575 
Q 2700 125 2700 1650 
Q 2700 3175 2675 3575 
L 3050 3350 
L 3900 3350 
z
M 2525 4850 
Q 3200 4500 3312 4337 
Q 3425 4175 3425 4075 
Q 3425 3950 3337 3800 
Q 3250 3650 3200 3650 
Q 3125 3650 3050 3875 
Q 2925 4225 2475 4800 
L 2525 4850 
z
M 5325 4950 
L 5775 4575 
Q 5600 4550 5300 4225 
Q 4975 3900 4575 3550 
L 4500 3600 
Q 5175 4525 5325 4950 
z
M 3050 2250 
L 3050 1400 
L 5100 1400 
L 5100 2250 
L 3050 2250 
z
M 3050 3200 
L 3050 2400 
L 5100 2400 
L 5100 3200 
L 3050 3200 
z
M 2525 4000 
Q 1675 1400 1600 1075 
Q 1525 750 1525 300 
Q 1525 -150 1550 -375 
Q 1550 -500 1450 -500 
Q 1400 -500 1237 -412 
Q 1075 -325 1075 -125 
Q 1075 50 1125 225 
Q 1175 425 1175 600 
Q 1175 800 1050 900 
Q 925 1000 450 1100 
L 450 1200 
Q 1000 1150 1100 1162 
Q 1200 1175 1350 1387 
Q 1500 1600 2425 4025 
L 2525 4000 
z
M 425 3550 
Q 1275 3175 1287 2925 
Q 1300 2675 1225 2562 
Q 1150 2450 1100 2450 
Q 1000 2450 925 2675 
Q 775 3000 375 3475 
L 425 3550 
z
M 1025 4950 
Q 1725 4625 1787 4475 
Q 1850 4325 1850 4250 
Q 1850 4125 1750 3987 
Q 1650 3850 1625 3850 
Q 1550 3850 1475 4075 
Q 1350 4425 975 4875 
L 1025 4950 
z
" transform="scale(0.015625)"/>
       <path id="SimSun-6781" d="M 5325 4475 
L 4600 2950 
L 5275 2950 
L 5525 3200 
L 5925 2825 
L 5675 2700 
Q 5300 1600 4700 825 
Q 5375 125 6125 -25 
L 6125 -125 
Q 5700 -175 5625 -425 
Q 5025 -100 4475 575 
Q 3625 -200 2675 -550 
L 2625 -475 
Q 3575 25 4275 825 
Q 3625 1750 3475 2850 
Q 3425 600 2000 -525 
L 1950 -450 
Q 2525 200 2775 837 
Q 3025 1475 3100 2125 
Q 3175 2775 3175 4575 
L 2875 4575 
L 2650 4525 
L 2450 4725 
L 4925 4725 
L 5150 4975 
L 5550 4650 
L 5325 4475 
z
M 3525 4575 
Q 3500 3575 3500 3075 
Q 3775 1975 4475 1075 
Q 4925 1650 5325 2800 
L 4550 2800 
L 4350 2575 
L 4000 2925 
Q 4250 3000 4462 3450 
Q 4675 3900 4950 4575 
L 3525 4575 
z
M 1725 2825 
Q 1725 0 1750 -450 
L 1350 -625 
Q 1375 575 1375 2525 
Q 1025 1550 425 800 
L 350 850 
Q 1025 2075 1350 3600 
L 750 3600 
L 525 3550 
L 325 3750 
L 1375 3750 
Q 1375 4650 1350 5250 
L 1925 4975 
L 1725 4800 
L 1725 3750 
L 2025 3750 
L 2325 4050 
L 2775 3600 
L 1725 3600 
L 1725 2950 
Q 2375 2650 2500 2487 
Q 2625 2325 2625 2200 
Q 2625 2075 2550 1937 
Q 2475 1800 2425 1800 
Q 2350 1800 2250 2050 
Q 2100 2425 1725 2825 
z
" transform="scale(0.015625)"/>
      </defs>
      <use xlink:href="#SimSun-6e90"/>
      <use xlink:href="#SimSun-57df" x="100"/>
      <use xlink:href="#SimSun-ff1a" x="200"/>
      <use xlink:href="#SimSun-6d88" x="300"/>
      <use xlink:href="#SimSun-6781" x="400"/>
     </g>
    </g>
    <g id="line2d_13">
     <defs>
      <path id="m563b88b8d8" d="M 0 4 
C 1.060812 4 2.078319 3.578535 2.828427 2.828427 
C 3.578535 2.078319 4 1.060812 4 0 
C 4 -1.060812 3.578535 -2.078319 2.828427 -2.828427 
C 2.078319 -3.578535 1.060812 -4 0 -4 
C -1.060812 -4 -2.078319 -3.578535 -2.828427 -2.828427 
C -3.578535 -2.078319 -4 -1.060812 -4 0 
C -4 1.060812 -3.578535 2.078319 -2.828427 2.828427 
C -2.078319 3.578535 -1.060812 4 0 4 
z
" style="stroke: #000000; stroke-opacity: 0.9; stroke-width: 0.3"/>
     </defs>
     <g>
      <use xlink:href="#m563b88b8d8" x="246.991875" y="61.4625" style="fill: #de8f05; fill-opacity: 0.9; stroke: #000000; stroke-opacity: 0.9; stroke-width: 0.3"/>
     </g>
    </g>
    <g id="text_15">
     <!-- 源域：中性 -->
     <g style="fill: #262626" transform="translate(273.391875 69.8625) scale(0.24 -0.24)">
      <defs>
       <path id="SimSun-4e2d" d="M 3325 3625 
L 3325 1975 
L 5125 1975 
L 5125 3625 
L 3325 3625 
z
M 2950 3775 
Q 2950 4750 2925 5250 
L 3525 4975 
L 3325 4775 
L 3325 3775 
L 5075 3775 
L 5275 4075 
L 5700 3750 
L 5475 3550 
L 5475 2100 
Q 5475 1825 5500 1525 
L 5125 1375 
L 5125 1825 
L 3325 1825 
Q 3325 -75 3350 -400 
L 2925 -625 
Q 2950 -50 2950 1825 
L 1225 1825 
L 1225 1525 
L 850 1325 
Q 875 1775 875 2625 
Q 875 3475 850 4000 
L 1225 3775 
L 2950 3775 
z
M 1225 3625 
L 1225 1975 
L 2950 1975 
L 2950 3625 
L 1225 3625 
z
" transform="scale(0.015625)"/>
       <path id="SimSun-6027" d="M 3975 3450 
Q 3975 4800 3950 5200 
L 4575 4925 
L 4325 4750 
L 4325 3450 
L 5050 3450 
L 5400 3800 
L 5900 3300 
L 4325 3300 
L 4325 1925 
L 4975 1925 
L 5300 2250 
L 5775 1775 
L 4325 1775 
L 4325 25 
L 5300 25 
L 5650 375 
L 6150 -125 
L 2875 -125 
Q 2550 -125 2275 -200 
L 2050 25 
L 3975 25 
L 3975 1775 
L 3450 1775 
Q 3125 1775 2850 1700 
L 2625 1925 
L 3975 1925 
L 3975 3300 
L 2950 3300 
Q 2625 2500 2225 2000 
L 2150 2050 
Q 2450 2650 2650 3387 
Q 2850 4125 2900 4600 
L 3475 4325 
L 3250 4175 
L 3000 3450 
L 3975 3450 
z
M 875 3625 
Q 950 2875 900 2687 
Q 850 2500 737 2437 
Q 625 2375 550 2375 
Q 500 2375 412 2412 
Q 325 2450 325 2475 
Q 325 2575 500 2775 
Q 725 3050 775 3625 
L 875 3625 
z
M 1575 3950 
Q 1975 3800 2150 3675 
Q 2325 3550 2300 3350 
Q 2275 3150 2175 3075 
Q 2075 3000 1975 3275 
Q 1850 3550 1575 3825 
L 1575 500 
Q 1575 75 1600 -425 
L 1200 -600 
Q 1225 125 1225 700 
L 1225 4225 
Q 1225 4650 1200 5250 
L 1800 4975 
L 1575 4800 
L 1575 3950 
z
" transform="scale(0.015625)"/>
      </defs>
      <use xlink:href="#SimSun-6e90"/>
      <use xlink:href="#SimSun-57df" x="100"/>
      <use xlink:href="#SimSun-ff1a" x="200"/>
      <use xlink:href="#SimSun-4e2d" x="300"/>
      <use xlink:href="#SimSun-6027" x="400"/>
     </g>
    </g>
    <g id="line2d_14">
     <defs>
      <path id="m17e1893010" d="M 0 4 
C 1.060812 4 2.078319 3.578535 2.828427 2.828427 
C 3.578535 2.078319 4 1.060812 4 0 
C 4 -1.060812 3.578535 -2.078319 2.828427 -2.828427 
C 2.078319 -3.578535 1.060812 -4 0 -4 
C -1.060812 -4 -2.078319 -3.578535 -2.828427 -2.828427 
C -3.578535 -2.078319 -4 -1.060812 -4 0 
C -4 1.060812 -3.578535 2.078319 -2.828427 2.828427 
C -2.078319 3.578535 -1.060812 4 0 4 
z
" style="stroke: #000000; stroke-opacity: 0.9; stroke-width: 0.3"/>
     </defs>
     <g>
      <use xlink:href="#m17e1893010" x="246.991875" y="88.29375" style="fill: #029e73; fill-opacity: 0.9; stroke: #000000; stroke-opacity: 0.9; stroke-width: 0.3"/>
     </g>
    </g>
    <g id="text_16">
     <!-- 源域：积极 -->
     <g style="fill: #262626" transform="translate(273.391875 96.69375) scale(0.24 -0.24)">
      <defs>
       <path id="SimSun-79ef" d="M 3125 1750 
Q 3150 2475 3150 3225 
Q 3150 3975 3125 4725 
L 3500 4525 
L 5225 4525 
L 5475 4775 
L 5850 4400 
L 5600 4250 
Q 5600 2300 5625 1975 
L 5275 1850 
L 5275 2175 
L 3475 2175 
L 3475 1875 
L 3125 1750 
z
M 3475 4375 
L 3475 2325 
L 5275 2325 
L 5275 4375 
L 3475 4375 
z
M 3825 1700 
L 4300 1300 
L 4075 1225 
Q 3125 -75 2200 -550 
L 2175 -450 
Q 2800 50 3225 625 
Q 3650 1200 3825 1700 
z
M 4700 1600 
Q 5725 650 5850 362 
Q 5975 75 5975 -75 
Q 5975 -225 5900 -337 
Q 5825 -450 5775 -450 
Q 5725 -450 5650 -250 
Q 5525 75 5350 450 
Q 5175 825 4650 1525 
L 4700 1600 
z
M 1875 2575 
Q 1875 225 1900 -400 
L 1525 -625 
Q 1550 125 1550 2350 
Q 1025 1275 300 625 
L 250 700 
Q 625 1200 962 1862 
Q 1300 2525 1500 3200 
L 1125 3200 
Q 800 3200 525 3125 
L 300 3350 
L 1550 3350 
L 1550 4475 
Q 900 4375 525 4350 
L 525 4450 
Q 1075 4550 1525 4712 
Q 1975 4875 2375 5150 
L 2725 4700 
Q 2425 4700 1875 4550 
L 1875 3350 
L 2250 3350 
L 2550 3650 
L 2975 3200 
L 1875 3200 
L 1875 2675 
Q 2475 2400 2612 2212 
Q 2750 2025 2750 1925 
Q 2750 1800 2662 1675 
Q 2575 1550 2550 1550 
Q 2450 1550 2375 1800 
Q 2250 2175 1875 2575 
z
" transform="scale(0.015625)"/>
      </defs>
      <use xlink:href="#SimSun-6e90"/>
      <use xlink:href="#SimSun-57df" x="100"/>
      <use xlink:href="#SimSun-ff1a" x="200"/>
      <use xlink:href="#SimSun-79ef" x="300"/>
      <use xlink:href="#SimSun-6781" x="400"/>
     </g>
    </g>
    <g id="line2d_15">
     <defs>
      <path id="m596104f3e7" d="M 0 -5 
L -5 5 
L 5 5 
z
" style="stroke: #0173b2; stroke-opacity: 0.999; stroke-width: 1.2; stroke-linejoin: miter"/>
     </defs>
     <g>
      <use xlink:href="#m596104f3e7" x="424.591875" y="34.63125" style="fill-opacity: 0; stroke: #0173b2; stroke-opacity: 0.999; stroke-width: 1.2; stroke-linejoin: miter"/>
     </g>
    </g>
    <g id="text_17">
     <!-- 目标域：消极 -->
     <g style="fill: #262626" transform="translate(450.991875 43.03125) scale(0.24 -0.24)">
      <defs>
       <path id="SimSun-76ee" d="M 1875 1700 
L 1875 325 
L 4550 325 
L 4550 1700 
L 1875 1700 
z
M 1475 -550 
Q 1500 350 1500 2087 
Q 1500 3825 1475 4950 
L 1875 4675 
L 4500 4675 
L 4700 4950 
L 5175 4600 
L 4925 4425 
L 4925 725 
Q 4925 -25 4950 -325 
L 4550 -525 
L 4550 175 
L 1875 175 
L 1875 -325 
L 1475 -550 
z
M 1875 4525 
L 1875 3250 
L 4550 3250 
L 4550 4525 
L 1875 4525 
z
M 1875 3100 
L 1875 1850 
L 4550 1850 
L 4550 3100 
L 1875 3100 
z
" transform="scale(0.015625)"/>
       <path id="SimSun-6807" d="M 4775 2225 
Q 5725 1275 5825 1050 
Q 5925 825 5925 700 
Q 5925 525 5825 375 
Q 5725 225 5700 225 
Q 5575 225 5475 650 
Q 5300 1225 4700 2175 
L 4775 2225 
z
M 2750 4600 
L 4975 4600 
L 5275 4900 
L 5725 4450 
L 3175 4450 
L 2950 4400 
L 2750 4600 
z
M 3100 75 
Q 3775 -50 3900 -25 
Q 4025 0 4025 175 
L 4025 2950 
L 2800 2950 
L 2575 2900 
L 2375 3100 
L 5350 3100 
L 5675 3425 
L 6150 2950 
L 4400 2950 
L 4400 -25 
Q 4375 -425 3850 -600 
Q 3850 -300 3100 -50 
L 3100 75 
z
M 3125 2275 
L 3675 1950 
L 3425 1825 
Q 2800 700 2100 25 
L 2025 100 
Q 2725 1025 3125 2275 
z
M 1675 2725 
Q 1675 25 1700 -475 
L 1300 -625 
Q 1325 450 1325 2325 
Q 950 1450 350 700 
L 275 800 
Q 975 1925 1325 3475 
L 700 3475 
L 475 3425 
L 275 3625 
L 1325 3625 
Q 1325 4575 1300 5275 
L 1900 4975 
L 1675 4800 
L 1675 3625 
L 2000 3625 
L 2275 3900 
L 2700 3475 
L 1675 3475 
L 1675 2850 
Q 2150 2600 2312 2425 
Q 2475 2250 2475 2125 
Q 2475 2050 2400 1912 
Q 2325 1775 2275 1775 
Q 2200 1775 2100 2075 
Q 1925 2475 1675 2725 
z
" transform="scale(0.015625)"/>
      </defs>
      <use xlink:href="#SimSun-76ee"/>
      <use xlink:href="#SimSun-6807" x="100"/>
      <use xlink:href="#SimSun-57df" x="200"/>
      <use xlink:href="#SimSun-ff1a" x="300"/>
      <use xlink:href="#SimSun-6d88" x="400"/>
      <use xlink:href="#SimSun-6781" x="500"/>
     </g>
    </g>
    <g id="line2d_16">
     <defs>
      <path id="m813aea7be4" d="M 0 -5 
L -5 5 
L 5 5 
z
" style="stroke: #de8f05; stroke-opacity: 0.999; stroke-width: 1.2; stroke-linejoin: miter"/>
     </defs>
     <g>
      <use xlink:href="#m813aea7be4" x="424.591875" y="61.55625" style="fill-opacity: 0; stroke: #de8f05; stroke-opacity: 0.999; stroke-width: 1.2; stroke-linejoin: miter"/>
     </g>
    </g>
    <g id="text_18">
     <!-- 目标域：中性 -->
     <g style="fill: #262626" transform="translate(450.991875 69.95625) scale(0.24 -0.24)">
      <use xlink:href="#SimSun-76ee"/>
      <use xlink:href="#SimSun-6807" x="100"/>
      <use xlink:href="#SimSun-57df" x="200"/>
      <use xlink:href="#SimSun-ff1a" x="300"/>
      <use xlink:href="#SimSun-4e2d" x="400"/>
      <use xlink:href="#SimSun-6027" x="500"/>
     </g>
    </g>
    <g id="line2d_17">
     <defs>
      <path id="m3faad241db" d="M 0 -5 
L -5 5 
L 5 5 
z
" style="stroke: #029e73; stroke-opacity: 0.999; stroke-width: 1.2; stroke-linejoin: miter"/>
     </defs>
     <g>
      <use xlink:href="#m3faad241db" x="424.591875" y="88.48125" style="fill-opacity: 0; stroke: #029e73; stroke-opacity: 0.999; stroke-width: 1.2; stroke-linejoin: miter"/>
     </g>
    </g>
    <g id="text_19">
     <!-- 目标域：积极 -->
     <g style="fill: #262626" transform="translate(450.991875 96.88125) scale(0.24 -0.24)">
      <use xlink:href="#SimSun-76ee"/>
      <use xlink:href="#SimSun-6807" x="100"/>
      <use xlink:href="#SimSun-57df" x="200"/>
      <use xlink:href="#SimSun-ff1a" x="300"/>
      <use xlink:href="#SimSun-79ef" x="400"/>
      <use xlink:href="#SimSun-6781" x="500"/>
     </g>
    </g>
   </g>
  </g>
 </g>
 <defs>
  <clipPath id="p7f6fbfba33">
   <rect x="53.791875" y="7.2" width="558" height="443.52"/>
  </clipPath>
 </defs>
</svg>
