<?xml version="1.0" encoding="utf-8" standalone="no"?>
<!DOCTYPE svg PUBLIC "-//W3C//DTD SVG 1.1//EN"
  "http://www.w3.org/Graphics/SVG/1.1/DTD/svg11.dtd">
<svg xmlns:xlink="http://www.w3.org/1999/xlink" width="618.991875pt" height="498.144375pt" viewBox="0 0 618.991875 498.144375" xmlns="http://www.w3.org/2000/svg" version="1.1">
 <metadata>
  <rdf:RDF xmlns:dc="http://purl.org/dc/elements/1.1/" xmlns:cc="http://creativecommons.org/ns#" xmlns:rdf="http://www.w3.org/1999/02/22-rdf-syntax-ns#">
   <cc:Work>
    <dc:type rdf:resource="http://purl.org/dc/dcmitype/StillImage"/>
    <dc:date>2025-12-02T15:51:29.505182</dc:date>
    <dc:format>image/svg+xml</dc:format>
    <dc:creator>
     <cc:Agent>
      <dc:title>Matplotlib v3.9.4, https://matplotlib.org/</dc:title>
     </cc:Agent>
    </dc:creator>
   </cc:Work>
  </rdf:RDF>
 </metadata>
 <defs>
  <style type="text/css">*{stroke-linejoin: round; stroke-linecap: butt}</style>
 </defs>
 <g id="figure_1">
  <g id="patch_1">
   <path d="M 0 498.144375 
L 618.991875 498.144375 
L 618.991875 0 
L 0 0 
z
" style="fill: #ffffff"/>
  </g>
  <g id="axes_1">
   <g id="patch_2">
    <path d="M 53.791875 450.72 
L 611.791875 450.72 
L 611.791875 7.2 
L 53.791875 7.2 
z
" style="fill: #ffffff"/>
   </g>
   <g id="matplotlib.axis_1">
    <g id="xtick_1">
     <g id="line2d_1">
      <path d="M 83.038886 450.72 
L 83.038886 7.2 
" clip-path="url(#pb02f67dfd5)" style="fill: none; stroke-dasharray: 0.5,0.825; stroke-dashoffset: 0; stroke: #cccccc; stroke-opacity: 0.3; stroke-width: 0.5"/>
     </g>
     <g id="text_1">
      <!-- -15 -->
      <g style="fill: #262626" transform="translate(74.367948 462.809375) scale(0.12 -0.12)">
       <defs>
        <path id="ArialMT-2d" d="M 203 1375 
L 203 1941 
L 1931 1941 
L 1931 1375 
L 203 1375 
z
" transform="scale(0.015625)"/>
        <path id="ArialMT-31" d="M 2384 0 
L 1822 0 
L 1822 3584 
Q 1619 3391 1289 3197 
Q 959 3003 697 2906 
L 697 3450 
Q 1169 3672 1522 3987 
Q 1875 4303 2022 4600 
L 2384 4600 
L 2384 0 
z
" transform="scale(0.015625)"/>
        <path id="ArialMT-35" d="M 266 1200 
L 856 1250 
Q 922 819 1161 601 
Q 1400 384 1738 384 
Q 2144 384 2425 690 
Q 2706 997 2706 1503 
Q 2706 1984 2436 2262 
Q 2166 2541 1728 2541 
Q 1456 2541 1237 2417 
Q 1019 2294 894 2097 
L 366 2166 
L 809 4519 
L 3088 4519 
L 3088 3981 
L 1259 3981 
L 1013 2750 
Q 1425 3038 1878 3038 
Q 2478 3038 2890 2622 
Q 3303 2206 3303 1553 
Q 3303 931 2941 478 
Q 2500 -78 1738 -78 
Q 1113 -78 717 272 
Q 322 622 266 1200 
z
" transform="scale(0.015625)"/>
       </defs>
       <use xlink:href="#ArialMT-2d"/>
       <use xlink:href="#ArialMT-31" x="33.300781"/>
       <use xlink:href="#ArialMT-35" x="88.916016"/>
      </g>
     </g>
    </g>
    <g id="xtick_2">
     <g id="line2d_2">
      <path d="M 159.297035 450.72 
L 159.297035 7.2 
" clip-path="url(#pb02f67dfd5)" style="fill: none; stroke-dasharray: 0.5,0.825; stroke-dashoffset: 0; stroke: #cccccc; stroke-opacity: 0.3; stroke-width: 0.5"/>
     </g>
     <g id="text_2">
      <!-- -10 -->
      <g style="fill: #262626" transform="translate(150.626098 462.809375) scale(0.12 -0.12)">
       <defs>
        <path id="ArialMT-30" d="M 266 2259 
Q 266 3072 433 3567 
Q 600 4063 929 4331 
Q 1259 4600 1759 4600 
Q 2128 4600 2406 4451 
Q 2684 4303 2865 4023 
Q 3047 3744 3150 3342 
Q 3253 2941 3253 2259 
Q 3253 1453 3087 958 
Q 2922 463 2592 192 
Q 2263 -78 1759 -78 
Q 1097 -78 719 397 
Q 266 969 266 2259 
z
M 844 2259 
Q 844 1131 1108 757 
Q 1372 384 1759 384 
Q 2147 384 2411 759 
Q 2675 1134 2675 2259 
Q 2675 3391 2411 3762 
Q 2147 4134 1753 4134 
Q 1366 4134 1134 3806 
Q 844 3388 844 2259 
z
" transform="scale(0.015625)"/>
       </defs>
       <use xlink:href="#ArialMT-2d"/>
       <use xlink:href="#ArialMT-31" x="33.300781"/>
       <use xlink:href="#ArialMT-30" x="88.916016"/>
      </g>
     </g>
    </g>
    <g id="xtick_3">
     <g id="line2d_3">
      <path d="M 235.555185 450.72 
L 235.555185 7.2 
" clip-path="url(#pb02f67dfd5)" style="fill: none; stroke-dasharray: 0.5,0.825; stroke-dashoffset: 0; stroke: #cccccc; stroke-opacity: 0.3; stroke-width: 0.5"/>
     </g>
     <g id="text_3">
      <!-- -5 -->
      <g style="fill: #262626" transform="translate(230.22081 462.809375) scale(0.12 -0.12)">
       <use xlink:href="#ArialMT-2d"/>
       <use xlink:href="#ArialMT-35" x="33.300781"/>
      </g>
     </g>
    </g>
    <g id="xtick_4">
     <g id="line2d_4">
      <path d="M 311.813335 450.72 
L 311.813335 7.2 
" clip-path="url(#pb02f67dfd5)" style="fill: none; stroke-dasharray: 0.5,0.825; stroke-dashoffset: 0; stroke: #cccccc; stroke-opacity: 0.3; stroke-width: 0.5"/>
     </g>
     <g id="text_4">
      <!-- 0 -->
      <g style="fill: #262626" transform="translate(308.476772 462.809375) scale(0.12 -0.12)">
       <use xlink:href="#ArialMT-30"/>
      </g>
     </g>
    </g>
    <g id="xtick_5">
     <g id="line2d_5">
      <path d="M 388.071485 450.72 
L 388.071485 7.2 
" clip-path="url(#pb02f67dfd5)" style="fill: none; stroke-dasharray: 0.5,0.825; stroke-dashoffset: 0; stroke: #cccccc; stroke-opacity: 0.3; stroke-width: 0.5"/>
     </g>
     <g id="text_5">
      <!-- 5 -->
      <g style="fill: #262626" transform="translate(384.734922 462.809375) scale(0.12 -0.12)">
       <use xlink:href="#ArialMT-35"/>
      </g>
     </g>
    </g>
    <g id="xtick_6">
     <g id="line2d_6">
      <path d="M 464.329634 450.72 
L 464.329634 7.2 
" clip-path="url(#pb02f67dfd5)" style="fill: none; stroke-dasharray: 0.5,0.825; stroke-dashoffset: 0; stroke: #cccccc; stroke-opacity: 0.3; stroke-width: 0.5"/>
     </g>
     <g id="text_6">
      <!-- 10 -->
      <g style="fill: #262626" transform="translate(457.656509 462.809375) scale(0.12 -0.12)">
       <use xlink:href="#ArialMT-31"/>
       <use xlink:href="#ArialMT-30" x="55.615234"/>
      </g>
     </g>
    </g>
    <g id="xtick_7">
     <g id="line2d_7">
      <path d="M 540.587784 450.72 
L 540.587784 7.2 
" clip-path="url(#pb02f67dfd5)" style="fill: none; stroke-dasharray: 0.5,0.825; stroke-dashoffset: 0; stroke: #cccccc; stroke-opacity: 0.3; stroke-width: 0.5"/>
     </g>
     <g id="text_7">
      <!-- 15 -->
      <g style="fill: #262626" transform="translate(533.914659 462.809375) scale(0.12 -0.12)">
       <use xlink:href="#ArialMT-31"/>
       <use xlink:href="#ArialMT-35" x="55.615234"/>
      </g>
     </g>
    </g>
    <g id="text_8">
     <!-- t-SNE 成分 1 -->
     <g style="fill: #262626" transform="translate(260.791875 487.850625) scale(0.24 -0.24)">
      <defs>
       <path id="SimSun-74" d="M 1500 900 
Q 1500 550 1625 425 
Q 1750 300 2000 300 
Q 2250 300 2400 462 
Q 2550 625 2600 925 
L 2725 875 
Q 2675 525 2462 300 
Q 2250 75 1900 75 
Q 1525 75 1337 300 
Q 1150 525 1150 1000 
L 1150 2750 
L 400 2750 
L 400 2900 
L 600 2900 
Q 900 2900 1087 3087 
Q 1275 3275 1325 3675 
L 1350 3875 
L 1500 3875 
L 1500 2900 
L 2500 2900 
L 2500 2750 
L 1500 2750 
L 1500 900 
z
" transform="scale(0.015625)"/>
       <path id="SimSun-2d" d="M 200 2225 
L 200 2450 
L 2975 2450 
L 2975 2225 
L 200 2225 
z
" transform="scale(0.015625)"/>
       <path id="SimSun-53" d="M 1500 2150 
Q 825 2450 575 2675 
Q 325 2900 325 3375 
Q 325 3750 637 4087 
Q 950 4425 1525 4425 
Q 1775 4425 2000 4350 
Q 2225 4250 2325 4250 
Q 2400 4250 2462 4287 
Q 2525 4325 2575 4425 
L 2675 3400 
L 2550 3350 
Q 2325 3875 2087 4062 
Q 1850 4250 1475 4250 
Q 1000 4250 825 3987 
Q 650 3725 650 3425 
Q 650 3150 812 2987 
Q 975 2825 1700 2500 
Q 2300 2250 2562 1937 
Q 2825 1625 2825 1200 
Q 2825 750 2512 400 
Q 2200 50 1600 50 
Q 1350 50 1150 150 
Q 925 225 800 225 
Q 725 225 650 175 
Q 575 125 475 50 
L 275 1275 
L 425 1325 
Q 600 700 912 462 
Q 1225 225 1625 225 
Q 2050 225 2262 475 
Q 2475 725 2475 1200 
Q 2475 1450 2237 1687 
Q 2000 1925 1500 2150 
z
" transform="scale(0.015625)"/>
       <path id="SimSun-4e" d="M 2525 1100 
L 2575 1100 
L 2575 4025 
Q 2575 4125 2525 4175 
Q 2475 4225 2350 4225 
L 2150 4225 
L 2150 4375 
L 3150 4375 
L 3150 4225 
L 2950 4225 
Q 2850 4225 2787 4175 
Q 2725 4125 2725 4025 
L 2725 100 
L 2575 100 
L 675 3825 
L 625 3825 
L 625 450 
Q 625 350 687 300 
Q 750 250 850 250 
L 1050 250 
L 1050 100 
L 50 100 
L 50 250 
L 250 250 
Q 375 250 425 300 
Q 475 350 475 450 
L 475 4025 
Q 475 4125 425 4175 
Q 375 4225 250 4225 
L 100 4225 
L 100 4375 
L 825 4375 
L 2525 1100 
z
" transform="scale(0.015625)"/>
       <path id="SimSun-45" d="M 200 4225 
L 200 4375 
L 2650 4375 
L 2925 3525 
L 2800 3475 
Q 2600 3850 2375 4037 
Q 2150 4225 1875 4225 
L 1175 4225 
Q 1075 4225 1012 4175 
Q 950 4125 950 4025 
L 950 2475 
L 1675 2475 
Q 1925 2475 2037 2600 
Q 2150 2725 2150 2975 
L 2150 3125 
L 2300 3125 
L 2300 1650 
L 2150 1650 
L 2150 1750 
Q 2150 2025 2037 2175 
Q 1925 2325 1675 2325 
L 950 2325 
L 950 450 
Q 950 350 1012 300 
Q 1075 250 1175 250 
L 1825 250 
Q 2200 250 2462 462 
Q 2725 675 2875 1125 
L 3000 1075 
L 2725 100 
L 175 100 
L 175 250 
L 325 250 
Q 450 250 500 300 
Q 550 350 550 450 
L 550 4025 
Q 550 4125 500 4175 
Q 450 4225 325 4225 
L 200 4225 
z
" transform="scale(0.015625)"/>
       <path id="SimSun-20" d="M 0 0 
Q 0 0 0 0 
z
" transform="scale(0.015625)"/>
       <path id="SimSun-6210" d="M 4325 5075 
Q 4850 4775 5025 4612 
Q 5200 4450 5162 4287 
Q 5125 4125 5025 4062 
Q 4925 4000 4900 4000 
Q 4800 4000 4750 4200 
Q 4675 4475 4250 5000 
L 4325 5075 
z
M 5625 100 
L 5925 1175 
L 6025 1150 
Q 5925 375 5925 125 
Q 5925 -125 6050 -350 
Q 6100 -450 6000 -450 
Q 5825 -450 5350 -275 
Q 4875 -100 4250 675 
Q 3475 -125 2550 -525 
L 2525 -425 
Q 3525 225 4050 950 
Q 3550 1875 3400 3650 
L 1425 3650 
L 1400 2450 
L 2550 2450 
L 2775 2700 
L 3150 2350 
L 2925 2175 
Q 2850 675 2725 437 
Q 2600 200 2250 50 
Q 2175 400 1575 625 
L 1575 725 
Q 2050 650 2237 625 
Q 2425 600 2475 837 
Q 2525 1075 2575 2300 
L 1400 2300 
Q 1325 225 350 -600 
L 300 -525 
Q 950 400 987 1462 
Q 1025 2525 1025 3075 
Q 1025 3625 1000 4025 
L 1450 3800 
L 3375 3800 
Q 3300 4625 3250 5150 
L 3900 4900 
L 3725 4700 
Q 3725 4300 3775 3800 
L 5150 3800 
L 5500 4150 
L 6000 3650 
L 3775 3650 
Q 3925 2000 4300 1325 
Q 4500 1625 4700 2100 
Q 4900 2575 5100 3175 
L 5625 2775 
L 5400 2650 
Q 4975 1625 4525 975 
Q 5050 350 5625 100 
z
" transform="scale(0.015625)"/>
       <path id="SimSun-5206" d="M 2350 5050 
L 2850 4675 
L 2625 4550 
Q 2200 3750 1687 3125 
Q 1175 2500 375 2025 
L 325 2100 
Q 975 2625 1475 3337 
Q 1975 4050 2350 5050 
z
M 4100 4975 
L 3900 4850 
Q 4175 3850 4800 3300 
Q 5425 2750 6125 2625 
L 6125 2550 
Q 5750 2500 5600 2225 
Q 4775 2675 4287 3425 
Q 3800 4175 3625 5175 
L 4100 4975 
z
M 1375 2625 
L 4225 2625 
L 4475 2875 
L 4825 2525 
L 4625 2375 
Q 4575 400 4375 -12 
Q 4175 -425 3675 -600 
Q 3600 -200 2975 -25 
L 2975 75 
Q 3600 -25 3787 -12 
Q 3975 0 4075 275 
Q 4175 550 4275 2475 
L 2975 2475 
Q 2825 1400 2375 662 
Q 1925 -75 650 -625 
L 600 -525 
Q 1725 50 2112 837 
Q 2500 1625 2575 2475 
L 1800 2475 
L 1575 2425 
L 1375 2625 
z
" transform="scale(0.015625)"/>
       <path id="SimSun-31" d="M 1825 4450 
L 1825 650 
Q 1825 450 1950 350 
Q 2075 250 2300 250 
L 2550 250 
L 2550 100 
L 725 100 
L 725 250 
L 950 250 
Q 1200 250 1312 350 
Q 1425 450 1425 650 
L 1425 3675 
Q 1425 3775 1362 3837 
Q 1300 3900 1175 3900 
L 725 3900 
L 725 4050 
L 950 4050 
Q 1250 4050 1437 4150 
Q 1625 4250 1725 4450 
L 1825 4450 
z
" transform="scale(0.015625)"/>
      </defs>
      <use xlink:href="#SimSun-74"/>
      <use xlink:href="#SimSun-2d" x="50"/>
      <use xlink:href="#SimSun-53" x="100"/>
      <use xlink:href="#SimSun-4e" x="150"/>
      <use xlink:href="#SimSun-45" x="200"/>
      <use xlink:href="#SimSun-20" x="250"/>
      <use xlink:href="#SimSun-6210" x="300"/>
      <use xlink:href="#SimSun-5206" x="400"/>
      <use xlink:href="#SimSun-20" x="500"/>
      <use xlink:href="#SimSun-31" x="550"/>
     </g>
    </g>
   </g>
   <g id="matplotlib.axis_2">
    <g id="ytick_1">
     <g id="line2d_8">
      <path d="M 53.791875 398.146883 
L 611.791875 398.146883 
" clip-path="url(#pb02f67dfd5)" style="fill: none; stroke-dasharray: 0.5,0.825; stroke-dashoffset: 0; stroke: #cccccc; stroke-opacity: 0.3; stroke-width: 0.5"/>
     </g>
     <g id="text_9">
      <!-- -10 -->
      <g style="fill: #262626" transform="translate(32.95 402.44157) scale(0.12 -0.12)">
       <use xlink:href="#ArialMT-2d"/>
       <use xlink:href="#ArialMT-31" x="33.300781"/>
       <use xlink:href="#ArialMT-30" x="88.916016"/>
      </g>
     </g>
    </g>
    <g id="ytick_2">
     <g id="line2d_9">
      <path d="M 53.791875 321.888733 
L 611.791875 321.888733 
" clip-path="url(#pb02f67dfd5)" style="fill: none; stroke-dasharray: 0.5,0.825; stroke-dashoffset: 0; stroke: #cccccc; stroke-opacity: 0.3; stroke-width: 0.5"/>
     </g>
     <g id="text_10">
      <!-- -5 -->
      <g style="fill: #262626" transform="translate(39.623125 326.183421) scale(0.12 -0.12)">
       <use xlink:href="#ArialMT-2d"/>
       <use xlink:href="#ArialMT-35" x="33.300781"/>
      </g>
     </g>
    </g>
    <g id="ytick_3">
     <g id="line2d_10">
      <path d="M 53.791875 245.630583 
L 611.791875 245.630583 
" clip-path="url(#pb02f67dfd5)" style="fill: none; stroke-dasharray: 0.5,0.825; stroke-dashoffset: 0; stroke: #cccccc; stroke-opacity: 0.3; stroke-width: 0.5"/>
     </g>
     <g id="text_11">
      <!-- 0 -->
      <g style="fill: #262626" transform="translate(43.61875 249.925271) scale(0.12 -0.12)">
       <use xlink:href="#ArialMT-30"/>
      </g>
     </g>
    </g>
    <g id="ytick_4">
     <g id="line2d_11">
      <path d="M 53.791875 169.372433 
L 611.791875 169.372433 
" clip-path="url(#pb02f67dfd5)" style="fill: none; stroke-dasharray: 0.5,0.825; stroke-dashoffset: 0; stroke: #cccccc; stroke-opacity: 0.3; stroke-width: 0.5"/>
     </g>
     <g id="text_12">
      <!-- 5 -->
      <g style="fill: #262626" transform="translate(43.61875 173.667121) scale(0.12 -0.12)">
       <use xlink:href="#ArialMT-35"/>
      </g>
     </g>
    </g>
    <g id="ytick_5">
     <g id="line2d_12">
      <path d="M 53.791875 93.114284 
L 611.791875 93.114284 
" clip-path="url(#pb02f67dfd5)" style="fill: none; stroke-dasharray: 0.5,0.825; stroke-dashoffset: 0; stroke: #cccccc; stroke-opacity: 0.3; stroke-width: 0.5"/>
     </g>
     <g id="text_13">
      <!-- 10 -->
      <g style="fill: #262626" transform="translate(36.945625 97.408971) scale(0.12 -0.12)">
       <use xlink:href="#ArialMT-31"/>
       <use xlink:href="#ArialMT-30" x="55.615234"/>
      </g>
     </g>
    </g>
    <g id="ytick_6">
     <g id="line2d_13">
      <path d="M 53.791875 16.856134 
L 611.791875 16.856134 
" clip-path="url(#pb02f67dfd5)" style="fill: none; stroke-dasharray: 0.5,0.825; stroke-dashoffset: 0; stroke: #cccccc; stroke-opacity: 0.3; stroke-width: 0.5"/>
     </g>
     <g id="text_14">
      <!-- 15 -->
      <g style="fill: #262626" transform="translate(36.945625 21.150821) scale(0.12 -0.12)">
       <use xlink:href="#ArialMT-31"/>
       <use xlink:href="#ArialMT-35" x="55.615234"/>
      </g>
     </g>
    </g>
    <g id="text_15">
     <!-- t-SNE 成分 2 -->
     <g style="fill: #262626" transform="translate(25.85625 300.96) rotate(-90) scale(0.24 -0.24)">
      <defs>
       <path id="SimSun-32" d="M 2325 3325 
Q 2325 3775 2125 4012 
Q 1925 4250 1525 4250 
Q 1225 4250 1012 4087 
Q 800 3925 800 3675 
Q 800 3525 900 3425 
Q 975 3325 975 3225 
Q 975 3100 912 3037 
Q 850 2975 725 2975 
Q 575 2975 487 3062 
Q 400 3150 400 3350 
Q 400 3875 775 4150 
Q 1150 4425 1575 4425 
Q 2175 4425 2462 4125 
Q 2750 3825 2750 3375 
Q 2750 3075 2612 2775 
Q 2475 2475 2175 2200 
Q 1450 1500 1062 1062 
Q 675 625 600 475 
L 2075 475 
Q 2300 475 2450 650 
Q 2600 825 2650 1175 
L 2800 1175 
L 2650 100 
L 325 100 
L 325 425 
Q 450 650 737 1000 
Q 1025 1350 1500 1825 
Q 1925 2250 2125 2625 
Q 2325 3000 2325 3325 
z
" transform="scale(0.015625)"/>
      </defs>
      <use xlink:href="#SimSun-74"/>
      <use xlink:href="#SimSun-2d" x="50"/>
      <use xlink:href="#SimSun-53" x="100"/>
      <use xlink:href="#SimSun-4e" x="150"/>
      <use xlink:href="#SimSun-45" x="200"/>
      <use xlink:href="#SimSun-20" x="250"/>
      <use xlink:href="#SimSun-6210" x="300"/>
      <use xlink:href="#SimSun-5206" x="400"/>
      <use xlink:href="#SimSun-20" x="500"/>
      <use xlink:href="#SimSun-32" x="550"/>
     </g>
    </g>
   </g>
   <g id="PathCollection_1">
    <defs>
     <path id="m40c8fa1cd2" d="M 0 3.872983 
C 1.027127 3.872983 2.012324 3.464901 2.738613 2.738613 
C 3.464901 2.012324 3.872983 1.027127 3.872983 0 
C 3.872983 -1.027127 3.464901 -2.012324 2.738613 -2.738613 
C 2.012324 -3.464901 1.027127 -3.872983 0 -3.872983 
C -1.027127 -3.872983 -2.012324 -3.464901 -2.738613 -2.738613 
C -3.464901 -2.012324 -3.872983 -1.027127 -3.872983 0 
C -3.872983 1.027127 -3.464901 2.012324 -2.738613 2.738613 
C -2.012324 3.464901 -1.027127 3.872983 0 3.872983 
z
" style="stroke: #000000; stroke-opacity: 0.7; stroke-width: 0.3"/>
    </defs>
    <g clip-path="url(#pb02f67dfd5)">
     <use xlink:href="#m40c8fa1cd2" x="245.070262" y="176.809991" style="fill: #0173b2; fill-opacity: 0.7; stroke: #000000; stroke-opacity: 0.7; stroke-width: 0.3"/>
     <use xlink:href="#m40c8fa1cd2" x="291.721522" y="27.57502" style="fill: #0173b2; fill-opacity: 0.7; stroke: #000000; stroke-opacity: 0.7; stroke-width: 0.3"/>
     <use xlink:href="#m40c8fa1cd2" x="279.568792" y="122.828051" style="fill: #0173b2; fill-opacity: 0.7; stroke: #000000; stroke-opacity: 0.7; stroke-width: 0.3"/>
     <use xlink:href="#m40c8fa1cd2" x="262.305045" y="62.709232" style="fill: #0173b2; fill-opacity: 0.7; stroke: #000000; stroke-opacity: 0.7; stroke-width: 0.3"/>
     <use xlink:href="#m40c8fa1cd2" x="255.628541" y="78.802994" style="fill: #0173b2; fill-opacity: 0.7; stroke: #000000; stroke-opacity: 0.7; stroke-width: 0.3"/>
     <use xlink:href="#m40c8fa1cd2" x="356.819796" y="197.733642" style="fill: #0173b2; fill-opacity: 0.7; stroke: #000000; stroke-opacity: 0.7; stroke-width: 0.3"/>
     <use xlink:href="#m40c8fa1cd2" x="245.724863" y="135.098221" style="fill: #0173b2; fill-opacity: 0.7; stroke: #000000; stroke-opacity: 0.7; stroke-width: 0.3"/>
     <use xlink:href="#m40c8fa1cd2" x="299.190669" y="68.956129" style="fill: #0173b2; fill-opacity: 0.7; stroke: #000000; stroke-opacity: 0.7; stroke-width: 0.3"/>
     <use xlink:href="#m40c8fa1cd2" x="265.471994" y="135.867584" style="fill: #0173b2; fill-opacity: 0.7; stroke: #000000; stroke-opacity: 0.7; stroke-width: 0.3"/>
     <use xlink:href="#m40c8fa1cd2" x="351.352356" y="187.203467" style="fill: #0173b2; fill-opacity: 0.7; stroke: #000000; stroke-opacity: 0.7; stroke-width: 0.3"/>
     <use xlink:href="#m40c8fa1cd2" x="267.163621" y="128.949111" style="fill: #0173b2; fill-opacity: 0.7; stroke: #000000; stroke-opacity: 0.7; stroke-width: 0.3"/>
     <use xlink:href="#m40c8fa1cd2" x="279.298988" y="78.226601" style="fill: #0173b2; fill-opacity: 0.7; stroke: #000000; stroke-opacity: 0.7; stroke-width: 0.3"/>
     <use xlink:href="#m40c8fa1cd2" x="298.901461" y="68.447822" style="fill: #0173b2; fill-opacity: 0.7; stroke: #000000; stroke-opacity: 0.7; stroke-width: 0.3"/>
     <use xlink:href="#m40c8fa1cd2" x="293.842748" y="82.754152" style="fill: #0173b2; fill-opacity: 0.7; stroke: #000000; stroke-opacity: 0.7; stroke-width: 0.3"/>
     <use xlink:href="#m40c8fa1cd2" x="267.910642" y="51.504598" style="fill: #0173b2; fill-opacity: 0.7; stroke: #000000; stroke-opacity: 0.7; stroke-width: 0.3"/>
     <use xlink:href="#m40c8fa1cd2" x="360.214951" y="195.604136" style="fill: #0173b2; fill-opacity: 0.7; stroke: #000000; stroke-opacity: 0.7; stroke-width: 0.3"/>
     <use xlink:href="#m40c8fa1cd2" x="334.610142" y="185.812481" style="fill: #0173b2; fill-opacity: 0.7; stroke: #000000; stroke-opacity: 0.7; stroke-width: 0.3"/>
     <use xlink:href="#m40c8fa1cd2" x="251.539338" y="166.521531" style="fill: #0173b2; fill-opacity: 0.7; stroke: #000000; stroke-opacity: 0.7; stroke-width: 0.3"/>
     <use xlink:href="#m40c8fa1cd2" x="273.717997" y="43.478444" style="fill: #0173b2; fill-opacity: 0.7; stroke: #000000; stroke-opacity: 0.7; stroke-width: 0.3"/>
     <use xlink:href="#m40c8fa1cd2" x="357.963964" y="188.346471" style="fill: #0173b2; fill-opacity: 0.7; stroke: #000000; stroke-opacity: 0.7; stroke-width: 0.3"/>
     <use xlink:href="#m40c8fa1cd2" x="282.580363" y="100.192883" style="fill: #0173b2; fill-opacity: 0.7; stroke: #000000; stroke-opacity: 0.7; stroke-width: 0.3"/>
     <use xlink:href="#m40c8fa1cd2" x="318.224726" y="205.10686" style="fill: #0173b2; fill-opacity: 0.7; stroke: #000000; stroke-opacity: 0.7; stroke-width: 0.3"/>
     <use xlink:href="#m40c8fa1cd2" x="244.774851" y="190.994739" style="fill: #0173b2; fill-opacity: 0.7; stroke: #000000; stroke-opacity: 0.7; stroke-width: 0.3"/>
     <use xlink:href="#m40c8fa1cd2" x="263.549432" y="166.442849" style="fill: #0173b2; fill-opacity: 0.7; stroke: #000000; stroke-opacity: 0.7; stroke-width: 0.3"/>
     <use xlink:href="#m40c8fa1cd2" x="326.634838" y="212.228418" style="fill: #0173b2; fill-opacity: 0.7; stroke: #000000; stroke-opacity: 0.7; stroke-width: 0.3"/>
     <use xlink:href="#m40c8fa1cd2" x="325.606902" y="219.814449" style="fill: #0173b2; fill-opacity: 0.7; stroke: #000000; stroke-opacity: 0.7; stroke-width: 0.3"/>
     <use xlink:href="#m40c8fa1cd2" x="269.518972" y="175.071526" style="fill: #0173b2; fill-opacity: 0.7; stroke: #000000; stroke-opacity: 0.7; stroke-width: 0.3"/>
     <use xlink:href="#m40c8fa1cd2" x="252.794583" y="123.032715" style="fill: #0173b2; fill-opacity: 0.7; stroke: #000000; stroke-opacity: 0.7; stroke-width: 0.3"/>
     <use xlink:href="#m40c8fa1cd2" x="281.519712" y="180.540799" style="fill: #0173b2; fill-opacity: 0.7; stroke: #000000; stroke-opacity: 0.7; stroke-width: 0.3"/>
     <use xlink:href="#m40c8fa1cd2" x="330.584612" y="177.145648" style="fill: #0173b2; fill-opacity: 0.7; stroke: #000000; stroke-opacity: 0.7; stroke-width: 0.3"/>
     <use xlink:href="#m40c8fa1cd2" x="347.772857" y="202.577898" style="fill: #0173b2; fill-opacity: 0.7; stroke: #000000; stroke-opacity: 0.7; stroke-width: 0.3"/>
     <use xlink:href="#m40c8fa1cd2" x="256.303531" y="155.894272" style="fill: #0173b2; fill-opacity: 0.7; stroke: #000000; stroke-opacity: 0.7; stroke-width: 0.3"/>
     <use xlink:href="#m40c8fa1cd2" x="272.073497" y="60.963051" style="fill: #0173b2; fill-opacity: 0.7; stroke: #000000; stroke-opacity: 0.7; stroke-width: 0.3"/>
     <use xlink:href="#m40c8fa1cd2" x="314.025653" y="206.097686" style="fill: #0173b2; fill-opacity: 0.7; stroke: #000000; stroke-opacity: 0.7; stroke-width: 0.3"/>
     <use xlink:href="#m40c8fa1cd2" x="305.84382" y="84.683456" style="fill: #0173b2; fill-opacity: 0.7; stroke: #000000; stroke-opacity: 0.7; stroke-width: 0.3"/>
    </g>
   </g>
   <g id="PathCollection_2">
    <path d="M 256.004935 338.77864 
L 251.821635 347.14524 
L 260.188235 347.14524 
L 256.004935 338.77864 
z
" clip-path="url(#pb02f67dfd5)" style="fill: none; stroke: #0173b2; stroke-opacity: 0.999; stroke-width: 1.2"/>
    <path d="M 402.965058 243.435655 
L 398.781758 251.802256 
L 407.148358 251.802256 
L 402.965058 243.435655 
z
" clip-path="url(#pb02f67dfd5)" style="fill: none; stroke: #0173b2; stroke-opacity: 0.999; stroke-width: 1.2"/>
    <path d="M 423.838219 253.634524 
L 419.654919 262.001124 
L 428.021519 262.001124 
L 423.838219 253.634524 
z
" clip-path="url(#pb02f67dfd5)" style="fill: none; stroke: #0173b2; stroke-opacity: 0.999; stroke-width: 1.2"/>
    <path d="M 440.28931 262.840116 
L 436.10601 271.206717 
L 444.47261 271.206717 
L 440.28931 262.840116 
z
" clip-path="url(#pb02f67dfd5)" style="fill: none; stroke: #0173b2; stroke-opacity: 0.999; stroke-width: 1.2"/>
    <path d="M 501.873066 294.955268 
L 497.689766 303.321869 
L 506.056366 303.321869 
L 501.873066 294.955268 
z
" clip-path="url(#pb02f67dfd5)" style="fill: none; stroke: #0173b2; stroke-opacity: 0.999; stroke-width: 1.2"/>
    <path d="M 280.37347 44.57296 
L 276.190169 52.939561 
L 284.55677 52.939561 
L 280.37347 44.57296 
z
" clip-path="url(#pb02f67dfd5)" style="fill: none; stroke: #0173b2; stroke-opacity: 0.999; stroke-width: 1.2"/>
    <path d="M 270.152629 111.840733 
L 265.969329 120.207333 
L 274.335929 120.207333 
L 270.152629 111.840733 
z
" clip-path="url(#pb02f67dfd5)" style="fill: none; stroke: #0173b2; stroke-opacity: 0.999; stroke-width: 1.2"/>
    <path d="M 407.469425 246.388371 
L 403.286124 254.754971 
L 411.652725 254.754971 
L 407.469425 246.388371 
z
" clip-path="url(#pb02f67dfd5)" style="fill: none; stroke: #0173b2; stroke-opacity: 0.999; stroke-width: 1.2"/>
    <path d="M 284.513774 81.404657 
L 280.330474 89.771257 
L 288.697074 89.771257 
L 284.513774 81.404657 
z
" clip-path="url(#pb02f67dfd5)" style="fill: none; stroke: #0173b2; stroke-opacity: 0.999; stroke-width: 1.2"/>
    <path d="M 278.685596 53.667218 
L 274.502296 62.033819 
L 282.868896 62.033819 
L 278.685596 53.667218 
z
" clip-path="url(#pb02f67dfd5)" style="fill: none; stroke: #0173b2; stroke-opacity: 0.999; stroke-width: 1.2"/>
    <path d="M 493.623776 241.091164 
L 489.440476 249.457764 
L 497.807076 249.457764 
L 493.623776 241.091164 
z
" clip-path="url(#pb02f67dfd5)" style="fill: none; stroke: #0173b2; stroke-opacity: 0.999; stroke-width: 1.2"/>
    <path d="M 477.761398 240.787836 
L 473.578097 249.154436 
L 481.944698 249.154436 
L 477.761398 240.787836 
z
" clip-path="url(#pb02f67dfd5)" style="fill: none; stroke: #0173b2; stroke-opacity: 0.999; stroke-width: 1.2"/>
    <path d="M 254.586203 76.138637 
L 250.402903 84.505237 
L 258.769504 84.505237 
L 254.586203 76.138637 
z
" clip-path="url(#pb02f67dfd5)" style="fill: none; stroke: #0173b2; stroke-opacity: 0.999; stroke-width: 1.2"/>
    <path d="M 279.96484 43.826332 
L 275.78154 52.192932 
L 284.14814 52.192932 
L 279.96484 43.826332 
z
" clip-path="url(#pb02f67dfd5)" style="fill: none; stroke: #0173b2; stroke-opacity: 0.999; stroke-width: 1.2"/>
    <path d="M 475.097392 281.777023 
L 470.914092 290.143623 
L 479.280692 290.143623 
L 475.097392 281.777023 
z
" clip-path="url(#pb02f67dfd5)" style="fill: none; stroke: #0173b2; stroke-opacity: 0.999; stroke-width: 1.2"/>
    <path d="M 243.424114 364.173018 
L 239.240814 372.539618 
L 247.607414 372.539618 
L 243.424114 364.173018 
z
" clip-path="url(#pb02f67dfd5)" style="fill: none; stroke: #0173b2; stroke-opacity: 0.999; stroke-width: 1.2"/>
    <path d="M 482.811452 289.11195 
L 478.628152 297.478551 
L 486.994752 297.478551 
L 482.811452 289.11195 
z
" clip-path="url(#pb02f67dfd5)" style="fill: none; stroke: #0173b2; stroke-opacity: 0.999; stroke-width: 1.2"/>
    <path d="M 494.018966 283.022373 
L 489.835666 291.388973 
L 498.202266 291.388973 
L 494.018966 283.022373 
z
" clip-path="url(#pb02f67dfd5)" style="fill: none; stroke: #0173b2; stroke-opacity: 0.999; stroke-width: 1.2"/>
    <path d="M 281.477014 91.383038 
L 277.293714 99.749638 
L 285.660315 99.749638 
L 281.477014 91.383038 
z
" clip-path="url(#pb02f67dfd5)" style="fill: none; stroke: #0173b2; stroke-opacity: 0.999; stroke-width: 1.2"/>
    <path d="M 460.732474 281.259737 
L 456.549174 289.626338 
L 464.915774 289.626338 
L 460.732474 281.259737 
z
" clip-path="url(#pb02f67dfd5)" style="fill: none; stroke: #0173b2; stroke-opacity: 0.999; stroke-width: 1.2"/>
    <path d="M 284.320415 82.304314 
L 280.137115 90.670915 
L 288.503716 90.670915 
L 284.320415 82.304314 
z
" clip-path="url(#pb02f67dfd5)" style="fill: none; stroke: #0173b2; stroke-opacity: 0.999; stroke-width: 1.2"/>
    <path d="M 489.509058 274.661027 
L 485.325758 283.027628 
L 493.692358 283.027628 
L 489.509058 274.661027 
z
" clip-path="url(#pb02f67dfd5)" style="fill: none; stroke: #0173b2; stroke-opacity: 0.999; stroke-width: 1.2"/>
    <path d="M 285.80826 117.030624 
L 281.62496 125.397224 
L 289.99156 125.397224 
L 285.80826 117.030624 
z
" clip-path="url(#pb02f67dfd5)" style="fill: none; stroke: #0173b2; stroke-opacity: 0.999; stroke-width: 1.2"/>
    <path d="M 484.2409 261.117382 
L 480.057599 269.483982 
L 488.4242 269.483982 
L 484.2409 261.117382 
z
" clip-path="url(#pb02f67dfd5)" style="fill: none; stroke: #0173b2; stroke-opacity: 0.999; stroke-width: 1.2"/>
    <path d="M 492.435762 240.16673 
L 488.252462 248.53333 
L 496.619062 248.53333 
L 492.435762 240.16673 
z
" clip-path="url(#pb02f67dfd5)" style="fill: none; stroke: #0173b2; stroke-opacity: 0.999; stroke-width: 1.2"/>
    <path d="M 284.08402 53.406541 
L 279.900719 61.773141 
L 288.26732 61.773141 
L 284.08402 53.406541 
z
" clip-path="url(#pb02f67dfd5)" style="fill: none; stroke: #0173b2; stroke-opacity: 0.999; stroke-width: 1.2"/>
    <path d="M 497.500653 291.690013 
L 493.317352 300.056613 
L 501.683953 300.056613 
L 497.500653 291.690013 
z
" clip-path="url(#pb02f67dfd5)" style="fill: none; stroke: #0173b2; stroke-opacity: 0.999; stroke-width: 1.2"/>
    <path d="M 276.646698 134.927453 
L 272.463398 143.294053 
L 280.829998 143.294053 
L 276.646698 134.927453 
z
" clip-path="url(#pb02f67dfd5)" style="fill: none; stroke: #0173b2; stroke-opacity: 0.999; stroke-width: 1.2"/>
    <path d="M 478.29862 284.550229 
L 474.11532 292.916829 
L 482.481921 292.916829 
L 478.29862 284.550229 
z
" clip-path="url(#pb02f67dfd5)" style="fill: none; stroke: #0173b2; stroke-opacity: 0.999; stroke-width: 1.2"/>
    <path d="M 290.789471 120.643893 
L 286.60617 129.010493 
L 294.972771 129.010493 
L 290.789471 120.643893 
z
" clip-path="url(#pb02f67dfd5)" style="fill: none; stroke: #0173b2; stroke-opacity: 0.999; stroke-width: 1.2"/>
   </g>
   <g id="PathCollection_3">
    <defs>
     <path id="mcbe0ddac74" d="M 0 3.872983 
C 1.027127 3.872983 2.012324 3.464901 2.738613 2.738613 
C 3.464901 2.012324 3.872983 1.027127 3.872983 0 
C 3.872983 -1.027127 3.464901 -2.012324 2.738613 -2.738613 
C 2.012324 -3.464901 1.027127 -3.872983 0 -3.872983 
C -1.027127 -3.872983 -2.012324 -3.464901 -2.738613 -2.738613 
C -3.464901 -2.012324 -3.872983 -1.027127 -3.872983 0 
C -3.872983 1.027127 -3.464901 2.012324 -2.738613 2.738613 
C -2.012324 3.464901 -1.027127 3.872983 0 3.872983 
z
" style="stroke: #000000; stroke-opacity: 0.7; stroke-width: 0.3"/>
    </defs>
    <g clip-path="url(#pb02f67dfd5)">
     <use xlink:href="#mcbe0ddac74" x="441.851539" y="309.763257" style="fill: #de8f05; fill-opacity: 0.7; stroke: #000000; stroke-opacity: 0.7; stroke-width: 0.3"/>
     <use xlink:href="#mcbe0ddac74" x="469.570448" y="301.046291" style="fill: #de8f05; fill-opacity: 0.7; stroke: #000000; stroke-opacity: 0.7; stroke-width: 0.3"/>
     <use xlink:href="#mcbe0ddac74" x="443.210269" y="281.93337" style="fill: #de8f05; fill-opacity: 0.7; stroke: #000000; stroke-opacity: 0.7; stroke-width: 0.3"/>
     <use xlink:href="#mcbe0ddac74" x="461.573137" y="274.996705" style="fill: #de8f05; fill-opacity: 0.7; stroke: #000000; stroke-opacity: 0.7; stroke-width: 0.3"/>
     <use xlink:href="#mcbe0ddac74" x="525.641208" y="304.039681" style="fill: #de8f05; fill-opacity: 0.7; stroke: #000000; stroke-opacity: 0.7; stroke-width: 0.3"/>
     <use xlink:href="#mcbe0ddac74" x="439.9435" y="307.196122" style="fill: #de8f05; fill-opacity: 0.7; stroke: #000000; stroke-opacity: 0.7; stroke-width: 0.3"/>
     <use xlink:href="#mcbe0ddac74" x="469.524718" y="248.482505" style="fill: #de8f05; fill-opacity: 0.7; stroke: #000000; stroke-opacity: 0.7; stroke-width: 0.3"/>
     <use xlink:href="#mcbe0ddac74" x="473.297277" y="239.845006" style="fill: #de8f05; fill-opacity: 0.7; stroke: #000000; stroke-opacity: 0.7; stroke-width: 0.3"/>
     <use xlink:href="#mcbe0ddac74" x="396.979471" y="272.16855" style="fill: #de8f05; fill-opacity: 0.7; stroke: #000000; stroke-opacity: 0.7; stroke-width: 0.3"/>
     <use xlink:href="#mcbe0ddac74" x="439.673267" y="300.51877" style="fill: #de8f05; fill-opacity: 0.7; stroke: #000000; stroke-opacity: 0.7; stroke-width: 0.3"/>
     <use xlink:href="#mcbe0ddac74" x="506.172623" y="276.502663" style="fill: #de8f05; fill-opacity: 0.7; stroke: #000000; stroke-opacity: 0.7; stroke-width: 0.3"/>
     <use xlink:href="#mcbe0ddac74" x="434.550342" y="263.523727" style="fill: #de8f05; fill-opacity: 0.7; stroke: #000000; stroke-opacity: 0.7; stroke-width: 0.3"/>
     <use xlink:href="#mcbe0ddac74" x="411.45976" y="308.268807" style="fill: #de8f05; fill-opacity: 0.7; stroke: #000000; stroke-opacity: 0.7; stroke-width: 0.3"/>
     <use xlink:href="#mcbe0ddac74" x="428.781454" y="288.09616" style="fill: #de8f05; fill-opacity: 0.7; stroke: #000000; stroke-opacity: 0.7; stroke-width: 0.3"/>
     <use xlink:href="#mcbe0ddac74" x="491.814221" y="310.818314" style="fill: #de8f05; fill-opacity: 0.7; stroke: #000000; stroke-opacity: 0.7; stroke-width: 0.3"/>
     <use xlink:href="#mcbe0ddac74" x="460.914957" y="250.76864" style="fill: #de8f05; fill-opacity: 0.7; stroke: #000000; stroke-opacity: 0.7; stroke-width: 0.3"/>
     <use xlink:href="#mcbe0ddac74" x="481.913715" y="298.812788" style="fill: #de8f05; fill-opacity: 0.7; stroke: #000000; stroke-opacity: 0.7; stroke-width: 0.3"/>
     <use xlink:href="#mcbe0ddac74" x="481.269178" y="232.913169" style="fill: #de8f05; fill-opacity: 0.7; stroke: #000000; stroke-opacity: 0.7; stroke-width: 0.3"/>
     <use xlink:href="#mcbe0ddac74" x="498.683459" y="305.043111" style="fill: #de8f05; fill-opacity: 0.7; stroke: #000000; stroke-opacity: 0.7; stroke-width: 0.3"/>
     <use xlink:href="#mcbe0ddac74" x="423.225405" y="278.417698" style="fill: #de8f05; fill-opacity: 0.7; stroke: #000000; stroke-opacity: 0.7; stroke-width: 0.3"/>
     <use xlink:href="#mcbe0ddac74" x="412.634465" y="310.674739" style="fill: #de8f05; fill-opacity: 0.7; stroke: #000000; stroke-opacity: 0.7; stroke-width: 0.3"/>
     <use xlink:href="#mcbe0ddac74" x="448.885122" y="274.432455" style="fill: #de8f05; fill-opacity: 0.7; stroke: #000000; stroke-opacity: 0.7; stroke-width: 0.3"/>
     <use xlink:href="#mcbe0ddac74" x="421.832328" y="300.218494" style="fill: #de8f05; fill-opacity: 0.7; stroke: #000000; stroke-opacity: 0.7; stroke-width: 0.3"/>
     <use xlink:href="#mcbe0ddac74" x="505.573845" y="247.976295" style="fill: #de8f05; fill-opacity: 0.7; stroke: #000000; stroke-opacity: 0.7; stroke-width: 0.3"/>
     <use xlink:href="#mcbe0ddac74" x="429.525887" y="299.310251" style="fill: #de8f05; fill-opacity: 0.7; stroke: #000000; stroke-opacity: 0.7; stroke-width: 0.3"/>
     <use xlink:href="#mcbe0ddac74" x="470.354312" y="263.384119" style="fill: #de8f05; fill-opacity: 0.7; stroke: #000000; stroke-opacity: 0.7; stroke-width: 0.3"/>
     <use xlink:href="#mcbe0ddac74" x="448.967622" y="317.454859" style="fill: #de8f05; fill-opacity: 0.7; stroke: #000000; stroke-opacity: 0.7; stroke-width: 0.3"/>
    </g>
   </g>
   <g id="PathCollection_4">
    <path d="M 308.927363 23.1767 
L 304.744063 31.5433 
L 313.110663 31.5433 
L 308.927363 23.1767 
z
" clip-path="url(#pb02f67dfd5)" style="fill: none; stroke: #de8f05; stroke-opacity: 0.999; stroke-width: 1.2"/>
    <path d="M 412.295681 271.891757 
L 408.112381 280.258358 
L 416.478981 280.258358 
L 412.295681 271.891757 
z
" clip-path="url(#pb02f67dfd5)" style="fill: none; stroke: #de8f05; stroke-opacity: 0.999; stroke-width: 1.2"/>
    <path d="M 338.080518 179.368652 
L 333.897218 187.735252 
L 342.263818 187.735252 
L 338.080518 179.368652 
z
" clip-path="url(#pb02f67dfd5)" style="fill: none; stroke: #de8f05; stroke-opacity: 0.999; stroke-width: 1.2"/>
    <path d="M 499.710531 325.039568 
L 495.527231 333.406168 
L 503.893831 333.406168 
L 499.710531 325.039568 
z
" clip-path="url(#pb02f67dfd5)" style="fill: none; stroke: #de8f05; stroke-opacity: 0.999; stroke-width: 1.2"/>
    <path d="M 156.108534 366.551488 
L 151.925234 374.918089 
L 160.291834 374.918089 
L 156.108534 366.551488 
z
" clip-path="url(#pb02f67dfd5)" style="fill: none; stroke: #de8f05; stroke-opacity: 0.999; stroke-width: 1.2"/>
    <path d="M 416.108167 272.50242 
L 411.924867 280.86902 
L 420.291467 280.86902 
L 416.108167 272.50242 
z
" clip-path="url(#pb02f67dfd5)" style="fill: none; stroke: #de8f05; stroke-opacity: 0.999; stroke-width: 1.2"/>
    <path d="M 156.877664 405.115941 
L 152.694364 413.482542 
L 161.060964 413.482542 
L 156.877664 405.115941 
z
" clip-path="url(#pb02f67dfd5)" style="fill: none; stroke: #de8f05; stroke-opacity: 0.999; stroke-width: 1.2"/>
    <path d="M 498.533994 314.595308 
L 494.350694 322.961908 
L 502.717294 322.961908 
L 498.533994 314.595308 
z
" clip-path="url(#pb02f67dfd5)" style="fill: none; stroke: #de8f05; stroke-opacity: 0.999; stroke-width: 1.2"/>
    <path d="M 321.821991 181.120888 
L 317.638691 189.487488 
L 326.005291 189.487488 
L 321.821991 181.120888 
z
" clip-path="url(#pb02f67dfd5)" style="fill: none; stroke: #de8f05; stroke-opacity: 0.999; stroke-width: 1.2"/>
    <path d="M 405.891261 268.817277 
L 401.707961 277.183877 
L 410.074561 277.183877 
L 405.891261 268.817277 
z
" clip-path="url(#pb02f67dfd5)" style="fill: none; stroke: #de8f05; stroke-opacity: 0.999; stroke-width: 1.2"/>
    <path d="M 185.38141 397.027447 
L 181.19811 405.394047 
L 189.56471 405.394047 
L 185.38141 397.027447 
z
" clip-path="url(#pb02f67dfd5)" style="fill: none; stroke: #de8f05; stroke-opacity: 0.999; stroke-width: 1.2"/>
    <path d="M 356.624103 242.4065 
L 352.440803 250.7731 
L 360.807403 250.7731 
L 356.624103 242.4065 
z
" clip-path="url(#pb02f67dfd5)" style="fill: none; stroke: #de8f05; stroke-opacity: 0.999; stroke-width: 1.2"/>
    <path d="M 403.141454 253.390323 
L 398.958154 261.756923 
L 407.324754 261.756923 
L 403.141454 253.390323 
z
" clip-path="url(#pb02f67dfd5)" style="fill: none; stroke: #de8f05; stroke-opacity: 0.999; stroke-width: 1.2"/>
    <path d="M 323.199211 35.051019 
L 319.01591 43.417619 
L 327.382511 43.417619 
L 323.199211 35.051019 
z
" clip-path="url(#pb02f67dfd5)" style="fill: none; stroke: #de8f05; stroke-opacity: 0.999; stroke-width: 1.2"/>
    <path d="M 311.226289 27.924435 
L 307.042989 36.291035 
L 315.409589 36.291035 
L 311.226289 27.924435 
z
" clip-path="url(#pb02f67dfd5)" style="fill: none; stroke: #de8f05; stroke-opacity: 0.999; stroke-width: 1.2"/>
    <path d="M 307.475942 23.299315 
L 303.292642 31.665915 
L 311.659243 31.665915 
L 307.475942 23.299315 
z
" clip-path="url(#pb02f67dfd5)" style="fill: none; stroke: #de8f05; stroke-opacity: 0.999; stroke-width: 1.2"/>
    <path d="M 335.147027 191.281501 
L 330.963726 199.648101 
L 339.330327 199.648101 
L 335.147027 191.281501 
z
" clip-path="url(#pb02f67dfd5)" style="fill: none; stroke: #de8f05; stroke-opacity: 0.999; stroke-width: 1.2"/>
    <path d="M 196.145372 351.257023 
L 191.962072 359.623623 
L 200.328672 359.623623 
L 196.145372 351.257023 
z
" clip-path="url(#pb02f67dfd5)" style="fill: none; stroke: #de8f05; stroke-opacity: 0.999; stroke-width: 1.2"/>
    <path d="M 483.070122 310.394046 
L 478.886822 318.760647 
L 487.253422 318.760647 
L 483.070122 310.394046 
z
" clip-path="url(#pb02f67dfd5)" style="fill: none; stroke: #de8f05; stroke-opacity: 0.999; stroke-width: 1.2"/>
    <path d="M 507.89082 317.265124 
L 503.707519 325.631724 
L 512.07412 325.631724 
L 507.89082 317.265124 
z
" clip-path="url(#pb02f67dfd5)" style="fill: none; stroke: #de8f05; stroke-opacity: 0.999; stroke-width: 1.2"/>
    <path d="M 164.394303 353.515017 
L 160.211003 361.881617 
L 168.577603 361.881617 
L 164.394303 353.515017 
z
" clip-path="url(#pb02f67dfd5)" style="fill: none; stroke: #de8f05; stroke-opacity: 0.999; stroke-width: 1.2"/>
    <path d="M 314.619684 27.152658 
L 310.436384 35.519258 
L 318.802984 35.519258 
L 314.619684 27.152658 
z
" clip-path="url(#pb02f67dfd5)" style="fill: none; stroke: #de8f05; stroke-opacity: 0.999; stroke-width: 1.2"/>
    <path d="M 418.706072 272.003429 
L 414.522772 280.370029 
L 422.889372 280.370029 
L 418.706072 272.003429 
z
" clip-path="url(#pb02f67dfd5)" style="fill: none; stroke: #de8f05; stroke-opacity: 0.999; stroke-width: 1.2"/>
    <path d="M 519.181808 319.726378 
L 514.998508 328.092979 
L 523.365108 328.092979 
L 519.181808 319.726378 
z
" clip-path="url(#pb02f67dfd5)" style="fill: none; stroke: #de8f05; stroke-opacity: 0.999; stroke-width: 1.2"/>
    <path d="M 363.206108 265.703006 
L 359.022808 274.069606 
L 367.389408 274.069606 
L 363.206108 265.703006 
z
" clip-path="url(#pb02f67dfd5)" style="fill: none; stroke: #de8f05; stroke-opacity: 0.999; stroke-width: 1.2"/>
    <path d="M 158.092324 362.337478 
L 153.909024 370.704079 
L 162.275624 370.704079 
L 158.092324 362.337478 
z
" clip-path="url(#pb02f67dfd5)" style="fill: none; stroke: #de8f05; stroke-opacity: 0.999; stroke-width: 1.2"/>
    <path d="M 478.134435 311.172616 
L 473.951135 319.539216 
L 482.317736 319.539216 
L 478.134435 311.172616 
z
" clip-path="url(#pb02f67dfd5)" style="fill: none; stroke: #de8f05; stroke-opacity: 0.999; stroke-width: 1.2"/>
    <path d="M 515.756512 321.579946 
L 511.573212 329.946546 
L 519.939812 329.946546 
L 515.756512 321.579946 
z
" clip-path="url(#pb02f67dfd5)" style="fill: none; stroke: #de8f05; stroke-opacity: 0.999; stroke-width: 1.2"/>
    <path d="M 306.49893 23.703901 
L 302.31563 32.070501 
L 310.68223 32.070501 
L 306.49893 23.703901 
z
" clip-path="url(#pb02f67dfd5)" style="fill: none; stroke: #de8f05; stroke-opacity: 0.999; stroke-width: 1.2"/>
    <path d="M 494.963364 305.799915 
L 490.780064 314.166515 
L 499.146664 314.166515 
L 494.963364 305.799915 
z
" clip-path="url(#pb02f67dfd5)" style="fill: none; stroke: #de8f05; stroke-opacity: 0.999; stroke-width: 1.2"/>
    <path d="M 367.523966 266.425319 
L 363.340666 274.791919 
L 371.707267 274.791919 
L 367.523966 266.425319 
z
" clip-path="url(#pb02f67dfd5)" style="fill: none; stroke: #de8f05; stroke-opacity: 0.999; stroke-width: 1.2"/>
   </g>
   <g id="PathCollection_5">
    <defs>
     <path id="md57cf18135" d="M 0 3.872983 
C 1.027127 3.872983 2.012324 3.464901 2.738613 2.738613 
C 3.464901 2.012324 3.872983 1.027127 3.872983 0 
C 3.872983 -1.027127 3.464901 -2.012324 2.738613 -2.738613 
C 2.012324 -3.464901 1.027127 -3.872983 0 -3.872983 
C -1.027127 -3.872983 -2.012324 -3.464901 -2.738613 -2.738613 
C -3.464901 -2.012324 -3.872983 -1.027127 -3.872983 0 
C -3.872983 1.027127 -3.464901 2.012324 -2.738613 2.738613 
C -2.012324 3.464901 -1.027127 3.872983 0 3.872983 
z
" style="stroke: #000000; stroke-opacity: 0.7; stroke-width: 0.3"/>
    </defs>
    <g clip-path="url(#pb02f67dfd5)">
     <use xlink:href="#md57cf18135" x="230.847631" y="341.700204" style="fill: #029e73; fill-opacity: 0.7; stroke: #000000; stroke-opacity: 0.7; stroke-width: 0.3"/>
     <use xlink:href="#md57cf18135" x="225.48517" y="323.781194" style="fill: #029e73; fill-opacity: 0.7; stroke: #000000; stroke-opacity: 0.7; stroke-width: 0.3"/>
     <use xlink:href="#md57cf18135" x="222.779747" y="362.113711" style="fill: #029e73; fill-opacity: 0.7; stroke: #000000; stroke-opacity: 0.7; stroke-width: 0.3"/>
     <use xlink:href="#md57cf18135" x="356.454355" y="275.085535" style="fill: #029e73; fill-opacity: 0.7; stroke: #000000; stroke-opacity: 0.7; stroke-width: 0.3"/>
     <use xlink:href="#md57cf18135" x="212.152655" y="413.131116" style="fill: #029e73; fill-opacity: 0.7; stroke: #000000; stroke-opacity: 0.7; stroke-width: 0.3"/>
     <use xlink:href="#md57cf18135" x="216.938251" y="385.225856" style="fill: #029e73; fill-opacity: 0.7; stroke: #000000; stroke-opacity: 0.7; stroke-width: 0.3"/>
     <use xlink:href="#md57cf18135" x="205.976527" y="412.466362" style="fill: #029e73; fill-opacity: 0.7; stroke: #000000; stroke-opacity: 0.7; stroke-width: 0.3"/>
     <use xlink:href="#md57cf18135" x="211.471102" y="334.82624" style="fill: #029e73; fill-opacity: 0.7; stroke: #000000; stroke-opacity: 0.7; stroke-width: 0.3"/>
     <use xlink:href="#md57cf18135" x="161.302468" y="345.78496" style="fill: #029e73; fill-opacity: 0.7; stroke: #000000; stroke-opacity: 0.7; stroke-width: 0.3"/>
     <use xlink:href="#md57cf18135" x="156.280239" y="430.56" style="fill: #029e73; fill-opacity: 0.7; stroke: #000000; stroke-opacity: 0.7; stroke-width: 0.3"/>
     <use xlink:href="#md57cf18135" x="154.582362" y="359.45988" style="fill: #029e73; fill-opacity: 0.7; stroke: #000000; stroke-opacity: 0.7; stroke-width: 0.3"/>
     <use xlink:href="#md57cf18135" x="208.210391" y="320.659673" style="fill: #029e73; fill-opacity: 0.7; stroke: #000000; stroke-opacity: 0.7; stroke-width: 0.3"/>
     <use xlink:href="#md57cf18135" x="195.475214" y="394.913117" style="fill: #029e73; fill-opacity: 0.7; stroke: #000000; stroke-opacity: 0.7; stroke-width: 0.3"/>
     <use xlink:href="#md57cf18135" x="173.22899" y="411.795222" style="fill: #029e73; fill-opacity: 0.7; stroke: #000000; stroke-opacity: 0.7; stroke-width: 0.3"/>
     <use xlink:href="#md57cf18135" x="197.1163" y="322.262578" style="fill: #029e73; fill-opacity: 0.7; stroke: #000000; stroke-opacity: 0.7; stroke-width: 0.3"/>
     <use xlink:href="#md57cf18135" x="190.072463" y="337.992901" style="fill: #029e73; fill-opacity: 0.7; stroke: #000000; stroke-opacity: 0.7; stroke-width: 0.3"/>
     <use xlink:href="#md57cf18135" x="255.093718" y="324.548695" style="fill: #029e73; fill-opacity: 0.7; stroke: #000000; stroke-opacity: 0.7; stroke-width: 0.3"/>
     <use xlink:href="#md57cf18135" x="208.352882" y="362.357851" style="fill: #029e73; fill-opacity: 0.7; stroke: #000000; stroke-opacity: 0.7; stroke-width: 0.3"/>
     <use xlink:href="#md57cf18135" x="199.908317" y="342.580648" style="fill: #029e73; fill-opacity: 0.7; stroke: #000000; stroke-opacity: 0.7; stroke-width: 0.3"/>
     <use xlink:href="#md57cf18135" x="148.914054" y="402.914588" style="fill: #029e73; fill-opacity: 0.7; stroke: #000000; stroke-opacity: 0.7; stroke-width: 0.3"/>
     <use xlink:href="#md57cf18135" x="253.605865" y="299.282576" style="fill: #029e73; fill-opacity: 0.7; stroke: #000000; stroke-opacity: 0.7; stroke-width: 0.3"/>
     <use xlink:href="#md57cf18135" x="234.217066" y="314.820795" style="fill: #029e73; fill-opacity: 0.7; stroke: #000000; stroke-opacity: 0.7; stroke-width: 0.3"/>
     <use xlink:href="#md57cf18135" x="226.683096" y="394.353553" style="fill: #029e73; fill-opacity: 0.7; stroke: #000000; stroke-opacity: 0.7; stroke-width: 0.3"/>
     <use xlink:href="#md57cf18135" x="229.3542" y="382.055434" style="fill: #029e73; fill-opacity: 0.7; stroke: #000000; stroke-opacity: 0.7; stroke-width: 0.3"/>
     <use xlink:href="#md57cf18135" x="192.554909" y="364.400599" style="fill: #029e73; fill-opacity: 0.7; stroke: #000000; stroke-opacity: 0.7; stroke-width: 0.3"/>
     <use xlink:href="#md57cf18135" x="167.922665" y="398.900289" style="fill: #029e73; fill-opacity: 0.7; stroke: #000000; stroke-opacity: 0.7; stroke-width: 0.3"/>
     <use xlink:href="#md57cf18135" x="244.013074" y="335.703621" style="fill: #029e73; fill-opacity: 0.7; stroke: #000000; stroke-opacity: 0.7; stroke-width: 0.3"/>
     <use xlink:href="#md57cf18135" x="185.125315" y="374.704841" style="fill: #029e73; fill-opacity: 0.7; stroke: #000000; stroke-opacity: 0.7; stroke-width: 0.3"/>
     <use xlink:href="#md57cf18135" x="223.026425" y="382.182267" style="fill: #029e73; fill-opacity: 0.7; stroke: #000000; stroke-opacity: 0.7; stroke-width: 0.3"/>
     <use xlink:href="#md57cf18135" x="146.607944" y="379.862078" style="fill: #029e73; fill-opacity: 0.7; stroke: #000000; stroke-opacity: 0.7; stroke-width: 0.3"/>
     <use xlink:href="#md57cf18135" x="217.504222" y="378.877318" style="fill: #029e73; fill-opacity: 0.7; stroke: #000000; stroke-opacity: 0.7; stroke-width: 0.3"/>
     <use xlink:href="#md57cf18135" x="150.114009" y="366.656164" style="fill: #029e73; fill-opacity: 0.7; stroke: #000000; stroke-opacity: 0.7; stroke-width: 0.3"/>
     <use xlink:href="#md57cf18135" x="171.976265" y="406.302924" style="fill: #029e73; fill-opacity: 0.7; stroke: #000000; stroke-opacity: 0.7; stroke-width: 0.3"/>
     <use xlink:href="#md57cf18135" x="211.097955" y="353.983182" style="fill: #029e73; fill-opacity: 0.7; stroke: #000000; stroke-opacity: 0.7; stroke-width: 0.3"/>
    </g>
   </g>
   <g id="PathCollection_6">
    <path d="M 277.409788 158.868304 
L 273.226488 167.234904 
L 281.593088 167.234904 
L 277.409788 158.868304 
z
" clip-path="url(#pb02f67dfd5)" style="fill: none; stroke: #029e73; stroke-opacity: 0.999; stroke-width: 1.2"/>
    <path d="M 283.907371 186.986966 
L 279.724071 195.353566 
L 288.090671 195.353566 
L 283.907371 186.986966 
z
" clip-path="url(#pb02f67dfd5)" style="fill: none; stroke: #029e73; stroke-opacity: 0.999; stroke-width: 1.2"/>
    <path d="M 178.626483 360.725199 
L 174.443182 369.091799 
L 182.809783 369.091799 
L 178.626483 360.725199 
z
" clip-path="url(#pb02f67dfd5)" style="fill: none; stroke: #029e73; stroke-opacity: 0.999; stroke-width: 1.2"/>
    <path d="M 276.332571 194.416909 
L 272.149271 202.783509 
L 280.515872 202.783509 
L 276.332571 194.416909 
z
" clip-path="url(#pb02f67dfd5)" style="fill: none; stroke: #029e73; stroke-opacity: 0.999; stroke-width: 1.2"/>
    <path d="M 230.720042 328.913012 
L 226.536741 337.279612 
L 234.903342 337.279612 
L 230.720042 328.913012 
z
" clip-path="url(#pb02f67dfd5)" style="fill: none; stroke: #029e73; stroke-opacity: 0.999; stroke-width: 1.2"/>
    <path d="M 139.942542 384.609084 
L 135.759241 392.975684 
L 144.125842 392.975684 
L 139.942542 384.609084 
z
" clip-path="url(#pb02f67dfd5)" style="fill: none; stroke: #029e73; stroke-opacity: 0.999; stroke-width: 1.2"/>
    <path d="M 227.567619 337.110696 
L 223.384319 345.477297 
L 231.750919 345.477297 
L 227.567619 337.110696 
z
" clip-path="url(#pb02f67dfd5)" style="fill: none; stroke: #029e73; stroke-opacity: 0.999; stroke-width: 1.2"/>
    <path d="M 197.778392 392.515852 
L 193.595092 400.882452 
L 201.961692 400.882452 
L 197.778392 392.515852 
z
" clip-path="url(#pb02f67dfd5)" style="fill: none; stroke: #029e73; stroke-opacity: 0.999; stroke-width: 1.2"/>
    <path d="M 165.070388 375.450013 
L 160.887088 383.816613 
L 169.253688 383.816613 
L 165.070388 375.450013 
z
" clip-path="url(#pb02f67dfd5)" style="fill: none; stroke: #029e73; stroke-opacity: 0.999; stroke-width: 1.2"/>
    <path d="M 217.354226 336.620323 
L 213.170926 344.986923 
L 221.537526 344.986923 
L 217.354226 336.620323 
z
" clip-path="url(#pb02f67dfd5)" style="fill: none; stroke: #029e73; stroke-opacity: 0.999; stroke-width: 1.2"/>
    <path d="M 262.634684 185.184215 
L 258.451384 193.550815 
L 266.817984 193.550815 
L 262.634684 185.184215 
z
" clip-path="url(#pb02f67dfd5)" style="fill: none; stroke: #029e73; stroke-opacity: 0.999; stroke-width: 1.2"/>
    <path d="M 235.296341 321.601371 
L 231.113041 329.967971 
L 239.479641 329.967971 
L 235.296341 321.601371 
z
" clip-path="url(#pb02f67dfd5)" style="fill: none; stroke: #029e73; stroke-opacity: 0.999; stroke-width: 1.2"/>
    <path d="M 147.887229 338.406213 
L 143.703928 346.772813 
L 152.070529 346.772813 
L 147.887229 338.406213 
z
" clip-path="url(#pb02f67dfd5)" style="fill: none; stroke: #029e73; stroke-opacity: 0.999; stroke-width: 1.2"/>
    <path d="M 148.834201 424.605268 
L 144.650901 432.971868 
L 153.017501 432.971868 
L 148.834201 424.605268 
z
" clip-path="url(#pb02f67dfd5)" style="fill: none; stroke: #029e73; stroke-opacity: 0.999; stroke-width: 1.2"/>
    <path d="M 275.779407 185.705351 
L 271.596107 194.071951 
L 279.962707 194.071951 
L 275.779407 185.705351 
z
" clip-path="url(#pb02f67dfd5)" style="fill: none; stroke: #029e73; stroke-opacity: 0.999; stroke-width: 1.2"/>
    <path d="M 168.940632 381.239424 
L 164.757332 389.606024 
L 173.123932 389.606024 
L 168.940632 381.239424 
z
" clip-path="url(#pb02f67dfd5)" style="fill: none; stroke: #029e73; stroke-opacity: 0.999; stroke-width: 1.2"/>
    <path d="M 283.934787 186.823042 
L 279.751487 195.189643 
L 288.118087 195.189643 
L 283.934787 186.823042 
z
" clip-path="url(#pb02f67dfd5)" style="fill: none; stroke: #029e73; stroke-opacity: 0.999; stroke-width: 1.2"/>
    <path d="M 145.718396 387.082345 
L 141.535096 395.448946 
L 149.901696 395.448946 
L 145.718396 387.082345 
z
" clip-path="url(#pb02f67dfd5)" style="fill: none; stroke: #029e73; stroke-opacity: 0.999; stroke-width: 1.2"/>
    <path d="M 147.694506 423.954099 
L 143.511206 432.320699 
L 151.877806 432.320699 
L 147.694506 423.954099 
z
" clip-path="url(#pb02f67dfd5)" style="fill: none; stroke: #029e73; stroke-opacity: 0.999; stroke-width: 1.2"/>
    <path d="M 179.482054 358.154311 
L 175.298754 366.520911 
L 183.665354 366.520911 
L 179.482054 358.154311 
z
" clip-path="url(#pb02f67dfd5)" style="fill: none; stroke: #029e73; stroke-opacity: 0.999; stroke-width: 1.2"/>
    <path d="M 271.22622 191.059783 
L 267.04292 199.426383 
L 275.40952 199.426383 
L 271.22622 191.059783 
z
" clip-path="url(#pb02f67dfd5)" style="fill: none; stroke: #029e73; stroke-opacity: 0.999; stroke-width: 1.2"/>
    <path d="M 281.436248 179.736497 
L 277.252948 188.103098 
L 285.619548 188.103098 
L 281.436248 179.736497 
z
" clip-path="url(#pb02f67dfd5)" style="fill: none; stroke: #029e73; stroke-opacity: 0.999; stroke-width: 1.2"/>
    <path d="M 265.420847 186.29787 
L 261.237546 194.66447 
L 269.604147 194.66447 
L 265.420847 186.29787 
z
" clip-path="url(#pb02f67dfd5)" style="fill: none; stroke: #029e73; stroke-opacity: 0.999; stroke-width: 1.2"/>
    <path d="M 244.213003 300.477762 
L 240.029703 308.844362 
L 248.396303 308.844362 
L 244.213003 300.477762 
z
" clip-path="url(#pb02f67dfd5)" style="fill: none; stroke: #029e73; stroke-opacity: 0.999; stroke-width: 1.2"/>
    <path d="M 294.035125 99.166507 
L 289.851825 107.533108 
L 298.218425 107.533108 
L 294.035125 99.166507 
z
" clip-path="url(#pb02f67dfd5)" style="fill: none; stroke: #029e73; stroke-opacity: 0.999; stroke-width: 1.2"/>
    <path d="M 293.274831 96.967741 
L 289.091531 105.334341 
L 297.458132 105.334341 
L 293.274831 96.967741 
z
" clip-path="url(#pb02f67dfd5)" style="fill: none; stroke: #029e73; stroke-opacity: 0.999; stroke-width: 1.2"/>
    <path d="M 185.357687 365.349221 
L 181.174387 373.715821 
L 189.540987 373.715821 
L 185.357687 365.349221 
z
" clip-path="url(#pb02f67dfd5)" style="fill: none; stroke: #029e73; stroke-opacity: 0.999; stroke-width: 1.2"/>
    <path d="M 277.968981 146.956589 
L 273.785681 155.32319 
L 282.152281 155.32319 
L 277.968981 146.956589 
z
" clip-path="url(#pb02f67dfd5)" style="fill: none; stroke: #029e73; stroke-opacity: 0.999; stroke-width: 1.2"/>
    <path d="M 219.075179 331.855382 
L 214.891879 340.221982 
L 223.258479 340.221982 
L 219.075179 331.855382 
z
" clip-path="url(#pb02f67dfd5)" style="fill: none; stroke: #029e73; stroke-opacity: 0.999; stroke-width: 1.2"/>
    <path d="M 279.122567 143.640448 
L 274.939266 152.007048 
L 283.305867 152.007048 
L 279.122567 143.640448 
z
" clip-path="url(#pb02f67dfd5)" style="fill: none; stroke: #029e73; stroke-opacity: 0.999; stroke-width: 1.2"/>
    <path d="M 247.834403 294.842922 
L 243.651103 303.209522 
L 252.017703 303.209522 
L 247.834403 294.842922 
z
" clip-path="url(#pb02f67dfd5)" style="fill: none; stroke: #029e73; stroke-opacity: 0.999; stroke-width: 1.2"/>
    <path d="M 141.893169 395.668951 
L 137.709869 404.035551 
L 146.076469 404.035551 
L 141.893169 395.668951 
z
" clip-path="url(#pb02f67dfd5)" style="fill: none; stroke: #029e73; stroke-opacity: 0.999; stroke-width: 1.2"/>
    <path d="M 240.339334 305.319963 
L 236.156033 313.686564 
L 244.522634 313.686564 
L 240.339334 305.319963 
z
" clip-path="url(#pb02f67dfd5)" style="fill: none; stroke: #029e73; stroke-opacity: 0.999; stroke-width: 1.2"/>
    <path d="M 249.006141 291.971245 
L 244.82284 300.337846 
L 253.189441 300.337846 
L 249.006141 291.971245 
z
" clip-path="url(#pb02f67dfd5)" style="fill: none; stroke: #029e73; stroke-opacity: 0.999; stroke-width: 1.2"/>
    <path d="M 283.029797 141.329582 
L 278.846497 149.696183 
L 287.213097 149.696183 
L 283.029797 141.329582 
z
" clip-path="url(#pb02f67dfd5)" style="fill: none; stroke: #029e73; stroke-opacity: 0.999; stroke-width: 1.2"/>
   </g>
   <g id="patch_3">
    <path d="M 53.791875 450.72 
L 53.791875 7.2 
" style="fill: none; stroke: #262626; stroke-width: 1.25; stroke-linejoin: miter; stroke-linecap: square"/>
   </g>
   <g id="patch_4">
    <path d="M 611.791875 450.72 
L 611.791875 7.2 
" style="fill: none; stroke: #262626; stroke-width: 1.25; stroke-linejoin: miter; stroke-linecap: square"/>
   </g>
   <g id="patch_5">
    <path d="M 53.791875 450.72 
L 611.791875 450.72 
" style="fill: none; stroke: #262626; stroke-width: 1.25; stroke-linejoin: miter; stroke-linecap: square"/>
   </g>
   <g id="patch_6">
    <path d="M 53.791875 7.2 
L 611.791875 7.2 
" style="fill: none; stroke: #262626; stroke-width: 1.25; stroke-linejoin: miter; stroke-linecap: square"/>
   </g>
   <g id="legend_1">
    <g id="patch_7">
     <path d="M 218.191875 104.775 
L 599.791875 104.775 
L 599.791875 19.2 
L 218.191875 19.2 
z
" style="fill: #ffffff; opacity: 0.8; stroke: #000000; stroke-linejoin: miter"/>
    </g>
    <g id="line2d_14">
     <defs>
      <path id="m7a75c2c119" d="M 0 4 
C 1.060812 4 2.078319 3.578535 2.828427 2.828427 
C 3.578535 2.078319 4 1.060812 4 0 
C 4 -1.060812 3.578535 -2.078319 2.828427 -2.828427 
C 2.078319 -3.578535 1.060812 -4 0 -4 
C -1.060812 -4 -2.078319 -3.578535 -2.828427 -2.828427 
C -3.578535 -2.078319 -4 -1.060812 -4 0 
C -4 1.060812 -3.578535 2.078319 -2.828427 2.828427 
C -2.078319 3.578535 -1.060812 4 0 4 
z
" style="stroke: #000000; stroke-opacity: 0.9; stroke-width: 0.3"/>
     </defs>
     <g>
      <use xlink:href="#m7a75c2c119" x="246.991875" y="34.63125" style="fill: #0173b2; fill-opacity: 0.9; stroke: #000000; stroke-opacity: 0.9; stroke-width: 0.3"/>
     </g>
    </g>
    <g id="text_16">
     <!-- 源域：消极 -->
     <g style="fill: #262626" transform="translate(273.391875 43.03125) scale(0.24 -0.24)">
      <defs>
       <path id="SimSun-6e90" d="M 3575 3525 
L 3575 2800 
L 5225 2800 
L 5225 3525 
L 3575 3525 
z
M 3575 2650 
L 3575 1900 
L 5225 1900 
L 5225 2650 
L 3575 2650 
z
M 3375 1325 
L 3825 975 
Q 3550 850 3250 500 
Q 2925 150 2275 -325 
L 2225 -250 
Q 3125 625 3375 1325 
z
M 4800 1150 
L 4850 1225 
Q 5675 700 5812 525 
Q 5950 350 5950 200 
Q 5950 75 5875 -87 
Q 5800 -250 5750 -250 
Q 5675 -250 5550 50 
Q 5375 475 4800 1150 
z
M 3225 1475 
Q 3250 2125 3250 2700 
Q 3250 3275 3225 3875 
L 3575 3675 
L 3925 3675 
Q 4175 4250 4225 4550 
L 2700 4550 
Q 2700 3525 2687 2575 
Q 2675 1625 2325 875 
Q 1975 125 1275 -550 
L 1225 -475 
Q 1850 300 2100 1112 
Q 2350 1925 2350 3112 
Q 2350 4300 2325 4950 
L 2700 4700 
L 5300 4700 
L 5650 5050 
L 6125 4550 
L 4350 4550 
L 4750 4325 
Q 4550 4250 4437 4137 
Q 4325 4025 4075 3675 
L 5200 3675 
L 5375 3925 
L 5750 3600 
L 5550 3425 
Q 5550 1875 5575 1675 
L 5225 1500 
L 5225 1750 
L 4575 1750 
L 4575 100 
Q 4600 -400 4050 -550 
Q 4025 -200 3450 -75 
L 3450 25 
Q 3775 0 4000 -12 
Q 4225 -25 4225 175 
L 4225 1750 
L 3575 1750 
L 3575 1625 
L 3225 1475 
z
M 2150 4250 
Q 1375 1525 1312 1200 
Q 1250 875 1237 425 
Q 1225 -25 1250 -200 
Q 1250 -300 1150 -300 
Q 1075 -300 912 -237 
Q 750 -175 750 25 
Q 750 200 800 375 
Q 875 625 875 775 
Q 875 925 762 1025 
Q 650 1125 275 1225 
L 275 1325 
Q 725 1275 837 1287 
Q 950 1300 1087 1512 
Q 1225 1725 2050 4275 
L 2150 4250 
z
M 275 3575 
Q 1150 3175 1150 2925 
Q 1150 2675 1050 2562 
Q 950 2450 900 2450 
Q 825 2450 750 2700 
Q 625 3025 225 3500 
L 275 3575 
z
M 825 5025 
Q 1550 4725 1625 4512 
Q 1700 4300 1587 4137 
Q 1475 3975 1425 3975 
Q 1325 3975 1275 4175 
Q 1150 4500 775 4950 
L 825 5025 
z
" transform="scale(0.015625)"/>
       <path id="SimSun-57df" d="M 2500 1375 
Q 2525 1825 2525 2350 
Q 2525 2875 2500 3275 
L 2825 3075 
L 3425 3075 
L 3600 3300 
L 3950 3000 
L 3750 2850 
L 3750 2075 
Q 3750 1925 3775 1600 
L 3450 1450 
L 3450 1700 
L 2825 1700 
L 2825 1500 
L 2500 1375 
z
M 2825 2925 
L 2825 1850 
L 3450 1850 
L 3450 2925 
L 2825 2925 
z
M 1850 625 
Q 2275 625 3975 1075 
L 4000 975 
Q 2325 425 2100 175 
L 1850 625 
z
M 4125 4625 
Q 4125 4900 4100 5250 
L 4625 4950 
L 4450 4775 
L 4450 3925 
L 5325 3925 
L 5650 4250 
L 6125 3775 
L 4450 3775 
Q 4450 2575 4650 1525 
Q 4825 1850 5012 2400 
Q 5200 2950 5250 3275 
L 5725 2875 
Q 5550 2800 5325 2200 
Q 5075 1600 4825 1100 
Q 5125 525 5675 125 
Q 5800 525 5975 1200 
L 6075 1175 
Q 6000 600 5987 212 
Q 5975 -175 6050 -425 
Q 6075 -525 6000 -525 
Q 5900 -525 5512 -300 
Q 5125 -75 4575 800 
Q 3750 -175 2700 -625 
L 2650 -550 
Q 3825 200 4400 1125 
Q 4125 2200 4125 3775 
L 2875 3775 
Q 2550 3775 2275 3700 
L 2050 3925 
L 4125 3925 
L 4125 4625 
z
M 4800 5050 
L 4850 5125 
Q 5375 4925 5525 4800 
Q 5675 4675 5675 4550 
Q 5675 4450 5612 4325 
Q 5550 4200 5525 4200 
Q 5450 4200 5375 4375 
Q 5225 4650 4800 5050 
z
M 275 3350 
L 1200 3350 
L 1200 4275 
Q 1200 4575 1175 5125 
L 1750 4850 
L 1550 4675 
L 1550 3350 
L 1725 3350 
L 2000 3625 
L 2425 3200 
L 1550 3200 
L 1550 1250 
L 2350 1450 
L 2375 1350 
Q 675 725 550 500 
L 275 975 
Q 700 1050 1200 1175 
L 1200 3200 
L 1100 3200 
Q 775 3200 500 3125 
L 275 3350 
z
" transform="scale(0.015625)"/>
       <path id="SimSun-ff1a" d="M 1550 675 
Q 1700 575 1687 337 
Q 1675 100 1500 0 
Q 1325 -100 1250 -100 
Q 1175 -100 1000 0 
Q 825 100 812 350 
Q 800 600 962 687 
Q 1125 775 1250 775 
Q 1400 775 1550 675 
z
M 1550 2187 
Q 1725 2100 1725 1837 
Q 1725 1575 1525 1487 
Q 1325 1400 1250 1400 
Q 1125 1400 962 1512 
Q 800 1625 812 1862 
Q 825 2100 1000 2187 
Q 1175 2275 1275 2275 
Q 1375 2275 1550 2187 
z
" transform="scale(0.015625)"/>
       <path id="SimSun-6d88" d="M 3900 3350 
Q 3900 4900 3875 5225 
L 4450 4950 
L 4250 4800 
L 4250 3350 
L 5050 3350 
L 5250 3600 
L 5650 3275 
L 5450 3100 
L 5450 125 
Q 5450 -400 4900 -600 
Q 4850 -200 4100 -75 
L 4100 25 
Q 4625 0 4875 -25 
Q 5100 -25 5100 250 
L 5100 1250 
L 3050 1250 
L 3050 -400 
L 2675 -575 
Q 2700 125 2700 1650 
Q 2700 3175 2675 3575 
L 3050 3350 
L 3900 3350 
z
M 2525 4850 
Q 3200 4500 3312 4337 
Q 3425 4175 3425 4075 
Q 3425 3950 3337 3800 
Q 3250 3650 3200 3650 
Q 3125 3650 3050 3875 
Q 2925 4225 2475 4800 
L 2525 4850 
z
M 5325 4950 
L 5775 4575 
Q 5600 4550 5300 4225 
Q 4975 3900 4575 3550 
L 4500 3600 
Q 5175 4525 5325 4950 
z
M 3050 2250 
L 3050 1400 
L 5100 1400 
L 5100 2250 
L 3050 2250 
z
M 3050 3200 
L 3050 2400 
L 5100 2400 
L 5100 3200 
L 3050 3200 
z
M 2525 4000 
Q 1675 1400 1600 1075 
Q 1525 750 1525 300 
Q 1525 -150 1550 -375 
Q 1550 -500 1450 -500 
Q 1400 -500 1237 -412 
Q 1075 -325 1075 -125 
Q 1075 50 1125 225 
Q 1175 425 1175 600 
Q 1175 800 1050 900 
Q 925 1000 450 1100 
L 450 1200 
Q 1000 1150 1100 1162 
Q 1200 1175 1350 1387 
Q 1500 1600 2425 4025 
L 2525 4000 
z
M 425 3550 
Q 1275 3175 1287 2925 
Q 1300 2675 1225 2562 
Q 1150 2450 1100 2450 
Q 1000 2450 925 2675 
Q 775 3000 375 3475 
L 425 3550 
z
M 1025 4950 
Q 1725 4625 1787 4475 
Q 1850 4325 1850 4250 
Q 1850 4125 1750 3987 
Q 1650 3850 1625 3850 
Q 1550 3850 1475 4075 
Q 1350 4425 975 4875 
L 1025 4950 
z
" transform="scale(0.015625)"/>
       <path id="SimSun-6781" d="M 5325 4475 
L 4600 2950 
L 5275 2950 
L 5525 3200 
L 5925 2825 
L 5675 2700 
Q 5300 1600 4700 825 
Q 5375 125 6125 -25 
L 6125 -125 
Q 5700 -175 5625 -425 
Q 5025 -100 4475 575 
Q 3625 -200 2675 -550 
L 2625 -475 
Q 3575 25 4275 825 
Q 3625 1750 3475 2850 
Q 3425 600 2000 -525 
L 1950 -450 
Q 2525 200 2775 837 
Q 3025 1475 3100 2125 
Q 3175 2775 3175 4575 
L 2875 4575 
L 2650 4525 
L 2450 4725 
L 4925 4725 
L 5150 4975 
L 5550 4650 
L 5325 4475 
z
M 3525 4575 
Q 3500 3575 3500 3075 
Q 3775 1975 4475 1075 
Q 4925 1650 5325 2800 
L 4550 2800 
L 4350 2575 
L 4000 2925 
Q 4250 3000 4462 3450 
Q 4675 3900 4950 4575 
L 3525 4575 
z
M 1725 2825 
Q 1725 0 1750 -450 
L 1350 -625 
Q 1375 575 1375 2525 
Q 1025 1550 425 800 
L 350 850 
Q 1025 2075 1350 3600 
L 750 3600 
L 525 3550 
L 325 3750 
L 1375 3750 
Q 1375 4650 1350 5250 
L 1925 4975 
L 1725 4800 
L 1725 3750 
L 2025 3750 
L 2325 4050 
L 2775 3600 
L 1725 3600 
L 1725 2950 
Q 2375 2650 2500 2487 
Q 2625 2325 2625 2200 
Q 2625 2075 2550 1937 
Q 2475 1800 2425 1800 
Q 2350 1800 2250 2050 
Q 2100 2425 1725 2825 
z
" transform="scale(0.015625)"/>
      </defs>
      <use xlink:href="#SimSun-6e90"/>
      <use xlink:href="#SimSun-57df" x="100"/>
      <use xlink:href="#SimSun-ff1a" x="200"/>
      <use xlink:href="#SimSun-6d88" x="300"/>
      <use xlink:href="#SimSun-6781" x="400"/>
     </g>
    </g>
    <g id="line2d_15">
     <defs>
      <path id="mc0ac4b9495" d="M 0 4 
C 1.060812 4 2.078319 3.578535 2.828427 2.828427 
C 3.578535 2.078319 4 1.060812 4 0 
C 4 -1.060812 3.578535 -2.078319 2.828427 -2.828427 
C 2.078319 -3.578535 1.060812 -4 0 -4 
C -1.060812 -4 -2.078319 -3.578535 -2.828427 -2.828427 
C -3.578535 -2.078319 -4 -1.060812 -4 0 
C -4 1.060812 -3.578535 2.078319 -2.828427 2.828427 
C -2.078319 3.578535 -1.060812 4 0 4 
z
" style="stroke: #000000; stroke-opacity: 0.9; stroke-width: 0.3"/>
     </defs>
     <g>
      <use xlink:href="#mc0ac4b9495" x="246.991875" y="61.4625" style="fill: #de8f05; fill-opacity: 0.9; stroke: #000000; stroke-opacity: 0.9; stroke-width: 0.3"/>
     </g>
    </g>
    <g id="text_17">
     <!-- 源域：中性 -->
     <g style="fill: #262626" transform="translate(273.391875 69.8625) scale(0.24 -0.24)">
      <defs>
       <path id="SimSun-4e2d" d="M 3325 3625 
L 3325 1975 
L 5125 1975 
L 5125 3625 
L 3325 3625 
z
M 2950 3775 
Q 2950 4750 2925 5250 
L 3525 4975 
L 3325 4775 
L 3325 3775 
L 5075 3775 
L 5275 4075 
L 5700 3750 
L 5475 3550 
L 5475 2100 
Q 5475 1825 5500 1525 
L 5125 1375 
L 5125 1825 
L 3325 1825 
Q 3325 -75 3350 -400 
L 2925 -625 
Q 2950 -50 2950 1825 
L 1225 1825 
L 1225 1525 
L 850 1325 
Q 875 1775 875 2625 
Q 875 3475 850 4000 
L 1225 3775 
L 2950 3775 
z
M 1225 3625 
L 1225 1975 
L 2950 1975 
L 2950 3625 
L 1225 3625 
z
" transform="scale(0.015625)"/>
       <path id="SimSun-6027" d="M 3975 3450 
Q 3975 4800 3950 5200 
L 4575 4925 
L 4325 4750 
L 4325 3450 
L 5050 3450 
L 5400 3800 
L 5900 3300 
L 4325 3300 
L 4325 1925 
L 4975 1925 
L 5300 2250 
L 5775 1775 
L 4325 1775 
L 4325 25 
L 5300 25 
L 5650 375 
L 6150 -125 
L 2875 -125 
Q 2550 -125 2275 -200 
L 2050 25 
L 3975 25 
L 3975 1775 
L 3450 1775 
Q 3125 1775 2850 1700 
L 2625 1925 
L 3975 1925 
L 3975 3300 
L 2950 3300 
Q 2625 2500 2225 2000 
L 2150 2050 
Q 2450 2650 2650 3387 
Q 2850 4125 2900 4600 
L 3475 4325 
L 3250 4175 
L 3000 3450 
L 3975 3450 
z
M 875 3625 
Q 950 2875 900 2687 
Q 850 2500 737 2437 
Q 625 2375 550 2375 
Q 500 2375 412 2412 
Q 325 2450 325 2475 
Q 325 2575 500 2775 
Q 725 3050 775 3625 
L 875 3625 
z
M 1575 3950 
Q 1975 3800 2150 3675 
Q 2325 3550 2300 3350 
Q 2275 3150 2175 3075 
Q 2075 3000 1975 3275 
Q 1850 3550 1575 3825 
L 1575 500 
Q 1575 75 1600 -425 
L 1200 -600 
Q 1225 125 1225 700 
L 1225 4225 
Q 1225 4650 1200 5250 
L 1800 4975 
L 1575 4800 
L 1575 3950 
z
" transform="scale(0.015625)"/>
      </defs>
      <use xlink:href="#SimSun-6e90"/>
      <use xlink:href="#SimSun-57df" x="100"/>
      <use xlink:href="#SimSun-ff1a" x="200"/>
      <use xlink:href="#SimSun-4e2d" x="300"/>
      <use xlink:href="#SimSun-6027" x="400"/>
     </g>
    </g>
    <g id="line2d_16">
     <defs>
      <path id="m0fe428e4fa" d="M 0 4 
C 1.060812 4 2.078319 3.578535 2.828427 2.828427 
C 3.578535 2.078319 4 1.060812 4 0 
C 4 -1.060812 3.578535 -2.078319 2.828427 -2.828427 
C 2.078319 -3.578535 1.060812 -4 0 -4 
C -1.060812 -4 -2.078319 -3.578535 -2.828427 -2.828427 
C -3.578535 -2.078319 -4 -1.060812 -4 0 
C -4 1.060812 -3.578535 2.078319 -2.828427 2.828427 
C -2.078319 3.578535 -1.060812 4 0 4 
z
" style="stroke: #000000; stroke-opacity: 0.9; stroke-width: 0.3"/>
     </defs>
     <g>
      <use xlink:href="#m0fe428e4fa" x="246.991875" y="88.29375" style="fill: #029e73; fill-opacity: 0.9; stroke: #000000; stroke-opacity: 0.9; stroke-width: 0.3"/>
     </g>
    </g>
    <g id="text_18">
     <!-- 源域：积极 -->
     <g style="fill: #262626" transform="translate(273.391875 96.69375) scale(0.24 -0.24)">
      <defs>
       <path id="SimSun-79ef" d="M 3125 1750 
Q 3150 2475 3150 3225 
Q 3150 3975 3125 4725 
L 3500 4525 
L 5225 4525 
L 5475 4775 
L 5850 4400 
L 5600 4250 
Q 5600 2300 5625 1975 
L 5275 1850 
L 5275 2175 
L 3475 2175 
L 3475 1875 
L 3125 1750 
z
M 3475 4375 
L 3475 2325 
L 5275 2325 
L 5275 4375 
L 3475 4375 
z
M 3825 1700 
L 4300 1300 
L 4075 1225 
Q 3125 -75 2200 -550 
L 2175 -450 
Q 2800 50 3225 625 
Q 3650 1200 3825 1700 
z
M 4700 1600 
Q 5725 650 5850 362 
Q 5975 75 5975 -75 
Q 5975 -225 5900 -337 
Q 5825 -450 5775 -450 
Q 5725 -450 5650 -250 
Q 5525 75 5350 450 
Q 5175 825 4650 1525 
L 4700 1600 
z
M 1875 2575 
Q 1875 225 1900 -400 
L 1525 -625 
Q 1550 125 1550 2350 
Q 1025 1275 300 625 
L 250 700 
Q 625 1200 962 1862 
Q 1300 2525 1500 3200 
L 1125 3200 
Q 800 3200 525 3125 
L 300 3350 
L 1550 3350 
L 1550 4475 
Q 900 4375 525 4350 
L 525 4450 
Q 1075 4550 1525 4712 
Q 1975 4875 2375 5150 
L 2725 4700 
Q 2425 4700 1875 4550 
L 1875 3350 
L 2250 3350 
L 2550 3650 
L 2975 3200 
L 1875 3200 
L 1875 2675 
Q 2475 2400 2612 2212 
Q 2750 2025 2750 1925 
Q 2750 1800 2662 1675 
Q 2575 1550 2550 1550 
Q 2450 1550 2375 1800 
Q 2250 2175 1875 2575 
z
" transform="scale(0.015625)"/>
      </defs>
      <use xlink:href="#SimSun-6e90"/>
      <use xlink:href="#SimSun-57df" x="100"/>
      <use xlink:href="#SimSun-ff1a" x="200"/>
      <use xlink:href="#SimSun-79ef" x="300"/>
      <use xlink:href="#SimSun-6781" x="400"/>
     </g>
    </g>
    <g id="line2d_17">
     <defs>
      <path id="m9cfa617817" d="M 0 -5 
L -5 5 
L 5 5 
z
" style="stroke: #0173b2; stroke-opacity: 0.999; stroke-width: 1.2; stroke-linejoin: miter"/>
     </defs>
     <g>
      <use xlink:href="#m9cfa617817" x="424.591875" y="34.63125" style="fill-opacity: 0; stroke: #0173b2; stroke-opacity: 0.999; stroke-width: 1.2; stroke-linejoin: miter"/>
     </g>
    </g>
    <g id="text_19">
     <!-- 目标域：消极 -->
     <g style="fill: #262626" transform="translate(450.991875 43.03125) scale(0.24 -0.24)">
      <defs>
       <path id="SimSun-76ee" d="M 1875 1700 
L 1875 325 
L 4550 325 
L 4550 1700 
L 1875 1700 
z
M 1475 -550 
Q 1500 350 1500 2087 
Q 1500 3825 1475 4950 
L 1875 4675 
L 4500 4675 
L 4700 4950 
L 5175 4600 
L 4925 4425 
L 4925 725 
Q 4925 -25 4950 -325 
L 4550 -525 
L 4550 175 
L 1875 175 
L 1875 -325 
L 1475 -550 
z
M 1875 4525 
L 1875 3250 
L 4550 3250 
L 4550 4525 
L 1875 4525 
z
M 1875 3100 
L 1875 1850 
L 4550 1850 
L 4550 3100 
L 1875 3100 
z
" transform="scale(0.015625)"/>
       <path id="SimSun-6807" d="M 4775 2225 
Q 5725 1275 5825 1050 
Q 5925 825 5925 700 
Q 5925 525 5825 375 
Q 5725 225 5700 225 
Q 5575 225 5475 650 
Q 5300 1225 4700 2175 
L 4775 2225 
z
M 2750 4600 
L 4975 4600 
L 5275 4900 
L 5725 4450 
L 3175 4450 
L 2950 4400 
L 2750 4600 
z
M 3100 75 
Q 3775 -50 3900 -25 
Q 4025 0 4025 175 
L 4025 2950 
L 2800 2950 
L 2575 2900 
L 2375 3100 
L 5350 3100 
L 5675 3425 
L 6150 2950 
L 4400 2950 
L 4400 -25 
Q 4375 -425 3850 -600 
Q 3850 -300 3100 -50 
L 3100 75 
z
M 3125 2275 
L 3675 1950 
L 3425 1825 
Q 2800 700 2100 25 
L 2025 100 
Q 2725 1025 3125 2275 
z
M 1675 2725 
Q 1675 25 1700 -475 
L 1300 -625 
Q 1325 450 1325 2325 
Q 950 1450 350 700 
L 275 800 
Q 975 1925 1325 3475 
L 700 3475 
L 475 3425 
L 275 3625 
L 1325 3625 
Q 1325 4575 1300 5275 
L 1900 4975 
L 1675 4800 
L 1675 3625 
L 2000 3625 
L 2275 3900 
L 2700 3475 
L 1675 3475 
L 1675 2850 
Q 2150 2600 2312 2425 
Q 2475 2250 2475 2125 
Q 2475 2050 2400 1912 
Q 2325 1775 2275 1775 
Q 2200 1775 2100 2075 
Q 1925 2475 1675 2725 
z
" transform="scale(0.015625)"/>
      </defs>
      <use xlink:href="#SimSun-76ee"/>
      <use xlink:href="#SimSun-6807" x="100"/>
      <use xlink:href="#SimSun-57df" x="200"/>
      <use xlink:href="#SimSun-ff1a" x="300"/>
      <use xlink:href="#SimSun-6d88" x="400"/>
      <use xlink:href="#SimSun-6781" x="500"/>
     </g>
    </g>
    <g id="line2d_18">
     <defs>
      <path id="md504f02de3" d="M 0 -5 
L -5 5 
L 5 5 
z
" style="stroke: #de8f05; stroke-opacity: 0.999; stroke-width: 1.2; stroke-linejoin: miter"/>
     </defs>
     <g>
      <use xlink:href="#md504f02de3" x="424.591875" y="61.55625" style="fill-opacity: 0; stroke: #de8f05; stroke-opacity: 0.999; stroke-width: 1.2; stroke-linejoin: miter"/>
     </g>
    </g>
    <g id="text_20">
     <!-- 目标域：中性 -->
     <g style="fill: #262626" transform="translate(450.991875 69.95625) scale(0.24 -0.24)">
      <use xlink:href="#SimSun-76ee"/>
      <use xlink:href="#SimSun-6807" x="100"/>
      <use xlink:href="#SimSun-57df" x="200"/>
      <use xlink:href="#SimSun-ff1a" x="300"/>
      <use xlink:href="#SimSun-4e2d" x="400"/>
      <use xlink:href="#SimSun-6027" x="500"/>
     </g>
    </g>
    <g id="line2d_19">
     <defs>
      <path id="m0515255712" d="M 0 -5 
L -5 5 
L 5 5 
z
" style="stroke: #029e73; stroke-opacity: 0.999; stroke-width: 1.2; stroke-linejoin: miter"/>
     </defs>
     <g>
      <use xlink:href="#m0515255712" x="424.591875" y="88.48125" style="fill-opacity: 0; stroke: #029e73; stroke-opacity: 0.999; stroke-width: 1.2; stroke-linejoin: miter"/>
     </g>
    </g>
    <g id="text_21">
     <!-- 目标域：积极 -->
     <g style="fill: #262626" transform="translate(450.991875 96.88125) scale(0.24 -0.24)">
      <use xlink:href="#SimSun-76ee"/>
      <use xlink:href="#SimSun-6807" x="100"/>
      <use xlink:href="#SimSun-57df" x="200"/>
      <use xlink:href="#SimSun-ff1a" x="300"/>
      <use xlink:href="#SimSun-79ef" x="400"/>
      <use xlink:href="#SimSun-6781" x="500"/>
     </g>
    </g>
   </g>
  </g>
 </g>
 <defs>
  <clipPath id="pb02f67dfd5">
   <rect x="53.791875" y="7.2" width="558" height="443.52"/>
  </clipPath>
 </defs>
</svg>
