<?xml version="1.0" encoding="utf-8" standalone="no"?>
<!DOCTYPE svg PUBLIC "-//W3C//DTD SVG 1.1//EN"
  "http://www.w3.org/Graphics/SVG/1.1/DTD/svg11.dtd">
<svg xmlns:xlink="http://www.w3.org/1999/xlink" width="618.991875pt" height="498.144375pt" viewBox="0 0 618.991875 498.144375" xmlns="http://www.w3.org/2000/svg" version="1.1">
 <metadata>
  <rdf:RDF xmlns:dc="http://purl.org/dc/elements/1.1/" xmlns:cc="http://creativecommons.org/ns#" xmlns:rdf="http://www.w3.org/1999/02/22-rdf-syntax-ns#">
   <cc:Work>
    <dc:type rdf:resource="http://purl.org/dc/dcmitype/StillImage"/>
    <dc:date>2025-12-02T17:24:15.169122</dc:date>
    <dc:format>image/svg+xml</dc:format>
    <dc:creator>
     <cc:Agent>
      <dc:title>Matplotlib v3.9.4, https://matplotlib.org/</dc:title>
     </cc:Agent>
    </dc:creator>
   </cc:Work>
  </rdf:RDF>
 </metadata>
 <defs>
  <style type="text/css">*{stroke-linejoin: round; stroke-linecap: butt}</style>
 </defs>
 <g id="figure_1">
  <g id="patch_1">
   <path d="M 0 498.144375 
L 618.991875 498.144375 
L 618.991875 0 
L 0 0 
z
" style="fill: #ffffff"/>
  </g>
  <g id="axes_1">
   <g id="patch_2">
    <path d="M 53.791875 450.72 
L 611.791875 450.72 
L 611.791875 7.2 
L 53.791875 7.2 
z
" style="fill: #ffffff"/>
   </g>
   <g id="matplotlib.axis_1">
    <g id="xtick_1">
     <g id="line2d_1">
      <path d="M 64.354199 450.72 
L 64.354199 7.2 
" clip-path="url(#pa9f3d80e88)" style="fill: none; stroke-dasharray: 0.5,0.825; stroke-dashoffset: 0; stroke: #cccccc; stroke-opacity: 0.3; stroke-width: 0.5"/>
     </g>
     <g id="text_1">
      <!-- -20 -->
      <g style="fill: #262626" transform="translate(55.683261 462.809375) scale(0.12 -0.12)">
       <defs>
        <path id="ArialMT-2d" d="M 203 1375 
L 203 1941 
L 1931 1941 
L 1931 1375 
L 203 1375 
z
" transform="scale(0.015625)"/>
        <path id="ArialMT-32" d="M 3222 541 
L 3222 0 
L 194 0 
Q 188 203 259 391 
Q 375 700 629 1000 
Q 884 1300 1366 1694 
Q 2113 2306 2375 2664 
Q 2638 3022 2638 3341 
Q 2638 3675 2398 3904 
Q 2159 4134 1775 4134 
Q 1369 4134 1125 3890 
Q 881 3647 878 3216 
L 300 3275 
Q 359 3922 746 4261 
Q 1134 4600 1788 4600 
Q 2447 4600 2831 4234 
Q 3216 3869 3216 3328 
Q 3216 3053 3103 2787 
Q 2991 2522 2730 2228 
Q 2469 1934 1863 1422 
Q 1356 997 1212 845 
Q 1069 694 975 541 
L 3222 541 
z
" transform="scale(0.015625)"/>
        <path id="ArialMT-30" d="M 266 2259 
Q 266 3072 433 3567 
Q 600 4063 929 4331 
Q 1259 4600 1759 4600 
Q 2128 4600 2406 4451 
Q 2684 4303 2865 4023 
Q 3047 3744 3150 3342 
Q 3253 2941 3253 2259 
Q 3253 1453 3087 958 
Q 2922 463 2592 192 
Q 2263 -78 1759 -78 
Q 1097 -78 719 397 
Q 266 969 266 2259 
z
M 844 2259 
Q 844 1131 1108 757 
Q 1372 384 1759 384 
Q 2147 384 2411 759 
Q 2675 1134 2675 2259 
Q 2675 3391 2411 3762 
Q 2147 4134 1753 4134 
Q 1366 4134 1134 3806 
Q 844 3388 844 2259 
z
" transform="scale(0.015625)"/>
       </defs>
       <use xlink:href="#ArialMT-2d"/>
       <use xlink:href="#ArialMT-32" x="33.300781"/>
       <use xlink:href="#ArialMT-30" x="88.916016"/>
      </g>
     </g>
    </g>
    <g id="xtick_2">
     <g id="line2d_2">
      <path d="M 128.082326 450.72 
L 128.082326 7.2 
" clip-path="url(#pa9f3d80e88)" style="fill: none; stroke-dasharray: 0.5,0.825; stroke-dashoffset: 0; stroke: #cccccc; stroke-opacity: 0.3; stroke-width: 0.5"/>
     </g>
     <g id="text_2">
      <!-- -15 -->
      <g style="fill: #262626" transform="translate(119.411388 462.809375) scale(0.12 -0.12)">
       <defs>
        <path id="ArialMT-31" d="M 2384 0 
L 1822 0 
L 1822 3584 
Q 1619 3391 1289 3197 
Q 959 3003 697 2906 
L 697 3450 
Q 1169 3672 1522 3987 
Q 1875 4303 2022 4600 
L 2384 4600 
L 2384 0 
z
" transform="scale(0.015625)"/>
        <path id="ArialMT-35" d="M 266 1200 
L 856 1250 
Q 922 819 1161 601 
Q 1400 384 1738 384 
Q 2144 384 2425 690 
Q 2706 997 2706 1503 
Q 2706 1984 2436 2262 
Q 2166 2541 1728 2541 
Q 1456 2541 1237 2417 
Q 1019 2294 894 2097 
L 366 2166 
L 809 4519 
L 3088 4519 
L 3088 3981 
L 1259 3981 
L 1013 2750 
Q 1425 3038 1878 3038 
Q 2478 3038 2890 2622 
Q 3303 2206 3303 1553 
Q 3303 931 2941 478 
Q 2500 -78 1738 -78 
Q 1113 -78 717 272 
Q 322 622 266 1200 
z
" transform="scale(0.015625)"/>
       </defs>
       <use xlink:href="#ArialMT-2d"/>
       <use xlink:href="#ArialMT-31" x="33.300781"/>
       <use xlink:href="#ArialMT-35" x="88.916016"/>
      </g>
     </g>
    </g>
    <g id="xtick_3">
     <g id="line2d_3">
      <path d="M 191.810453 450.72 
L 191.810453 7.2 
" clip-path="url(#pa9f3d80e88)" style="fill: none; stroke-dasharray: 0.5,0.825; stroke-dashoffset: 0; stroke: #cccccc; stroke-opacity: 0.3; stroke-width: 0.5"/>
     </g>
     <g id="text_3">
      <!-- -10 -->
      <g style="fill: #262626" transform="translate(183.139516 462.809375) scale(0.12 -0.12)">
       <use xlink:href="#ArialMT-2d"/>
       <use xlink:href="#ArialMT-31" x="33.300781"/>
       <use xlink:href="#ArialMT-30" x="88.916016"/>
      </g>
     </g>
    </g>
    <g id="xtick_4">
     <g id="line2d_4">
      <path d="M 255.53858 450.72 
L 255.53858 7.2 
" clip-path="url(#pa9f3d80e88)" style="fill: none; stroke-dasharray: 0.5,0.825; stroke-dashoffset: 0; stroke: #cccccc; stroke-opacity: 0.3; stroke-width: 0.5"/>
     </g>
     <g id="text_4">
      <!-- -5 -->
      <g style="fill: #262626" transform="translate(250.204205 462.809375) scale(0.12 -0.12)">
       <use xlink:href="#ArialMT-2d"/>
       <use xlink:href="#ArialMT-35" x="33.300781"/>
      </g>
     </g>
    </g>
    <g id="xtick_5">
     <g id="line2d_5">
      <path d="M 319.266708 450.72 
L 319.266708 7.2 
" clip-path="url(#pa9f3d80e88)" style="fill: none; stroke-dasharray: 0.5,0.825; stroke-dashoffset: 0; stroke: #cccccc; stroke-opacity: 0.3; stroke-width: 0.5"/>
     </g>
     <g id="text_5">
      <!-- 0 -->
      <g style="fill: #262626" transform="translate(315.930145 462.809375) scale(0.12 -0.12)">
       <use xlink:href="#ArialMT-30"/>
      </g>
     </g>
    </g>
    <g id="xtick_6">
     <g id="line2d_6">
      <path d="M 382.994835 450.72 
L 382.994835 7.2 
" clip-path="url(#pa9f3d80e88)" style="fill: none; stroke-dasharray: 0.5,0.825; stroke-dashoffset: 0; stroke: #cccccc; stroke-opacity: 0.3; stroke-width: 0.5"/>
     </g>
     <g id="text_6">
      <!-- 5 -->
      <g style="fill: #262626" transform="translate(379.658273 462.809375) scale(0.12 -0.12)">
       <use xlink:href="#ArialMT-35"/>
      </g>
     </g>
    </g>
    <g id="xtick_7">
     <g id="line2d_7">
      <path d="M 446.722962 450.72 
L 446.722962 7.2 
" clip-path="url(#pa9f3d80e88)" style="fill: none; stroke-dasharray: 0.5,0.825; stroke-dashoffset: 0; stroke: #cccccc; stroke-opacity: 0.3; stroke-width: 0.5"/>
     </g>
     <g id="text_7">
      <!-- 10 -->
      <g style="fill: #262626" transform="translate(440.049837 462.809375) scale(0.12 -0.12)">
       <use xlink:href="#ArialMT-31"/>
       <use xlink:href="#ArialMT-30" x="55.615234"/>
      </g>
     </g>
    </g>
    <g id="xtick_8">
     <g id="line2d_8">
      <path d="M 510.45109 450.72 
L 510.45109 7.2 
" clip-path="url(#pa9f3d80e88)" style="fill: none; stroke-dasharray: 0.5,0.825; stroke-dashoffset: 0; stroke: #cccccc; stroke-opacity: 0.3; stroke-width: 0.5"/>
     </g>
     <g id="text_8">
      <!-- 15 -->
      <g style="fill: #262626" transform="translate(503.777965 462.809375) scale(0.12 -0.12)">
       <use xlink:href="#ArialMT-31"/>
       <use xlink:href="#ArialMT-35" x="55.615234"/>
      </g>
     </g>
    </g>
    <g id="xtick_9">
     <g id="line2d_9">
      <path d="M 574.179217 450.72 
L 574.179217 7.2 
" clip-path="url(#pa9f3d80e88)" style="fill: none; stroke-dasharray: 0.5,0.825; stroke-dashoffset: 0; stroke: #cccccc; stroke-opacity: 0.3; stroke-width: 0.5"/>
     </g>
     <g id="text_9">
      <!-- 20 -->
      <g style="fill: #262626" transform="translate(567.506092 462.809375) scale(0.12 -0.12)">
       <use xlink:href="#ArialMT-32"/>
       <use xlink:href="#ArialMT-30" x="55.615234"/>
      </g>
     </g>
    </g>
    <g id="text_10">
     <!-- t-SNE 成分 1 -->
     <g style="fill: #262626" transform="translate(260.791875 487.850625) scale(0.24 -0.24)">
      <defs>
       <path id="SimSun-74" d="M 1500 900 
Q 1500 550 1625 425 
Q 1750 300 2000 300 
Q 2250 300 2400 462 
Q 2550 625 2600 925 
L 2725 875 
Q 2675 525 2462 300 
Q 2250 75 1900 75 
Q 1525 75 1337 300 
Q 1150 525 1150 1000 
L 1150 2750 
L 400 2750 
L 400 2900 
L 600 2900 
Q 900 2900 1087 3087 
Q 1275 3275 1325 3675 
L 1350 3875 
L 1500 3875 
L 1500 2900 
L 2500 2900 
L 2500 2750 
L 1500 2750 
L 1500 900 
z
" transform="scale(0.015625)"/>
       <path id="SimSun-2d" d="M 200 2225 
L 200 2450 
L 2975 2450 
L 2975 2225 
L 200 2225 
z
" transform="scale(0.015625)"/>
       <path id="SimSun-53" d="M 1500 2150 
Q 825 2450 575 2675 
Q 325 2900 325 3375 
Q 325 3750 637 4087 
Q 950 4425 1525 4425 
Q 1775 4425 2000 4350 
Q 2225 4250 2325 4250 
Q 2400 4250 2462 4287 
Q 2525 4325 2575 4425 
L 2675 3400 
L 2550 3350 
Q 2325 3875 2087 4062 
Q 1850 4250 1475 4250 
Q 1000 4250 825 3987 
Q 650 3725 650 3425 
Q 650 3150 812 2987 
Q 975 2825 1700 2500 
Q 2300 2250 2562 1937 
Q 2825 1625 2825 1200 
Q 2825 750 2512 400 
Q 2200 50 1600 50 
Q 1350 50 1150 150 
Q 925 225 800 225 
Q 725 225 650 175 
Q 575 125 475 50 
L 275 1275 
L 425 1325 
Q 600 700 912 462 
Q 1225 225 1625 225 
Q 2050 225 2262 475 
Q 2475 725 2475 1200 
Q 2475 1450 2237 1687 
Q 2000 1925 1500 2150 
z
" transform="scale(0.015625)"/>
       <path id="SimSun-4e" d="M 2525 1100 
L 2575 1100 
L 2575 4025 
Q 2575 4125 2525 4175 
Q 2475 4225 2350 4225 
L 2150 4225 
L 2150 4375 
L 3150 4375 
L 3150 4225 
L 2950 4225 
Q 2850 4225 2787 4175 
Q 2725 4125 2725 4025 
L 2725 100 
L 2575 100 
L 675 3825 
L 625 3825 
L 625 450 
Q 625 350 687 300 
Q 750 250 850 250 
L 1050 250 
L 1050 100 
L 50 100 
L 50 250 
L 250 250 
Q 375 250 425 300 
Q 475 350 475 450 
L 475 4025 
Q 475 4125 425 4175 
Q 375 4225 250 4225 
L 100 4225 
L 100 4375 
L 825 4375 
L 2525 1100 
z
" transform="scale(0.015625)"/>
       <path id="SimSun-45" d="M 200 4225 
L 200 4375 
L 2650 4375 
L 2925 3525 
L 2800 3475 
Q 2600 3850 2375 4037 
Q 2150 4225 1875 4225 
L 1175 4225 
Q 1075 4225 1012 4175 
Q 950 4125 950 4025 
L 950 2475 
L 1675 2475 
Q 1925 2475 2037 2600 
Q 2150 2725 2150 2975 
L 2150 3125 
L 2300 3125 
L 2300 1650 
L 2150 1650 
L 2150 1750 
Q 2150 2025 2037 2175 
Q 1925 2325 1675 2325 
L 950 2325 
L 950 450 
Q 950 350 1012 300 
Q 1075 250 1175 250 
L 1825 250 
Q 2200 250 2462 462 
Q 2725 675 2875 1125 
L 3000 1075 
L 2725 100 
L 175 100 
L 175 250 
L 325 250 
Q 450 250 500 300 
Q 550 350 550 450 
L 550 4025 
Q 550 4125 500 4175 
Q 450 4225 325 4225 
L 200 4225 
z
" transform="scale(0.015625)"/>
       <path id="SimSun-20" d="M 0 0 
Q 0 0 0 0 
z
" transform="scale(0.015625)"/>
       <path id="SimSun-6210" d="M 4325 5075 
Q 4850 4775 5025 4612 
Q 5200 4450 5162 4287 
Q 5125 4125 5025 4062 
Q 4925 4000 4900 4000 
Q 4800 4000 4750 4200 
Q 4675 4475 4250 5000 
L 4325 5075 
z
M 5625 100 
L 5925 1175 
L 6025 1150 
Q 5925 375 5925 125 
Q 5925 -125 6050 -350 
Q 6100 -450 6000 -450 
Q 5825 -450 5350 -275 
Q 4875 -100 4250 675 
Q 3475 -125 2550 -525 
L 2525 -425 
Q 3525 225 4050 950 
Q 3550 1875 3400 3650 
L 1425 3650 
L 1400 2450 
L 2550 2450 
L 2775 2700 
L 3150 2350 
L 2925 2175 
Q 2850 675 2725 437 
Q 2600 200 2250 50 
Q 2175 400 1575 625 
L 1575 725 
Q 2050 650 2237 625 
Q 2425 600 2475 837 
Q 2525 1075 2575 2300 
L 1400 2300 
Q 1325 225 350 -600 
L 300 -525 
Q 950 400 987 1462 
Q 1025 2525 1025 3075 
Q 1025 3625 1000 4025 
L 1450 3800 
L 3375 3800 
Q 3300 4625 3250 5150 
L 3900 4900 
L 3725 4700 
Q 3725 4300 3775 3800 
L 5150 3800 
L 5500 4150 
L 6000 3650 
L 3775 3650 
Q 3925 2000 4300 1325 
Q 4500 1625 4700 2100 
Q 4900 2575 5100 3175 
L 5625 2775 
L 5400 2650 
Q 4975 1625 4525 975 
Q 5050 350 5625 100 
z
" transform="scale(0.015625)"/>
       <path id="SimSun-5206" d="M 2350 5050 
L 2850 4675 
L 2625 4550 
Q 2200 3750 1687 3125 
Q 1175 2500 375 2025 
L 325 2100 
Q 975 2625 1475 3337 
Q 1975 4050 2350 5050 
z
M 4100 4975 
L 3900 4850 
Q 4175 3850 4800 3300 
Q 5425 2750 6125 2625 
L 6125 2550 
Q 5750 2500 5600 2225 
Q 4775 2675 4287 3425 
Q 3800 4175 3625 5175 
L 4100 4975 
z
M 1375 2625 
L 4225 2625 
L 4475 2875 
L 4825 2525 
L 4625 2375 
Q 4575 400 4375 -12 
Q 4175 -425 3675 -600 
Q 3600 -200 2975 -25 
L 2975 75 
Q 3600 -25 3787 -12 
Q 3975 0 4075 275 
Q 4175 550 4275 2475 
L 2975 2475 
Q 2825 1400 2375 662 
Q 1925 -75 650 -625 
L 600 -525 
Q 1725 50 2112 837 
Q 2500 1625 2575 2475 
L 1800 2475 
L 1575 2425 
L 1375 2625 
z
" transform="scale(0.015625)"/>
       <path id="SimSun-31" d="M 1825 4450 
L 1825 650 
Q 1825 450 1950 350 
Q 2075 250 2300 250 
L 2550 250 
L 2550 100 
L 725 100 
L 725 250 
L 950 250 
Q 1200 250 1312 350 
Q 1425 450 1425 650 
L 1425 3675 
Q 1425 3775 1362 3837 
Q 1300 3900 1175 3900 
L 725 3900 
L 725 4050 
L 950 4050 
Q 1250 4050 1437 4150 
Q 1625 4250 1725 4450 
L 1825 4450 
z
" transform="scale(0.015625)"/>
      </defs>
      <use xlink:href="#SimSun-74"/>
      <use xlink:href="#SimSun-2d" x="50"/>
      <use xlink:href="#SimSun-53" x="100"/>
      <use xlink:href="#SimSun-4e" x="150"/>
      <use xlink:href="#SimSun-45" x="200"/>
      <use xlink:href="#SimSun-20" x="250"/>
      <use xlink:href="#SimSun-6210" x="300"/>
      <use xlink:href="#SimSun-5206" x="400"/>
      <use xlink:href="#SimSun-20" x="500"/>
      <use xlink:href="#SimSun-31" x="550"/>
     </g>
    </g>
   </g>
   <g id="matplotlib.axis_2">
    <g id="ytick_1">
     <g id="line2d_10">
      <path d="M 53.791875 430.566868 
L 611.791875 430.566868 
" clip-path="url(#pa9f3d80e88)" style="fill: none; stroke-dasharray: 0.5,0.825; stroke-dashoffset: 0; stroke: #cccccc; stroke-opacity: 0.3; stroke-width: 0.5"/>
     </g>
     <g id="text_11">
      <!-- -15 -->
      <g style="fill: #262626" transform="translate(32.95 434.861555) scale(0.12 -0.12)">
       <use xlink:href="#ArialMT-2d"/>
       <use xlink:href="#ArialMT-31" x="33.300781"/>
       <use xlink:href="#ArialMT-35" x="88.916016"/>
      </g>
     </g>
    </g>
    <g id="ytick_2">
     <g id="line2d_11">
      <path d="M 53.791875 366.83874 
L 611.791875 366.83874 
" clip-path="url(#pa9f3d80e88)" style="fill: none; stroke-dasharray: 0.5,0.825; stroke-dashoffset: 0; stroke: #cccccc; stroke-opacity: 0.3; stroke-width: 0.5"/>
     </g>
     <g id="text_12">
      <!-- -10 -->
      <g style="fill: #262626" transform="translate(32.95 371.133428) scale(0.12 -0.12)">
       <use xlink:href="#ArialMT-2d"/>
       <use xlink:href="#ArialMT-31" x="33.300781"/>
       <use xlink:href="#ArialMT-30" x="88.916016"/>
      </g>
     </g>
    </g>
    <g id="ytick_3">
     <g id="line2d_12">
      <path d="M 53.791875 303.110613 
L 611.791875 303.110613 
" clip-path="url(#pa9f3d80e88)" style="fill: none; stroke-dasharray: 0.5,0.825; stroke-dashoffset: 0; stroke: #cccccc; stroke-opacity: 0.3; stroke-width: 0.5"/>
     </g>
     <g id="text_13">
      <!-- -5 -->
      <g style="fill: #262626" transform="translate(39.623125 307.405301) scale(0.12 -0.12)">
       <use xlink:href="#ArialMT-2d"/>
       <use xlink:href="#ArialMT-35" x="33.300781"/>
      </g>
     </g>
    </g>
    <g id="ytick_4">
     <g id="line2d_13">
      <path d="M 53.791875 239.382486 
L 611.791875 239.382486 
" clip-path="url(#pa9f3d80e88)" style="fill: none; stroke-dasharray: 0.5,0.825; stroke-dashoffset: 0; stroke: #cccccc; stroke-opacity: 0.3; stroke-width: 0.5"/>
     </g>
     <g id="text_14">
      <!-- 0 -->
      <g style="fill: #262626" transform="translate(43.61875 243.677173) scale(0.12 -0.12)">
       <use xlink:href="#ArialMT-30"/>
      </g>
     </g>
    </g>
    <g id="ytick_5">
     <g id="line2d_14">
      <path d="M 53.791875 175.654358 
L 611.791875 175.654358 
" clip-path="url(#pa9f3d80e88)" style="fill: none; stroke-dasharray: 0.5,0.825; stroke-dashoffset: 0; stroke: #cccccc; stroke-opacity: 0.3; stroke-width: 0.5"/>
     </g>
     <g id="text_15">
      <!-- 5 -->
      <g style="fill: #262626" transform="translate(43.61875 179.949046) scale(0.12 -0.12)">
       <use xlink:href="#ArialMT-35"/>
      </g>
     </g>
    </g>
    <g id="ytick_6">
     <g id="line2d_15">
      <path d="M 53.791875 111.926231 
L 611.791875 111.926231 
" clip-path="url(#pa9f3d80e88)" style="fill: none; stroke-dasharray: 0.5,0.825; stroke-dashoffset: 0; stroke: #cccccc; stroke-opacity: 0.3; stroke-width: 0.5"/>
     </g>
     <g id="text_16">
      <!-- 10 -->
      <g style="fill: #262626" transform="translate(36.945625 116.220919) scale(0.12 -0.12)">
       <use xlink:href="#ArialMT-31"/>
       <use xlink:href="#ArialMT-30" x="55.615234"/>
      </g>
     </g>
    </g>
    <g id="ytick_7">
     <g id="line2d_16">
      <path d="M 53.791875 48.198104 
L 611.791875 48.198104 
" clip-path="url(#pa9f3d80e88)" style="fill: none; stroke-dasharray: 0.5,0.825; stroke-dashoffset: 0; stroke: #cccccc; stroke-opacity: 0.3; stroke-width: 0.5"/>
     </g>
     <g id="text_17">
      <!-- 15 -->
      <g style="fill: #262626" transform="translate(36.945625 52.492791) scale(0.12 -0.12)">
       <use xlink:href="#ArialMT-31"/>
       <use xlink:href="#ArialMT-35" x="55.615234"/>
      </g>
     </g>
    </g>
    <g id="text_18">
     <!-- t-SNE 成分 2 -->
     <g style="fill: #262626" transform="translate(25.85625 300.96) rotate(-90) scale(0.24 -0.24)">
      <defs>
       <path id="SimSun-32" d="M 2325 3325 
Q 2325 3775 2125 4012 
Q 1925 4250 1525 4250 
Q 1225 4250 1012 4087 
Q 800 3925 800 3675 
Q 800 3525 900 3425 
Q 975 3325 975 3225 
Q 975 3100 912 3037 
Q 850 2975 725 2975 
Q 575 2975 487 3062 
Q 400 3150 400 3350 
Q 400 3875 775 4150 
Q 1150 4425 1575 4425 
Q 2175 4425 2462 4125 
Q 2750 3825 2750 3375 
Q 2750 3075 2612 2775 
Q 2475 2475 2175 2200 
Q 1450 1500 1062 1062 
Q 675 625 600 475 
L 2075 475 
Q 2300 475 2450 650 
Q 2600 825 2650 1175 
L 2800 1175 
L 2650 100 
L 325 100 
L 325 425 
Q 450 650 737 1000 
Q 1025 1350 1500 1825 
Q 1925 2250 2125 2625 
Q 2325 3000 2325 3325 
z
" transform="scale(0.015625)"/>
      </defs>
      <use xlink:href="#SimSun-74"/>
      <use xlink:href="#SimSun-2d" x="50"/>
      <use xlink:href="#SimSun-53" x="100"/>
      <use xlink:href="#SimSun-4e" x="150"/>
      <use xlink:href="#SimSun-45" x="200"/>
      <use xlink:href="#SimSun-20" x="250"/>
      <use xlink:href="#SimSun-6210" x="300"/>
      <use xlink:href="#SimSun-5206" x="400"/>
      <use xlink:href="#SimSun-20" x="500"/>
      <use xlink:href="#SimSun-32" x="550"/>
     </g>
    </g>
   </g>
   <g id="PathCollection_1">
    <defs>
     <path id="m9d4e5e77aa" d="M 0 3.872983 
C 1.027127 3.872983 2.012324 3.464901 2.738613 2.738613 
C 3.464901 2.012324 3.872983 1.027127 3.872983 0 
C 3.872983 -1.027127 3.464901 -2.012324 2.738613 -2.738613 
C 2.012324 -3.464901 1.027127 -3.872983 0 -3.872983 
C -1.027127 -3.872983 -2.012324 -3.464901 -2.738613 -2.738613 
C -3.464901 -2.012324 -3.872983 -1.027127 -3.872983 0 
C -3.872983 1.027127 -3.464901 2.012324 -2.738613 2.738613 
C -2.012324 3.464901 -1.027127 3.872983 0 3.872983 
z
" style="stroke: #000000; stroke-opacity: 0.7; stroke-width: 0.3"/>
    </defs>
    <g clip-path="url(#pa9f3d80e88)">
     <use xlink:href="#m9d4e5e77aa" x="339.131408" y="277.097863" style="fill: #0173b2; fill-opacity: 0.7; stroke: #000000; stroke-opacity: 0.7; stroke-width: 0.3"/>
     <use xlink:href="#m9d4e5e77aa" x="193.633815" y="44.869628" style="fill: #0173b2; fill-opacity: 0.7; stroke: #000000; stroke-opacity: 0.7; stroke-width: 0.3"/>
     <use xlink:href="#m9d4e5e77aa" x="195.091755" y="48.825773" style="fill: #0173b2; fill-opacity: 0.7; stroke: #000000; stroke-opacity: 0.7; stroke-width: 0.3"/>
     <use xlink:href="#m9d4e5e77aa" x="339.572175" y="277.222137" style="fill: #0173b2; fill-opacity: 0.7; stroke: #000000; stroke-opacity: 0.7; stroke-width: 0.3"/>
     <use xlink:href="#m9d4e5e77aa" x="201.298212" y="27.36" style="fill: #0173b2; fill-opacity: 0.7; stroke: #000000; stroke-opacity: 0.7; stroke-width: 0.3"/>
     <use xlink:href="#m9d4e5e77aa" x="229.337024" y="106.382195" style="fill: #0173b2; fill-opacity: 0.7; stroke: #000000; stroke-opacity: 0.7; stroke-width: 0.3"/>
     <use xlink:href="#m9d4e5e77aa" x="340.219717" y="277.405735" style="fill: #0173b2; fill-opacity: 0.7; stroke: #000000; stroke-opacity: 0.7; stroke-width: 0.3"/>
     <use xlink:href="#m9d4e5e77aa" x="174.905545" y="33.438366" style="fill: #0173b2; fill-opacity: 0.7; stroke: #000000; stroke-opacity: 0.7; stroke-width: 0.3"/>
     <use xlink:href="#m9d4e5e77aa" x="237.506304" y="99.737373" style="fill: #0173b2; fill-opacity: 0.7; stroke: #000000; stroke-opacity: 0.7; stroke-width: 0.3"/>
     <use xlink:href="#m9d4e5e77aa" x="243.297972" y="106.47771" style="fill: #0173b2; fill-opacity: 0.7; stroke: #000000; stroke-opacity: 0.7; stroke-width: 0.3"/>
     <use xlink:href="#m9d4e5e77aa" x="369.742433" y="285.328214" style="fill: #0173b2; fill-opacity: 0.7; stroke: #000000; stroke-opacity: 0.7; stroke-width: 0.3"/>
     <use xlink:href="#m9d4e5e77aa" x="207.840261" y="59.395051" style="fill: #0173b2; fill-opacity: 0.7; stroke: #000000; stroke-opacity: 0.7; stroke-width: 0.3"/>
     <use xlink:href="#m9d4e5e77aa" x="211.716765" y="70.721353" style="fill: #0173b2; fill-opacity: 0.7; stroke: #000000; stroke-opacity: 0.7; stroke-width: 0.3"/>
     <use xlink:href="#m9d4e5e77aa" x="238.537398" y="103.236958" style="fill: #0173b2; fill-opacity: 0.7; stroke: #000000; stroke-opacity: 0.7; stroke-width: 0.3"/>
     <use xlink:href="#m9d4e5e77aa" x="238.729024" y="133.645002" style="fill: #0173b2; fill-opacity: 0.7; stroke: #000000; stroke-opacity: 0.7; stroke-width: 0.3"/>
     <use xlink:href="#m9d4e5e77aa" x="222.540895" y="84.652642" style="fill: #0173b2; fill-opacity: 0.7; stroke: #000000; stroke-opacity: 0.7; stroke-width: 0.3"/>
     <use xlink:href="#m9d4e5e77aa" x="208.972516" y="67.524578" style="fill: #0173b2; fill-opacity: 0.7; stroke: #000000; stroke-opacity: 0.7; stroke-width: 0.3"/>
     <use xlink:href="#m9d4e5e77aa" x="188.961256" y="40.753278" style="fill: #0173b2; fill-opacity: 0.7; stroke: #000000; stroke-opacity: 0.7; stroke-width: 0.3"/>
     <use xlink:href="#m9d4e5e77aa" x="341.88652" y="277.884111" style="fill: #0173b2; fill-opacity: 0.7; stroke: #000000; stroke-opacity: 0.7; stroke-width: 0.3"/>
     <use xlink:href="#m9d4e5e77aa" x="240.044007" y="135.157823" style="fill: #0173b2; fill-opacity: 0.7; stroke: #000000; stroke-opacity: 0.7; stroke-width: 0.3"/>
     <use xlink:href="#m9d4e5e77aa" x="241.974413" y="105.646855" style="fill: #0173b2; fill-opacity: 0.7; stroke: #000000; stroke-opacity: 0.7; stroke-width: 0.3"/>
     <use xlink:href="#m9d4e5e77aa" x="235.729382" y="86.339331" style="fill: #0173b2; fill-opacity: 0.7; stroke: #000000; stroke-opacity: 0.7; stroke-width: 0.3"/>
     <use xlink:href="#m9d4e5e77aa" x="228.438616" y="92.519521" style="fill: #0173b2; fill-opacity: 0.7; stroke: #000000; stroke-opacity: 0.7; stroke-width: 0.3"/>
     <use xlink:href="#m9d4e5e77aa" x="227.776263" y="91.7509" style="fill: #0173b2; fill-opacity: 0.7; stroke: #000000; stroke-opacity: 0.7; stroke-width: 0.3"/>
     <use xlink:href="#m9d4e5e77aa" x="339.734828" y="277.268542" style="fill: #0173b2; fill-opacity: 0.7; stroke: #000000; stroke-opacity: 0.7; stroke-width: 0.3"/>
     <use xlink:href="#m9d4e5e77aa" x="230.821389" y="95.268523" style="fill: #0173b2; fill-opacity: 0.7; stroke: #000000; stroke-opacity: 0.7; stroke-width: 0.3"/>
     <use xlink:href="#m9d4e5e77aa" x="375.534784" y="285.01107" style="fill: #0173b2; fill-opacity: 0.7; stroke: #000000; stroke-opacity: 0.7; stroke-width: 0.3"/>
     <use xlink:href="#m9d4e5e77aa" x="249.44747" y="116.881252" style="fill: #0173b2; fill-opacity: 0.7; stroke: #000000; stroke-opacity: 0.7; stroke-width: 0.3"/>
     <use xlink:href="#m9d4e5e77aa" x="203.754615" y="56.348429" style="fill: #0173b2; fill-opacity: 0.7; stroke: #000000; stroke-opacity: 0.7; stroke-width: 0.3"/>
     <use xlink:href="#m9d4e5e77aa" x="203.762394" y="56.873921" style="fill: #0173b2; fill-opacity: 0.7; stroke: #000000; stroke-opacity: 0.7; stroke-width: 0.3"/>
     <use xlink:href="#m9d4e5e77aa" x="193.591332" y="44.806907" style="fill: #0173b2; fill-opacity: 0.7; stroke: #000000; stroke-opacity: 0.7; stroke-width: 0.3"/>
     <use xlink:href="#m9d4e5e77aa" x="199.400923" y="27.833493" style="fill: #0173b2; fill-opacity: 0.7; stroke: #000000; stroke-opacity: 0.7; stroke-width: 0.3"/>
     <use xlink:href="#m9d4e5e77aa" x="186.824449" y="38.809081" style="fill: #0173b2; fill-opacity: 0.7; stroke: #000000; stroke-opacity: 0.7; stroke-width: 0.3"/>
     <use xlink:href="#m9d4e5e77aa" x="203.117635" y="41.584679" style="fill: #0173b2; fill-opacity: 0.7; stroke: #000000; stroke-opacity: 0.7; stroke-width: 0.3"/>
     <use xlink:href="#m9d4e5e77aa" x="211.56248" y="69.792636" style="fill: #0173b2; fill-opacity: 0.7; stroke: #000000; stroke-opacity: 0.7; stroke-width: 0.3"/>
     <use xlink:href="#m9d4e5e77aa" x="233.369704" y="130.031596" style="fill: #0173b2; fill-opacity: 0.7; stroke: #000000; stroke-opacity: 0.7; stroke-width: 0.3"/>
     <use xlink:href="#m9d4e5e77aa" x="181.619943" y="35.671357" style="fill: #0173b2; fill-opacity: 0.7; stroke: #000000; stroke-opacity: 0.7; stroke-width: 0.3"/>
    </g>
   </g>
   <g id="PathCollection_2">
    <path d="M 229.979564 90.174278 
L 225.796264 98.540878 
L 234.162865 98.540878 
L 229.979564 90.174278 
z
" clip-path="url(#pa9f3d80e88)" style="fill: none; stroke: #0173b2; stroke-opacity: 0.999; stroke-width: 1.2"/>
    <path d="M 196.625143 53.227126 
L 192.441842 61.593726 
L 200.808443 61.593726 
L 196.625143 53.227126 
z
" clip-path="url(#pa9f3d80e88)" style="fill: none; stroke: #0173b2; stroke-opacity: 0.999; stroke-width: 1.2"/>
    <path d="M 200.917038 47.075307 
L 196.733738 55.441907 
L 205.100338 55.441907 
L 200.917038 47.075307 
z
" clip-path="url(#pa9f3d80e88)" style="fill: none; stroke: #0173b2; stroke-opacity: 0.999; stroke-width: 1.2"/>
    <path d="M 187.218179 46.0696 
L 183.034879 54.4362 
L 191.401479 54.4362 
L 187.218179 46.0696 
z
" clip-path="url(#pa9f3d80e88)" style="fill: none; stroke: #0173b2; stroke-opacity: 0.999; stroke-width: 1.2"/>
    <path d="M 232.426249 92.64162 
L 228.242949 101.008221 
L 236.609549 101.008221 
L 232.426249 92.64162 
z
" clip-path="url(#pa9f3d80e88)" style="fill: none; stroke: #0173b2; stroke-opacity: 0.999; stroke-width: 1.2"/>
    <path d="M 239.732962 97.363456 
L 235.549662 105.730057 
L 243.916263 105.730057 
L 239.732962 97.363456 
z
" clip-path="url(#pa9f3d80e88)" style="fill: none; stroke: #0173b2; stroke-opacity: 0.999; stroke-width: 1.2"/>
    <path d="M 177.682322 34.194139 
L 173.499022 42.560739 
L 181.865622 42.560739 
L 177.682322 34.194139 
z
" clip-path="url(#pa9f3d80e88)" style="fill: none; stroke: #0173b2; stroke-opacity: 0.999; stroke-width: 1.2"/>
    <path d="M 181.568903 38.952404 
L 177.385603 47.319004 
L 185.752203 47.319004 
L 181.568903 38.952404 
z
" clip-path="url(#pa9f3d80e88)" style="fill: none; stroke: #0173b2; stroke-opacity: 0.999; stroke-width: 1.2"/>
    <path d="M 184.039905 42.41342 
L 179.856604 50.78002 
L 188.223205 50.78002 
L 184.039905 42.41342 
z
" clip-path="url(#pa9f3d80e88)" style="fill: none; stroke: #0173b2; stroke-opacity: 0.999; stroke-width: 1.2"/>
    <path d="M 239.683363 117.120965 
L 235.500063 125.487565 
L 243.866663 125.487565 
L 239.683363 117.120965 
z
" clip-path="url(#pa9f3d80e88)" style="fill: none; stroke: #0173b2; stroke-opacity: 0.999; stroke-width: 1.2"/>
    <path d="M 315.791592 354.235672 
L 311.608292 362.602272 
L 319.974892 362.602272 
L 315.791592 354.235672 
z
" clip-path="url(#pa9f3d80e88)" style="fill: none; stroke: #0173b2; stroke-opacity: 0.999; stroke-width: 1.2"/>
    <path d="M 253.755167 110.508501 
L 249.571867 118.875101 
L 257.938467 118.875101 
L 253.755167 110.508501 
z
" clip-path="url(#pa9f3d80e88)" style="fill: none; stroke: #0173b2; stroke-opacity: 0.999; stroke-width: 1.2"/>
    <path d="M 196.242959 52.703129 
L 192.059659 61.069729 
L 200.42626 61.069729 
L 196.242959 52.703129 
z
" clip-path="url(#pa9f3d80e88)" style="fill: none; stroke: #0173b2; stroke-opacity: 0.999; stroke-width: 1.2"/>
    <path d="M 189.698662 37.019111 
L 185.515361 45.385711 
L 193.881962 45.385711 
L 189.698662 37.019111 
z
" clip-path="url(#pa9f3d80e88)" style="fill: none; stroke: #0173b2; stroke-opacity: 0.999; stroke-width: 1.2"/>
    <path d="M 187.150864 46.005469 
L 182.967564 54.372069 
L 191.334164 54.372069 
L 187.150864 46.005469 
z
" clip-path="url(#pa9f3d80e88)" style="fill: none; stroke: #0173b2; stroke-opacity: 0.999; stroke-width: 1.2"/>
    <path d="M 257.420967 113.550176 
L 253.237667 121.916776 
L 261.604268 121.916776 
L 257.420967 113.550176 
z
" clip-path="url(#pa9f3d80e88)" style="fill: none; stroke: #0173b2; stroke-opacity: 0.999; stroke-width: 1.2"/>
    <path d="M 237.457301 98.123082 
L 233.274001 106.489682 
L 241.640601 106.489682 
L 237.457301 98.123082 
z
" clip-path="url(#pa9f3d80e88)" style="fill: none; stroke: #0173b2; stroke-opacity: 0.999; stroke-width: 1.2"/>
    <path d="M 241.037255 134.357022 
L 236.853955 142.723623 
L 245.220555 142.723623 
L 241.037255 134.357022 
z
" clip-path="url(#pa9f3d80e88)" style="fill: none; stroke: #0173b2; stroke-opacity: 0.999; stroke-width: 1.2"/>
    <path d="M 248.149431 132.760422 
L 243.966131 141.127022 
L 252.332731 141.127022 
L 248.149431 132.760422 
z
" clip-path="url(#pa9f3d80e88)" style="fill: none; stroke: #0173b2; stroke-opacity: 0.999; stroke-width: 1.2"/>
    <path d="M 243.026164 115.483687 
L 238.842864 123.850287 
L 247.209464 123.850287 
L 243.026164 115.483687 
z
" clip-path="url(#pa9f3d80e88)" style="fill: none; stroke: #0173b2; stroke-opacity: 0.999; stroke-width: 1.2"/>
    <path d="M 249.573045 134.077405 
L 245.389745 142.444005 
L 253.756345 142.444005 
L 249.573045 134.077405 
z
" clip-path="url(#pa9f3d80e88)" style="fill: none; stroke: #0173b2; stroke-opacity: 0.999; stroke-width: 1.2"/>
    <path d="M 256.876075 112.712647 
L 252.692775 121.079248 
L 261.059375 121.079248 
L 256.876075 112.712647 
z
" clip-path="url(#pa9f3d80e88)" style="fill: none; stroke: #0173b2; stroke-opacity: 0.999; stroke-width: 1.2"/>
    <path d="M 196.458045 52.988399 
L 192.274745 61.354999 
L 200.641345 61.354999 
L 196.458045 52.988399 
z
" clip-path="url(#pa9f3d80e88)" style="fill: none; stroke: #0173b2; stroke-opacity: 0.999; stroke-width: 1.2"/>
    <path d="M 297.390123 379.166812 
L 293.206823 387.533412 
L 301.573424 387.533412 
L 297.390123 379.166812 
z
" clip-path="url(#pa9f3d80e88)" style="fill: none; stroke: #0173b2; stroke-opacity: 0.999; stroke-width: 1.2"/>
    <path d="M 193.290698 40.176491 
L 189.107398 48.543091 
L 197.473998 48.543091 
L 193.290698 40.176491 
z
" clip-path="url(#pa9f3d80e88)" style="fill: none; stroke: #0173b2; stroke-opacity: 0.999; stroke-width: 1.2"/>
    <path d="M 219.672705 76.563119 
L 215.489405 84.929719 
L 223.856005 84.929719 
L 219.672705 76.563119 
z
" clip-path="url(#pa9f3d80e88)" style="fill: none; stroke: #0173b2; stroke-opacity: 0.999; stroke-width: 1.2"/>
    <path d="M 200.770677 56.612537 
L 196.587377 64.979137 
L 204.953977 64.979137 
L 200.770677 56.612537 
z
" clip-path="url(#pa9f3d80e88)" style="fill: none; stroke: #0173b2; stroke-opacity: 0.999; stroke-width: 1.2"/>
    <path d="M 235.173593 94.95774 
L 230.990292 103.324341 
L 239.356893 103.324341 
L 235.173593 94.95774 
z
" clip-path="url(#pa9f3d80e88)" style="fill: none; stroke: #0173b2; stroke-opacity: 0.999; stroke-width: 1.2"/>
    <path d="M 246.464803 131.964209 
L 242.281502 140.330809 
L 250.648103 140.330809 
L 246.464803 131.964209 
z
" clip-path="url(#pa9f3d80e88)" style="fill: none; stroke: #0173b2; stroke-opacity: 0.999; stroke-width: 1.2"/>
    <path d="M 249.060382 105.900498 
L 244.877082 114.267098 
L 253.243682 114.267098 
L 249.060382 105.900498 
z
" clip-path="url(#pa9f3d80e88)" style="fill: none; stroke: #0173b2; stroke-opacity: 0.999; stroke-width: 1.2"/>
    <path d="M 246.799896 131.956284 
L 242.616596 140.322884 
L 250.983197 140.322884 
L 246.799896 131.956284 
z
" clip-path="url(#pa9f3d80e88)" style="fill: none; stroke: #0173b2; stroke-opacity: 0.999; stroke-width: 1.2"/>
    <path d="M 249.935865 106.502751 
L 245.752565 114.869351 
L 254.119165 114.869351 
L 249.935865 106.502751 
z
" clip-path="url(#pa9f3d80e88)" style="fill: none; stroke: #0173b2; stroke-opacity: 0.999; stroke-width: 1.2"/>
    <path d="M 181.032337 31.28233 
L 176.849037 39.64893 
L 185.215637 39.64893 
L 181.032337 31.28233 
z
" clip-path="url(#pa9f3d80e88)" style="fill: none; stroke: #0173b2; stroke-opacity: 0.999; stroke-width: 1.2"/>
    <path d="M 191.927909 50.112302 
L 187.744608 58.478902 
L 196.111209 58.478902 
L 191.927909 50.112302 
z
" clip-path="url(#pa9f3d80e88)" style="fill: none; stroke: #0173b2; stroke-opacity: 0.999; stroke-width: 1.2"/>
    <path d="M 185.492071 44.180211 
L 181.308771 52.546812 
L 189.675371 52.546812 
L 185.492071 44.180211 
z
" clip-path="url(#pa9f3d80e88)" style="fill: none; stroke: #0173b2; stroke-opacity: 0.999; stroke-width: 1.2"/>
    <path d="M 200.255517 46.473139 
L 196.072217 54.83974 
L 204.438817 54.83974 
L 200.255517 46.473139 
z
" clip-path="url(#pa9f3d80e88)" style="fill: none; stroke: #0173b2; stroke-opacity: 0.999; stroke-width: 1.2"/>
    <path d="M 204.038924 58.845978 
L 199.855624 67.212578 
L 208.222225 67.212578 
L 204.038924 58.845978 
z
" clip-path="url(#pa9f3d80e88)" style="fill: none; stroke: #0173b2; stroke-opacity: 0.999; stroke-width: 1.2"/>
    <path d="M 246.865024 104.489307 
L 242.681724 112.855907 
L 251.048324 112.855907 
L 246.865024 104.489307 
z
" clip-path="url(#pa9f3d80e88)" style="fill: none; stroke: #0173b2; stroke-opacity: 0.999; stroke-width: 1.2"/>
    <path d="M 241.148111 119.257626 
L 236.96481 127.624226 
L 245.331411 127.624226 
L 241.148111 119.257626 
z
" clip-path="url(#pa9f3d80e88)" style="fill: none; stroke: #0173b2; stroke-opacity: 0.999; stroke-width: 1.2"/>
   </g>
   <g id="PathCollection_3">
    <defs>
     <path id="m708c4e3b9b" d="M 0 3.872983 
C 1.027127 3.872983 2.012324 3.464901 2.738613 2.738613 
C 3.464901 2.012324 3.872983 1.027127 3.872983 0 
C 3.872983 -1.027127 3.464901 -2.012324 2.738613 -2.738613 
C 2.012324 -3.464901 1.027127 -3.872983 0 -3.872983 
C -1.027127 -3.872983 -2.012324 -3.464901 -2.738613 -2.738613 
C -3.464901 -2.012324 -3.872983 -1.027127 -3.872983 0 
C -3.872983 1.027127 -3.464901 2.012324 -2.738613 2.738613 
C -2.012324 3.464901 -1.027127 3.872983 0 3.872983 
z
" style="stroke: #000000; stroke-opacity: 0.7; stroke-width: 0.3"/>
    </defs>
    <g clip-path="url(#pa9f3d80e88)">
     <use xlink:href="#m708c4e3b9b" x="291.032991" y="391.960219" style="fill: #de8f05; fill-opacity: 0.7; stroke: #000000; stroke-opacity: 0.7; stroke-width: 0.3"/>
     <use xlink:href="#m708c4e3b9b" x="265.934677" y="430.56" style="fill: #de8f05; fill-opacity: 0.7; stroke: #000000; stroke-opacity: 0.7; stroke-width: 0.3"/>
     <use xlink:href="#m708c4e3b9b" x="326.696396" y="352.000456" style="fill: #de8f05; fill-opacity: 0.7; stroke: #000000; stroke-opacity: 0.7; stroke-width: 0.3"/>
     <use xlink:href="#m708c4e3b9b" x="274.051071" y="415.488275" style="fill: #de8f05; fill-opacity: 0.7; stroke: #000000; stroke-opacity: 0.7; stroke-width: 0.3"/>
     <use xlink:href="#m708c4e3b9b" x="332.539564" y="341.788795" style="fill: #de8f05; fill-opacity: 0.7; stroke: #000000; stroke-opacity: 0.7; stroke-width: 0.3"/>
     <use xlink:href="#m708c4e3b9b" x="321.957089" y="359.519805" style="fill: #de8f05; fill-opacity: 0.7; stroke: #000000; stroke-opacity: 0.7; stroke-width: 0.3"/>
     <use xlink:href="#m708c4e3b9b" x="310.954583" y="362.069341" style="fill: #de8f05; fill-opacity: 0.7; stroke: #000000; stroke-opacity: 0.7; stroke-width: 0.3"/>
     <use xlink:href="#m708c4e3b9b" x="315.05057" y="387.511789" style="fill: #de8f05; fill-opacity: 0.7; stroke: #000000; stroke-opacity: 0.7; stroke-width: 0.3"/>
     <use xlink:href="#m708c4e3b9b" x="275.723213" y="413.573239" style="fill: #de8f05; fill-opacity: 0.7; stroke: #000000; stroke-opacity: 0.7; stroke-width: 0.3"/>
     <use xlink:href="#m708c4e3b9b" x="320.416789" y="353.589477" style="fill: #de8f05; fill-opacity: 0.7; stroke: #000000; stroke-opacity: 0.7; stroke-width: 0.3"/>
     <use xlink:href="#m708c4e3b9b" x="307.529568" y="374.24715" style="fill: #de8f05; fill-opacity: 0.7; stroke: #000000; stroke-opacity: 0.7; stroke-width: 0.3"/>
     <use xlink:href="#m708c4e3b9b" x="285.139119" y="400.286939" style="fill: #de8f05; fill-opacity: 0.7; stroke: #000000; stroke-opacity: 0.7; stroke-width: 0.3"/>
     <use xlink:href="#m708c4e3b9b" x="337.578753" y="335.500352" style="fill: #de8f05; fill-opacity: 0.7; stroke: #000000; stroke-opacity: 0.7; stroke-width: 0.3"/>
     <use xlink:href="#m708c4e3b9b" x="289.660216" y="393.812959" style="fill: #de8f05; fill-opacity: 0.7; stroke: #000000; stroke-opacity: 0.7; stroke-width: 0.3"/>
     <use xlink:href="#m708c4e3b9b" x="330.341051" y="341.181383" style="fill: #de8f05; fill-opacity: 0.7; stroke: #000000; stroke-opacity: 0.7; stroke-width: 0.3"/>
     <use xlink:href="#m708c4e3b9b" x="290.930723" y="392.10292" style="fill: #de8f05; fill-opacity: 0.7; stroke: #000000; stroke-opacity: 0.7; stroke-width: 0.3"/>
     <use xlink:href="#m708c4e3b9b" x="323.19161" y="349.345425" style="fill: #de8f05; fill-opacity: 0.7; stroke: #000000; stroke-opacity: 0.7; stroke-width: 0.3"/>
     <use xlink:href="#m708c4e3b9b" x="267.115121" y="427.551947" style="fill: #de8f05; fill-opacity: 0.7; stroke: #000000; stroke-opacity: 0.7; stroke-width: 0.3"/>
     <use xlink:href="#m708c4e3b9b" x="309.213928" y="345.302857" style="fill: #de8f05; fill-opacity: 0.7; stroke: #000000; stroke-opacity: 0.7; stroke-width: 0.3"/>
     <use xlink:href="#m708c4e3b9b" x="339.855167" y="332.935306" style="fill: #de8f05; fill-opacity: 0.7; stroke: #000000; stroke-opacity: 0.7; stroke-width: 0.3"/>
     <use xlink:href="#m708c4e3b9b" x="314.012013" y="355.337343" style="fill: #de8f05; fill-opacity: 0.7; stroke: #000000; stroke-opacity: 0.7; stroke-width: 0.3"/>
     <use xlink:href="#m708c4e3b9b" x="327.216867" y="347.388514" style="fill: #de8f05; fill-opacity: 0.7; stroke: #000000; stroke-opacity: 0.7; stroke-width: 0.3"/>
    </g>
   </g>
   <g id="PathCollection_4">
    <path d="M 302.81716 368.136829 
L 298.63386 376.503429 
L 307.00046 376.503429 
L 302.81716 368.136829 
z
" clip-path="url(#pa9f3d80e88)" style="fill: none; stroke: #de8f05; stroke-opacity: 0.999; stroke-width: 1.2"/>
    <path d="M 306.644485 362.097591 
L 302.461185 370.464191 
L 310.827785 370.464191 
L 306.644485 362.097591 
z
" clip-path="url(#pa9f3d80e88)" style="fill: none; stroke: #de8f05; stroke-opacity: 0.999; stroke-width: 1.2"/>
    <path d="M 339.481538 273.013496 
L 335.298238 281.380097 
L 343.664838 281.380097 
L 339.481538 273.013496 
z
" clip-path="url(#pa9f3d80e88)" style="fill: none; stroke: #de8f05; stroke-opacity: 0.999; stroke-width: 1.2"/>
    <path d="M 306.233131 362.695771 
L 302.049831 371.062371 
L 310.416431 371.062371 
L 306.233131 362.695771 
z
" clip-path="url(#pa9f3d80e88)" style="fill: none; stroke: #de8f05; stroke-opacity: 0.999; stroke-width: 1.2"/>
    <path d="M 274.280524 411.045887 
L 270.097224 419.412488 
L 278.463824 419.412488 
L 274.280524 411.045887 
z
" clip-path="url(#pa9f3d80e88)" style="fill: none; stroke: #de8f05; stroke-opacity: 0.999; stroke-width: 1.2"/>
    <path d="M 298.053791 378.303697 
L 293.870491 386.670298 
L 302.237092 386.670298 
L 298.053791 378.303697 
z
" clip-path="url(#pa9f3d80e88)" style="fill: none; stroke: #de8f05; stroke-opacity: 0.999; stroke-width: 1.2"/>
    <path d="M 291.163729 387.574158 
L 286.980429 395.940758 
L 295.347029 395.940758 
L 291.163729 387.574158 
z
" clip-path="url(#pa9f3d80e88)" style="fill: none; stroke: #de8f05; stroke-opacity: 0.999; stroke-width: 1.2"/>
    <path d="M 272.812513 413.176058 
L 268.629213 421.542658 
L 276.995813 421.542658 
L 272.812513 413.176058 
z
" clip-path="url(#pa9f3d80e88)" style="fill: none; stroke: #de8f05; stroke-opacity: 0.999; stroke-width: 1.2"/>
    <path d="M 302.842972 371.967885 
L 298.659672 380.334485 
L 307.026272 380.334485 
L 302.842972 371.967885 
z
" clip-path="url(#pa9f3d80e88)" style="fill: none; stroke: #de8f05; stroke-opacity: 0.999; stroke-width: 1.2"/>
    <path d="M 287.341589 392.922375 
L 283.158289 401.288975 
L 291.524889 401.288975 
L 287.341589 392.922375 
z
" clip-path="url(#pa9f3d80e88)" style="fill: none; stroke: #de8f05; stroke-opacity: 0.999; stroke-width: 1.2"/>
    <path d="M 320.127903 358.709117 
L 315.944603 367.075717 
L 324.311203 367.075717 
L 320.127903 358.709117 
z
" clip-path="url(#pa9f3d80e88)" style="fill: none; stroke: #de8f05; stroke-opacity: 0.999; stroke-width: 1.2"/>
    <path d="M 269.896724 417.408174 
L 265.713424 425.774774 
L 274.080024 425.774774 
L 269.896724 417.408174 
z
" clip-path="url(#pa9f3d80e88)" style="fill: none; stroke: #de8f05; stroke-opacity: 0.999; stroke-width: 1.2"/>
    <path d="M 326.267699 348.628574 
L 322.084399 356.995174 
L 330.450999 356.995174 
L 326.267699 348.628574 
z
" clip-path="url(#pa9f3d80e88)" style="fill: none; stroke: #de8f05; stroke-opacity: 0.999; stroke-width: 1.2"/>
    <path d="M 267.085292 423.093356 
L 262.901992 431.459956 
L 271.268592 431.459956 
L 267.085292 423.093356 
z
" clip-path="url(#pa9f3d80e88)" style="fill: none; stroke: #de8f05; stroke-opacity: 0.999; stroke-width: 1.2"/>
    <path d="M 312.2862 364.350929 
L 308.1029 372.717529 
L 316.4695 372.717529 
L 312.2862 364.350929 
z
" clip-path="url(#pa9f3d80e88)" style="fill: none; stroke: #de8f05; stroke-opacity: 0.999; stroke-width: 1.2"/>
    <path d="M 321.483876 393.350225 
L 317.300576 401.716825 
L 325.667176 401.716825 
L 321.483876 393.350225 
z
" clip-path="url(#pa9f3d80e88)" style="fill: none; stroke: #de8f05; stroke-opacity: 0.999; stroke-width: 1.2"/>
    <path d="M 269.9533 420.653338 
L 265.77 429.019938 
L 274.1366 429.019938 
L 269.9533 420.653338 
z
" clip-path="url(#pa9f3d80e88)" style="fill: none; stroke: #de8f05; stroke-opacity: 0.999; stroke-width: 1.2"/>
    <path d="M 303.40029 366.692381 
L 299.216989 375.058981 
L 307.58359 375.058981 
L 303.40029 366.692381 
z
" clip-path="url(#pa9f3d80e88)" style="fill: none; stroke: #de8f05; stroke-opacity: 0.999; stroke-width: 1.2"/>
    <path d="M 308.445491 373.520453 
L 304.262191 381.887054 
L 312.628791 381.887054 
L 308.445491 373.520453 
z
" clip-path="url(#pa9f3d80e88)" style="fill: none; stroke: #de8f05; stroke-opacity: 0.999; stroke-width: 1.2"/>
    <path d="M 323.021529 345.272251 
L 318.838229 353.638851 
L 327.204829 353.638851 
L 323.021529 345.272251 
z
" clip-path="url(#pa9f3d80e88)" style="fill: none; stroke: #de8f05; stroke-opacity: 0.999; stroke-width: 1.2"/>
    <path d="M 339.143158 272.917847 
L 334.959858 281.284448 
L 343.326458 281.284448 
L 339.143158 272.917847 
z
" clip-path="url(#pa9f3d80e88)" style="fill: none; stroke: #de8f05; stroke-opacity: 0.999; stroke-width: 1.2"/>
    <path d="M 335.179551 334.116413 
L 330.996251 342.483013 
L 339.362851 342.483013 
L 335.179551 334.116413 
z
" clip-path="url(#pa9f3d80e88)" style="fill: none; stroke: #de8f05; stroke-opacity: 0.999; stroke-width: 1.2"/>
    <path d="M 320.548116 357.508246 
L 316.364816 365.874846 
L 324.731416 365.874846 
L 320.548116 357.508246 
z
" clip-path="url(#pa9f3d80e88)" style="fill: none; stroke: #de8f05; stroke-opacity: 0.999; stroke-width: 1.2"/>
    <path d="M 267.548149 420.831302 
L 263.364849 429.197902 
L 271.731449 429.197902 
L 267.548149 420.831302 
z
" clip-path="url(#pa9f3d80e88)" style="fill: none; stroke: #de8f05; stroke-opacity: 0.999; stroke-width: 1.2"/>
    <path d="M 270.074876 415.711968 
L 265.891576 424.078568 
L 274.258176 424.078568 
L 270.074876 415.711968 
z
" clip-path="url(#pa9f3d80e88)" style="fill: none; stroke: #de8f05; stroke-opacity: 0.999; stroke-width: 1.2"/>
    <path d="M 271.72309 414.415995 
L 267.53979 422.782595 
L 275.906391 422.782595 
L 271.72309 414.415995 
z
" clip-path="url(#pa9f3d80e88)" style="fill: none; stroke: #de8f05; stroke-opacity: 0.999; stroke-width: 1.2"/>
    <path d="M 289.832388 402.101951 
L 285.649088 410.468551 
L 294.015688 410.468551 
L 289.832388 402.101951 
z
" clip-path="url(#pa9f3d80e88)" style="fill: none; stroke: #de8f05; stroke-opacity: 0.999; stroke-width: 1.2"/>
    <path d="M 278.842966 405.475195 
L 274.659666 413.841795 
L 283.026266 413.841795 
L 278.842966 405.475195 
z
" clip-path="url(#pa9f3d80e88)" style="fill: none; stroke: #de8f05; stroke-opacity: 0.999; stroke-width: 1.2"/>
    <path d="M 288.210219 391.677223 
L 284.026919 400.043823 
L 292.393519 400.043823 
L 288.210219 391.677223 
z
" clip-path="url(#pa9f3d80e88)" style="fill: none; stroke: #de8f05; stroke-opacity: 0.999; stroke-width: 1.2"/>
    <path d="M 315.903229 370.218281 
L 311.719929 378.584881 
L 320.086529 378.584881 
L 315.903229 370.218281 
z
" clip-path="url(#pa9f3d80e88)" style="fill: none; stroke: #de8f05; stroke-opacity: 0.999; stroke-width: 1.2"/>
    <path d="M 310.401103 366.875632 
L 306.217803 375.242232 
L 314.584403 375.242232 
L 310.401103 366.875632 
z
" clip-path="url(#pa9f3d80e88)" style="fill: none; stroke: #de8f05; stroke-opacity: 0.999; stroke-width: 1.2"/>
    <path d="M 305.199057 363.583755 
L 301.015756 371.950356 
L 309.382357 371.950356 
L 305.199057 363.583755 
z
" clip-path="url(#pa9f3d80e88)" style="fill: none; stroke: #de8f05; stroke-opacity: 0.999; stroke-width: 1.2"/>
    <path d="M 315.925285 370.169964 
L 311.741984 378.536565 
L 320.108585 378.536565 
L 315.925285 370.169964 
z
" clip-path="url(#pa9f3d80e88)" style="fill: none; stroke: #de8f05; stroke-opacity: 0.999; stroke-width: 1.2"/>
    <path d="M 302.293301 372.561653 
L 298.110001 380.928253 
L 306.476601 380.928253 
L 302.293301 372.561653 
z
" clip-path="url(#pa9f3d80e88)" style="fill: none; stroke: #de8f05; stroke-opacity: 0.999; stroke-width: 1.2"/>
    <path d="M 321.713667 391.840807 
L 317.530367 400.207407 
L 325.896967 400.207407 
L 321.713667 391.840807 
z
" clip-path="url(#pa9f3d80e88)" style="fill: none; stroke: #de8f05; stroke-opacity: 0.999; stroke-width: 1.2"/>
    <path d="M 266.150997 425.94857 
L 261.967697 434.315171 
L 270.334297 434.315171 
L 266.150997 425.94857 
z
" clip-path="url(#pa9f3d80e88)" style="fill: none; stroke: #de8f05; stroke-opacity: 0.999; stroke-width: 1.2"/>
    <path d="M 315.12376 354.414255 
L 310.94046 362.780856 
L 319.30706 362.780856 
L 315.12376 354.414255 
z
" clip-path="url(#pa9f3d80e88)" style="fill: none; stroke: #de8f05; stroke-opacity: 0.999; stroke-width: 1.2"/>
    <path d="M 315.175928 361.971359 
L 310.992628 370.337959 
L 319.359228 370.337959 
L 315.175928 361.971359 
z
" clip-path="url(#pa9f3d80e88)" style="fill: none; stroke: #de8f05; stroke-opacity: 0.999; stroke-width: 1.2"/>
    <path d="M 321.006272 390.866618 
L 316.822971 399.233219 
L 325.189572 399.233219 
L 321.006272 390.866618 
z
" clip-path="url(#pa9f3d80e88)" style="fill: none; stroke: #de8f05; stroke-opacity: 0.999; stroke-width: 1.2"/>
   </g>
   <g id="PathCollection_5">
    <defs>
     <path id="mcf7a7caa3f" d="M 0 3.872983 
C 1.027127 3.872983 2.012324 3.464901 2.738613 2.738613 
C 3.464901 2.012324 3.872983 1.027127 3.872983 0 
C 3.872983 -1.027127 3.464901 -2.012324 2.738613 -2.738613 
C 2.012324 -3.464901 1.027127 -3.872983 0 -3.872983 
C -1.027127 -3.872983 -2.012324 -3.464901 -2.738613 -2.738613 
C -3.464901 -2.012324 -3.872983 -1.027127 -3.872983 0 
C -3.872983 1.027127 -3.464901 2.012324 -2.738613 2.738613 
C -2.012324 3.464901 -1.027127 3.872983 0 3.872983 
z
" style="stroke: #000000; stroke-opacity: 0.7; stroke-width: 0.3"/>
    </defs>
    <g clip-path="url(#pa9f3d80e88)">
     <use xlink:href="#mcf7a7caa3f" x="459.549444" y="245.419522" style="fill: #029e73; fill-opacity: 0.7; stroke: #000000; stroke-opacity: 0.7; stroke-width: 0.3"/>
     <use xlink:href="#mcf7a7caa3f" x="479.633514" y="237.937656" style="fill: #029e73; fill-opacity: 0.7; stroke: #000000; stroke-opacity: 0.7; stroke-width: 0.3"/>
     <use xlink:href="#mcf7a7caa3f" x="468.94565" y="240.644192" style="fill: #029e73; fill-opacity: 0.7; stroke: #000000; stroke-opacity: 0.7; stroke-width: 0.3"/>
     <use xlink:href="#mcf7a7caa3f" x="410.531626" y="272.06789" style="fill: #029e73; fill-opacity: 0.7; stroke: #000000; stroke-opacity: 0.7; stroke-width: 0.3"/>
     <use xlink:href="#mcf7a7caa3f" x="476.164694" y="238.482187" style="fill: #029e73; fill-opacity: 0.7; stroke: #000000; stroke-opacity: 0.7; stroke-width: 0.3"/>
     <use xlink:href="#mcf7a7caa3f" x="462.726989" y="251.980707" style="fill: #029e73; fill-opacity: 0.7; stroke: #000000; stroke-opacity: 0.7; stroke-width: 0.3"/>
     <use xlink:href="#mcf7a7caa3f" x="476.243885" y="245.559669" style="fill: #029e73; fill-opacity: 0.7; stroke: #000000; stroke-opacity: 0.7; stroke-width: 0.3"/>
     <use xlink:href="#mcf7a7caa3f" x="453.219077" y="253.453543" style="fill: #029e73; fill-opacity: 0.7; stroke: #000000; stroke-opacity: 0.7; stroke-width: 0.3"/>
     <use xlink:href="#mcf7a7caa3f" x="480.79804" y="242.641938" style="fill: #029e73; fill-opacity: 0.7; stroke: #000000; stroke-opacity: 0.7; stroke-width: 0.3"/>
     <use xlink:href="#mcf7a7caa3f" x="445.460113" y="252.059709" style="fill: #029e73; fill-opacity: 0.7; stroke: #000000; stroke-opacity: 0.7; stroke-width: 0.3"/>
     <use xlink:href="#mcf7a7caa3f" x="408.997096" y="269.267037" style="fill: #029e73; fill-opacity: 0.7; stroke: #000000; stroke-opacity: 0.7; stroke-width: 0.3"/>
     <use xlink:href="#mcf7a7caa3f" x="490.678205" y="236.407612" style="fill: #029e73; fill-opacity: 0.7; stroke: #000000; stroke-opacity: 0.7; stroke-width: 0.3"/>
     <use xlink:href="#mcf7a7caa3f" x="417.985496" y="266.757294" style="fill: #029e73; fill-opacity: 0.7; stroke: #000000; stroke-opacity: 0.7; stroke-width: 0.3"/>
     <use xlink:href="#mcf7a7caa3f" x="459.763314" y="251.995151" style="fill: #029e73; fill-opacity: 0.7; stroke: #000000; stroke-opacity: 0.7; stroke-width: 0.3"/>
     <use xlink:href="#mcf7a7caa3f" x="471.468882" y="239.972835" style="fill: #029e73; fill-opacity: 0.7; stroke: #000000; stroke-opacity: 0.7; stroke-width: 0.3"/>
     <use xlink:href="#mcf7a7caa3f" x="472.042303" y="248.345541" style="fill: #029e73; fill-opacity: 0.7; stroke: #000000; stroke-opacity: 0.7; stroke-width: 0.3"/>
     <use xlink:href="#mcf7a7caa3f" x="437.141293" y="261.499203" style="fill: #029e73; fill-opacity: 0.7; stroke: #000000; stroke-opacity: 0.7; stroke-width: 0.3"/>
     <use xlink:href="#mcf7a7caa3f" x="425.232381" y="263.530927" style="fill: #029e73; fill-opacity: 0.7; stroke: #000000; stroke-opacity: 0.7; stroke-width: 0.3"/>
     <use xlink:href="#mcf7a7caa3f" x="446.819632" y="251.780716" style="fill: #029e73; fill-opacity: 0.7; stroke: #000000; stroke-opacity: 0.7; stroke-width: 0.3"/>
     <use xlink:href="#mcf7a7caa3f" x="479.86913" y="243.793829" style="fill: #029e73; fill-opacity: 0.7; stroke: #000000; stroke-opacity: 0.7; stroke-width: 0.3"/>
     <use xlink:href="#mcf7a7caa3f" x="443.266152" y="259.626647" style="fill: #029e73; fill-opacity: 0.7; stroke: #000000; stroke-opacity: 0.7; stroke-width: 0.3"/>
     <use xlink:href="#mcf7a7caa3f" x="469.201188" y="250.050846" style="fill: #029e73; fill-opacity: 0.7; stroke: #000000; stroke-opacity: 0.7; stroke-width: 0.3"/>
     <use xlink:href="#mcf7a7caa3f" x="445.420815" y="257.576998" style="fill: #029e73; fill-opacity: 0.7; stroke: #000000; stroke-opacity: 0.7; stroke-width: 0.3"/>
     <use xlink:href="#mcf7a7caa3f" x="424.001499" y="263.93232" style="fill: #029e73; fill-opacity: 0.7; stroke: #000000; stroke-opacity: 0.7; stroke-width: 0.3"/>
     <use xlink:href="#mcf7a7caa3f" x="469.051534" y="246.177858" style="fill: #029e73; fill-opacity: 0.7; stroke: #000000; stroke-opacity: 0.7; stroke-width: 0.3"/>
     <use xlink:href="#mcf7a7caa3f" x="400.175714" y="274.374021" style="fill: #029e73; fill-opacity: 0.7; stroke: #000000; stroke-opacity: 0.7; stroke-width: 0.3"/>
     <use xlink:href="#mcf7a7caa3f" x="490.219456" y="236.580696" style="fill: #029e73; fill-opacity: 0.7; stroke: #000000; stroke-opacity: 0.7; stroke-width: 0.3"/>
     <use xlink:href="#mcf7a7caa3f" x="404.643969" y="271.612132" style="fill: #029e73; fill-opacity: 0.7; stroke: #000000; stroke-opacity: 0.7; stroke-width: 0.3"/>
     <use xlink:href="#mcf7a7caa3f" x="460.10045" y="252.123294" style="fill: #029e73; fill-opacity: 0.7; stroke: #000000; stroke-opacity: 0.7; stroke-width: 0.3"/>
     <use xlink:href="#mcf7a7caa3f" x="462.739691" y="243.781366" style="fill: #029e73; fill-opacity: 0.7; stroke: #000000; stroke-opacity: 0.7; stroke-width: 0.3"/>
     <use xlink:href="#mcf7a7caa3f" x="468.884534" y="250.226007" style="fill: #029e73; fill-opacity: 0.7; stroke: #000000; stroke-opacity: 0.7; stroke-width: 0.3"/>
     <use xlink:href="#mcf7a7caa3f" x="453.043155" y="249.029578" style="fill: #029e73; fill-opacity: 0.7; stroke: #000000; stroke-opacity: 0.7; stroke-width: 0.3"/>
     <use xlink:href="#mcf7a7caa3f" x="430.497189" y="260.122769" style="fill: #029e73; fill-opacity: 0.7; stroke: #000000; stroke-opacity: 0.7; stroke-width: 0.3"/>
     <use xlink:href="#mcf7a7caa3f" x="433.756648" y="261.434194" style="fill: #029e73; fill-opacity: 0.7; stroke: #000000; stroke-opacity: 0.7; stroke-width: 0.3"/>
     <use xlink:href="#mcf7a7caa3f" x="437.553317" y="254.861029" style="fill: #029e73; fill-opacity: 0.7; stroke: #000000; stroke-opacity: 0.7; stroke-width: 0.3"/>
     <use xlink:href="#mcf7a7caa3f" x="436.695818" y="255.209457" style="fill: #029e73; fill-opacity: 0.7; stroke: #000000; stroke-opacity: 0.7; stroke-width: 0.3"/>
     <use xlink:href="#mcf7a7caa3f" x="464.279315" y="242.446613" style="fill: #029e73; fill-opacity: 0.7; stroke: #000000; stroke-opacity: 0.7; stroke-width: 0.3"/>
    </g>
   </g>
   <g id="PathCollection_6">
    <path d="M 394.582364 274.175088 
L 390.399064 282.541688 
L 398.765664 282.541688 
L 394.582364 274.175088 
z
" clip-path="url(#pa9f3d80e88)" style="fill: none; stroke: #029e73; stroke-opacity: 0.999; stroke-width: 1.2"/>
    <path d="M 430.532742 256.109127 
L 426.349442 264.475727 
L 434.716043 264.475727 
L 430.532742 256.109127 
z
" clip-path="url(#pa9f3d80e88)" style="fill: none; stroke: #029e73; stroke-opacity: 0.999; stroke-width: 1.2"/>
    <path d="M 414.624304 263.873765 
L 410.441004 272.240365 
L 418.807604 272.240365 
L 414.624304 263.873765 
z
" clip-path="url(#pa9f3d80e88)" style="fill: none; stroke: #029e73; stroke-opacity: 0.999; stroke-width: 1.2"/>
    <path d="M 394.720508 274.040803 
L 390.537207 282.407404 
L 398.903808 282.407404 
L 394.720508 274.040803 
z
" clip-path="url(#pa9f3d80e88)" style="fill: none; stroke: #029e73; stroke-opacity: 0.999; stroke-width: 1.2"/>
    <path d="M 439.900445 256.559682 
L 435.717144 264.926283 
L 444.083745 264.926283 
L 439.900445 256.559682 
z
" clip-path="url(#pa9f3d80e88)" style="fill: none; stroke: #029e73; stroke-opacity: 0.999; stroke-width: 1.2"/>
    <path d="M 408.189402 269.174494 
L 404.006102 277.541094 
L 412.372703 277.541094 
L 408.189402 269.174494 
z
" clip-path="url(#pa9f3d80e88)" style="fill: none; stroke: #029e73; stroke-opacity: 0.999; stroke-width: 1.2"/>
    <path d="M 486.340727 233.258989 
L 482.157427 241.625589 
L 490.524028 241.625589 
L 486.340727 233.258989 
z
" clip-path="url(#pa9f3d80e88)" style="fill: none; stroke: #029e73; stroke-opacity: 0.999; stroke-width: 1.2"/>
    <path d="M 440.502418 297.2774 
L 436.319117 305.644 
L 444.685718 305.644 
L 440.502418 297.2774 
z
" clip-path="url(#pa9f3d80e88)" style="fill: none; stroke: #029e73; stroke-opacity: 0.999; stroke-width: 1.2"/>
    <path d="M 449.648823 251.43065 
L 445.465522 259.79725 
L 453.832123 259.79725 
L 449.648823 251.43065 
z
" clip-path="url(#pa9f3d80e88)" style="fill: none; stroke: #029e73; stroke-opacity: 0.999; stroke-width: 1.2"/>
    <path d="M 396.340513 273.159097 
L 392.157213 281.525697 
L 400.523813 281.525697 
L 396.340513 273.159097 
z
" clip-path="url(#pa9f3d80e88)" style="fill: none; stroke: #029e73; stroke-opacity: 0.999; stroke-width: 1.2"/>
    <path d="M 440.377742 297.462098 
L 436.194442 305.828698 
L 444.561042 305.828698 
L 440.377742 297.462098 
z
" clip-path="url(#pa9f3d80e88)" style="fill: none; stroke: #029e73; stroke-opacity: 0.999; stroke-width: 1.2"/>
    <path d="M 409.236322 265.078668 
L 405.053022 273.445268 
L 413.419622 273.445268 
L 409.236322 265.078668 
z
" clip-path="url(#pa9f3d80e88)" style="fill: none; stroke: #029e73; stroke-opacity: 0.999; stroke-width: 1.2"/>
    <path d="M 419.886158 261.479162 
L 415.702858 269.845762 
L 424.069458 269.845762 
L 419.886158 261.479162 
z
" clip-path="url(#pa9f3d80e88)" style="fill: none; stroke: #029e73; stroke-opacity: 0.999; stroke-width: 1.2"/>
    <path d="M 438.934947 250.1179 
L 434.751647 258.4845 
L 443.118247 258.4845 
L 438.934947 250.1179 
z
" clip-path="url(#pa9f3d80e88)" style="fill: none; stroke: #029e73; stroke-opacity: 0.999; stroke-width: 1.2"/>
    <path d="M 401.076844 271.27847 
L 396.893544 279.64507 
L 405.260144 279.64507 
L 401.076844 271.27847 
z
" clip-path="url(#pa9f3d80e88)" style="fill: none; stroke: #029e73; stroke-opacity: 0.999; stroke-width: 1.2"/>
    <path d="M 461.159008 240.474576 
L 456.975708 248.841176 
L 465.342308 248.841176 
L 461.159008 240.474576 
z
" clip-path="url(#pa9f3d80e88)" style="fill: none; stroke: #029e73; stroke-opacity: 0.999; stroke-width: 1.2"/>
    <path d="M 395.440908 273.612118 
L 391.257608 281.978718 
L 399.624208 281.978718 
L 395.440908 273.612118 
z
" clip-path="url(#pa9f3d80e88)" style="fill: none; stroke: #029e73; stroke-opacity: 0.999; stroke-width: 1.2"/>
    <path d="M 399.981565 271.350592 
L 395.798265 279.717193 
L 404.164866 279.717193 
L 399.981565 271.350592 
z
" clip-path="url(#pa9f3d80e88)" style="fill: none; stroke: #029e73; stroke-opacity: 0.999; stroke-width: 1.2"/>
   </g>
   <g id="patch_3">
    <path d="M 53.791875 450.72 
L 53.791875 7.2 
" style="fill: none; stroke: #262626; stroke-width: 1.25; stroke-linejoin: miter; stroke-linecap: square"/>
   </g>
   <g id="patch_4">
    <path d="M 611.791875 450.72 
L 611.791875 7.2 
" style="fill: none; stroke: #262626; stroke-width: 1.25; stroke-linejoin: miter; stroke-linecap: square"/>
   </g>
   <g id="patch_5">
    <path d="M 53.791875 450.72 
L 611.791875 450.72 
" style="fill: none; stroke: #262626; stroke-width: 1.25; stroke-linejoin: miter; stroke-linecap: square"/>
   </g>
   <g id="patch_6">
    <path d="M 53.791875 7.2 
L 611.791875 7.2 
" style="fill: none; stroke: #262626; stroke-width: 1.25; stroke-linejoin: miter; stroke-linecap: square"/>
   </g>
   <g id="legend_1">
    <g id="patch_7">
     <path d="M 218.191875 104.775 
L 599.791875 104.775 
L 599.791875 19.2 
L 218.191875 19.2 
z
" style="fill: #ffffff; opacity: 0.8; stroke: #000000; stroke-linejoin: miter"/>
    </g>
    <g id="line2d_17">
     <defs>
      <path id="maba9c80ece" d="M 0 4 
C 1.060812 4 2.078319 3.578535 2.828427 2.828427 
C 3.578535 2.078319 4 1.060812 4 0 
C 4 -1.060812 3.578535 -2.078319 2.828427 -2.828427 
C 2.078319 -3.578535 1.060812 -4 0 -4 
C -1.060812 -4 -2.078319 -3.578535 -2.828427 -2.828427 
C -3.578535 -2.078319 -4 -1.060812 -4 0 
C -4 1.060812 -3.578535 2.078319 -2.828427 2.828427 
C -2.078319 3.578535 -1.060812 4 0 4 
z
" style="stroke: #000000; stroke-opacity: 0.9; stroke-width: 0.3"/>
     </defs>
     <g>
      <use xlink:href="#maba9c80ece" x="246.991875" y="34.63125" style="fill: #0173b2; fill-opacity: 0.9; stroke: #000000; stroke-opacity: 0.9; stroke-width: 0.3"/>
     </g>
    </g>
    <g id="text_19">
     <!-- 源域：消极 -->
     <g style="fill: #262626" transform="translate(273.391875 43.03125) scale(0.24 -0.24)">
      <defs>
       <path id="SimSun-6e90" d="M 3575 3525 
L 3575 2800 
L 5225 2800 
L 5225 3525 
L 3575 3525 
z
M 3575 2650 
L 3575 1900 
L 5225 1900 
L 5225 2650 
L 3575 2650 
z
M 3375 1325 
L 3825 975 
Q 3550 850 3250 500 
Q 2925 150 2275 -325 
L 2225 -250 
Q 3125 625 3375 1325 
z
M 4800 1150 
L 4850 1225 
Q 5675 700 5812 525 
Q 5950 350 5950 200 
Q 5950 75 5875 -87 
Q 5800 -250 5750 -250 
Q 5675 -250 5550 50 
Q 5375 475 4800 1150 
z
M 3225 1475 
Q 3250 2125 3250 2700 
Q 3250 3275 3225 3875 
L 3575 3675 
L 3925 3675 
Q 4175 4250 4225 4550 
L 2700 4550 
Q 2700 3525 2687 2575 
Q 2675 1625 2325 875 
Q 1975 125 1275 -550 
L 1225 -475 
Q 1850 300 2100 1112 
Q 2350 1925 2350 3112 
Q 2350 4300 2325 4950 
L 2700 4700 
L 5300 4700 
L 5650 5050 
L 6125 4550 
L 4350 4550 
L 4750 4325 
Q 4550 4250 4437 4137 
Q 4325 4025 4075 3675 
L 5200 3675 
L 5375 3925 
L 5750 3600 
L 5550 3425 
Q 5550 1875 5575 1675 
L 5225 1500 
L 5225 1750 
L 4575 1750 
L 4575 100 
Q 4600 -400 4050 -550 
Q 4025 -200 3450 -75 
L 3450 25 
Q 3775 0 4000 -12 
Q 4225 -25 4225 175 
L 4225 1750 
L 3575 1750 
L 3575 1625 
L 3225 1475 
z
M 2150 4250 
Q 1375 1525 1312 1200 
Q 1250 875 1237 425 
Q 1225 -25 1250 -200 
Q 1250 -300 1150 -300 
Q 1075 -300 912 -237 
Q 750 -175 750 25 
Q 750 200 800 375 
Q 875 625 875 775 
Q 875 925 762 1025 
Q 650 1125 275 1225 
L 275 1325 
Q 725 1275 837 1287 
Q 950 1300 1087 1512 
Q 1225 1725 2050 4275 
L 2150 4250 
z
M 275 3575 
Q 1150 3175 1150 2925 
Q 1150 2675 1050 2562 
Q 950 2450 900 2450 
Q 825 2450 750 2700 
Q 625 3025 225 3500 
L 275 3575 
z
M 825 5025 
Q 1550 4725 1625 4512 
Q 1700 4300 1587 4137 
Q 1475 3975 1425 3975 
Q 1325 3975 1275 4175 
Q 1150 4500 775 4950 
L 825 5025 
z
" transform="scale(0.015625)"/>
       <path id="SimSun-57df" d="M 2500 1375 
Q 2525 1825 2525 2350 
Q 2525 2875 2500 3275 
L 2825 3075 
L 3425 3075 
L 3600 3300 
L 3950 3000 
L 3750 2850 
L 3750 2075 
Q 3750 1925 3775 1600 
L 3450 1450 
L 3450 1700 
L 2825 1700 
L 2825 1500 
L 2500 1375 
z
M 2825 2925 
L 2825 1850 
L 3450 1850 
L 3450 2925 
L 2825 2925 
z
M 1850 625 
Q 2275 625 3975 1075 
L 4000 975 
Q 2325 425 2100 175 
L 1850 625 
z
M 4125 4625 
Q 4125 4900 4100 5250 
L 4625 4950 
L 4450 4775 
L 4450 3925 
L 5325 3925 
L 5650 4250 
L 6125 3775 
L 4450 3775 
Q 4450 2575 4650 1525 
Q 4825 1850 5012 2400 
Q 5200 2950 5250 3275 
L 5725 2875 
Q 5550 2800 5325 2200 
Q 5075 1600 4825 1100 
Q 5125 525 5675 125 
Q 5800 525 5975 1200 
L 6075 1175 
Q 6000 600 5987 212 
Q 5975 -175 6050 -425 
Q 6075 -525 6000 -525 
Q 5900 -525 5512 -300 
Q 5125 -75 4575 800 
Q 3750 -175 2700 -625 
L 2650 -550 
Q 3825 200 4400 1125 
Q 4125 2200 4125 3775 
L 2875 3775 
Q 2550 3775 2275 3700 
L 2050 3925 
L 4125 3925 
L 4125 4625 
z
M 4800 5050 
L 4850 5125 
Q 5375 4925 5525 4800 
Q 5675 4675 5675 4550 
Q 5675 4450 5612 4325 
Q 5550 4200 5525 4200 
Q 5450 4200 5375 4375 
Q 5225 4650 4800 5050 
z
M 275 3350 
L 1200 3350 
L 1200 4275 
Q 1200 4575 1175 5125 
L 1750 4850 
L 1550 4675 
L 1550 3350 
L 1725 3350 
L 2000 3625 
L 2425 3200 
L 1550 3200 
L 1550 1250 
L 2350 1450 
L 2375 1350 
Q 675 725 550 500 
L 275 975 
Q 700 1050 1200 1175 
L 1200 3200 
L 1100 3200 
Q 775 3200 500 3125 
L 275 3350 
z
" transform="scale(0.015625)"/>
       <path id="SimSun-ff1a" d="M 1550 675 
Q 1700 575 1687 337 
Q 1675 100 1500 0 
Q 1325 -100 1250 -100 
Q 1175 -100 1000 0 
Q 825 100 812 350 
Q 800 600 962 687 
Q 1125 775 1250 775 
Q 1400 775 1550 675 
z
M 1550 2187 
Q 1725 2100 1725 1837 
Q 1725 1575 1525 1487 
Q 1325 1400 1250 1400 
Q 1125 1400 962 1512 
Q 800 1625 812 1862 
Q 825 2100 1000 2187 
Q 1175 2275 1275 2275 
Q 1375 2275 1550 2187 
z
" transform="scale(0.015625)"/>
       <path id="SimSun-6d88" d="M 3900 3350 
Q 3900 4900 3875 5225 
L 4450 4950 
L 4250 4800 
L 4250 3350 
L 5050 3350 
L 5250 3600 
L 5650 3275 
L 5450 3100 
L 5450 125 
Q 5450 -400 4900 -600 
Q 4850 -200 4100 -75 
L 4100 25 
Q 4625 0 4875 -25 
Q 5100 -25 5100 250 
L 5100 1250 
L 3050 1250 
L 3050 -400 
L 2675 -575 
Q 2700 125 2700 1650 
Q 2700 3175 2675 3575 
L 3050 3350 
L 3900 3350 
z
M 2525 4850 
Q 3200 4500 3312 4337 
Q 3425 4175 3425 4075 
Q 3425 3950 3337 3800 
Q 3250 3650 3200 3650 
Q 3125 3650 3050 3875 
Q 2925 4225 2475 4800 
L 2525 4850 
z
M 5325 4950 
L 5775 4575 
Q 5600 4550 5300 4225 
Q 4975 3900 4575 3550 
L 4500 3600 
Q 5175 4525 5325 4950 
z
M 3050 2250 
L 3050 1400 
L 5100 1400 
L 5100 2250 
L 3050 2250 
z
M 3050 3200 
L 3050 2400 
L 5100 2400 
L 5100 3200 
L 3050 3200 
z
M 2525 4000 
Q 1675 1400 1600 1075 
Q 1525 750 1525 300 
Q 1525 -150 1550 -375 
Q 1550 -500 1450 -500 
Q 1400 -500 1237 -412 
Q 1075 -325 1075 -125 
Q 1075 50 1125 225 
Q 1175 425 1175 600 
Q 1175 800 1050 900 
Q 925 1000 450 1100 
L 450 1200 
Q 1000 1150 1100 1162 
Q 1200 1175 1350 1387 
Q 1500 1600 2425 4025 
L 2525 4000 
z
M 425 3550 
Q 1275 3175 1287 2925 
Q 1300 2675 1225 2562 
Q 1150 2450 1100 2450 
Q 1000 2450 925 2675 
Q 775 3000 375 3475 
L 425 3550 
z
M 1025 4950 
Q 1725 4625 1787 4475 
Q 1850 4325 1850 4250 
Q 1850 4125 1750 3987 
Q 1650 3850 1625 3850 
Q 1550 3850 1475 4075 
Q 1350 4425 975 4875 
L 1025 4950 
z
" transform="scale(0.015625)"/>
       <path id="SimSun-6781" d="M 5325 4475 
L 4600 2950 
L 5275 2950 
L 5525 3200 
L 5925 2825 
L 5675 2700 
Q 5300 1600 4700 825 
Q 5375 125 6125 -25 
L 6125 -125 
Q 5700 -175 5625 -425 
Q 5025 -100 4475 575 
Q 3625 -200 2675 -550 
L 2625 -475 
Q 3575 25 4275 825 
Q 3625 1750 3475 2850 
Q 3425 600 2000 -525 
L 1950 -450 
Q 2525 200 2775 837 
Q 3025 1475 3100 2125 
Q 3175 2775 3175 4575 
L 2875 4575 
L 2650 4525 
L 2450 4725 
L 4925 4725 
L 5150 4975 
L 5550 4650 
L 5325 4475 
z
M 3525 4575 
Q 3500 3575 3500 3075 
Q 3775 1975 4475 1075 
Q 4925 1650 5325 2800 
L 4550 2800 
L 4350 2575 
L 4000 2925 
Q 4250 3000 4462 3450 
Q 4675 3900 4950 4575 
L 3525 4575 
z
M 1725 2825 
Q 1725 0 1750 -450 
L 1350 -625 
Q 1375 575 1375 2525 
Q 1025 1550 425 800 
L 350 850 
Q 1025 2075 1350 3600 
L 750 3600 
L 525 3550 
L 325 3750 
L 1375 3750 
Q 1375 4650 1350 5250 
L 1925 4975 
L 1725 4800 
L 1725 3750 
L 2025 3750 
L 2325 4050 
L 2775 3600 
L 1725 3600 
L 1725 2950 
Q 2375 2650 2500 2487 
Q 2625 2325 2625 2200 
Q 2625 2075 2550 1937 
Q 2475 1800 2425 1800 
Q 2350 1800 2250 2050 
Q 2100 2425 1725 2825 
z
" transform="scale(0.015625)"/>
      </defs>
      <use xlink:href="#SimSun-6e90"/>
      <use xlink:href="#SimSun-57df" x="100"/>
      <use xlink:href="#SimSun-ff1a" x="200"/>
      <use xlink:href="#SimSun-6d88" x="300"/>
      <use xlink:href="#SimSun-6781" x="400"/>
     </g>
    </g>
    <g id="line2d_18">
     <defs>
      <path id="m06b500e711" d="M 0 4 
C 1.060812 4 2.078319 3.578535 2.828427 2.828427 
C 3.578535 2.078319 4 1.060812 4 0 
C 4 -1.060812 3.578535 -2.078319 2.828427 -2.828427 
C 2.078319 -3.578535 1.060812 -4 0 -4 
C -1.060812 -4 -2.078319 -3.578535 -2.828427 -2.828427 
C -3.578535 -2.078319 -4 -1.060812 -4 0 
C -4 1.060812 -3.578535 2.078319 -2.828427 2.828427 
C -2.078319 3.578535 -1.060812 4 0 4 
z
" style="stroke: #000000; stroke-opacity: 0.9; stroke-width: 0.3"/>
     </defs>
     <g>
      <use xlink:href="#m06b500e711" x="246.991875" y="61.4625" style="fill: #de8f05; fill-opacity: 0.9; stroke: #000000; stroke-opacity: 0.9; stroke-width: 0.3"/>
     </g>
    </g>
    <g id="text_20">
     <!-- 源域：中性 -->
     <g style="fill: #262626" transform="translate(273.391875 69.8625) scale(0.24 -0.24)">
      <defs>
       <path id="SimSun-4e2d" d="M 3325 3625 
L 3325 1975 
L 5125 1975 
L 5125 3625 
L 3325 3625 
z
M 2950 3775 
Q 2950 4750 2925 5250 
L 3525 4975 
L 3325 4775 
L 3325 3775 
L 5075 3775 
L 5275 4075 
L 5700 3750 
L 5475 3550 
L 5475 2100 
Q 5475 1825 5500 1525 
L 5125 1375 
L 5125 1825 
L 3325 1825 
Q 3325 -75 3350 -400 
L 2925 -625 
Q 2950 -50 2950 1825 
L 1225 1825 
L 1225 1525 
L 850 1325 
Q 875 1775 875 2625 
Q 875 3475 850 4000 
L 1225 3775 
L 2950 3775 
z
M 1225 3625 
L 1225 1975 
L 2950 1975 
L 2950 3625 
L 1225 3625 
z
" transform="scale(0.015625)"/>
       <path id="SimSun-6027" d="M 3975 3450 
Q 3975 4800 3950 5200 
L 4575 4925 
L 4325 4750 
L 4325 3450 
L 5050 3450 
L 5400 3800 
L 5900 3300 
L 4325 3300 
L 4325 1925 
L 4975 1925 
L 5300 2250 
L 5775 1775 
L 4325 1775 
L 4325 25 
L 5300 25 
L 5650 375 
L 6150 -125 
L 2875 -125 
Q 2550 -125 2275 -200 
L 2050 25 
L 3975 25 
L 3975 1775 
L 3450 1775 
Q 3125 1775 2850 1700 
L 2625 1925 
L 3975 1925 
L 3975 3300 
L 2950 3300 
Q 2625 2500 2225 2000 
L 2150 2050 
Q 2450 2650 2650 3387 
Q 2850 4125 2900 4600 
L 3475 4325 
L 3250 4175 
L 3000 3450 
L 3975 3450 
z
M 875 3625 
Q 950 2875 900 2687 
Q 850 2500 737 2437 
Q 625 2375 550 2375 
Q 500 2375 412 2412 
Q 325 2450 325 2475 
Q 325 2575 500 2775 
Q 725 3050 775 3625 
L 875 3625 
z
M 1575 3950 
Q 1975 3800 2150 3675 
Q 2325 3550 2300 3350 
Q 2275 3150 2175 3075 
Q 2075 3000 1975 3275 
Q 1850 3550 1575 3825 
L 1575 500 
Q 1575 75 1600 -425 
L 1200 -600 
Q 1225 125 1225 700 
L 1225 4225 
Q 1225 4650 1200 5250 
L 1800 4975 
L 1575 4800 
L 1575 3950 
z
" transform="scale(0.015625)"/>
      </defs>
      <use xlink:href="#SimSun-6e90"/>
      <use xlink:href="#SimSun-57df" x="100"/>
      <use xlink:href="#SimSun-ff1a" x="200"/>
      <use xlink:href="#SimSun-4e2d" x="300"/>
      <use xlink:href="#SimSun-6027" x="400"/>
     </g>
    </g>
    <g id="line2d_19">
     <defs>
      <path id="madeebbae8f" d="M 0 4 
C 1.060812 4 2.078319 3.578535 2.828427 2.828427 
C 3.578535 2.078319 4 1.060812 4 0 
C 4 -1.060812 3.578535 -2.078319 2.828427 -2.828427 
C 2.078319 -3.578535 1.060812 -4 0 -4 
C -1.060812 -4 -2.078319 -3.578535 -2.828427 -2.828427 
C -3.578535 -2.078319 -4 -1.060812 -4 0 
C -4 1.060812 -3.578535 2.078319 -2.828427 2.828427 
C -2.078319 3.578535 -1.060812 4 0 4 
z
" style="stroke: #000000; stroke-opacity: 0.9; stroke-width: 0.3"/>
     </defs>
     <g>
      <use xlink:href="#madeebbae8f" x="246.991875" y="88.29375" style="fill: #029e73; fill-opacity: 0.9; stroke: #000000; stroke-opacity: 0.9; stroke-width: 0.3"/>
     </g>
    </g>
    <g id="text_21">
     <!-- 源域：积极 -->
     <g style="fill: #262626" transform="translate(273.391875 96.69375) scale(0.24 -0.24)">
      <defs>
       <path id="SimSun-79ef" d="M 3125 1750 
Q 3150 2475 3150 3225 
Q 3150 3975 3125 4725 
L 3500 4525 
L 5225 4525 
L 5475 4775 
L 5850 4400 
L 5600 4250 
Q 5600 2300 5625 1975 
L 5275 1850 
L 5275 2175 
L 3475 2175 
L 3475 1875 
L 3125 1750 
z
M 3475 4375 
L 3475 2325 
L 5275 2325 
L 5275 4375 
L 3475 4375 
z
M 3825 1700 
L 4300 1300 
L 4075 1225 
Q 3125 -75 2200 -550 
L 2175 -450 
Q 2800 50 3225 625 
Q 3650 1200 3825 1700 
z
M 4700 1600 
Q 5725 650 5850 362 
Q 5975 75 5975 -75 
Q 5975 -225 5900 -337 
Q 5825 -450 5775 -450 
Q 5725 -450 5650 -250 
Q 5525 75 5350 450 
Q 5175 825 4650 1525 
L 4700 1600 
z
M 1875 2575 
Q 1875 225 1900 -400 
L 1525 -625 
Q 1550 125 1550 2350 
Q 1025 1275 300 625 
L 250 700 
Q 625 1200 962 1862 
Q 1300 2525 1500 3200 
L 1125 3200 
Q 800 3200 525 3125 
L 300 3350 
L 1550 3350 
L 1550 4475 
Q 900 4375 525 4350 
L 525 4450 
Q 1075 4550 1525 4712 
Q 1975 4875 2375 5150 
L 2725 4700 
Q 2425 4700 1875 4550 
L 1875 3350 
L 2250 3350 
L 2550 3650 
L 2975 3200 
L 1875 3200 
L 1875 2675 
Q 2475 2400 2612 2212 
Q 2750 2025 2750 1925 
Q 2750 1800 2662 1675 
Q 2575 1550 2550 1550 
Q 2450 1550 2375 1800 
Q 2250 2175 1875 2575 
z
" transform="scale(0.015625)"/>
      </defs>
      <use xlink:href="#SimSun-6e90"/>
      <use xlink:href="#SimSun-57df" x="100"/>
      <use xlink:href="#SimSun-ff1a" x="200"/>
      <use xlink:href="#SimSun-79ef" x="300"/>
      <use xlink:href="#SimSun-6781" x="400"/>
     </g>
    </g>
    <g id="line2d_20">
     <defs>
      <path id="m73944b3abf" d="M 0 -5 
L -5 5 
L 5 5 
z
" style="stroke: #0173b2; stroke-opacity: 0.999; stroke-width: 1.2; stroke-linejoin: miter"/>
     </defs>
     <g>
      <use xlink:href="#m73944b3abf" x="424.591875" y="34.63125" style="fill-opacity: 0; stroke: #0173b2; stroke-opacity: 0.999; stroke-width: 1.2; stroke-linejoin: miter"/>
     </g>
    </g>
    <g id="text_22">
     <!-- 目标域：消极 -->
     <g style="fill: #262626" transform="translate(450.991875 43.03125) scale(0.24 -0.24)">
      <defs>
       <path id="SimSun-76ee" d="M 1875 1700 
L 1875 325 
L 4550 325 
L 4550 1700 
L 1875 1700 
z
M 1475 -550 
Q 1500 350 1500 2087 
Q 1500 3825 1475 4950 
L 1875 4675 
L 4500 4675 
L 4700 4950 
L 5175 4600 
L 4925 4425 
L 4925 725 
Q 4925 -25 4950 -325 
L 4550 -525 
L 4550 175 
L 1875 175 
L 1875 -325 
L 1475 -550 
z
M 1875 4525 
L 1875 3250 
L 4550 3250 
L 4550 4525 
L 1875 4525 
z
M 1875 3100 
L 1875 1850 
L 4550 1850 
L 4550 3100 
L 1875 3100 
z
" transform="scale(0.015625)"/>
       <path id="SimSun-6807" d="M 4775 2225 
Q 5725 1275 5825 1050 
Q 5925 825 5925 700 
Q 5925 525 5825 375 
Q 5725 225 5700 225 
Q 5575 225 5475 650 
Q 5300 1225 4700 2175 
L 4775 2225 
z
M 2750 4600 
L 4975 4600 
L 5275 4900 
L 5725 4450 
L 3175 4450 
L 2950 4400 
L 2750 4600 
z
M 3100 75 
Q 3775 -50 3900 -25 
Q 4025 0 4025 175 
L 4025 2950 
L 2800 2950 
L 2575 2900 
L 2375 3100 
L 5350 3100 
L 5675 3425 
L 6150 2950 
L 4400 2950 
L 4400 -25 
Q 4375 -425 3850 -600 
Q 3850 -300 3100 -50 
L 3100 75 
z
M 3125 2275 
L 3675 1950 
L 3425 1825 
Q 2800 700 2100 25 
L 2025 100 
Q 2725 1025 3125 2275 
z
M 1675 2725 
Q 1675 25 1700 -475 
L 1300 -625 
Q 1325 450 1325 2325 
Q 950 1450 350 700 
L 275 800 
Q 975 1925 1325 3475 
L 700 3475 
L 475 3425 
L 275 3625 
L 1325 3625 
Q 1325 4575 1300 5275 
L 1900 4975 
L 1675 4800 
L 1675 3625 
L 2000 3625 
L 2275 3900 
L 2700 3475 
L 1675 3475 
L 1675 2850 
Q 2150 2600 2312 2425 
Q 2475 2250 2475 2125 
Q 2475 2050 2400 1912 
Q 2325 1775 2275 1775 
Q 2200 1775 2100 2075 
Q 1925 2475 1675 2725 
z
" transform="scale(0.015625)"/>
      </defs>
      <use xlink:href="#SimSun-76ee"/>
      <use xlink:href="#SimSun-6807" x="100"/>
      <use xlink:href="#SimSun-57df" x="200"/>
      <use xlink:href="#SimSun-ff1a" x="300"/>
      <use xlink:href="#SimSun-6d88" x="400"/>
      <use xlink:href="#SimSun-6781" x="500"/>
     </g>
    </g>
    <g id="line2d_21">
     <defs>
      <path id="mbc9b2abe72" d="M 0 -5 
L -5 5 
L 5 5 
z
" style="stroke: #de8f05; stroke-opacity: 0.999; stroke-width: 1.2; stroke-linejoin: miter"/>
     </defs>
     <g>
      <use xlink:href="#mbc9b2abe72" x="424.591875" y="61.55625" style="fill-opacity: 0; stroke: #de8f05; stroke-opacity: 0.999; stroke-width: 1.2; stroke-linejoin: miter"/>
     </g>
    </g>
    <g id="text_23">
     <!-- 目标域：中性 -->
     <g style="fill: #262626" transform="translate(450.991875 69.95625) scale(0.24 -0.24)">
      <use xlink:href="#SimSun-76ee"/>
      <use xlink:href="#SimSun-6807" x="100"/>
      <use xlink:href="#SimSun-57df" x="200"/>
      <use xlink:href="#SimSun-ff1a" x="300"/>
      <use xlink:href="#SimSun-4e2d" x="400"/>
      <use xlink:href="#SimSun-6027" x="500"/>
     </g>
    </g>
    <g id="line2d_22">
     <defs>
      <path id="m18081bf3c7" d="M 0 -5 
L -5 5 
L 5 5 
z
" style="stroke: #029e73; stroke-opacity: 0.999; stroke-width: 1.2; stroke-linejoin: miter"/>
     </defs>
     <g>
      <use xlink:href="#m18081bf3c7" x="424.591875" y="88.48125" style="fill-opacity: 0; stroke: #029e73; stroke-opacity: 0.999; stroke-width: 1.2; stroke-linejoin: miter"/>
     </g>
    </g>
    <g id="text_24">
     <!-- 目标域：积极 -->
     <g style="fill: #262626" transform="translate(450.991875 96.88125) scale(0.24 -0.24)">
      <use xlink:href="#SimSun-76ee"/>
      <use xlink:href="#SimSun-6807" x="100"/>
      <use xlink:href="#SimSun-57df" x="200"/>
      <use xlink:href="#SimSun-ff1a" x="300"/>
      <use xlink:href="#SimSun-79ef" x="400"/>
      <use xlink:href="#SimSun-6781" x="500"/>
     </g>
    </g>
   </g>
  </g>
 </g>
 <defs>
  <clipPath id="pa9f3d80e88">
   <rect x="53.791875" y="7.2" width="558" height="443.52"/>
  </clipPath>
 </defs>
</svg>
