<?xml version="1.0" encoding="utf-8" standalone="no"?>
<!DOCTYPE svg PUBLIC "-//W3C//DTD SVG 1.1//EN"
  "http://www.w3.org/Graphics/SVG/1.1/DTD/svg11.dtd">
<svg xmlns:xlink="http://www.w3.org/1999/xlink" width="618.991875pt" height="498.144375pt" viewBox="0 0 618.991875 498.144375" xmlns="http://www.w3.org/2000/svg" version="1.1">
 <metadata>
  <rdf:RDF xmlns:dc="http://purl.org/dc/elements/1.1/" xmlns:cc="http://creativecommons.org/ns#" xmlns:rdf="http://www.w3.org/1999/02/22-rdf-syntax-ns#">
   <cc:Work>
    <dc:type rdf:resource="http://purl.org/dc/dcmitype/StillImage"/>
    <dc:date>2025-12-02T15:01:58.770189</dc:date>
    <dc:format>image/svg+xml</dc:format>
    <dc:creator>
     <cc:Agent>
      <dc:title>Matplotlib v3.9.4, https://matplotlib.org/</dc:title>
     </cc:Agent>
    </dc:creator>
   </cc:Work>
  </rdf:RDF>
 </metadata>
 <defs>
  <style type="text/css">*{stroke-linejoin: round; stroke-linecap: butt}</style>
 </defs>
 <g id="figure_1">
  <g id="patch_1">
   <path d="M 0 498.144375 
L 618.991875 498.144375 
L 618.991875 0 
L 0 0 
z
" style="fill: #ffffff"/>
  </g>
  <g id="axes_1">
   <g id="patch_2">
    <path d="M 53.791875 450.72 
L 611.791875 450.72 
L 611.791875 7.2 
L 53.791875 7.2 
z
" style="fill: #ffffff"/>
   </g>
   <g id="matplotlib.axis_1">
    <g id="xtick_1">
     <g id="line2d_1">
      <path d="M 120.738782 450.72 
L 120.738782 7.2 
" clip-path="url(#p9bfc1eafd2)" style="fill: none; stroke-dasharray: 0.5,0.825; stroke-dashoffset: 0; stroke: #cccccc; stroke-opacity: 0.3; stroke-width: 0.5"/>
     </g>
     <g id="text_1">
      <!-- -10 -->
      <g style="fill: #262626" transform="translate(112.067845 462.809375) scale(0.12 -0.12)">
       <defs>
        <path id="ArialMT-2d" d="M 203 1375 
L 203 1941 
L 1931 1941 
L 1931 1375 
L 203 1375 
z
" transform="scale(0.015625)"/>
        <path id="ArialMT-31" d="M 2384 0 
L 1822 0 
L 1822 3584 
Q 1619 3391 1289 3197 
Q 959 3003 697 2906 
L 697 3450 
Q 1169 3672 1522 3987 
Q 1875 4303 2022 4600 
L 2384 4600 
L 2384 0 
z
" transform="scale(0.015625)"/>
        <path id="ArialMT-30" d="M 266 2259 
Q 266 3072 433 3567 
Q 600 4063 929 4331 
Q 1259 4600 1759 4600 
Q 2128 4600 2406 4451 
Q 2684 4303 2865 4023 
Q 3047 3744 3150 3342 
Q 3253 2941 3253 2259 
Q 3253 1453 3087 958 
Q 2922 463 2592 192 
Q 2263 -78 1759 -78 
Q 1097 -78 719 397 
Q 266 969 266 2259 
z
M 844 2259 
Q 844 1131 1108 757 
Q 1372 384 1759 384 
Q 2147 384 2411 759 
Q 2675 1134 2675 2259 
Q 2675 3391 2411 3762 
Q 2147 4134 1753 4134 
Q 1366 4134 1134 3806 
Q 844 3388 844 2259 
z
" transform="scale(0.015625)"/>
       </defs>
       <use xlink:href="#ArialMT-2d"/>
       <use xlink:href="#ArialMT-31" x="33.300781"/>
       <use xlink:href="#ArialMT-30" x="88.916016"/>
      </g>
     </g>
    </g>
    <g id="xtick_2">
     <g id="line2d_2">
      <path d="M 199.665351 450.72 
L 199.665351 7.2 
" clip-path="url(#p9bfc1eafd2)" style="fill: none; stroke-dasharray: 0.5,0.825; stroke-dashoffset: 0; stroke: #cccccc; stroke-opacity: 0.3; stroke-width: 0.5"/>
     </g>
     <g id="text_2">
      <!-- -5 -->
      <g style="fill: #262626" transform="translate(194.330976 462.809375) scale(0.12 -0.12)">
       <defs>
        <path id="ArialMT-35" d="M 266 1200 
L 856 1250 
Q 922 819 1161 601 
Q 1400 384 1738 384 
Q 2144 384 2425 690 
Q 2706 997 2706 1503 
Q 2706 1984 2436 2262 
Q 2166 2541 1728 2541 
Q 1456 2541 1237 2417 
Q 1019 2294 894 2097 
L 366 2166 
L 809 4519 
L 3088 4519 
L 3088 3981 
L 1259 3981 
L 1013 2750 
Q 1425 3038 1878 3038 
Q 2478 3038 2890 2622 
Q 3303 2206 3303 1553 
Q 3303 931 2941 478 
Q 2500 -78 1738 -78 
Q 1113 -78 717 272 
Q 322 622 266 1200 
z
" transform="scale(0.015625)"/>
       </defs>
       <use xlink:href="#ArialMT-2d"/>
       <use xlink:href="#ArialMT-35" x="33.300781"/>
      </g>
     </g>
    </g>
    <g id="xtick_3">
     <g id="line2d_3">
      <path d="M 278.591919 450.72 
L 278.591919 7.2 
" clip-path="url(#p9bfc1eafd2)" style="fill: none; stroke-dasharray: 0.5,0.825; stroke-dashoffset: 0; stroke: #cccccc; stroke-opacity: 0.3; stroke-width: 0.5"/>
     </g>
     <g id="text_3">
      <!-- 0 -->
      <g style="fill: #262626" transform="translate(275.255357 462.809375) scale(0.12 -0.12)">
       <use xlink:href="#ArialMT-30"/>
      </g>
     </g>
    </g>
    <g id="xtick_4">
     <g id="line2d_4">
      <path d="M 357.518488 450.72 
L 357.518488 7.2 
" clip-path="url(#p9bfc1eafd2)" style="fill: none; stroke-dasharray: 0.5,0.825; stroke-dashoffset: 0; stroke: #cccccc; stroke-opacity: 0.3; stroke-width: 0.5"/>
     </g>
     <g id="text_4">
      <!-- 5 -->
      <g style="fill: #262626" transform="translate(354.181926 462.809375) scale(0.12 -0.12)">
       <use xlink:href="#ArialMT-35"/>
      </g>
     </g>
    </g>
    <g id="xtick_5">
     <g id="line2d_5">
      <path d="M 436.445057 450.72 
L 436.445057 7.2 
" clip-path="url(#p9bfc1eafd2)" style="fill: none; stroke-dasharray: 0.5,0.825; stroke-dashoffset: 0; stroke: #cccccc; stroke-opacity: 0.3; stroke-width: 0.5"/>
     </g>
     <g id="text_5">
      <!-- 10 -->
      <g style="fill: #262626" transform="translate(429.771932 462.809375) scale(0.12 -0.12)">
       <use xlink:href="#ArialMT-31"/>
       <use xlink:href="#ArialMT-30" x="55.615234"/>
      </g>
     </g>
    </g>
    <g id="xtick_6">
     <g id="line2d_6">
      <path d="M 515.371625 450.72 
L 515.371625 7.2 
" clip-path="url(#p9bfc1eafd2)" style="fill: none; stroke-dasharray: 0.5,0.825; stroke-dashoffset: 0; stroke: #cccccc; stroke-opacity: 0.3; stroke-width: 0.5"/>
     </g>
     <g id="text_6">
      <!-- 15 -->
      <g style="fill: #262626" transform="translate(508.6985 462.809375) scale(0.12 -0.12)">
       <use xlink:href="#ArialMT-31"/>
       <use xlink:href="#ArialMT-35" x="55.615234"/>
      </g>
     </g>
    </g>
    <g id="xtick_7">
     <g id="line2d_7">
      <path d="M 594.298194 450.72 
L 594.298194 7.2 
" clip-path="url(#p9bfc1eafd2)" style="fill: none; stroke-dasharray: 0.5,0.825; stroke-dashoffset: 0; stroke: #cccccc; stroke-opacity: 0.3; stroke-width: 0.5"/>
     </g>
     <g id="text_7">
      <!-- 20 -->
      <g style="fill: #262626" transform="translate(587.625069 462.809375) scale(0.12 -0.12)">
       <defs>
        <path id="ArialMT-32" d="M 3222 541 
L 3222 0 
L 194 0 
Q 188 203 259 391 
Q 375 700 629 1000 
Q 884 1300 1366 1694 
Q 2113 2306 2375 2664 
Q 2638 3022 2638 3341 
Q 2638 3675 2398 3904 
Q 2159 4134 1775 4134 
Q 1369 4134 1125 3890 
Q 881 3647 878 3216 
L 300 3275 
Q 359 3922 746 4261 
Q 1134 4600 1788 4600 
Q 2447 4600 2831 4234 
Q 3216 3869 3216 3328 
Q 3216 3053 3103 2787 
Q 2991 2522 2730 2228 
Q 2469 1934 1863 1422 
Q 1356 997 1212 845 
Q 1069 694 975 541 
L 3222 541 
z
" transform="scale(0.015625)"/>
       </defs>
       <use xlink:href="#ArialMT-32"/>
       <use xlink:href="#ArialMT-30" x="55.615234"/>
      </g>
     </g>
    </g>
    <g id="text_8">
     <!-- t-SNE 成分 1 -->
     <g style="fill: #262626" transform="translate(260.791875 487.850625) scale(0.24 -0.24)">
      <defs>
       <path id="SimSun-74" d="M 1500 900 
Q 1500 550 1625 425 
Q 1750 300 2000 300 
Q 2250 300 2400 462 
Q 2550 625 2600 925 
L 2725 875 
Q 2675 525 2462 300 
Q 2250 75 1900 75 
Q 1525 75 1337 300 
Q 1150 525 1150 1000 
L 1150 2750 
L 400 2750 
L 400 2900 
L 600 2900 
Q 900 2900 1087 3087 
Q 1275 3275 1325 3675 
L 1350 3875 
L 1500 3875 
L 1500 2900 
L 2500 2900 
L 2500 2750 
L 1500 2750 
L 1500 900 
z
" transform="scale(0.015625)"/>
       <path id="SimSun-2d" d="M 200 2225 
L 200 2450 
L 2975 2450 
L 2975 2225 
L 200 2225 
z
" transform="scale(0.015625)"/>
       <path id="SimSun-53" d="M 1500 2150 
Q 825 2450 575 2675 
Q 325 2900 325 3375 
Q 325 3750 637 4087 
Q 950 4425 1525 4425 
Q 1775 4425 2000 4350 
Q 2225 4250 2325 4250 
Q 2400 4250 2462 4287 
Q 2525 4325 2575 4425 
L 2675 3400 
L 2550 3350 
Q 2325 3875 2087 4062 
Q 1850 4250 1475 4250 
Q 1000 4250 825 3987 
Q 650 3725 650 3425 
Q 650 3150 812 2987 
Q 975 2825 1700 2500 
Q 2300 2250 2562 1937 
Q 2825 1625 2825 1200 
Q 2825 750 2512 400 
Q 2200 50 1600 50 
Q 1350 50 1150 150 
Q 925 225 800 225 
Q 725 225 650 175 
Q 575 125 475 50 
L 275 1275 
L 425 1325 
Q 600 700 912 462 
Q 1225 225 1625 225 
Q 2050 225 2262 475 
Q 2475 725 2475 1200 
Q 2475 1450 2237 1687 
Q 2000 1925 1500 2150 
z
" transform="scale(0.015625)"/>
       <path id="SimSun-4e" d="M 2525 1100 
L 2575 1100 
L 2575 4025 
Q 2575 4125 2525 4175 
Q 2475 4225 2350 4225 
L 2150 4225 
L 2150 4375 
L 3150 4375 
L 3150 4225 
L 2950 4225 
Q 2850 4225 2787 4175 
Q 2725 4125 2725 4025 
L 2725 100 
L 2575 100 
L 675 3825 
L 625 3825 
L 625 450 
Q 625 350 687 300 
Q 750 250 850 250 
L 1050 250 
L 1050 100 
L 50 100 
L 50 250 
L 250 250 
Q 375 250 425 300 
Q 475 350 475 450 
L 475 4025 
Q 475 4125 425 4175 
Q 375 4225 250 4225 
L 100 4225 
L 100 4375 
L 825 4375 
L 2525 1100 
z
" transform="scale(0.015625)"/>
       <path id="SimSun-45" d="M 200 4225 
L 200 4375 
L 2650 4375 
L 2925 3525 
L 2800 3475 
Q 2600 3850 2375 4037 
Q 2150 4225 1875 4225 
L 1175 4225 
Q 1075 4225 1012 4175 
Q 950 4125 950 4025 
L 950 2475 
L 1675 2475 
Q 1925 2475 2037 2600 
Q 2150 2725 2150 2975 
L 2150 3125 
L 2300 3125 
L 2300 1650 
L 2150 1650 
L 2150 1750 
Q 2150 2025 2037 2175 
Q 1925 2325 1675 2325 
L 950 2325 
L 950 450 
Q 950 350 1012 300 
Q 1075 250 1175 250 
L 1825 250 
Q 2200 250 2462 462 
Q 2725 675 2875 1125 
L 3000 1075 
L 2725 100 
L 175 100 
L 175 250 
L 325 250 
Q 450 250 500 300 
Q 550 350 550 450 
L 550 4025 
Q 550 4125 500 4175 
Q 450 4225 325 4225 
L 200 4225 
z
" transform="scale(0.015625)"/>
       <path id="SimSun-20" d="M 0 0 
Q 0 0 0 0 
z
" transform="scale(0.015625)"/>
       <path id="SimSun-6210" d="M 4325 5075 
Q 4850 4775 5025 4612 
Q 5200 4450 5162 4287 
Q 5125 4125 5025 4062 
Q 4925 4000 4900 4000 
Q 4800 4000 4750 4200 
Q 4675 4475 4250 5000 
L 4325 5075 
z
M 5625 100 
L 5925 1175 
L 6025 1150 
Q 5925 375 5925 125 
Q 5925 -125 6050 -350 
Q 6100 -450 6000 -450 
Q 5825 -450 5350 -275 
Q 4875 -100 4250 675 
Q 3475 -125 2550 -525 
L 2525 -425 
Q 3525 225 4050 950 
Q 3550 1875 3400 3650 
L 1425 3650 
L 1400 2450 
L 2550 2450 
L 2775 2700 
L 3150 2350 
L 2925 2175 
Q 2850 675 2725 437 
Q 2600 200 2250 50 
Q 2175 400 1575 625 
L 1575 725 
Q 2050 650 2237 625 
Q 2425 600 2475 837 
Q 2525 1075 2575 2300 
L 1400 2300 
Q 1325 225 350 -600 
L 300 -525 
Q 950 400 987 1462 
Q 1025 2525 1025 3075 
Q 1025 3625 1000 4025 
L 1450 3800 
L 3375 3800 
Q 3300 4625 3250 5150 
L 3900 4900 
L 3725 4700 
Q 3725 4300 3775 3800 
L 5150 3800 
L 5500 4150 
L 6000 3650 
L 3775 3650 
Q 3925 2000 4300 1325 
Q 4500 1625 4700 2100 
Q 4900 2575 5100 3175 
L 5625 2775 
L 5400 2650 
Q 4975 1625 4525 975 
Q 5050 350 5625 100 
z
" transform="scale(0.015625)"/>
       <path id="SimSun-5206" d="M 2350 5050 
L 2850 4675 
L 2625 4550 
Q 2200 3750 1687 3125 
Q 1175 2500 375 2025 
L 325 2100 
Q 975 2625 1475 3337 
Q 1975 4050 2350 5050 
z
M 4100 4975 
L 3900 4850 
Q 4175 3850 4800 3300 
Q 5425 2750 6125 2625 
L 6125 2550 
Q 5750 2500 5600 2225 
Q 4775 2675 4287 3425 
Q 3800 4175 3625 5175 
L 4100 4975 
z
M 1375 2625 
L 4225 2625 
L 4475 2875 
L 4825 2525 
L 4625 2375 
Q 4575 400 4375 -12 
Q 4175 -425 3675 -600 
Q 3600 -200 2975 -25 
L 2975 75 
Q 3600 -25 3787 -12 
Q 3975 0 4075 275 
Q 4175 550 4275 2475 
L 2975 2475 
Q 2825 1400 2375 662 
Q 1925 -75 650 -625 
L 600 -525 
Q 1725 50 2112 837 
Q 2500 1625 2575 2475 
L 1800 2475 
L 1575 2425 
L 1375 2625 
z
" transform="scale(0.015625)"/>
       <path id="SimSun-31" d="M 1825 4450 
L 1825 650 
Q 1825 450 1950 350 
Q 2075 250 2300 250 
L 2550 250 
L 2550 100 
L 725 100 
L 725 250 
L 950 250 
Q 1200 250 1312 350 
Q 1425 450 1425 650 
L 1425 3675 
Q 1425 3775 1362 3837 
Q 1300 3900 1175 3900 
L 725 3900 
L 725 4050 
L 950 4050 
Q 1250 4050 1437 4150 
Q 1625 4250 1725 4450 
L 1825 4450 
z
" transform="scale(0.015625)"/>
      </defs>
      <use xlink:href="#SimSun-74"/>
      <use xlink:href="#SimSun-2d" x="50"/>
      <use xlink:href="#SimSun-53" x="100"/>
      <use xlink:href="#SimSun-4e" x="150"/>
      <use xlink:href="#SimSun-45" x="200"/>
      <use xlink:href="#SimSun-20" x="250"/>
      <use xlink:href="#SimSun-6210" x="300"/>
      <use xlink:href="#SimSun-5206" x="400"/>
      <use xlink:href="#SimSun-20" x="500"/>
      <use xlink:href="#SimSun-31" x="550"/>
     </g>
    </g>
   </g>
   <g id="matplotlib.axis_2">
    <g id="ytick_1">
     <g id="line2d_8">
      <path d="M 53.791875 423.458033 
L 611.791875 423.458033 
" clip-path="url(#p9bfc1eafd2)" style="fill: none; stroke-dasharray: 0.5,0.825; stroke-dashoffset: 0; stroke: #cccccc; stroke-opacity: 0.3; stroke-width: 0.5"/>
     </g>
     <g id="text_9">
      <!-- -10 -->
      <g style="fill: #262626" transform="translate(32.95 427.75272) scale(0.12 -0.12)">
       <use xlink:href="#ArialMT-2d"/>
       <use xlink:href="#ArialMT-31" x="33.300781"/>
       <use xlink:href="#ArialMT-30" x="88.916016"/>
      </g>
     </g>
    </g>
    <g id="ytick_2">
     <g id="line2d_9">
      <path d="M 53.791875 344.531464 
L 611.791875 344.531464 
" clip-path="url(#p9bfc1eafd2)" style="fill: none; stroke-dasharray: 0.5,0.825; stroke-dashoffset: 0; stroke: #cccccc; stroke-opacity: 0.3; stroke-width: 0.5"/>
     </g>
     <g id="text_10">
      <!-- -5 -->
      <g style="fill: #262626" transform="translate(39.623125 348.826152) scale(0.12 -0.12)">
       <use xlink:href="#ArialMT-2d"/>
       <use xlink:href="#ArialMT-35" x="33.300781"/>
      </g>
     </g>
    </g>
    <g id="ytick_3">
     <g id="line2d_10">
      <path d="M 53.791875 265.604896 
L 611.791875 265.604896 
" clip-path="url(#p9bfc1eafd2)" style="fill: none; stroke-dasharray: 0.5,0.825; stroke-dashoffset: 0; stroke: #cccccc; stroke-opacity: 0.3; stroke-width: 0.5"/>
     </g>
     <g id="text_11">
      <!-- 0 -->
      <g style="fill: #262626" transform="translate(43.61875 269.899583) scale(0.12 -0.12)">
       <use xlink:href="#ArialMT-30"/>
      </g>
     </g>
    </g>
    <g id="ytick_4">
     <g id="line2d_11">
      <path d="M 53.791875 186.678327 
L 611.791875 186.678327 
" clip-path="url(#p9bfc1eafd2)" style="fill: none; stroke-dasharray: 0.5,0.825; stroke-dashoffset: 0; stroke: #cccccc; stroke-opacity: 0.3; stroke-width: 0.5"/>
     </g>
     <g id="text_12">
      <!-- 5 -->
      <g style="fill: #262626" transform="translate(43.61875 190.973014) scale(0.12 -0.12)">
       <use xlink:href="#ArialMT-35"/>
      </g>
     </g>
    </g>
    <g id="ytick_5">
     <g id="line2d_12">
      <path d="M 53.791875 107.751758 
L 611.791875 107.751758 
" clip-path="url(#p9bfc1eafd2)" style="fill: none; stroke-dasharray: 0.5,0.825; stroke-dashoffset: 0; stroke: #cccccc; stroke-opacity: 0.3; stroke-width: 0.5"/>
     </g>
     <g id="text_13">
      <!-- 10 -->
      <g style="fill: #262626" transform="translate(36.945625 112.046446) scale(0.12 -0.12)">
       <use xlink:href="#ArialMT-31"/>
       <use xlink:href="#ArialMT-30" x="55.615234"/>
      </g>
     </g>
    </g>
    <g id="ytick_6">
     <g id="line2d_13">
      <path d="M 53.791875 28.82519 
L 611.791875 28.82519 
" clip-path="url(#p9bfc1eafd2)" style="fill: none; stroke-dasharray: 0.5,0.825; stroke-dashoffset: 0; stroke: #cccccc; stroke-opacity: 0.3; stroke-width: 0.5"/>
     </g>
     <g id="text_14">
      <!-- 15 -->
      <g style="fill: #262626" transform="translate(36.945625 33.119877) scale(0.12 -0.12)">
       <use xlink:href="#ArialMT-31"/>
       <use xlink:href="#ArialMT-35" x="55.615234"/>
      </g>
     </g>
    </g>
    <g id="text_15">
     <!-- t-SNE 成分 2 -->
     <g style="fill: #262626" transform="translate(25.85625 300.96) rotate(-90) scale(0.24 -0.24)">
      <defs>
       <path id="SimSun-32" d="M 2325 3325 
Q 2325 3775 2125 4012 
Q 1925 4250 1525 4250 
Q 1225 4250 1012 4087 
Q 800 3925 800 3675 
Q 800 3525 900 3425 
Q 975 3325 975 3225 
Q 975 3100 912 3037 
Q 850 2975 725 2975 
Q 575 2975 487 3062 
Q 400 3150 400 3350 
Q 400 3875 775 4150 
Q 1150 4425 1575 4425 
Q 2175 4425 2462 4125 
Q 2750 3825 2750 3375 
Q 2750 3075 2612 2775 
Q 2475 2475 2175 2200 
Q 1450 1500 1062 1062 
Q 675 625 600 475 
L 2075 475 
Q 2300 475 2450 650 
Q 2600 825 2650 1175 
L 2800 1175 
L 2650 100 
L 325 100 
L 325 425 
Q 450 650 737 1000 
Q 1025 1350 1500 1825 
Q 1925 2250 2125 2625 
Q 2325 3000 2325 3325 
z
" transform="scale(0.015625)"/>
      </defs>
      <use xlink:href="#SimSun-74"/>
      <use xlink:href="#SimSun-2d" x="50"/>
      <use xlink:href="#SimSun-53" x="100"/>
      <use xlink:href="#SimSun-4e" x="150"/>
      <use xlink:href="#SimSun-45" x="200"/>
      <use xlink:href="#SimSun-20" x="250"/>
      <use xlink:href="#SimSun-6210" x="300"/>
      <use xlink:href="#SimSun-5206" x="400"/>
      <use xlink:href="#SimSun-20" x="500"/>
      <use xlink:href="#SimSun-32" x="550"/>
     </g>
    </g>
   </g>
   <g id="PathCollection_1">
    <defs>
     <path id="mdb1624cb9d" d="M 0 3.872983 
C 1.027127 3.872983 2.012324 3.464901 2.738613 2.738613 
C 3.464901 2.012324 3.872983 1.027127 3.872983 0 
C 3.872983 -1.027127 3.464901 -2.012324 2.738613 -2.738613 
C 2.012324 -3.464901 1.027127 -3.872983 0 -3.872983 
C -1.027127 -3.872983 -2.012324 -3.464901 -2.738613 -2.738613 
C -3.464901 -2.012324 -3.872983 -1.027127 -3.872983 0 
C -3.872983 1.027127 -3.464901 2.012324 -2.738613 2.738613 
C -2.012324 3.464901 -1.027127 3.872983 0 3.872983 
z
" style="stroke: #000000; stroke-opacity: 0.9; stroke-width: 0.3"/>
    </defs>
    <g clip-path="url(#p9bfc1eafd2)">
     <use xlink:href="#mdb1624cb9d" x="129.687149" y="249.064284" style="fill: #0173b2; fill-opacity: 0.9; stroke: #000000; stroke-opacity: 0.9; stroke-width: 0.3"/>
     <use xlink:href="#mdb1624cb9d" x="174.95736" y="383.456054" style="fill: #0173b2; fill-opacity: 0.9; stroke: #000000; stroke-opacity: 0.9; stroke-width: 0.3"/>
     <use xlink:href="#mdb1624cb9d" x="170.8478" y="336.713302" style="fill: #0173b2; fill-opacity: 0.9; stroke: #000000; stroke-opacity: 0.9; stroke-width: 0.3"/>
     <use xlink:href="#mdb1624cb9d" x="203.926655" y="336.828037" style="fill: #0173b2; fill-opacity: 0.9; stroke: #000000; stroke-opacity: 0.9; stroke-width: 0.3"/>
     <use xlink:href="#mdb1624cb9d" x="97.422846" y="311.350904" style="fill: #0173b2; fill-opacity: 0.9; stroke: #000000; stroke-opacity: 0.9; stroke-width: 0.3"/>
     <use xlink:href="#mdb1624cb9d" x="195.955025" y="346.290914" style="fill: #0173b2; fill-opacity: 0.9; stroke: #000000; stroke-opacity: 0.9; stroke-width: 0.3"/>
     <use xlink:href="#mdb1624cb9d" x="152.615285" y="331.432463" style="fill: #0173b2; fill-opacity: 0.9; stroke: #000000; stroke-opacity: 0.9; stroke-width: 0.3"/>
     <use xlink:href="#mdb1624cb9d" x="182.764743" y="345.291664" style="fill: #0173b2; fill-opacity: 0.9; stroke: #000000; stroke-opacity: 0.9; stroke-width: 0.3"/>
     <use xlink:href="#mdb1624cb9d" x="121.176704" y="332.863139" style="fill: #0173b2; fill-opacity: 0.9; stroke: #000000; stroke-opacity: 0.9; stroke-width: 0.3"/>
     <use xlink:href="#mdb1624cb9d" x="126.684318" y="272.993596" style="fill: #0173b2; fill-opacity: 0.9; stroke: #000000; stroke-opacity: 0.9; stroke-width: 0.3"/>
     <use xlink:href="#mdb1624cb9d" x="197.255589" y="272.292221" style="fill: #0173b2; fill-opacity: 0.9; stroke: #000000; stroke-opacity: 0.9; stroke-width: 0.3"/>
     <use xlink:href="#mdb1624cb9d" x="107.898401" y="334.906275" style="fill: #0173b2; fill-opacity: 0.9; stroke: #000000; stroke-opacity: 0.9; stroke-width: 0.3"/>
     <use xlink:href="#mdb1624cb9d" x="191.234805" y="322.24104" style="fill: #0173b2; fill-opacity: 0.9; stroke: #000000; stroke-opacity: 0.9; stroke-width: 0.3"/>
     <use xlink:href="#mdb1624cb9d" x="188.999151" y="307.670727" style="fill: #0173b2; fill-opacity: 0.9; stroke: #000000; stroke-opacity: 0.9; stroke-width: 0.3"/>
     <use xlink:href="#mdb1624cb9d" x="100.774118" y="264.380213" style="fill: #0173b2; fill-opacity: 0.9; stroke: #000000; stroke-opacity: 0.9; stroke-width: 0.3"/>
     <use xlink:href="#mdb1624cb9d" x="179.683804" y="303.699646" style="fill: #0173b2; fill-opacity: 0.9; stroke: #000000; stroke-opacity: 0.9; stroke-width: 0.3"/>
     <use xlink:href="#mdb1624cb9d" x="125.560142" y="282.709172" style="fill: #0173b2; fill-opacity: 0.9; stroke: #000000; stroke-opacity: 0.9; stroke-width: 0.3"/>
     <use xlink:href="#mdb1624cb9d" x="180.369952" y="326.908251" style="fill: #0173b2; fill-opacity: 0.9; stroke: #000000; stroke-opacity: 0.9; stroke-width: 0.3"/>
     <use xlink:href="#mdb1624cb9d" x="190.417604" y="356.455166" style="fill: #0173b2; fill-opacity: 0.9; stroke: #000000; stroke-opacity: 0.9; stroke-width: 0.3"/>
     <use xlink:href="#mdb1624cb9d" x="104.804674" y="342.371795" style="fill: #0173b2; fill-opacity: 0.9; stroke: #000000; stroke-opacity: 0.9; stroke-width: 0.3"/>
     <use xlink:href="#mdb1624cb9d" x="133.365064" y="235.413815" style="fill: #0173b2; fill-opacity: 0.9; stroke: #000000; stroke-opacity: 0.9; stroke-width: 0.3"/>
     <use xlink:href="#mdb1624cb9d" x="197.096295" y="272.245073" style="fill: #0173b2; fill-opacity: 0.9; stroke: #000000; stroke-opacity: 0.9; stroke-width: 0.3"/>
     <use xlink:href="#mdb1624cb9d" x="101.470503" y="264.833212" style="fill: #0173b2; fill-opacity: 0.9; stroke: #000000; stroke-opacity: 0.9; stroke-width: 0.3"/>
     <use xlink:href="#mdb1624cb9d" x="131.546339" y="243.435994" style="fill: #0173b2; fill-opacity: 0.9; stroke: #000000; stroke-opacity: 0.9; stroke-width: 0.3"/>
     <use xlink:href="#mdb1624cb9d" x="195.758215" y="334.821949" style="fill: #0173b2; fill-opacity: 0.9; stroke: #000000; stroke-opacity: 0.9; stroke-width: 0.3"/>
     <use xlink:href="#mdb1624cb9d" x="131.525911" y="326.463821" style="fill: #0173b2; fill-opacity: 0.9; stroke: #000000; stroke-opacity: 0.9; stroke-width: 0.3"/>
     <use xlink:href="#mdb1624cb9d" x="119.221168" y="332.981103" style="fill: #0173b2; fill-opacity: 0.9; stroke: #000000; stroke-opacity: 0.9; stroke-width: 0.3"/>
     <use xlink:href="#mdb1624cb9d" x="122.390512" y="327.851673" style="fill: #0173b2; fill-opacity: 0.9; stroke: #000000; stroke-opacity: 0.9; stroke-width: 0.3"/>
     <use xlink:href="#mdb1624cb9d" x="201.636039" y="265.733767" style="fill: #0173b2; fill-opacity: 0.9; stroke: #000000; stroke-opacity: 0.9; stroke-width: 0.3"/>
     <use xlink:href="#mdb1624cb9d" x="114.709259" y="348.57733" style="fill: #0173b2; fill-opacity: 0.9; stroke: #000000; stroke-opacity: 0.9; stroke-width: 0.3"/>
     <use xlink:href="#mdb1624cb9d" x="206.06445" y="289.019605" style="fill: #0173b2; fill-opacity: 0.9; stroke: #000000; stroke-opacity: 0.9; stroke-width: 0.3"/>
     <use xlink:href="#mdb1624cb9d" x="124.960043" y="262.060639" style="fill: #0173b2; fill-opacity: 0.9; stroke: #000000; stroke-opacity: 0.9; stroke-width: 0.3"/>
     <use xlink:href="#mdb1624cb9d" x="118.502202" y="342.145194" style="fill: #0173b2; fill-opacity: 0.9; stroke: #000000; stroke-opacity: 0.9; stroke-width: 0.3"/>
     <use xlink:href="#mdb1624cb9d" x="178.656523" y="331.065144" style="fill: #0173b2; fill-opacity: 0.9; stroke: #000000; stroke-opacity: 0.9; stroke-width: 0.3"/>
     <use xlink:href="#mdb1624cb9d" x="122.135647" y="261.631056" style="fill: #0173b2; fill-opacity: 0.9; stroke: #000000; stroke-opacity: 0.9; stroke-width: 0.3"/>
     <use xlink:href="#mdb1624cb9d" x="177.809793" y="316.301631" style="fill: #0173b2; fill-opacity: 0.9; stroke: #000000; stroke-opacity: 0.9; stroke-width: 0.3"/>
     <use xlink:href="#mdb1624cb9d" x="79.155511" y="215.589122" style="fill: #0173b2; fill-opacity: 0.9; stroke: #000000; stroke-opacity: 0.9; stroke-width: 0.3"/>
     <use xlink:href="#mdb1624cb9d" x="122.637248" y="334.109155" style="fill: #0173b2; fill-opacity: 0.9; stroke: #000000; stroke-opacity: 0.9; stroke-width: 0.3"/>
    </g>
   </g>
   <g id="PathCollection_2">
    <path d="M 97.375923 221.392207 
L 93.192623 229.758808 
L 101.559223 229.758808 
L 97.375923 221.392207 
z
" clip-path="url(#p9bfc1eafd2)" style="fill: none; stroke: #0173b2; stroke-opacity: 0.999; stroke-width: 1.2"/>
    <path d="M 143.364038 255.813003 
L 139.180738 264.179603 
L 147.547338 264.179603 
L 143.364038 255.813003 
z
" clip-path="url(#p9bfc1eafd2)" style="fill: none; stroke: #0173b2; stroke-opacity: 0.999; stroke-width: 1.2"/>
    <path d="M 92.781698 217.396701 
L 88.598398 225.763301 
L 96.964998 225.763301 
L 92.781698 217.396701 
z
" clip-path="url(#p9bfc1eafd2)" style="fill: none; stroke: #0173b2; stroke-opacity: 0.999; stroke-width: 1.2"/>
    <path d="M 133.887786 344.600963 
L 129.704486 352.967563 
L 138.071086 352.967563 
L 133.887786 344.600963 
z
" clip-path="url(#p9bfc1eafd2)" style="fill: none; stroke: #0173b2; stroke-opacity: 0.999; stroke-width: 1.2"/>
    <path d="M 143.622049 256.424867 
L 139.438749 264.791467 
L 147.80535 264.791467 
L 143.622049 256.424867 
z
" clip-path="url(#p9bfc1eafd2)" style="fill: none; stroke: #0173b2; stroke-opacity: 0.999; stroke-width: 1.2"/>
    <path d="M 180.711212 375.829035 
L 176.527912 384.195636 
L 184.894513 384.195636 
L 180.711212 375.829035 
z
" clip-path="url(#p9bfc1eafd2)" style="fill: none; stroke: #0173b2; stroke-opacity: 0.999; stroke-width: 1.2"/>
    <path d="M 98.685535 331.832367 
L 94.502235 340.198968 
L 102.868835 340.198968 
L 98.685535 331.832367 
z
" clip-path="url(#p9bfc1eafd2)" style="fill: none; stroke: #0173b2; stroke-opacity: 0.999; stroke-width: 1.2"/>
    <path d="M 219.256693 279.992228 
L 215.073393 288.358828 
L 223.439993 288.358828 
L 219.256693 279.992228 
z
" clip-path="url(#p9bfc1eafd2)" style="fill: none; stroke: #0173b2; stroke-opacity: 0.999; stroke-width: 1.2"/>
    <path d="M 97.7206 239.225572 
L 93.5373 247.592172 
L 101.9039 247.592172 
L 97.7206 239.225572 
z
" clip-path="url(#p9bfc1eafd2)" style="fill: none; stroke: #0173b2; stroke-opacity: 0.999; stroke-width: 1.2"/>
    <path d="M 220.048626 278.696859 
L 215.865326 287.063459 
L 224.231926 287.063459 
L 220.048626 278.696859 
z
" clip-path="url(#p9bfc1eafd2)" style="fill: none; stroke: #0173b2; stroke-opacity: 0.999; stroke-width: 1.2"/>
    <path d="M 169.855016 365.882389 
L 165.671716 374.248989 
L 174.038316 374.248989 
L 169.855016 365.882389 
z
" clip-path="url(#p9bfc1eafd2)" style="fill: none; stroke: #0173b2; stroke-opacity: 0.999; stroke-width: 1.2"/>
    <path d="M 193.439215 295.258094 
L 189.255914 303.624694 
L 197.622515 303.624694 
L 193.439215 295.258094 
z
" clip-path="url(#p9bfc1eafd2)" style="fill: none; stroke: #0173b2; stroke-opacity: 0.999; stroke-width: 1.2"/>
    <path d="M 167.410155 312.421275 
L 163.226855 320.787875 
L 171.593456 320.787875 
L 167.410155 312.421275 
z
" clip-path="url(#p9bfc1eafd2)" style="fill: none; stroke: #0173b2; stroke-opacity: 0.999; stroke-width: 1.2"/>
    <path d="M 99.061133 240.265423 
L 94.877833 248.632023 
L 103.244433 248.632023 
L 99.061133 240.265423 
z
" clip-path="url(#p9bfc1eafd2)" style="fill: none; stroke: #0173b2; stroke-opacity: 0.999; stroke-width: 1.2"/>
    <path d="M 150.453863 316.345952 
L 146.270562 324.712552 
L 154.637163 324.712552 
L 150.453863 316.345952 
z
" clip-path="url(#p9bfc1eafd2)" style="fill: none; stroke: #0173b2; stroke-opacity: 0.999; stroke-width: 1.2"/>
    <path d="M 148.976759 346.763996 
L 144.793459 355.130596 
L 153.160059 355.130596 
L 148.976759 346.763996 
z
" clip-path="url(#p9bfc1eafd2)" style="fill: none; stroke: #0173b2; stroke-opacity: 0.999; stroke-width: 1.2"/>
    <path d="M 176.519699 372.607868 
L 172.336399 380.974468 
L 180.702999 380.974468 
L 176.519699 372.607868 
z
" clip-path="url(#p9bfc1eafd2)" style="fill: none; stroke: #0173b2; stroke-opacity: 0.999; stroke-width: 1.2"/>
    <path d="M 144.976462 257.923654 
L 140.793162 266.290254 
L 149.159762 266.290254 
L 144.976462 257.923654 
z
" clip-path="url(#p9bfc1eafd2)" style="fill: none; stroke: #0173b2; stroke-opacity: 0.999; stroke-width: 1.2"/>
    <path d="M 182.27599 378.249177 
L 178.09269 386.615777 
L 186.459291 386.615777 
L 182.27599 378.249177 
z
" clip-path="url(#p9bfc1eafd2)" style="fill: none; stroke: #0173b2; stroke-opacity: 0.999; stroke-width: 1.2"/>
    <path d="M 94.289361 218.876954 
L 90.106061 227.243555 
L 98.472661 227.243555 
L 94.289361 218.876954 
z
" clip-path="url(#p9bfc1eafd2)" style="fill: none; stroke: #0173b2; stroke-opacity: 0.999; stroke-width: 1.2"/>
    <path d="M 153.229611 315.772404 
L 149.046311 324.139004 
L 157.412911 324.139004 
L 153.229611 315.772404 
z
" clip-path="url(#p9bfc1eafd2)" style="fill: none; stroke: #0173b2; stroke-opacity: 0.999; stroke-width: 1.2"/>
    <path d="M 111.735347 324.429863 
L 107.552047 332.796463 
L 115.918647 332.796463 
L 111.735347 324.429863 
z
" clip-path="url(#p9bfc1eafd2)" style="fill: none; stroke: #0173b2; stroke-opacity: 0.999; stroke-width: 1.2"/>
    <path d="M 205.474497 287.517638 
L 201.291197 295.884238 
L 209.657797 295.884238 
L 205.474497 287.517638 
z
" clip-path="url(#p9bfc1eafd2)" style="fill: none; stroke: #0173b2; stroke-opacity: 0.999; stroke-width: 1.2"/>
    <path d="M 226.622387 99.135748 
L 222.439086 107.502349 
L 230.805687 107.502349 
L 226.622387 99.135748 
z
" clip-path="url(#p9bfc1eafd2)" style="fill: none; stroke: #0173b2; stroke-opacity: 0.999; stroke-width: 1.2"/>
    <path d="M 100.481618 242.215323 
L 96.298318 250.581923 
L 104.664918 250.581923 
L 100.481618 242.215323 
z
" clip-path="url(#p9bfc1eafd2)" style="fill: none; stroke: #0173b2; stroke-opacity: 0.999; stroke-width: 1.2"/>
    <path d="M 204.876565 168.143212 
L 200.693265 176.509812 
L 209.059866 176.509812 
L 204.876565 168.143212 
z
" clip-path="url(#p9bfc1eafd2)" style="fill: none; stroke: #0173b2; stroke-opacity: 0.999; stroke-width: 1.2"/>
    <path d="M 196.116472 297.917986 
L 191.933172 306.284587 
L 200.299772 306.284587 
L 196.116472 297.917986 
z
" clip-path="url(#p9bfc1eafd2)" style="fill: none; stroke: #0173b2; stroke-opacity: 0.999; stroke-width: 1.2"/>
    <path d="M 165.366952 362.044201 
L 161.183652 370.410802 
L 169.550252 370.410802 
L 165.366952 362.044201 
z
" clip-path="url(#p9bfc1eafd2)" style="fill: none; stroke: #0173b2; stroke-opacity: 0.999; stroke-width: 1.2"/>
    <path d="M 96.55638 239.94403 
L 92.37308 248.31063 
L 100.739681 248.31063 
L 96.55638 239.94403 
z
" clip-path="url(#p9bfc1eafd2)" style="fill: none; stroke: #0173b2; stroke-opacity: 0.999; stroke-width: 1.2"/>
    <path d="M 197.656147 298.483763 
L 193.472847 306.850363 
L 201.839447 306.850363 
L 197.656147 298.483763 
z
" clip-path="url(#p9bfc1eafd2)" style="fill: none; stroke: #0173b2; stroke-opacity: 0.999; stroke-width: 1.2"/>
    <path d="M 182.607225 379.004401 
L 178.423925 387.371001 
L 186.790525 387.371001 
L 182.607225 379.004401 
z
" clip-path="url(#p9bfc1eafd2)" style="fill: none; stroke: #0173b2; stroke-opacity: 0.999; stroke-width: 1.2"/>
    <path d="M 195.661064 290.824562 
L 191.477764 299.191162 
L 199.844364 299.191162 
L 195.661064 290.824562 
z
" clip-path="url(#p9bfc1eafd2)" style="fill: none; stroke: #0173b2; stroke-opacity: 0.999; stroke-width: 1.2"/>
    <path d="M 89.428921 212.628888 
L 85.245621 220.995489 
L 93.612221 220.995489 
L 89.428921 212.628888 
z
" clip-path="url(#p9bfc1eafd2)" style="fill: none; stroke: #0173b2; stroke-opacity: 0.999; stroke-width: 1.2"/>
    <path d="M 219.051834 288.997291 
L 214.868534 297.363891 
L 223.235134 297.363891 
L 219.051834 288.997291 
z
" clip-path="url(#p9bfc1eafd2)" style="fill: none; stroke: #0173b2; stroke-opacity: 0.999; stroke-width: 1.2"/>
    <path d="M 218.946196 278.583163 
L 214.762895 286.949764 
L 223.129496 286.949764 
L 218.946196 278.583163 
z
" clip-path="url(#p9bfc1eafd2)" style="fill: none; stroke: #0173b2; stroke-opacity: 0.999; stroke-width: 1.2"/>
    <path d="M 248.666353 199.908251 
L 244.483053 208.274852 
L 252.849653 208.274852 
L 248.666353 199.908251 
z
" clip-path="url(#p9bfc1eafd2)" style="fill: none; stroke: #0173b2; stroke-opacity: 0.999; stroke-width: 1.2"/>
    <path d="M 142.330397 254.57913 
L 138.147097 262.94573 
L 146.513697 262.94573 
L 142.330397 254.57913 
z
" clip-path="url(#p9bfc1eafd2)" style="fill: none; stroke: #0173b2; stroke-opacity: 0.999; stroke-width: 1.2"/>
    <path d="M 132.500299 344.834745 
L 128.316999 353.201345 
L 136.683599 353.201345 
L 132.500299 344.834745 
z
" clip-path="url(#p9bfc1eafd2)" style="fill: none; stroke: #0173b2; stroke-opacity: 0.999; stroke-width: 1.2"/>
    <path d="M 115.375612 228.980968 
L 111.192312 237.347568 
L 119.558912 237.347568 
L 115.375612 228.980968 
z
" clip-path="url(#p9bfc1eafd2)" style="fill: none; stroke: #0173b2; stroke-opacity: 0.999; stroke-width: 1.2"/>
   </g>
   <g id="PathCollection_3">
    <defs>
     <path id="m5ba664a5b9" d="M 0 3.872983 
C 1.027127 3.872983 2.012324 3.464901 2.738613 2.738613 
C 3.464901 2.012324 3.872983 1.027127 3.872983 0 
C 3.872983 -1.027127 3.464901 -2.012324 2.738613 -2.738613 
C 2.012324 -3.464901 1.027127 -3.872983 0 -3.872983 
C -1.027127 -3.872983 -2.012324 -3.464901 -2.738613 -2.738613 
C -3.464901 -2.012324 -3.872983 -1.027127 -3.872983 0 
C -3.872983 1.027127 -3.464901 2.012324 -2.738613 2.738613 
C -2.012324 3.464901 -1.027127 3.872983 0 3.872983 
z
" style="stroke: #000000; stroke-opacity: 0.9; stroke-width: 0.3"/>
    </defs>
    <g clip-path="url(#p9bfc1eafd2)">
     <use xlink:href="#m5ba664a5b9" x="302.503777" y="158.244895" style="fill: #de8f05; fill-opacity: 0.9; stroke: #000000; stroke-opacity: 0.9; stroke-width: 0.3"/>
     <use xlink:href="#m5ba664a5b9" x="235.546592" y="146.904033" style="fill: #de8f05; fill-opacity: 0.9; stroke: #000000; stroke-opacity: 0.9; stroke-width: 0.3"/>
     <use xlink:href="#m5ba664a5b9" x="260.250978" y="76.0932" style="fill: #de8f05; fill-opacity: 0.9; stroke: #000000; stroke-opacity: 0.9; stroke-width: 0.3"/>
     <use xlink:href="#m5ba664a5b9" x="251.327361" y="114.116775" style="fill: #de8f05; fill-opacity: 0.9; stroke: #000000; stroke-opacity: 0.9; stroke-width: 0.3"/>
     <use xlink:href="#m5ba664a5b9" x="236.729023" y="167.24757" style="fill: #de8f05; fill-opacity: 0.9; stroke: #000000; stroke-opacity: 0.9; stroke-width: 0.3"/>
     <use xlink:href="#m5ba664a5b9" x="287.973666" y="115.506189" style="fill: #de8f05; fill-opacity: 0.9; stroke: #000000; stroke-opacity: 0.9; stroke-width: 0.3"/>
     <use xlink:href="#m5ba664a5b9" x="247.371613" y="132.748689" style="fill: #de8f05; fill-opacity: 0.9; stroke: #000000; stroke-opacity: 0.9; stroke-width: 0.3"/>
     <use xlink:href="#m5ba664a5b9" x="223.886757" y="159.569335" style="fill: #de8f05; fill-opacity: 0.9; stroke: #000000; stroke-opacity: 0.9; stroke-width: 0.3"/>
     <use xlink:href="#m5ba664a5b9" x="261.43824" y="156.853924" style="fill: #de8f05; fill-opacity: 0.9; stroke: #000000; stroke-opacity: 0.9; stroke-width: 0.3"/>
     <use xlink:href="#m5ba664a5b9" x="243.567498" y="119.834875" style="fill: #de8f05; fill-opacity: 0.9; stroke: #000000; stroke-opacity: 0.9; stroke-width: 0.3"/>
     <use xlink:href="#m5ba664a5b9" x="263.556611" y="161.706084" style="fill: #de8f05; fill-opacity: 0.9; stroke: #000000; stroke-opacity: 0.9; stroke-width: 0.3"/>
     <use xlink:href="#m5ba664a5b9" x="283.59583" y="138.713419" style="fill: #de8f05; fill-opacity: 0.9; stroke: #000000; stroke-opacity: 0.9; stroke-width: 0.3"/>
     <use xlink:href="#m5ba664a5b9" x="283.380264" y="174.552419" style="fill: #de8f05; fill-opacity: 0.9; stroke: #000000; stroke-opacity: 0.9; stroke-width: 0.3"/>
     <use xlink:href="#m5ba664a5b9" x="247.600892" y="179.432317" style="fill: #de8f05; fill-opacity: 0.9; stroke: #000000; stroke-opacity: 0.9; stroke-width: 0.3"/>
     <use xlink:href="#m5ba664a5b9" x="238.2811" y="123.401691" style="fill: #de8f05; fill-opacity: 0.9; stroke: #000000; stroke-opacity: 0.9; stroke-width: 0.3"/>
     <use xlink:href="#m5ba664a5b9" x="280.974991" y="117.859829" style="fill: #de8f05; fill-opacity: 0.9; stroke: #000000; stroke-opacity: 0.9; stroke-width: 0.3"/>
     <use xlink:href="#m5ba664a5b9" x="253.027349" y="150.528145" style="fill: #de8f05; fill-opacity: 0.9; stroke: #000000; stroke-opacity: 0.9; stroke-width: 0.3"/>
     <use xlink:href="#m5ba664a5b9" x="247.269036" y="140.068856" style="fill: #de8f05; fill-opacity: 0.9; stroke: #000000; stroke-opacity: 0.9; stroke-width: 0.3"/>
     <use xlink:href="#m5ba664a5b9" x="251.121623" y="132.959837" style="fill: #de8f05; fill-opacity: 0.9; stroke: #000000; stroke-opacity: 0.9; stroke-width: 0.3"/>
     <use xlink:href="#m5ba664a5b9" x="288.655853" y="171.104146" style="fill: #de8f05; fill-opacity: 0.9; stroke: #000000; stroke-opacity: 0.9; stroke-width: 0.3"/>
     <use xlink:href="#m5ba664a5b9" x="224.548992" y="176.004171" style="fill: #de8f05; fill-opacity: 0.9; stroke: #000000; stroke-opacity: 0.9; stroke-width: 0.3"/>
     <use xlink:href="#m5ba664a5b9" x="244.045792" y="153.337772" style="fill: #de8f05; fill-opacity: 0.9; stroke: #000000; stroke-opacity: 0.9; stroke-width: 0.3"/>
     <use xlink:href="#m5ba664a5b9" x="225.807247" y="107.320204" style="fill: #de8f05; fill-opacity: 0.9; stroke: #000000; stroke-opacity: 0.9; stroke-width: 0.3"/>
     <use xlink:href="#m5ba664a5b9" x="224.931888" y="148.455571" style="fill: #de8f05; fill-opacity: 0.9; stroke: #000000; stroke-opacity: 0.9; stroke-width: 0.3"/>
     <use xlink:href="#m5ba664a5b9" x="249.290786" y="71.021536" style="fill: #de8f05; fill-opacity: 0.9; stroke: #000000; stroke-opacity: 0.9; stroke-width: 0.3"/>
    </g>
   </g>
   <g id="PathCollection_4">
    <path d="M 274.395504 85.103554 
L 270.212204 93.470154 
L 278.578804 93.470154 
L 274.395504 85.103554 
z
" clip-path="url(#p9bfc1eafd2)" style="fill: none; stroke: #de8f05; stroke-opacity: 0.999; stroke-width: 1.2"/>
    <path d="M 239.793204 141.875095 
L 235.609903 150.241695 
L 243.976504 150.241695 
L 239.793204 141.875095 
z
" clip-path="url(#p9bfc1eafd2)" style="fill: none; stroke: #de8f05; stroke-opacity: 0.999; stroke-width: 1.2"/>
    <path d="M 274.686948 87.834178 
L 270.503648 96.200778 
L 278.870249 96.200778 
L 274.686948 87.834178 
z
" clip-path="url(#p9bfc1eafd2)" style="fill: none; stroke: #de8f05; stroke-opacity: 0.999; stroke-width: 1.2"/>
    <path d="M 270.775578 97.963098 
L 266.592277 106.329699 
L 274.958878 106.329699 
L 270.775578 97.963098 
z
" clip-path="url(#p9bfc1eafd2)" style="fill: none; stroke: #de8f05; stroke-opacity: 0.999; stroke-width: 1.2"/>
    <path d="M 229.450075 237.981424 
L 225.266775 246.348024 
L 233.633375 246.348024 
L 229.450075 237.981424 
z
" clip-path="url(#p9bfc1eafd2)" style="fill: none; stroke: #de8f05; stroke-opacity: 0.999; stroke-width: 1.2"/>
    <path d="M 233.355389 95.763566 
L 229.172089 104.130167 
L 237.538689 104.130167 
L 233.355389 95.763566 
z
" clip-path="url(#p9bfc1eafd2)" style="fill: none; stroke: #de8f05; stroke-opacity: 0.999; stroke-width: 1.2"/>
    <path d="M 262.774817 103.803602 
L 258.591517 112.170203 
L 266.958117 112.170203 
L 262.774817 103.803602 
z
" clip-path="url(#p9bfc1eafd2)" style="fill: none; stroke: #de8f05; stroke-opacity: 0.999; stroke-width: 1.2"/>
    <path d="M 288.75167 160.450435 
L 284.56837 168.817036 
L 292.93497 168.817036 
L 288.75167 160.450435 
z
" clip-path="url(#p9bfc1eafd2)" style="fill: none; stroke: #de8f05; stroke-opacity: 0.999; stroke-width: 1.2"/>
    <path d="M 278.58874 53.758978 
L 274.40544 62.125578 
L 282.77204 62.125578 
L 278.58874 53.758978 
z
" clip-path="url(#p9bfc1eafd2)" style="fill: none; stroke: #de8f05; stroke-opacity: 0.999; stroke-width: 1.2"/>
    <path d="M 279.108133 53.269977 
L 274.924833 61.636578 
L 283.291433 61.636578 
L 279.108133 53.269977 
z
" clip-path="url(#p9bfc1eafd2)" style="fill: none; stroke: #de8f05; stroke-opacity: 0.999; stroke-width: 1.2"/>
    <path d="M 235.155774 162.738207 
L 230.972474 171.104807 
L 239.339074 171.104807 
L 235.155774 162.738207 
z
" clip-path="url(#p9bfc1eafd2)" style="fill: none; stroke: #de8f05; stroke-opacity: 0.999; stroke-width: 1.2"/>
    <path d="M 266.218048 121.370984 
L 262.034748 129.737584 
L 270.401348 129.737584 
L 266.218048 121.370984 
z
" clip-path="url(#p9bfc1eafd2)" style="fill: none; stroke: #de8f05; stroke-opacity: 0.999; stroke-width: 1.2"/>
    <path d="M 278.537208 145.605819 
L 274.353908 153.972419 
L 282.720508 153.972419 
L 278.537208 145.605819 
z
" clip-path="url(#p9bfc1eafd2)" style="fill: none; stroke: #de8f05; stroke-opacity: 0.999; stroke-width: 1.2"/>
    <path d="M 229.460534 237.961444 
L 225.277234 246.328044 
L 233.643834 246.328044 
L 229.460534 237.961444 
z
" clip-path="url(#p9bfc1eafd2)" style="fill: none; stroke: #de8f05; stroke-opacity: 0.999; stroke-width: 1.2"/>
    <path d="M 279.10867 53.193909 
L 274.925369 61.560509 
L 283.29197 61.560509 
L 279.10867 53.193909 
z
" clip-path="url(#p9bfc1eafd2)" style="fill: none; stroke: #de8f05; stroke-opacity: 0.999; stroke-width: 1.2"/>
    <path d="M 229.411484 238.081325 
L 225.228184 246.447925 
L 233.594784 246.447925 
L 229.411484 238.081325 
z
" clip-path="url(#p9bfc1eafd2)" style="fill: none; stroke: #de8f05; stroke-opacity: 0.999; stroke-width: 1.2"/>
    <path d="M 235.558485 161.871839 
L 231.375185 170.238439 
L 239.741785 170.238439 
L 235.558485 161.871839 
z
" clip-path="url(#p9bfc1eafd2)" style="fill: none; stroke: #de8f05; stroke-opacity: 0.999; stroke-width: 1.2"/>
    <path d="M 270.80459 73.150158 
L 266.621289 81.516758 
L 274.98789 81.516758 
L 270.80459 73.150158 
z
" clip-path="url(#p9bfc1eafd2)" style="fill: none; stroke: #de8f05; stroke-opacity: 0.999; stroke-width: 1.2"/>
    <path d="M 257.567855 122.320834 
L 253.384555 130.687435 
L 261.751155 130.687435 
L 257.567855 122.320834 
z
" clip-path="url(#p9bfc1eafd2)" style="fill: none; stroke: #de8f05; stroke-opacity: 0.999; stroke-width: 1.2"/>
    <path d="M 283.016169 152.113285 
L 278.832869 160.479885 
L 287.199469 160.479885 
L 283.016169 152.113285 
z
" clip-path="url(#p9bfc1eafd2)" style="fill: none; stroke: #de8f05; stroke-opacity: 0.999; stroke-width: 1.2"/>
    <path d="M 260.844572 133.561963 
L 256.661272 141.928563 
L 265.027872 141.928563 
L 260.844572 133.561963 
z
" clip-path="url(#p9bfc1eafd2)" style="fill: none; stroke: #de8f05; stroke-opacity: 0.999; stroke-width: 1.2"/>
    <path d="M 260.730479 129.962089 
L 256.547179 138.328689 
L 264.913779 138.328689 
L 260.730479 129.962089 
z
" clip-path="url(#p9bfc1eafd2)" style="fill: none; stroke: #de8f05; stroke-opacity: 0.999; stroke-width: 1.2"/>
    <path d="M 265.074108 106.877187 
L 260.890808 115.243788 
L 269.257409 115.243788 
L 265.074108 106.877187 
z
" clip-path="url(#p9bfc1eafd2)" style="fill: none; stroke: #de8f05; stroke-opacity: 0.999; stroke-width: 1.2"/>
    <path d="M 269.538254 86.228678 
L 265.354954 94.595279 
L 273.721554 94.595279 
L 269.538254 86.228678 
z
" clip-path="url(#p9bfc1eafd2)" style="fill: none; stroke: #de8f05; stroke-opacity: 0.999; stroke-width: 1.2"/>
    <path d="M 237.799291 132.667 
L 233.615991 141.0336 
L 241.982591 141.0336 
L 237.799291 132.667 
z
" clip-path="url(#p9bfc1eafd2)" style="fill: none; stroke: #de8f05; stroke-opacity: 0.999; stroke-width: 1.2"/>
    <path d="M 229.361967 238.095799 
L 225.178667 246.462399 
L 233.545268 246.462399 
L 229.361967 238.095799 
z
" clip-path="url(#p9bfc1eafd2)" style="fill: none; stroke: #de8f05; stroke-opacity: 0.999; stroke-width: 1.2"/>
    <path d="M 266.044635 123.290451 
L 261.861334 131.657051 
L 270.227935 131.657051 
L 266.044635 123.290451 
z
" clip-path="url(#p9bfc1eafd2)" style="fill: none; stroke: #de8f05; stroke-opacity: 0.999; stroke-width: 1.2"/>
   </g>
   <g id="PathCollection_5">
    <defs>
     <path id="m219af22e5e" d="M 0 3.872983 
C 1.027127 3.872983 2.012324 3.464901 2.738613 2.738613 
C 3.464901 2.012324 3.872983 1.027127 3.872983 0 
C 3.872983 -1.027127 3.464901 -2.012324 2.738613 -2.738613 
C 2.012324 -3.464901 1.027127 -3.872983 0 -3.872983 
C -1.027127 -3.872983 -2.012324 -3.464901 -2.738613 -2.738613 
C -3.464901 -2.012324 -3.872983 -1.027127 -3.872983 0 
C -3.872983 1.027127 -3.464901 2.012324 -2.738613 2.738613 
C -2.012324 3.464901 -1.027127 3.872983 0 3.872983 
z
" style="stroke: #000000; stroke-opacity: 0.9; stroke-width: 0.3"/>
    </defs>
    <g clip-path="url(#p9bfc1eafd2)">
     <use xlink:href="#m219af22e5e" x="236.752884" y="290.071352" style="fill: #029e73; fill-opacity: 0.9; stroke: #000000; stroke-opacity: 0.9; stroke-width: 0.3"/>
     <use xlink:href="#m219af22e5e" x="524.701402" y="370.324566" style="fill: #029e73; fill-opacity: 0.9; stroke: #000000; stroke-opacity: 0.9; stroke-width: 0.3"/>
     <use xlink:href="#m219af22e5e" x="471.923851" y="346.90119" style="fill: #029e73; fill-opacity: 0.9; stroke: #000000; stroke-opacity: 0.9; stroke-width: 0.3"/>
     <use xlink:href="#m219af22e5e" x="436.720305" y="329.284363" style="fill: #029e73; fill-opacity: 0.9; stroke: #000000; stroke-opacity: 0.9; stroke-width: 0.3"/>
     <use xlink:href="#m219af22e5e" x="586.428239" y="400.292683" style="fill: #029e73; fill-opacity: 0.9; stroke: #000000; stroke-opacity: 0.9; stroke-width: 0.3"/>
     <use xlink:href="#m219af22e5e" x="577.73019" y="378.378279" style="fill: #029e73; fill-opacity: 0.9; stroke: #000000; stroke-opacity: 0.9; stroke-width: 0.3"/>
     <use xlink:href="#m219af22e5e" x="535.639553" y="361.722397" style="fill: #029e73; fill-opacity: 0.9; stroke: #000000; stroke-opacity: 0.9; stroke-width: 0.3"/>
     <use xlink:href="#m219af22e5e" x="489.444715" y="351.911177" style="fill: #029e73; fill-opacity: 0.9; stroke: #000000; stroke-opacity: 0.9; stroke-width: 0.3"/>
     <use xlink:href="#m219af22e5e" x="551.077449" y="387.145117" style="fill: #029e73; fill-opacity: 0.9; stroke: #000000; stroke-opacity: 0.9; stroke-width: 0.3"/>
     <use xlink:href="#m219af22e5e" x="519.59132" y="331.01743" style="fill: #029e73; fill-opacity: 0.9; stroke: #000000; stroke-opacity: 0.9; stroke-width: 0.3"/>
     <use xlink:href="#m219af22e5e" x="474.992332" y="336.159705" style="fill: #029e73; fill-opacity: 0.9; stroke: #000000; stroke-opacity: 0.9; stroke-width: 0.3"/>
     <use xlink:href="#m219af22e5e" x="532.507498" y="369.670731" style="fill: #029e73; fill-opacity: 0.9; stroke: #000000; stroke-opacity: 0.9; stroke-width: 0.3"/>
     <use xlink:href="#m219af22e5e" x="548.012566" y="369.904852" style="fill: #029e73; fill-opacity: 0.9; stroke: #000000; stroke-opacity: 0.9; stroke-width: 0.3"/>
     <use xlink:href="#m219af22e5e" x="440.897201" y="333.062169" style="fill: #029e73; fill-opacity: 0.9; stroke: #000000; stroke-opacity: 0.9; stroke-width: 0.3"/>
     <use xlink:href="#m219af22e5e" x="554.632132" y="355.328837" style="fill: #029e73; fill-opacity: 0.9; stroke: #000000; stroke-opacity: 0.9; stroke-width: 0.3"/>
     <use xlink:href="#m219af22e5e" x="423.049513" y="317.445332" style="fill: #029e73; fill-opacity: 0.9; stroke: #000000; stroke-opacity: 0.9; stroke-width: 0.3"/>
     <use xlink:href="#m219af22e5e" x="530.542884" y="347.413155" style="fill: #029e73; fill-opacity: 0.9; stroke: #000000; stroke-opacity: 0.9; stroke-width: 0.3"/>
     <use xlink:href="#m219af22e5e" x="424.655509" y="320.391989" style="fill: #029e73; fill-opacity: 0.9; stroke: #000000; stroke-opacity: 0.9; stroke-width: 0.3"/>
     <use xlink:href="#m219af22e5e" x="576.592797" y="400.542791" style="fill: #029e73; fill-opacity: 0.9; stroke: #000000; stroke-opacity: 0.9; stroke-width: 0.3"/>
     <use xlink:href="#m219af22e5e" x="557.408369" y="393.644183" style="fill: #029e73; fill-opacity: 0.9; stroke: #000000; stroke-opacity: 0.9; stroke-width: 0.3"/>
     <use xlink:href="#m219af22e5e" x="468.501508" y="312.039296" style="fill: #029e73; fill-opacity: 0.9; stroke: #000000; stroke-opacity: 0.9; stroke-width: 0.3"/>
     <use xlink:href="#m219af22e5e" x="429.762008" y="329.084791" style="fill: #029e73; fill-opacity: 0.9; stroke: #000000; stroke-opacity: 0.9; stroke-width: 0.3"/>
     <use xlink:href="#m219af22e5e" x="543.351953" y="377.356982" style="fill: #029e73; fill-opacity: 0.9; stroke: #000000; stroke-opacity: 0.9; stroke-width: 0.3"/>
     <use xlink:href="#m219af22e5e" x="561.61447" y="382.488079" style="fill: #029e73; fill-opacity: 0.9; stroke: #000000; stroke-opacity: 0.9; stroke-width: 0.3"/>
     <use xlink:href="#m219af22e5e" x="508.004355" y="346.153237" style="fill: #029e73; fill-opacity: 0.9; stroke: #000000; stroke-opacity: 0.9; stroke-width: 0.3"/>
     <use xlink:href="#m219af22e5e" x="493.817615" y="324.602505" style="fill: #029e73; fill-opacity: 0.9; stroke: #000000; stroke-opacity: 0.9; stroke-width: 0.3"/>
     <use xlink:href="#m219af22e5e" x="559.450511" y="358.846359" style="fill: #029e73; fill-opacity: 0.9; stroke: #000000; stroke-opacity: 0.9; stroke-width: 0.3"/>
     <use xlink:href="#m219af22e5e" x="465.37826" y="331.758179" style="fill: #029e73; fill-opacity: 0.9; stroke: #000000; stroke-opacity: 0.9; stroke-width: 0.3"/>
     <use xlink:href="#m219af22e5e" x="569.270658" y="381.558529" style="fill: #029e73; fill-opacity: 0.9; stroke: #000000; stroke-opacity: 0.9; stroke-width: 0.3"/>
     <use xlink:href="#m219af22e5e" x="535.763267" y="330.459015" style="fill: #029e73; fill-opacity: 0.9; stroke: #000000; stroke-opacity: 0.9; stroke-width: 0.3"/>
     <use xlink:href="#m219af22e5e" x="401.483934" y="315.016091" style="fill: #029e73; fill-opacity: 0.9; stroke: #000000; stroke-opacity: 0.9; stroke-width: 0.3"/>
     <use xlink:href="#m219af22e5e" x="498.751474" y="355.616234" style="fill: #029e73; fill-opacity: 0.9; stroke: #000000; stroke-opacity: 0.9; stroke-width: 0.3"/>
     <use xlink:href="#m219af22e5e" x="458.511747" y="339.61156" style="fill: #029e73; fill-opacity: 0.9; stroke: #000000; stroke-opacity: 0.9; stroke-width: 0.3"/>
    </g>
   </g>
   <g id="PathCollection_6">
    <path d="M 492.765608 334.111678 
L 488.582308 342.478279 
L 496.948908 342.478279 
L 492.765608 334.111678 
z
" clip-path="url(#p9bfc1eafd2)" style="fill: none; stroke: #029e73; stroke-opacity: 0.999; stroke-width: 1.2"/>
    <path d="M 450.34452 317.631872 
L 446.16122 325.998473 
L 454.52782 325.998473 
L 450.34452 317.631872 
z
" clip-path="url(#p9bfc1eafd2)" style="fill: none; stroke: #029e73; stroke-opacity: 0.999; stroke-width: 1.2"/>
    <path d="M 488.791972 310.843795 
L 484.608672 319.210395 
L 492.975272 319.210395 
L 488.791972 310.843795 
z
" clip-path="url(#p9bfc1eafd2)" style="fill: none; stroke: #029e73; stroke-opacity: 0.999; stroke-width: 1.2"/>
    <path d="M 456.498253 326.945108 
L 452.314953 335.311709 
L 460.681553 335.311709 
L 456.498253 326.945108 
z
" clip-path="url(#p9bfc1eafd2)" style="fill: none; stroke: #029e73; stroke-opacity: 0.999; stroke-width: 1.2"/>
    <path d="M 469.655793 340.591317 
L 465.472492 348.957917 
L 473.839093 348.957917 
L 469.655793 340.591317 
z
" clip-path="url(#p9bfc1eafd2)" style="fill: none; stroke: #029e73; stroke-opacity: 0.999; stroke-width: 1.2"/>
    <path d="M 584.299295 384.973143 
L 580.115995 393.339743 
L 588.482595 393.339743 
L 584.299295 384.973143 
z
" clip-path="url(#p9bfc1eafd2)" style="fill: none; stroke: #029e73; stroke-opacity: 0.999; stroke-width: 1.2"/>
    <path d="M 446.230068 321.542094 
L 442.046767 329.908694 
L 450.413368 329.908694 
L 446.230068 321.542094 
z
" clip-path="url(#p9bfc1eafd2)" style="fill: none; stroke: #029e73; stroke-opacity: 0.999; stroke-width: 1.2"/>
    <path d="M 575.129061 379.363741 
L 570.945761 387.730341 
L 579.312362 387.730341 
L 575.129061 379.363741 
z
" clip-path="url(#p9bfc1eafd2)" style="fill: none; stroke: #029e73; stroke-opacity: 0.999; stroke-width: 1.2"/>
    <path d="M 471.923354 330.298405 
L 467.740054 338.665005 
L 476.106654 338.665005 
L 471.923354 330.298405 
z
" clip-path="url(#p9bfc1eafd2)" style="fill: none; stroke: #029e73; stroke-opacity: 0.999; stroke-width: 1.2"/>
    <path d="M 441.965557 301.105753 
L 437.782257 309.472353 
L 446.148857 309.472353 
L 441.965557 301.105753 
z
" clip-path="url(#p9bfc1eafd2)" style="fill: none; stroke: #029e73; stroke-opacity: 0.999; stroke-width: 1.2"/>
    <path d="M 564.379477 366.064219 
L 560.196177 374.43082 
L 568.562777 374.43082 
L 564.379477 366.064219 
z
" clip-path="url(#p9bfc1eafd2)" style="fill: none; stroke: #029e73; stroke-opacity: 0.999; stroke-width: 1.2"/>
    <path d="M 452.665824 298.692487 
L 448.482524 307.059087 
L 456.849124 307.059087 
L 452.665824 298.692487 
z
" clip-path="url(#p9bfc1eafd2)" style="fill: none; stroke: #029e73; stroke-opacity: 0.999; stroke-width: 1.2"/>
    <path d="M 532.135964 358.575124 
L 527.952664 366.941724 
L 536.319264 366.941724 
L 532.135964 358.575124 
z
" clip-path="url(#p9bfc1eafd2)" style="fill: none; stroke: #029e73; stroke-opacity: 0.999; stroke-width: 1.2"/>
    <path d="M 506.103209 351.518426 
L 501.919909 359.885026 
L 510.286509 359.885026 
L 506.103209 351.518426 
z
" clip-path="url(#p9bfc1eafd2)" style="fill: none; stroke: #029e73; stroke-opacity: 0.999; stroke-width: 1.2"/>
    <path d="M 483.557965 346.003315 
L 479.374665 354.369915 
L 487.741265 354.369915 
L 483.557965 346.003315 
z
" clip-path="url(#p9bfc1eafd2)" style="fill: none; stroke: #029e73; stroke-opacity: 0.999; stroke-width: 1.2"/>
    <path d="M 488.163014 310.916021 
L 483.979714 319.282621 
L 492.346314 319.282621 
L 488.163014 310.916021 
z
" clip-path="url(#p9bfc1eafd2)" style="fill: none; stroke: #029e73; stroke-opacity: 0.999; stroke-width: 1.2"/>
    <path d="M 555.211652 373.474477 
L 551.028352 381.841077 
L 559.394952 381.841077 
L 555.211652 373.474477 
z
" clip-path="url(#p9bfc1eafd2)" style="fill: none; stroke: #029e73; stroke-opacity: 0.999; stroke-width: 1.2"/>
    <path d="M 439.340387 316.113288 
L 435.157087 324.479888 
L 443.523687 324.479888 
L 439.340387 316.113288 
z
" clip-path="url(#p9bfc1eafd2)" style="fill: none; stroke: #029e73; stroke-opacity: 0.999; stroke-width: 1.2"/>
    <path d="M 445.703989 302.223625 
L 441.520689 310.590225 
L 449.887289 310.590225 
L 445.703989 302.223625 
z
" clip-path="url(#p9bfc1eafd2)" style="fill: none; stroke: #029e73; stroke-opacity: 0.999; stroke-width: 1.2"/>
    <path d="M 567.166825 386.781006 
L 562.983525 395.147606 
L 571.350125 395.147606 
L 567.166825 386.781006 
z
" clip-path="url(#p9bfc1eafd2)" style="fill: none; stroke: #029e73; stroke-opacity: 0.999; stroke-width: 1.2"/>
    <path d="M 448.141164 289.532819 
L 443.957864 297.89942 
L 452.324464 297.89942 
L 448.141164 289.532819 
z
" clip-path="url(#p9bfc1eafd2)" style="fill: none; stroke: #029e73; stroke-opacity: 0.999; stroke-width: 1.2"/>
    <path d="M 572.485089 387.143831 
L 568.301789 395.510431 
L 576.668389 395.510431 
L 572.485089 387.143831 
z
" clip-path="url(#p9bfc1eafd2)" style="fill: none; stroke: #029e73; stroke-opacity: 0.999; stroke-width: 1.2"/>
    <path d="M 459.786825 314.624115 
L 455.603525 322.990715 
L 463.970125 322.990715 
L 459.786825 314.624115 
z
" clip-path="url(#p9bfc1eafd2)" style="fill: none; stroke: #029e73; stroke-opacity: 0.999; stroke-width: 1.2"/>
    <path d="M 482.281262 318.362069 
L 478.097961 326.728669 
L 486.464562 326.728669 
L 482.281262 318.362069 
z
" clip-path="url(#p9bfc1eafd2)" style="fill: none; stroke: #029e73; stroke-opacity: 0.999; stroke-width: 1.2"/>
    <path d="M 538.865485 377.791361 
L 534.682185 386.157961 
L 543.048785 386.157961 
L 538.865485 377.791361 
z
" clip-path="url(#p9bfc1eafd2)" style="fill: none; stroke: #029e73; stroke-opacity: 0.999; stroke-width: 1.2"/>
    <path d="M 440.336724 316.647725 
L 436.153424 325.014326 
L 444.520024 325.014326 
L 440.336724 316.647725 
z
" clip-path="url(#p9bfc1eafd2)" style="fill: none; stroke: #029e73; stroke-opacity: 0.999; stroke-width: 1.2"/>
    <path d="M 479.242256 324.016821 
L 475.058956 332.383421 
L 483.425556 332.383421 
L 479.242256 324.016821 
z
" clip-path="url(#p9bfc1eafd2)" style="fill: none; stroke: #029e73; stroke-opacity: 0.999; stroke-width: 1.2"/>
    <path d="M 528.223056 356.80385 
L 524.039755 365.17045 
L 532.406356 365.17045 
L 528.223056 356.80385 
z
" clip-path="url(#p9bfc1eafd2)" style="fill: none; stroke: #029e73; stroke-opacity: 0.999; stroke-width: 1.2"/>
    <path d="M 540.777108 358.931483 
L 536.593808 367.298084 
L 544.960408 367.298084 
L 540.777108 358.931483 
z
" clip-path="url(#p9bfc1eafd2)" style="fill: none; stroke: #029e73; stroke-opacity: 0.999; stroke-width: 1.2"/>
    <path d="M 487.317262 338.76505 
L 483.133962 347.13165 
L 491.500562 347.13165 
L 487.317262 338.76505 
z
" clip-path="url(#p9bfc1eafd2)" style="fill: none; stroke: #029e73; stroke-opacity: 0.999; stroke-width: 1.2"/>
   </g>
   <g id="patch_3">
    <path d="M 53.791875 450.72 
L 53.791875 7.2 
" style="fill: none; stroke: #262626; stroke-width: 1.25; stroke-linejoin: miter; stroke-linecap: square"/>
   </g>
   <g id="patch_4">
    <path d="M 611.791875 450.72 
L 611.791875 7.2 
" style="fill: none; stroke: #262626; stroke-width: 1.25; stroke-linejoin: miter; stroke-linecap: square"/>
   </g>
   <g id="patch_5">
    <path d="M 53.791875 450.72 
L 611.791875 450.72 
" style="fill: none; stroke: #262626; stroke-width: 1.25; stroke-linejoin: miter; stroke-linecap: square"/>
   </g>
   <g id="patch_6">
    <path d="M 53.791875 7.2 
L 611.791875 7.2 
" style="fill: none; stroke: #262626; stroke-width: 1.25; stroke-linejoin: miter; stroke-linecap: square"/>
   </g>
   <g id="legend_1">
    <g id="patch_7">
     <path d="M 212.911875 114.375 
L 599.791875 114.375 
L 599.791875 19.2 
L 212.911875 19.2 
z
" style="fill: #ffffff; opacity: 0.8; stroke: #000000; stroke-linejoin: miter"/>
    </g>
    <g id="line2d_14">
     <defs>
      <path id="m7e193f742b" d="M 0 4 
C 1.060812 4 2.078319 3.578535 2.828427 2.828427 
C 3.578535 2.078319 4 1.060812 4 0 
C 4 -1.060812 3.578535 -2.078319 2.828427 -2.828427 
C 2.078319 -3.578535 1.060812 -4 0 -4 
C -1.060812 -4 -2.078319 -3.578535 -2.828427 -2.828427 
C -3.578535 -2.078319 -4 -1.060812 -4 0 
C -4 1.060812 -3.578535 2.078319 -2.828427 2.828427 
C -2.078319 3.578535 -1.060812 4 0 4 
z
" style="stroke: #000000; stroke-opacity: 0.9; stroke-width: 0.3"/>
     </defs>
     <g>
      <use xlink:href="#m7e193f742b" x="246.511875" y="39.43125" style="fill: #0173b2; fill-opacity: 0.9; stroke: #000000; stroke-opacity: 0.9; stroke-width: 0.3"/>
     </g>
    </g>
    <g id="text_16">
     <!-- 源域：消极 -->
     <g style="fill: #262626" transform="translate(270.751875 47.83125) scale(0.24 -0.24)">
      <defs>
       <path id="SimSun-6e90" d="M 3575 3525 
L 3575 2800 
L 5225 2800 
L 5225 3525 
L 3575 3525 
z
M 3575 2650 
L 3575 1900 
L 5225 1900 
L 5225 2650 
L 3575 2650 
z
M 3375 1325 
L 3825 975 
Q 3550 850 3250 500 
Q 2925 150 2275 -325 
L 2225 -250 
Q 3125 625 3375 1325 
z
M 4800 1150 
L 4850 1225 
Q 5675 700 5812 525 
Q 5950 350 5950 200 
Q 5950 75 5875 -87 
Q 5800 -250 5750 -250 
Q 5675 -250 5550 50 
Q 5375 475 4800 1150 
z
M 3225 1475 
Q 3250 2125 3250 2700 
Q 3250 3275 3225 3875 
L 3575 3675 
L 3925 3675 
Q 4175 4250 4225 4550 
L 2700 4550 
Q 2700 3525 2687 2575 
Q 2675 1625 2325 875 
Q 1975 125 1275 -550 
L 1225 -475 
Q 1850 300 2100 1112 
Q 2350 1925 2350 3112 
Q 2350 4300 2325 4950 
L 2700 4700 
L 5300 4700 
L 5650 5050 
L 6125 4550 
L 4350 4550 
L 4750 4325 
Q 4550 4250 4437 4137 
Q 4325 4025 4075 3675 
L 5200 3675 
L 5375 3925 
L 5750 3600 
L 5550 3425 
Q 5550 1875 5575 1675 
L 5225 1500 
L 5225 1750 
L 4575 1750 
L 4575 100 
Q 4600 -400 4050 -550 
Q 4025 -200 3450 -75 
L 3450 25 
Q 3775 0 4000 -12 
Q 4225 -25 4225 175 
L 4225 1750 
L 3575 1750 
L 3575 1625 
L 3225 1475 
z
M 2150 4250 
Q 1375 1525 1312 1200 
Q 1250 875 1237 425 
Q 1225 -25 1250 -200 
Q 1250 -300 1150 -300 
Q 1075 -300 912 -237 
Q 750 -175 750 25 
Q 750 200 800 375 
Q 875 625 875 775 
Q 875 925 762 1025 
Q 650 1125 275 1225 
L 275 1325 
Q 725 1275 837 1287 
Q 950 1300 1087 1512 
Q 1225 1725 2050 4275 
L 2150 4250 
z
M 275 3575 
Q 1150 3175 1150 2925 
Q 1150 2675 1050 2562 
Q 950 2450 900 2450 
Q 825 2450 750 2700 
Q 625 3025 225 3500 
L 275 3575 
z
M 825 5025 
Q 1550 4725 1625 4512 
Q 1700 4300 1587 4137 
Q 1475 3975 1425 3975 
Q 1325 3975 1275 4175 
Q 1150 4500 775 4950 
L 825 5025 
z
" transform="scale(0.015625)"/>
       <path id="SimSun-57df" d="M 2500 1375 
Q 2525 1825 2525 2350 
Q 2525 2875 2500 3275 
L 2825 3075 
L 3425 3075 
L 3600 3300 
L 3950 3000 
L 3750 2850 
L 3750 2075 
Q 3750 1925 3775 1600 
L 3450 1450 
L 3450 1700 
L 2825 1700 
L 2825 1500 
L 2500 1375 
z
M 2825 2925 
L 2825 1850 
L 3450 1850 
L 3450 2925 
L 2825 2925 
z
M 1850 625 
Q 2275 625 3975 1075 
L 4000 975 
Q 2325 425 2100 175 
L 1850 625 
z
M 4125 4625 
Q 4125 4900 4100 5250 
L 4625 4950 
L 4450 4775 
L 4450 3925 
L 5325 3925 
L 5650 4250 
L 6125 3775 
L 4450 3775 
Q 4450 2575 4650 1525 
Q 4825 1850 5012 2400 
Q 5200 2950 5250 3275 
L 5725 2875 
Q 5550 2800 5325 2200 
Q 5075 1600 4825 1100 
Q 5125 525 5675 125 
Q 5800 525 5975 1200 
L 6075 1175 
Q 6000 600 5987 212 
Q 5975 -175 6050 -425 
Q 6075 -525 6000 -525 
Q 5900 -525 5512 -300 
Q 5125 -75 4575 800 
Q 3750 -175 2700 -625 
L 2650 -550 
Q 3825 200 4400 1125 
Q 4125 2200 4125 3775 
L 2875 3775 
Q 2550 3775 2275 3700 
L 2050 3925 
L 4125 3925 
L 4125 4625 
z
M 4800 5050 
L 4850 5125 
Q 5375 4925 5525 4800 
Q 5675 4675 5675 4550 
Q 5675 4450 5612 4325 
Q 5550 4200 5525 4200 
Q 5450 4200 5375 4375 
Q 5225 4650 4800 5050 
z
M 275 3350 
L 1200 3350 
L 1200 4275 
Q 1200 4575 1175 5125 
L 1750 4850 
L 1550 4675 
L 1550 3350 
L 1725 3350 
L 2000 3625 
L 2425 3200 
L 1550 3200 
L 1550 1250 
L 2350 1450 
L 2375 1350 
Q 675 725 550 500 
L 275 975 
Q 700 1050 1200 1175 
L 1200 3200 
L 1100 3200 
Q 775 3200 500 3125 
L 275 3350 
z
" transform="scale(0.015625)"/>
       <path id="SimSun-ff1a" d="M 1550 675 
Q 1700 575 1687 337 
Q 1675 100 1500 0 
Q 1325 -100 1250 -100 
Q 1175 -100 1000 0 
Q 825 100 812 350 
Q 800 600 962 687 
Q 1125 775 1250 775 
Q 1400 775 1550 675 
z
M 1550 2187 
Q 1725 2100 1725 1837 
Q 1725 1575 1525 1487 
Q 1325 1400 1250 1400 
Q 1125 1400 962 1512 
Q 800 1625 812 1862 
Q 825 2100 1000 2187 
Q 1175 2275 1275 2275 
Q 1375 2275 1550 2187 
z
" transform="scale(0.015625)"/>
       <path id="SimSun-6d88" d="M 3900 3350 
Q 3900 4900 3875 5225 
L 4450 4950 
L 4250 4800 
L 4250 3350 
L 5050 3350 
L 5250 3600 
L 5650 3275 
L 5450 3100 
L 5450 125 
Q 5450 -400 4900 -600 
Q 4850 -200 4100 -75 
L 4100 25 
Q 4625 0 4875 -25 
Q 5100 -25 5100 250 
L 5100 1250 
L 3050 1250 
L 3050 -400 
L 2675 -575 
Q 2700 125 2700 1650 
Q 2700 3175 2675 3575 
L 3050 3350 
L 3900 3350 
z
M 2525 4850 
Q 3200 4500 3312 4337 
Q 3425 4175 3425 4075 
Q 3425 3950 3337 3800 
Q 3250 3650 3200 3650 
Q 3125 3650 3050 3875 
Q 2925 4225 2475 4800 
L 2525 4850 
z
M 5325 4950 
L 5775 4575 
Q 5600 4550 5300 4225 
Q 4975 3900 4575 3550 
L 4500 3600 
Q 5175 4525 5325 4950 
z
M 3050 2250 
L 3050 1400 
L 5100 1400 
L 5100 2250 
L 3050 2250 
z
M 3050 3200 
L 3050 2400 
L 5100 2400 
L 5100 3200 
L 3050 3200 
z
M 2525 4000 
Q 1675 1400 1600 1075 
Q 1525 750 1525 300 
Q 1525 -150 1550 -375 
Q 1550 -500 1450 -500 
Q 1400 -500 1237 -412 
Q 1075 -325 1075 -125 
Q 1075 50 1125 225 
Q 1175 425 1175 600 
Q 1175 800 1050 900 
Q 925 1000 450 1100 
L 450 1200 
Q 1000 1150 1100 1162 
Q 1200 1175 1350 1387 
Q 1500 1600 2425 4025 
L 2525 4000 
z
M 425 3550 
Q 1275 3175 1287 2925 
Q 1300 2675 1225 2562 
Q 1150 2450 1100 2450 
Q 1000 2450 925 2675 
Q 775 3000 375 3475 
L 425 3550 
z
M 1025 4950 
Q 1725 4625 1787 4475 
Q 1850 4325 1850 4250 
Q 1850 4125 1750 3987 
Q 1650 3850 1625 3850 
Q 1550 3850 1475 4075 
Q 1350 4425 975 4875 
L 1025 4950 
z
" transform="scale(0.015625)"/>
       <path id="SimSun-6781" d="M 5325 4475 
L 4600 2950 
L 5275 2950 
L 5525 3200 
L 5925 2825 
L 5675 2700 
Q 5300 1600 4700 825 
Q 5375 125 6125 -25 
L 6125 -125 
Q 5700 -175 5625 -425 
Q 5025 -100 4475 575 
Q 3625 -200 2675 -550 
L 2625 -475 
Q 3575 25 4275 825 
Q 3625 1750 3475 2850 
Q 3425 600 2000 -525 
L 1950 -450 
Q 2525 200 2775 837 
Q 3025 1475 3100 2125 
Q 3175 2775 3175 4575 
L 2875 4575 
L 2650 4525 
L 2450 4725 
L 4925 4725 
L 5150 4975 
L 5550 4650 
L 5325 4475 
z
M 3525 4575 
Q 3500 3575 3500 3075 
Q 3775 1975 4475 1075 
Q 4925 1650 5325 2800 
L 4550 2800 
L 4350 2575 
L 4000 2925 
Q 4250 3000 4462 3450 
Q 4675 3900 4950 4575 
L 3525 4575 
z
M 1725 2825 
Q 1725 0 1750 -450 
L 1350 -625 
Q 1375 575 1375 2525 
Q 1025 1550 425 800 
L 350 850 
Q 1025 2075 1350 3600 
L 750 3600 
L 525 3550 
L 325 3750 
L 1375 3750 
Q 1375 4650 1350 5250 
L 1925 4975 
L 1725 4800 
L 1725 3750 
L 2025 3750 
L 2325 4050 
L 2775 3600 
L 1725 3600 
L 1725 2950 
Q 2375 2650 2500 2487 
Q 2625 2325 2625 2200 
Q 2625 2075 2550 1937 
Q 2475 1800 2425 1800 
Q 2350 1800 2250 2050 
Q 2100 2425 1725 2825 
z
" transform="scale(0.015625)"/>
      </defs>
      <use xlink:href="#SimSun-6e90"/>
      <use xlink:href="#SimSun-57df" x="100"/>
      <use xlink:href="#SimSun-ff1a" x="200"/>
      <use xlink:href="#SimSun-6d88" x="300"/>
      <use xlink:href="#SimSun-6781" x="400"/>
     </g>
    </g>
    <g id="line2d_15">
     <defs>
      <path id="m8ba73a4546" d="M 0 4 
C 1.060812 4 2.078319 3.578535 2.828427 2.828427 
C 3.578535 2.078319 4 1.060812 4 0 
C 4 -1.060812 3.578535 -2.078319 2.828427 -2.828427 
C 2.078319 -3.578535 1.060812 -4 0 -4 
C -1.060812 -4 -2.078319 -3.578535 -2.828427 -2.828427 
C -3.578535 -2.078319 -4 -1.060812 -4 0 
C -4 1.060812 -3.578535 2.078319 -2.828427 2.828427 
C -2.078319 3.578535 -1.060812 4 0 4 
z
" style="stroke: #000000; stroke-opacity: 0.9; stroke-width: 0.3"/>
     </defs>
     <g>
      <use xlink:href="#m8ba73a4546" x="246.511875" y="66.2625" style="fill: #de8f05; fill-opacity: 0.9; stroke: #000000; stroke-opacity: 0.9; stroke-width: 0.3"/>
     </g>
    </g>
    <g id="text_17">
     <!-- 源域：中性 -->
     <g style="fill: #262626" transform="translate(270.751875 74.6625) scale(0.24 -0.24)">
      <defs>
       <path id="SimSun-4e2d" d="M 3325 3625 
L 3325 1975 
L 5125 1975 
L 5125 3625 
L 3325 3625 
z
M 2950 3775 
Q 2950 4750 2925 5250 
L 3525 4975 
L 3325 4775 
L 3325 3775 
L 5075 3775 
L 5275 4075 
L 5700 3750 
L 5475 3550 
L 5475 2100 
Q 5475 1825 5500 1525 
L 5125 1375 
L 5125 1825 
L 3325 1825 
Q 3325 -75 3350 -400 
L 2925 -625 
Q 2950 -50 2950 1825 
L 1225 1825 
L 1225 1525 
L 850 1325 
Q 875 1775 875 2625 
Q 875 3475 850 4000 
L 1225 3775 
L 2950 3775 
z
M 1225 3625 
L 1225 1975 
L 2950 1975 
L 2950 3625 
L 1225 3625 
z
" transform="scale(0.015625)"/>
       <path id="SimSun-6027" d="M 3975 3450 
Q 3975 4800 3950 5200 
L 4575 4925 
L 4325 4750 
L 4325 3450 
L 5050 3450 
L 5400 3800 
L 5900 3300 
L 4325 3300 
L 4325 1925 
L 4975 1925 
L 5300 2250 
L 5775 1775 
L 4325 1775 
L 4325 25 
L 5300 25 
L 5650 375 
L 6150 -125 
L 2875 -125 
Q 2550 -125 2275 -200 
L 2050 25 
L 3975 25 
L 3975 1775 
L 3450 1775 
Q 3125 1775 2850 1700 
L 2625 1925 
L 3975 1925 
L 3975 3300 
L 2950 3300 
Q 2625 2500 2225 2000 
L 2150 2050 
Q 2450 2650 2650 3387 
Q 2850 4125 2900 4600 
L 3475 4325 
L 3250 4175 
L 3000 3450 
L 3975 3450 
z
M 875 3625 
Q 950 2875 900 2687 
Q 850 2500 737 2437 
Q 625 2375 550 2375 
Q 500 2375 412 2412 
Q 325 2450 325 2475 
Q 325 2575 500 2775 
Q 725 3050 775 3625 
L 875 3625 
z
M 1575 3950 
Q 1975 3800 2150 3675 
Q 2325 3550 2300 3350 
Q 2275 3150 2175 3075 
Q 2075 3000 1975 3275 
Q 1850 3550 1575 3825 
L 1575 500 
Q 1575 75 1600 -425 
L 1200 -600 
Q 1225 125 1225 700 
L 1225 4225 
Q 1225 4650 1200 5250 
L 1800 4975 
L 1575 4800 
L 1575 3950 
z
" transform="scale(0.015625)"/>
      </defs>
      <use xlink:href="#SimSun-6e90"/>
      <use xlink:href="#SimSun-57df" x="100"/>
      <use xlink:href="#SimSun-ff1a" x="200"/>
      <use xlink:href="#SimSun-4e2d" x="300"/>
      <use xlink:href="#SimSun-6027" x="400"/>
     </g>
    </g>
    <g id="line2d_16">
     <defs>
      <path id="m3cdf31ef79" d="M 0 4 
C 1.060812 4 2.078319 3.578535 2.828427 2.828427 
C 3.578535 2.078319 4 1.060812 4 0 
C 4 -1.060812 3.578535 -2.078319 2.828427 -2.828427 
C 2.078319 -3.578535 1.060812 -4 0 -4 
C -1.060812 -4 -2.078319 -3.578535 -2.828427 -2.828427 
C -3.578535 -2.078319 -4 -1.060812 -4 0 
C -4 1.060812 -3.578535 2.078319 -2.828427 2.828427 
C -2.078319 3.578535 -1.060812 4 0 4 
z
" style="stroke: #000000; stroke-opacity: 0.9; stroke-width: 0.3"/>
     </defs>
     <g>
      <use xlink:href="#m3cdf31ef79" x="246.511875" y="93.09375" style="fill: #029e73; fill-opacity: 0.9; stroke: #000000; stroke-opacity: 0.9; stroke-width: 0.3"/>
     </g>
    </g>
    <g id="text_18">
     <!-- 源域：积极 -->
     <g style="fill: #262626" transform="translate(270.751875 101.49375) scale(0.24 -0.24)">
      <defs>
       <path id="SimSun-79ef" d="M 3125 1750 
Q 3150 2475 3150 3225 
Q 3150 3975 3125 4725 
L 3500 4525 
L 5225 4525 
L 5475 4775 
L 5850 4400 
L 5600 4250 
Q 5600 2300 5625 1975 
L 5275 1850 
L 5275 2175 
L 3475 2175 
L 3475 1875 
L 3125 1750 
z
M 3475 4375 
L 3475 2325 
L 5275 2325 
L 5275 4375 
L 3475 4375 
z
M 3825 1700 
L 4300 1300 
L 4075 1225 
Q 3125 -75 2200 -550 
L 2175 -450 
Q 2800 50 3225 625 
Q 3650 1200 3825 1700 
z
M 4700 1600 
Q 5725 650 5850 362 
Q 5975 75 5975 -75 
Q 5975 -225 5900 -337 
Q 5825 -450 5775 -450 
Q 5725 -450 5650 -250 
Q 5525 75 5350 450 
Q 5175 825 4650 1525 
L 4700 1600 
z
M 1875 2575 
Q 1875 225 1900 -400 
L 1525 -625 
Q 1550 125 1550 2350 
Q 1025 1275 300 625 
L 250 700 
Q 625 1200 962 1862 
Q 1300 2525 1500 3200 
L 1125 3200 
Q 800 3200 525 3125 
L 300 3350 
L 1550 3350 
L 1550 4475 
Q 900 4375 525 4350 
L 525 4450 
Q 1075 4550 1525 4712 
Q 1975 4875 2375 5150 
L 2725 4700 
Q 2425 4700 1875 4550 
L 1875 3350 
L 2250 3350 
L 2550 3650 
L 2975 3200 
L 1875 3200 
L 1875 2675 
Q 2475 2400 2612 2212 
Q 2750 2025 2750 1925 
Q 2750 1800 2662 1675 
Q 2575 1550 2550 1550 
Q 2450 1550 2375 1800 
Q 2250 2175 1875 2575 
z
" transform="scale(0.015625)"/>
      </defs>
      <use xlink:href="#SimSun-6e90"/>
      <use xlink:href="#SimSun-57df" x="100"/>
      <use xlink:href="#SimSun-ff1a" x="200"/>
      <use xlink:href="#SimSun-79ef" x="300"/>
      <use xlink:href="#SimSun-6781" x="400"/>
     </g>
    </g>
    <g id="line2d_17">
     <defs>
      <path id="m257771ced2" d="M 0 -5 
L -5 5 
L 5 5 
z
" style="stroke: #0173b2; stroke-opacity: 0.9; stroke-width: 1.2; stroke-linejoin: miter"/>
     </defs>
     <g>
      <use xlink:href="#m257771ced2" x="421.951875" y="39.43125" style="fill-opacity: 0; stroke: #0173b2; stroke-opacity: 0.9; stroke-width: 1.2; stroke-linejoin: miter"/>
     </g>
    </g>
    <g id="text_19">
     <!-- 目标域：消极 -->
     <g style="fill: #262626" transform="translate(446.191875 47.83125) scale(0.24 -0.24)">
      <defs>
       <path id="SimSun-76ee" d="M 1875 1700 
L 1875 325 
L 4550 325 
L 4550 1700 
L 1875 1700 
z
M 1475 -550 
Q 1500 350 1500 2087 
Q 1500 3825 1475 4950 
L 1875 4675 
L 4500 4675 
L 4700 4950 
L 5175 4600 
L 4925 4425 
L 4925 725 
Q 4925 -25 4950 -325 
L 4550 -525 
L 4550 175 
L 1875 175 
L 1875 -325 
L 1475 -550 
z
M 1875 4525 
L 1875 3250 
L 4550 3250 
L 4550 4525 
L 1875 4525 
z
M 1875 3100 
L 1875 1850 
L 4550 1850 
L 4550 3100 
L 1875 3100 
z
" transform="scale(0.015625)"/>
       <path id="SimSun-6807" d="M 4775 2225 
Q 5725 1275 5825 1050 
Q 5925 825 5925 700 
Q 5925 525 5825 375 
Q 5725 225 5700 225 
Q 5575 225 5475 650 
Q 5300 1225 4700 2175 
L 4775 2225 
z
M 2750 4600 
L 4975 4600 
L 5275 4900 
L 5725 4450 
L 3175 4450 
L 2950 4400 
L 2750 4600 
z
M 3100 75 
Q 3775 -50 3900 -25 
Q 4025 0 4025 175 
L 4025 2950 
L 2800 2950 
L 2575 2900 
L 2375 3100 
L 5350 3100 
L 5675 3425 
L 6150 2950 
L 4400 2950 
L 4400 -25 
Q 4375 -425 3850 -600 
Q 3850 -300 3100 -50 
L 3100 75 
z
M 3125 2275 
L 3675 1950 
L 3425 1825 
Q 2800 700 2100 25 
L 2025 100 
Q 2725 1025 3125 2275 
z
M 1675 2725 
Q 1675 25 1700 -475 
L 1300 -625 
Q 1325 450 1325 2325 
Q 950 1450 350 700 
L 275 800 
Q 975 1925 1325 3475 
L 700 3475 
L 475 3425 
L 275 3625 
L 1325 3625 
Q 1325 4575 1300 5275 
L 1900 4975 
L 1675 4800 
L 1675 3625 
L 2000 3625 
L 2275 3900 
L 2700 3475 
L 1675 3475 
L 1675 2850 
Q 2150 2600 2312 2425 
Q 2475 2250 2475 2125 
Q 2475 2050 2400 1912 
Q 2325 1775 2275 1775 
Q 2200 1775 2100 2075 
Q 1925 2475 1675 2725 
z
" transform="scale(0.015625)"/>
      </defs>
      <use xlink:href="#SimSun-76ee"/>
      <use xlink:href="#SimSun-6807" x="100"/>
      <use xlink:href="#SimSun-57df" x="200"/>
      <use xlink:href="#SimSun-ff1a" x="300"/>
      <use xlink:href="#SimSun-6d88" x="400"/>
      <use xlink:href="#SimSun-6781" x="500"/>
     </g>
    </g>
    <g id="line2d_18">
     <defs>
      <path id="m43d6f21bf2" d="M 0 -5 
L -5 5 
L 5 5 
z
" style="stroke: #de8f05; stroke-opacity: 0.9; stroke-width: 1.2; stroke-linejoin: miter"/>
     </defs>
     <g>
      <use xlink:href="#m43d6f21bf2" x="421.951875" y="66.35625" style="fill-opacity: 0; stroke: #de8f05; stroke-opacity: 0.9; stroke-width: 1.2; stroke-linejoin: miter"/>
     </g>
    </g>
    <g id="text_20">
     <!-- 目标域：中性 -->
     <g style="fill: #262626" transform="translate(446.191875 74.75625) scale(0.24 -0.24)">
      <use xlink:href="#SimSun-76ee"/>
      <use xlink:href="#SimSun-6807" x="100"/>
      <use xlink:href="#SimSun-57df" x="200"/>
      <use xlink:href="#SimSun-ff1a" x="300"/>
      <use xlink:href="#SimSun-4e2d" x="400"/>
      <use xlink:href="#SimSun-6027" x="500"/>
     </g>
    </g>
    <g id="line2d_19">
     <defs>
      <path id="mec04243bd2" d="M 0 -5 
L -5 5 
L 5 5 
z
" style="stroke: #029e73; stroke-opacity: 0.9; stroke-width: 1.2; stroke-linejoin: miter"/>
     </defs>
     <g>
      <use xlink:href="#mec04243bd2" x="421.951875" y="93.28125" style="fill-opacity: 0; stroke: #029e73; stroke-opacity: 0.9; stroke-width: 1.2; stroke-linejoin: miter"/>
     </g>
    </g>
    <g id="text_21">
     <!-- 目标域：积极 -->
     <g style="fill: #262626" transform="translate(446.191875 101.68125) scale(0.24 -0.24)">
      <use xlink:href="#SimSun-76ee"/>
      <use xlink:href="#SimSun-6807" x="100"/>
      <use xlink:href="#SimSun-57df" x="200"/>
      <use xlink:href="#SimSun-ff1a" x="300"/>
      <use xlink:href="#SimSun-79ef" x="400"/>
      <use xlink:href="#SimSun-6781" x="500"/>
     </g>
    </g>
   </g>
  </g>
 </g>
 <defs>
  <clipPath id="p9bfc1eafd2">
   <rect x="53.791875" y="7.2" width="558" height="443.52"/>
  </clipPath>
 </defs>
</svg>
