<?xml version="1.0" encoding="utf-8" standalone="no"?>
<!DOCTYPE svg PUBLIC "-//W3C//DTD SVG 1.1//EN"
  "http://www.w3.org/Graphics/SVG/1.1/DTD/svg11.dtd">
<svg xmlns:xlink="http://www.w3.org/1999/xlink" width="618.991875pt" height="498.144375pt" viewBox="0 0 618.991875 498.144375" xmlns="http://www.w3.org/2000/svg" version="1.1">
 <metadata>
  <rdf:RDF xmlns:dc="http://purl.org/dc/elements/1.1/" xmlns:cc="http://creativecommons.org/ns#" xmlns:rdf="http://www.w3.org/1999/02/22-rdf-syntax-ns#">
   <cc:Work>
    <dc:type rdf:resource="http://purl.org/dc/dcmitype/StillImage"/>
    <dc:date>2025-12-02T16:26:19.144592</dc:date>
    <dc:format>image/svg+xml</dc:format>
    <dc:creator>
     <cc:Agent>
      <dc:title>Matplotlib v3.9.4, https://matplotlib.org/</dc:title>
     </cc:Agent>
    </dc:creator>
   </cc:Work>
  </rdf:RDF>
 </metadata>
 <defs>
  <style type="text/css">*{stroke-linejoin: round; stroke-linecap: butt}</style>
 </defs>
 <g id="figure_1">
  <g id="patch_1">
   <path d="M 0 498.144375 
L 618.991875 498.144375 
L 618.991875 0 
L 0 0 
z
" style="fill: #ffffff"/>
  </g>
  <g id="axes_1">
   <g id="patch_2">
    <path d="M 53.791875 450.72 
L 611.791875 450.72 
L 611.791875 7.2 
L 53.791875 7.2 
z
" style="fill: #ffffff"/>
   </g>
   <g id="matplotlib.axis_1">
    <g id="xtick_1">
     <g id="line2d_1">
      <path d="M 90.170527 450.72 
L 90.170527 7.2 
" clip-path="url(#p6ca3fbf691)" style="fill: none; stroke-dasharray: 0.5,0.825; stroke-dashoffset: 0; stroke: #cccccc; stroke-opacity: 0.3; stroke-width: 0.5"/>
     </g>
     <g id="text_1">
      <!-- -15 -->
      <g style="fill: #262626" transform="translate(81.49959 462.809375) scale(0.12 -0.12)">
       <defs>
        <path id="ArialMT-2d" d="M 203 1375 
L 203 1941 
L 1931 1941 
L 1931 1375 
L 203 1375 
z
" transform="scale(0.015625)"/>
        <path id="ArialMT-31" d="M 2384 0 
L 1822 0 
L 1822 3584 
Q 1619 3391 1289 3197 
Q 959 3003 697 2906 
L 697 3450 
Q 1169 3672 1522 3987 
Q 1875 4303 2022 4600 
L 2384 4600 
L 2384 0 
z
" transform="scale(0.015625)"/>
        <path id="ArialMT-35" d="M 266 1200 
L 856 1250 
Q 922 819 1161 601 
Q 1400 384 1738 384 
Q 2144 384 2425 690 
Q 2706 997 2706 1503 
Q 2706 1984 2436 2262 
Q 2166 2541 1728 2541 
Q 1456 2541 1237 2417 
Q 1019 2294 894 2097 
L 366 2166 
L 809 4519 
L 3088 4519 
L 3088 3981 
L 1259 3981 
L 1013 2750 
Q 1425 3038 1878 3038 
Q 2478 3038 2890 2622 
Q 3303 2206 3303 1553 
Q 3303 931 2941 478 
Q 2500 -78 1738 -78 
Q 1113 -78 717 272 
Q 322 622 266 1200 
z
" transform="scale(0.015625)"/>
       </defs>
       <use xlink:href="#ArialMT-2d"/>
       <use xlink:href="#ArialMT-31" x="33.300781"/>
       <use xlink:href="#ArialMT-35" x="88.916016"/>
      </g>
     </g>
    </g>
    <g id="xtick_2">
     <g id="line2d_2">
      <path d="M 174.246733 450.72 
L 174.246733 7.2 
" clip-path="url(#p6ca3fbf691)" style="fill: none; stroke-dasharray: 0.5,0.825; stroke-dashoffset: 0; stroke: #cccccc; stroke-opacity: 0.3; stroke-width: 0.5"/>
     </g>
     <g id="text_2">
      <!-- -10 -->
      <g style="fill: #262626" transform="translate(165.575796 462.809375) scale(0.12 -0.12)">
       <defs>
        <path id="ArialMT-30" d="M 266 2259 
Q 266 3072 433 3567 
Q 600 4063 929 4331 
Q 1259 4600 1759 4600 
Q 2128 4600 2406 4451 
Q 2684 4303 2865 4023 
Q 3047 3744 3150 3342 
Q 3253 2941 3253 2259 
Q 3253 1453 3087 958 
Q 2922 463 2592 192 
Q 2263 -78 1759 -78 
Q 1097 -78 719 397 
Q 266 969 266 2259 
z
M 844 2259 
Q 844 1131 1108 757 
Q 1372 384 1759 384 
Q 2147 384 2411 759 
Q 2675 1134 2675 2259 
Q 2675 3391 2411 3762 
Q 2147 4134 1753 4134 
Q 1366 4134 1134 3806 
Q 844 3388 844 2259 
z
" transform="scale(0.015625)"/>
       </defs>
       <use xlink:href="#ArialMT-2d"/>
       <use xlink:href="#ArialMT-31" x="33.300781"/>
       <use xlink:href="#ArialMT-30" x="88.916016"/>
      </g>
     </g>
    </g>
    <g id="xtick_3">
     <g id="line2d_3">
      <path d="M 258.322939 450.72 
L 258.322939 7.2 
" clip-path="url(#p6ca3fbf691)" style="fill: none; stroke-dasharray: 0.5,0.825; stroke-dashoffset: 0; stroke: #cccccc; stroke-opacity: 0.3; stroke-width: 0.5"/>
     </g>
     <g id="text_3">
      <!-- -5 -->
      <g style="fill: #262626" transform="translate(252.988564 462.809375) scale(0.12 -0.12)">
       <use xlink:href="#ArialMT-2d"/>
       <use xlink:href="#ArialMT-35" x="33.300781"/>
      </g>
     </g>
    </g>
    <g id="xtick_4">
     <g id="line2d_4">
      <path d="M 342.399144 450.72 
L 342.399144 7.2 
" clip-path="url(#p6ca3fbf691)" style="fill: none; stroke-dasharray: 0.5,0.825; stroke-dashoffset: 0; stroke: #cccccc; stroke-opacity: 0.3; stroke-width: 0.5"/>
     </g>
     <g id="text_4">
      <!-- 0 -->
      <g style="fill: #262626" transform="translate(339.062582 462.809375) scale(0.12 -0.12)">
       <use xlink:href="#ArialMT-30"/>
      </g>
     </g>
    </g>
    <g id="xtick_5">
     <g id="line2d_5">
      <path d="M 426.47535 450.72 
L 426.47535 7.2 
" clip-path="url(#p6ca3fbf691)" style="fill: none; stroke-dasharray: 0.5,0.825; stroke-dashoffset: 0; stroke: #cccccc; stroke-opacity: 0.3; stroke-width: 0.5"/>
     </g>
     <g id="text_5">
      <!-- 5 -->
      <g style="fill: #262626" transform="translate(423.138788 462.809375) scale(0.12 -0.12)">
       <use xlink:href="#ArialMT-35"/>
      </g>
     </g>
    </g>
    <g id="xtick_6">
     <g id="line2d_6">
      <path d="M 510.551556 450.72 
L 510.551556 7.2 
" clip-path="url(#p6ca3fbf691)" style="fill: none; stroke-dasharray: 0.5,0.825; stroke-dashoffset: 0; stroke: #cccccc; stroke-opacity: 0.3; stroke-width: 0.5"/>
     </g>
     <g id="text_6">
      <!-- 10 -->
      <g style="fill: #262626" transform="translate(503.878431 462.809375) scale(0.12 -0.12)">
       <use xlink:href="#ArialMT-31"/>
       <use xlink:href="#ArialMT-30" x="55.615234"/>
      </g>
     </g>
    </g>
    <g id="xtick_7">
     <g id="line2d_7">
      <path d="M 594.627761 450.72 
L 594.627761 7.2 
" clip-path="url(#p6ca3fbf691)" style="fill: none; stroke-dasharray: 0.5,0.825; stroke-dashoffset: 0; stroke: #cccccc; stroke-opacity: 0.3; stroke-width: 0.5"/>
     </g>
     <g id="text_7">
      <!-- 15 -->
      <g style="fill: #262626" transform="translate(587.954636 462.809375) scale(0.12 -0.12)">
       <use xlink:href="#ArialMT-31"/>
       <use xlink:href="#ArialMT-35" x="55.615234"/>
      </g>
     </g>
    </g>
    <g id="text_8">
     <!-- t-SNE 成分 1 -->
     <g style="fill: #262626" transform="translate(260.791875 487.850625) scale(0.24 -0.24)">
      <defs>
       <path id="SimSun-74" d="M 1500 900 
Q 1500 550 1625 425 
Q 1750 300 2000 300 
Q 2250 300 2400 462 
Q 2550 625 2600 925 
L 2725 875 
Q 2675 525 2462 300 
Q 2250 75 1900 75 
Q 1525 75 1337 300 
Q 1150 525 1150 1000 
L 1150 2750 
L 400 2750 
L 400 2900 
L 600 2900 
Q 900 2900 1087 3087 
Q 1275 3275 1325 3675 
L 1350 3875 
L 1500 3875 
L 1500 2900 
L 2500 2900 
L 2500 2750 
L 1500 2750 
L 1500 900 
z
" transform="scale(0.015625)"/>
       <path id="SimSun-2d" d="M 200 2225 
L 200 2450 
L 2975 2450 
L 2975 2225 
L 200 2225 
z
" transform="scale(0.015625)"/>
       <path id="SimSun-53" d="M 1500 2150 
Q 825 2450 575 2675 
Q 325 2900 325 3375 
Q 325 3750 637 4087 
Q 950 4425 1525 4425 
Q 1775 4425 2000 4350 
Q 2225 4250 2325 4250 
Q 2400 4250 2462 4287 
Q 2525 4325 2575 4425 
L 2675 3400 
L 2550 3350 
Q 2325 3875 2087 4062 
Q 1850 4250 1475 4250 
Q 1000 4250 825 3987 
Q 650 3725 650 3425 
Q 650 3150 812 2987 
Q 975 2825 1700 2500 
Q 2300 2250 2562 1937 
Q 2825 1625 2825 1200 
Q 2825 750 2512 400 
Q 2200 50 1600 50 
Q 1350 50 1150 150 
Q 925 225 800 225 
Q 725 225 650 175 
Q 575 125 475 50 
L 275 1275 
L 425 1325 
Q 600 700 912 462 
Q 1225 225 1625 225 
Q 2050 225 2262 475 
Q 2475 725 2475 1200 
Q 2475 1450 2237 1687 
Q 2000 1925 1500 2150 
z
" transform="scale(0.015625)"/>
       <path id="SimSun-4e" d="M 2525 1100 
L 2575 1100 
L 2575 4025 
Q 2575 4125 2525 4175 
Q 2475 4225 2350 4225 
L 2150 4225 
L 2150 4375 
L 3150 4375 
L 3150 4225 
L 2950 4225 
Q 2850 4225 2787 4175 
Q 2725 4125 2725 4025 
L 2725 100 
L 2575 100 
L 675 3825 
L 625 3825 
L 625 450 
Q 625 350 687 300 
Q 750 250 850 250 
L 1050 250 
L 1050 100 
L 50 100 
L 50 250 
L 250 250 
Q 375 250 425 300 
Q 475 350 475 450 
L 475 4025 
Q 475 4125 425 4175 
Q 375 4225 250 4225 
L 100 4225 
L 100 4375 
L 825 4375 
L 2525 1100 
z
" transform="scale(0.015625)"/>
       <path id="SimSun-45" d="M 200 4225 
L 200 4375 
L 2650 4375 
L 2925 3525 
L 2800 3475 
Q 2600 3850 2375 4037 
Q 2150 4225 1875 4225 
L 1175 4225 
Q 1075 4225 1012 4175 
Q 950 4125 950 4025 
L 950 2475 
L 1675 2475 
Q 1925 2475 2037 2600 
Q 2150 2725 2150 2975 
L 2150 3125 
L 2300 3125 
L 2300 1650 
L 2150 1650 
L 2150 1750 
Q 2150 2025 2037 2175 
Q 1925 2325 1675 2325 
L 950 2325 
L 950 450 
Q 950 350 1012 300 
Q 1075 250 1175 250 
L 1825 250 
Q 2200 250 2462 462 
Q 2725 675 2875 1125 
L 3000 1075 
L 2725 100 
L 175 100 
L 175 250 
L 325 250 
Q 450 250 500 300 
Q 550 350 550 450 
L 550 4025 
Q 550 4125 500 4175 
Q 450 4225 325 4225 
L 200 4225 
z
" transform="scale(0.015625)"/>
       <path id="SimSun-20" d="M 0 0 
Q 0 0 0 0 
z
" transform="scale(0.015625)"/>
       <path id="SimSun-6210" d="M 4325 5075 
Q 4850 4775 5025 4612 
Q 5200 4450 5162 4287 
Q 5125 4125 5025 4062 
Q 4925 4000 4900 4000 
Q 4800 4000 4750 4200 
Q 4675 4475 4250 5000 
L 4325 5075 
z
M 5625 100 
L 5925 1175 
L 6025 1150 
Q 5925 375 5925 125 
Q 5925 -125 6050 -350 
Q 6100 -450 6000 -450 
Q 5825 -450 5350 -275 
Q 4875 -100 4250 675 
Q 3475 -125 2550 -525 
L 2525 -425 
Q 3525 225 4050 950 
Q 3550 1875 3400 3650 
L 1425 3650 
L 1400 2450 
L 2550 2450 
L 2775 2700 
L 3150 2350 
L 2925 2175 
Q 2850 675 2725 437 
Q 2600 200 2250 50 
Q 2175 400 1575 625 
L 1575 725 
Q 2050 650 2237 625 
Q 2425 600 2475 837 
Q 2525 1075 2575 2300 
L 1400 2300 
Q 1325 225 350 -600 
L 300 -525 
Q 950 400 987 1462 
Q 1025 2525 1025 3075 
Q 1025 3625 1000 4025 
L 1450 3800 
L 3375 3800 
Q 3300 4625 3250 5150 
L 3900 4900 
L 3725 4700 
Q 3725 4300 3775 3800 
L 5150 3800 
L 5500 4150 
L 6000 3650 
L 3775 3650 
Q 3925 2000 4300 1325 
Q 4500 1625 4700 2100 
Q 4900 2575 5100 3175 
L 5625 2775 
L 5400 2650 
Q 4975 1625 4525 975 
Q 5050 350 5625 100 
z
" transform="scale(0.015625)"/>
       <path id="SimSun-5206" d="M 2350 5050 
L 2850 4675 
L 2625 4550 
Q 2200 3750 1687 3125 
Q 1175 2500 375 2025 
L 325 2100 
Q 975 2625 1475 3337 
Q 1975 4050 2350 5050 
z
M 4100 4975 
L 3900 4850 
Q 4175 3850 4800 3300 
Q 5425 2750 6125 2625 
L 6125 2550 
Q 5750 2500 5600 2225 
Q 4775 2675 4287 3425 
Q 3800 4175 3625 5175 
L 4100 4975 
z
M 1375 2625 
L 4225 2625 
L 4475 2875 
L 4825 2525 
L 4625 2375 
Q 4575 400 4375 -12 
Q 4175 -425 3675 -600 
Q 3600 -200 2975 -25 
L 2975 75 
Q 3600 -25 3787 -12 
Q 3975 0 4075 275 
Q 4175 550 4275 2475 
L 2975 2475 
Q 2825 1400 2375 662 
Q 1925 -75 650 -625 
L 600 -525 
Q 1725 50 2112 837 
Q 2500 1625 2575 2475 
L 1800 2475 
L 1575 2425 
L 1375 2625 
z
" transform="scale(0.015625)"/>
       <path id="SimSun-31" d="M 1825 4450 
L 1825 650 
Q 1825 450 1950 350 
Q 2075 250 2300 250 
L 2550 250 
L 2550 100 
L 725 100 
L 725 250 
L 950 250 
Q 1200 250 1312 350 
Q 1425 450 1425 650 
L 1425 3675 
Q 1425 3775 1362 3837 
Q 1300 3900 1175 3900 
L 725 3900 
L 725 4050 
L 950 4050 
Q 1250 4050 1437 4150 
Q 1625 4250 1725 4450 
L 1825 4450 
z
" transform="scale(0.015625)"/>
      </defs>
      <use xlink:href="#SimSun-74"/>
      <use xlink:href="#SimSun-2d" x="50"/>
      <use xlink:href="#SimSun-53" x="100"/>
      <use xlink:href="#SimSun-4e" x="150"/>
      <use xlink:href="#SimSun-45" x="200"/>
      <use xlink:href="#SimSun-20" x="250"/>
      <use xlink:href="#SimSun-6210" x="300"/>
      <use xlink:href="#SimSun-5206" x="400"/>
      <use xlink:href="#SimSun-20" x="500"/>
      <use xlink:href="#SimSun-31" x="550"/>
     </g>
    </g>
   </g>
   <g id="matplotlib.axis_2">
    <g id="ytick_1">
     <g id="line2d_8">
      <path d="M 53.791875 398.806723 
L 611.791875 398.806723 
" clip-path="url(#p6ca3fbf691)" style="fill: none; stroke-dasharray: 0.5,0.825; stroke-dashoffset: 0; stroke: #cccccc; stroke-opacity: 0.3; stroke-width: 0.5"/>
     </g>
     <g id="text_9">
      <!-- -10 -->
      <g style="fill: #262626" transform="translate(32.95 403.10141) scale(0.12 -0.12)">
       <use xlink:href="#ArialMT-2d"/>
       <use xlink:href="#ArialMT-31" x="33.300781"/>
       <use xlink:href="#ArialMT-30" x="88.916016"/>
      </g>
     </g>
    </g>
    <g id="ytick_2">
     <g id="line2d_9">
      <path d="M 53.791875 314.730517 
L 611.791875 314.730517 
" clip-path="url(#p6ca3fbf691)" style="fill: none; stroke-dasharray: 0.5,0.825; stroke-dashoffset: 0; stroke: #cccccc; stroke-opacity: 0.3; stroke-width: 0.5"/>
     </g>
     <g id="text_10">
      <!-- -5 -->
      <g style="fill: #262626" transform="translate(39.623125 319.025205) scale(0.12 -0.12)">
       <use xlink:href="#ArialMT-2d"/>
       <use xlink:href="#ArialMT-35" x="33.300781"/>
      </g>
     </g>
    </g>
    <g id="ytick_3">
     <g id="line2d_10">
      <path d="M 53.791875 230.654311 
L 611.791875 230.654311 
" clip-path="url(#p6ca3fbf691)" style="fill: none; stroke-dasharray: 0.5,0.825; stroke-dashoffset: 0; stroke: #cccccc; stroke-opacity: 0.3; stroke-width: 0.5"/>
     </g>
     <g id="text_11">
      <!-- 0 -->
      <g style="fill: #262626" transform="translate(43.61875 234.948999) scale(0.12 -0.12)">
       <use xlink:href="#ArialMT-30"/>
      </g>
     </g>
    </g>
    <g id="ytick_4">
     <g id="line2d_11">
      <path d="M 53.791875 146.578106 
L 611.791875 146.578106 
" clip-path="url(#p6ca3fbf691)" style="fill: none; stroke-dasharray: 0.5,0.825; stroke-dashoffset: 0; stroke: #cccccc; stroke-opacity: 0.3; stroke-width: 0.5"/>
     </g>
     <g id="text_12">
      <!-- 5 -->
      <g style="fill: #262626" transform="translate(43.61875 150.872793) scale(0.12 -0.12)">
       <use xlink:href="#ArialMT-35"/>
      </g>
     </g>
    </g>
    <g id="ytick_5">
     <g id="line2d_12">
      <path d="M 53.791875 62.5019 
L 611.791875 62.5019 
" clip-path="url(#p6ca3fbf691)" style="fill: none; stroke-dasharray: 0.5,0.825; stroke-dashoffset: 0; stroke: #cccccc; stroke-opacity: 0.3; stroke-width: 0.5"/>
     </g>
     <g id="text_13">
      <!-- 10 -->
      <g style="fill: #262626" transform="translate(36.945625 66.796588) scale(0.12 -0.12)">
       <use xlink:href="#ArialMT-31"/>
       <use xlink:href="#ArialMT-30" x="55.615234"/>
      </g>
     </g>
    </g>
    <g id="text_14">
     <!-- t-SNE 成分 2 -->
     <g style="fill: #262626" transform="translate(25.85625 300.96) rotate(-90) scale(0.24 -0.24)">
      <defs>
       <path id="SimSun-32" d="M 2325 3325 
Q 2325 3775 2125 4012 
Q 1925 4250 1525 4250 
Q 1225 4250 1012 4087 
Q 800 3925 800 3675 
Q 800 3525 900 3425 
Q 975 3325 975 3225 
Q 975 3100 912 3037 
Q 850 2975 725 2975 
Q 575 2975 487 3062 
Q 400 3150 400 3350 
Q 400 3875 775 4150 
Q 1150 4425 1575 4425 
Q 2175 4425 2462 4125 
Q 2750 3825 2750 3375 
Q 2750 3075 2612 2775 
Q 2475 2475 2175 2200 
Q 1450 1500 1062 1062 
Q 675 625 600 475 
L 2075 475 
Q 2300 475 2450 650 
Q 2600 825 2650 1175 
L 2800 1175 
L 2650 100 
L 325 100 
L 325 425 
Q 450 650 737 1000 
Q 1025 1350 1500 1825 
Q 1925 2250 2125 2625 
Q 2325 3000 2325 3325 
z
" transform="scale(0.015625)"/>
      </defs>
      <use xlink:href="#SimSun-74"/>
      <use xlink:href="#SimSun-2d" x="50"/>
      <use xlink:href="#SimSun-53" x="100"/>
      <use xlink:href="#SimSun-4e" x="150"/>
      <use xlink:href="#SimSun-45" x="200"/>
      <use xlink:href="#SimSun-20" x="250"/>
      <use xlink:href="#SimSun-6210" x="300"/>
      <use xlink:href="#SimSun-5206" x="400"/>
      <use xlink:href="#SimSun-20" x="500"/>
      <use xlink:href="#SimSun-32" x="550"/>
     </g>
    </g>
   </g>
   <g id="PathCollection_1">
    <defs>
     <path id="md778b6338a" d="M 0 3.872983 
C 1.027127 3.872983 2.012324 3.464901 2.738613 2.738613 
C 3.464901 2.012324 3.872983 1.027127 3.872983 0 
C 3.872983 -1.027127 3.464901 -2.012324 2.738613 -2.738613 
C 2.012324 -3.464901 1.027127 -3.872983 0 -3.872983 
C -1.027127 -3.872983 -2.012324 -3.464901 -2.738613 -2.738613 
C -3.464901 -2.012324 -3.872983 -1.027127 -3.872983 0 
C -3.872983 1.027127 -3.464901 2.012324 -2.738613 2.738613 
C -2.012324 3.464901 -1.027127 3.872983 0 3.872983 
z
" style="stroke: #000000; stroke-opacity: 0.7; stroke-width: 0.3"/>
    </defs>
    <g clip-path="url(#p6ca3fbf691)">
     <use xlink:href="#md778b6338a" x="405.01294" y="98.935168" style="fill: #0173b2; fill-opacity: 0.7; stroke: #000000; stroke-opacity: 0.7; stroke-width: 0.3"/>
     <use xlink:href="#md778b6338a" x="415.480808" y="27.36" style="fill: #0173b2; fill-opacity: 0.7; stroke: #000000; stroke-opacity: 0.7; stroke-width: 0.3"/>
     <use xlink:href="#md778b6338a" x="405.481913" y="89.596017" style="fill: #0173b2; fill-opacity: 0.7; stroke: #000000; stroke-opacity: 0.7; stroke-width: 0.3"/>
     <use xlink:href="#md778b6338a" x="410.304069" y="176.794243" style="fill: #0173b2; fill-opacity: 0.7; stroke: #000000; stroke-opacity: 0.7; stroke-width: 0.3"/>
     <use xlink:href="#md778b6338a" x="402.839469" y="121.349423" style="fill: #0173b2; fill-opacity: 0.7; stroke: #000000; stroke-opacity: 0.7; stroke-width: 0.3"/>
     <use xlink:href="#md778b6338a" x="397.942724" y="118.372852" style="fill: #0173b2; fill-opacity: 0.7; stroke: #000000; stroke-opacity: 0.7; stroke-width: 0.3"/>
     <use xlink:href="#md778b6338a" x="445.745246" y="149.607212" style="fill: #0173b2; fill-opacity: 0.7; stroke: #000000; stroke-opacity: 0.7; stroke-width: 0.3"/>
     <use xlink:href="#md778b6338a" x="423.309222" y="69.055055" style="fill: #0173b2; fill-opacity: 0.7; stroke: #000000; stroke-opacity: 0.7; stroke-width: 0.3"/>
     <use xlink:href="#md778b6338a" x="440.73939" y="188.955472" style="fill: #0173b2; fill-opacity: 0.7; stroke: #000000; stroke-opacity: 0.7; stroke-width: 0.3"/>
     <use xlink:href="#md778b6338a" x="410.29104" y="30.233089" style="fill: #0173b2; fill-opacity: 0.7; stroke: #000000; stroke-opacity: 0.7; stroke-width: 0.3"/>
     <use xlink:href="#md778b6338a" x="402.760346" y="115.146051" style="fill: #0173b2; fill-opacity: 0.7; stroke: #000000; stroke-opacity: 0.7; stroke-width: 0.3"/>
     <use xlink:href="#md778b6338a" x="426.689009" y="124.720855" style="fill: #0173b2; fill-opacity: 0.7; stroke: #000000; stroke-opacity: 0.7; stroke-width: 0.3"/>
     <use xlink:href="#md778b6338a" x="456.822985" y="202.619776" style="fill: #0173b2; fill-opacity: 0.7; stroke: #000000; stroke-opacity: 0.7; stroke-width: 0.3"/>
     <use xlink:href="#md778b6338a" x="410.450232" y="114.59458" style="fill: #0173b2; fill-opacity: 0.7; stroke: #000000; stroke-opacity: 0.7; stroke-width: 0.3"/>
     <use xlink:href="#md778b6338a" x="414.786574" y="146.787515" style="fill: #0173b2; fill-opacity: 0.7; stroke: #000000; stroke-opacity: 0.7; stroke-width: 0.3"/>
     <use xlink:href="#md778b6338a" x="425.500554" y="31.050313" style="fill: #0173b2; fill-opacity: 0.7; stroke: #000000; stroke-opacity: 0.7; stroke-width: 0.3"/>
     <use xlink:href="#md778b6338a" x="412.092586" y="137.271797" style="fill: #0173b2; fill-opacity: 0.7; stroke: #000000; stroke-opacity: 0.7; stroke-width: 0.3"/>
     <use xlink:href="#md778b6338a" x="398.921746" y="91.4598" style="fill: #0173b2; fill-opacity: 0.7; stroke: #000000; stroke-opacity: 0.7; stroke-width: 0.3"/>
     <use xlink:href="#md778b6338a" x="416.198021" y="112.813424" style="fill: #0173b2; fill-opacity: 0.7; stroke: #000000; stroke-opacity: 0.7; stroke-width: 0.3"/>
     <use xlink:href="#md778b6338a" x="389.481995" y="63.820883" style="fill: #0173b2; fill-opacity: 0.7; stroke: #000000; stroke-opacity: 0.7; stroke-width: 0.3"/>
     <use xlink:href="#md778b6338a" x="379.520994" y="51.435692" style="fill: #0173b2; fill-opacity: 0.7; stroke: #000000; stroke-opacity: 0.7; stroke-width: 0.3"/>
     <use xlink:href="#md778b6338a" x="438.131477" y="124.382113" style="fill: #0173b2; fill-opacity: 0.7; stroke: #000000; stroke-opacity: 0.7; stroke-width: 0.3"/>
     <use xlink:href="#md778b6338a" x="421.352566" y="111.153534" style="fill: #0173b2; fill-opacity: 0.7; stroke: #000000; stroke-opacity: 0.7; stroke-width: 0.3"/>
     <use xlink:href="#md778b6338a" x="383.578421" y="62.503007" style="fill: #0173b2; fill-opacity: 0.7; stroke: #000000; stroke-opacity: 0.7; stroke-width: 0.3"/>
     <use xlink:href="#md778b6338a" x="384.697355" y="62.95462" style="fill: #0173b2; fill-opacity: 0.7; stroke: #000000; stroke-opacity: 0.7; stroke-width: 0.3"/>
    </g>
   </g>
   <g id="PathCollection_2">
    <path d="M 445.981228 316.567567 
L 441.797928 324.934167 
L 450.164528 324.934167 
L 445.981228 316.567567 
z
" clip-path="url(#p6ca3fbf691)" style="fill: none; stroke: #0173b2; stroke-opacity: 0.999; stroke-width: 1.2"/>
    <path d="M 520.808655 400.001969 
L 516.625354 408.36857 
L 524.991955 408.36857 
L 520.808655 400.001969 
z
" clip-path="url(#p6ca3fbf691)" style="fill: none; stroke: #0173b2; stroke-opacity: 0.999; stroke-width: 1.2"/>
    <path d="M 453.354573 195.01058 
L 449.171273 203.377181 
L 457.537873 203.377181 
L 453.354573 195.01058 
z
" clip-path="url(#p6ca3fbf691)" style="fill: none; stroke: #0173b2; stroke-opacity: 0.999; stroke-width: 1.2"/>
    <path d="M 396.809565 105.302527 
L 392.626265 113.669127 
L 400.992865 113.669127 
L 396.809565 105.302527 
z
" clip-path="url(#p6ca3fbf691)" style="fill: none; stroke: #0173b2; stroke-opacity: 0.999; stroke-width: 1.2"/>
    <path d="M 426.122047 49.881136 
L 421.938747 58.247736 
L 430.305347 58.247736 
L 426.122047 49.881136 
z
" clip-path="url(#p6ca3fbf691)" style="fill: none; stroke: #0173b2; stroke-opacity: 0.999; stroke-width: 1.2"/>
    <path d="M 398.282817 100.277323 
L 394.099517 108.643924 
L 402.466117 108.643924 
L 398.282817 100.277323 
z
" clip-path="url(#p6ca3fbf691)" style="fill: none; stroke: #0173b2; stroke-opacity: 0.999; stroke-width: 1.2"/>
    <path d="M 456.328162 197.920705 
L 452.144862 206.287305 
L 460.511462 206.287305 
L 456.328162 197.920705 
z
" clip-path="url(#p6ca3fbf691)" style="fill: none; stroke: #0173b2; stroke-opacity: 0.999; stroke-width: 1.2"/>
    <path d="M 389.709377 89.981882 
L 385.526077 98.348482 
L 393.892677 98.348482 
L 389.709377 89.981882 
z
" clip-path="url(#p6ca3fbf691)" style="fill: none; stroke: #0173b2; stroke-opacity: 0.999; stroke-width: 1.2"/>
    <path d="M 420.874092 39.542252 
L 416.690792 47.908852 
L 425.057392 47.908852 
L 420.874092 39.542252 
z
" clip-path="url(#p6ca3fbf691)" style="fill: none; stroke: #0173b2; stroke-opacity: 0.999; stroke-width: 1.2"/>
    <path d="M 418.859384 157.360817 
L 414.676084 165.727417 
L 423.042684 165.727417 
L 418.859384 157.360817 
z
" clip-path="url(#p6ca3fbf691)" style="fill: none; stroke: #0173b2; stroke-opacity: 0.999; stroke-width: 1.2"/>
    <path d="M 502.715339 408.360743 
L 498.532039 416.727344 
L 506.898639 416.727344 
L 502.715339 408.360743 
z
" clip-path="url(#p6ca3fbf691)" style="fill: none; stroke: #0173b2; stroke-opacity: 0.999; stroke-width: 1.2"/>
    <path d="M 416.181552 155.877631 
L 411.998252 164.244231 
L 420.364852 164.244231 
L 416.181552 155.877631 
z
" clip-path="url(#p6ca3fbf691)" style="fill: none; stroke: #0173b2; stroke-opacity: 0.999; stroke-width: 1.2"/>
    <path d="M 359.763391 363.68328 
L 355.580091 372.04988 
L 363.946691 372.04988 
L 359.763391 363.68328 
z
" clip-path="url(#p6ca3fbf691)" style="fill: none; stroke: #0173b2; stroke-opacity: 0.999; stroke-width: 1.2"/>
    <path d="M 415.606155 154.896556 
L 411.422855 163.263157 
L 419.789455 163.263157 
L 415.606155 154.896556 
z
" clip-path="url(#p6ca3fbf691)" style="fill: none; stroke: #0173b2; stroke-opacity: 0.999; stroke-width: 1.2"/>
    <path d="M 419.545968 173.026859 
L 415.362668 181.39346 
L 423.729268 181.39346 
L 419.545968 173.026859 
z
" clip-path="url(#p6ca3fbf691)" style="fill: none; stroke: #0173b2; stroke-opacity: 0.999; stroke-width: 1.2"/>
    <path d="M 392.174628 95.822249 
L 387.991328 104.188849 
L 396.357928 104.188849 
L 392.174628 95.822249 
z
" clip-path="url(#p6ca3fbf691)" style="fill: none; stroke: #0173b2; stroke-opacity: 0.999; stroke-width: 1.2"/>
    <path d="M 459.517334 201.00758 
L 455.334033 209.37418 
L 463.700634 209.37418 
L 459.517334 201.00758 
z
" clip-path="url(#p6ca3fbf691)" style="fill: none; stroke: #0173b2; stroke-opacity: 0.999; stroke-width: 1.2"/>
    <path d="M 429.092107 174.051019 
L 424.908807 182.41762 
L 433.275408 182.41762 
L 429.092107 174.051019 
z
" clip-path="url(#p6ca3fbf691)" style="fill: none; stroke: #0173b2; stroke-opacity: 0.999; stroke-width: 1.2"/>
    <path d="M 484.827465 370.729374 
L 480.644164 379.095974 
L 489.010765 379.095974 
L 484.827465 370.729374 
z
" clip-path="url(#p6ca3fbf691)" style="fill: none; stroke: #0173b2; stroke-opacity: 0.999; stroke-width: 1.2"/>
    <path d="M 419.943924 174.525276 
L 415.760624 182.891876 
L 424.127224 182.891876 
L 419.943924 174.525276 
z
" clip-path="url(#p6ca3fbf691)" style="fill: none; stroke: #0173b2; stroke-opacity: 0.999; stroke-width: 1.2"/>
    <path d="M 437.950459 171.271009 
L 433.767159 179.637609 
L 442.133759 179.637609 
L 437.950459 171.271009 
z
" clip-path="url(#p6ca3fbf691)" style="fill: none; stroke: #0173b2; stroke-opacity: 0.999; stroke-width: 1.2"/>
    <path d="M 453.041946 194.69133 
L 448.858646 203.057931 
L 457.225247 203.057931 
L 453.041946 194.69133 
z
" clip-path="url(#p6ca3fbf691)" style="fill: none; stroke: #0173b2; stroke-opacity: 0.999; stroke-width: 1.2"/>
    <path d="M 410.815097 125.5952 
L 406.631797 133.9618 
L 414.998397 133.9618 
L 410.815097 125.5952 
z
" clip-path="url(#p6ca3fbf691)" style="fill: none; stroke: #0173b2; stroke-opacity: 0.999; stroke-width: 1.2"/>
    <path d="M 443.895511 158.985972 
L 439.712211 167.352572 
L 448.078811 167.352572 
L 443.895511 158.985972 
z
" clip-path="url(#p6ca3fbf691)" style="fill: none; stroke: #0173b2; stroke-opacity: 0.999; stroke-width: 1.2"/>
    <path d="M 473.83576 377.108824 
L 469.65246 385.475424 
L 478.019061 385.475424 
L 473.83576 377.108824 
z
" clip-path="url(#p6ca3fbf691)" style="fill: none; stroke: #0173b2; stroke-opacity: 0.999; stroke-width: 1.2"/>
    <path d="M 420.342113 176.60273 
L 416.158813 184.96933 
L 424.525413 184.96933 
L 420.342113 176.60273 
z
" clip-path="url(#p6ca3fbf691)" style="fill: none; stroke: #0173b2; stroke-opacity: 0.999; stroke-width: 1.2"/>
    <path d="M 477.064518 381.518764 
L 472.881218 389.885365 
L 481.247818 389.885365 
L 477.064518 381.518764 
z
" clip-path="url(#p6ca3fbf691)" style="fill: none; stroke: #0173b2; stroke-opacity: 0.999; stroke-width: 1.2"/>
    <path d="M 442.736298 164.171162 
L 438.552998 172.537762 
L 446.919598 172.537762 
L 442.736298 164.171162 
z
" clip-path="url(#p6ca3fbf691)" style="fill: none; stroke: #0173b2; stroke-opacity: 0.999; stroke-width: 1.2"/>
   </g>
   <g id="PathCollection_3">
    <defs>
     <path id="me31883f04f" d="M 0 3.872983 
C 1.027127 3.872983 2.012324 3.464901 2.738613 2.738613 
C 3.464901 2.012324 3.872983 1.027127 3.872983 0 
C 3.872983 -1.027127 3.464901 -2.012324 2.738613 -2.738613 
C 2.012324 -3.464901 1.027127 -3.872983 0 -3.872983 
C -1.027127 -3.872983 -2.012324 -3.464901 -2.738613 -2.738613 
C -3.464901 -2.012324 -3.872983 -1.027127 -3.872983 0 
C -3.872983 1.027127 -3.464901 2.012324 -2.738613 2.738613 
C -2.012324 3.464901 -1.027127 3.872983 0 3.872983 
z
" style="stroke: #000000; stroke-opacity: 0.7; stroke-width: 0.3"/>
    </defs>
    <g clip-path="url(#p6ca3fbf691)">
     <use xlink:href="#me31883f04f" x="440.661791" y="329.742448" style="fill: #de8f05; fill-opacity: 0.7; stroke: #000000; stroke-opacity: 0.7; stroke-width: 0.3"/>
     <use xlink:href="#me31883f04f" x="523.977757" y="428.580949" style="fill: #de8f05; fill-opacity: 0.7; stroke: #000000; stroke-opacity: 0.7; stroke-width: 0.3"/>
     <use xlink:href="#me31883f04f" x="491.932139" y="403.870494" style="fill: #de8f05; fill-opacity: 0.7; stroke: #000000; stroke-opacity: 0.7; stroke-width: 0.3"/>
     <use xlink:href="#me31883f04f" x="369.647059" y="366.020245" style="fill: #de8f05; fill-opacity: 0.7; stroke: #000000; stroke-opacity: 0.7; stroke-width: 0.3"/>
     <use xlink:href="#me31883f04f" x="368.145738" y="362.861694" style="fill: #de8f05; fill-opacity: 0.7; stroke: #000000; stroke-opacity: 0.7; stroke-width: 0.3"/>
     <use xlink:href="#me31883f04f" x="444.419857" y="332.636224" style="fill: #de8f05; fill-opacity: 0.7; stroke: #000000; stroke-opacity: 0.7; stroke-width: 0.3"/>
     <use xlink:href="#me31883f04f" x="511.669861" y="399.575678" style="fill: #de8f05; fill-opacity: 0.7; stroke: #000000; stroke-opacity: 0.7; stroke-width: 0.3"/>
     <use xlink:href="#me31883f04f" x="449.10154" y="335.705565" style="fill: #de8f05; fill-opacity: 0.7; stroke: #000000; stroke-opacity: 0.7; stroke-width: 0.3"/>
     <use xlink:href="#me31883f04f" x="512.688917" y="408.121916" style="fill: #de8f05; fill-opacity: 0.7; stroke: #000000; stroke-opacity: 0.7; stroke-width: 0.3"/>
     <use xlink:href="#me31883f04f" x="498.476329" y="400.52852" style="fill: #de8f05; fill-opacity: 0.7; stroke: #000000; stroke-opacity: 0.7; stroke-width: 0.3"/>
     <use xlink:href="#me31883f04f" x="509.277459" y="425.413771" style="fill: #de8f05; fill-opacity: 0.7; stroke: #000000; stroke-opacity: 0.7; stroke-width: 0.3"/>
     <use xlink:href="#me31883f04f" x="397.781527" y="373.228722" style="fill: #de8f05; fill-opacity: 0.7; stroke: #000000; stroke-opacity: 0.7; stroke-width: 0.3"/>
     <use xlink:href="#me31883f04f" x="543.220872" y="430.044386" style="fill: #de8f05; fill-opacity: 0.7; stroke: #000000; stroke-opacity: 0.7; stroke-width: 0.3"/>
     <use xlink:href="#me31883f04f" x="468.278562" y="350.844736" style="fill: #de8f05; fill-opacity: 0.7; stroke: #000000; stroke-opacity: 0.7; stroke-width: 0.3"/>
     <use xlink:href="#me31883f04f" x="371.620488" y="359.50318" style="fill: #de8f05; fill-opacity: 0.7; stroke: #000000; stroke-opacity: 0.7; stroke-width: 0.3"/>
     <use xlink:href="#me31883f04f" x="490.251314" y="355.498203" style="fill: #de8f05; fill-opacity: 0.7; stroke: #000000; stroke-opacity: 0.7; stroke-width: 0.3"/>
     <use xlink:href="#me31883f04f" x="370.253904" y="366.346294" style="fill: #de8f05; fill-opacity: 0.7; stroke: #000000; stroke-opacity: 0.7; stroke-width: 0.3"/>
     <use xlink:href="#me31883f04f" x="497.644609" y="380.403026" style="fill: #de8f05; fill-opacity: 0.7; stroke: #000000; stroke-opacity: 0.7; stroke-width: 0.3"/>
     <use xlink:href="#me31883f04f" x="484.511646" y="393.340281" style="fill: #de8f05; fill-opacity: 0.7; stroke: #000000; stroke-opacity: 0.7; stroke-width: 0.3"/>
     <use xlink:href="#me31883f04f" x="471.232538" y="376.03502" style="fill: #de8f05; fill-opacity: 0.7; stroke: #000000; stroke-opacity: 0.7; stroke-width: 0.3"/>
     <use xlink:href="#me31883f04f" x="524.741725" y="424.657019" style="fill: #de8f05; fill-opacity: 0.7; stroke: #000000; stroke-opacity: 0.7; stroke-width: 0.3"/>
     <use xlink:href="#me31883f04f" x="486.828822" y="384.648674" style="fill: #de8f05; fill-opacity: 0.7; stroke: #000000; stroke-opacity: 0.7; stroke-width: 0.3"/>
     <use xlink:href="#me31883f04f" x="459.060276" y="351.69279" style="fill: #de8f05; fill-opacity: 0.7; stroke: #000000; stroke-opacity: 0.7; stroke-width: 0.3"/>
     <use xlink:href="#me31883f04f" x="484.782467" y="374.972313" style="fill: #de8f05; fill-opacity: 0.7; stroke: #000000; stroke-opacity: 0.7; stroke-width: 0.3"/>
     <use xlink:href="#me31883f04f" x="498.338626" y="366.566809" style="fill: #de8f05; fill-opacity: 0.7; stroke: #000000; stroke-opacity: 0.7; stroke-width: 0.3"/>
     <use xlink:href="#me31883f04f" x="505.094752" y="401.062592" style="fill: #de8f05; fill-opacity: 0.7; stroke: #000000; stroke-opacity: 0.7; stroke-width: 0.3"/>
     <use xlink:href="#me31883f04f" x="396.552737" y="346.885022" style="fill: #de8f05; fill-opacity: 0.7; stroke: #000000; stroke-opacity: 0.7; stroke-width: 0.3"/>
     <use xlink:href="#me31883f04f" x="517.217798" y="414.270091" style="fill: #de8f05; fill-opacity: 0.7; stroke: #000000; stroke-opacity: 0.7; stroke-width: 0.3"/>
     <use xlink:href="#me31883f04f" x="454.448663" y="342.846377" style="fill: #de8f05; fill-opacity: 0.7; stroke: #000000; stroke-opacity: 0.7; stroke-width: 0.3"/>
     <use xlink:href="#me31883f04f" x="508.071852" y="390.684484" style="fill: #de8f05; fill-opacity: 0.7; stroke: #000000; stroke-opacity: 0.7; stroke-width: 0.3"/>
    </g>
   </g>
   <g id="PathCollection_4">
    <path d="M 539.754843 426.3767 
L 535.571542 434.7433 
L 543.938143 434.7433 
L 539.754843 426.3767 
z
" clip-path="url(#p6ca3fbf691)" style="fill: none; stroke: #de8f05; stroke-opacity: 0.999; stroke-width: 1.2"/>
    <path d="M 396.887838 66.090719 
L 392.704538 74.45732 
L 401.071138 74.45732 
L 396.887838 66.090719 
z
" clip-path="url(#p6ca3fbf691)" style="fill: none; stroke: #de8f05; stroke-opacity: 0.999; stroke-width: 1.2"/>
    <path d="M 476.913168 361.787794 
L 472.729867 370.154394 
L 481.096468 370.154394 
L 476.913168 361.787794 
z
" clip-path="url(#p6ca3fbf691)" style="fill: none; stroke: #de8f05; stroke-opacity: 0.999; stroke-width: 1.2"/>
    <path d="M 497.230216 388.111641 
L 493.046915 396.478241 
L 501.413516 396.478241 
L 497.230216 388.111641 
z
" clip-path="url(#p6ca3fbf691)" style="fill: none; stroke: #de8f05; stroke-opacity: 0.999; stroke-width: 1.2"/>
    <path d="M 419.429096 373.387224 
L 415.245796 381.753824 
L 423.612396 381.753824 
L 419.429096 373.387224 
z
" clip-path="url(#p6ca3fbf691)" style="fill: none; stroke: #de8f05; stroke-opacity: 0.999; stroke-width: 1.2"/>
    <path d="M 460.371529 352.046878 
L 456.188229 360.413478 
L 464.554829 360.413478 
L 460.371529 352.046878 
z
" clip-path="url(#p6ca3fbf691)" style="fill: none; stroke: #de8f05; stroke-opacity: 0.999; stroke-width: 1.2"/>
    <path d="M 385.551274 352.127974 
L 381.367974 360.494574 
L 389.734575 360.494574 
L 385.551274 352.127974 
z
" clip-path="url(#p6ca3fbf691)" style="fill: none; stroke: #de8f05; stroke-opacity: 0.999; stroke-width: 1.2"/>
    <path d="M 394.672244 376.465786 
L 390.488944 384.832386 
L 398.855544 384.832386 
L 394.672244 376.465786 
z
" clip-path="url(#p6ca3fbf691)" style="fill: none; stroke: #de8f05; stroke-opacity: 0.999; stroke-width: 1.2"/>
    <path d="M 415.763158 58.939957 
L 411.579858 67.306557 
L 419.946458 67.306557 
L 415.763158 58.939957 
z
" clip-path="url(#p6ca3fbf691)" style="fill: none; stroke: #de8f05; stroke-opacity: 0.999; stroke-width: 1.2"/>
    <path d="M 411.536833 53.886786 
L 407.353533 62.253386 
L 415.720133 62.253386 
L 411.536833 53.886786 
z
" clip-path="url(#p6ca3fbf691)" style="fill: none; stroke: #de8f05; stroke-opacity: 0.999; stroke-width: 1.2"/>
    <path d="M 493.49298 380.931228 
L 489.30968 389.297828 
L 497.67628 389.297828 
L 493.49298 380.931228 
z
" clip-path="url(#p6ca3fbf691)" style="fill: none; stroke: #de8f05; stroke-opacity: 0.999; stroke-width: 1.2"/>
    <path d="M 467.459926 365.11001 
L 463.276626 373.476611 
L 471.643227 373.476611 
L 467.459926 365.11001 
z
" clip-path="url(#p6ca3fbf691)" style="fill: none; stroke: #de8f05; stroke-opacity: 0.999; stroke-width: 1.2"/>
    <path d="M 411.071837 372.236157 
L 406.888537 380.602757 
L 415.255137 380.602757 
L 411.071837 372.236157 
z
" clip-path="url(#p6ca3fbf691)" style="fill: none; stroke: #de8f05; stroke-opacity: 0.999; stroke-width: 1.2"/>
    <path d="M 397.515658 375.795454 
L 393.332358 384.162054 
L 401.698958 384.162054 
L 397.515658 375.795454 
z
" clip-path="url(#p6ca3fbf691)" style="fill: none; stroke: #de8f05; stroke-opacity: 0.999; stroke-width: 1.2"/>
    <path d="M 474.378203 362.632039 
L 470.194903 370.998639 
L 478.561503 370.998639 
L 474.378203 362.632039 
z
" clip-path="url(#p6ca3fbf691)" style="fill: none; stroke: #de8f05; stroke-opacity: 0.999; stroke-width: 1.2"/>
    <path d="M 485.054666 391.271635 
L 480.871366 399.638235 
L 489.237966 399.638235 
L 485.054666 391.271635 
z
" clip-path="url(#p6ca3fbf691)" style="fill: none; stroke: #de8f05; stroke-opacity: 0.999; stroke-width: 1.2"/>
    <path d="M 525.787193 406.16315 
L 521.603893 414.52975 
L 529.970493 414.52975 
L 525.787193 406.16315 
z
" clip-path="url(#p6ca3fbf691)" style="fill: none; stroke: #de8f05; stroke-opacity: 0.999; stroke-width: 1.2"/>
    <path d="M 512.934929 383.669917 
L 508.751629 392.036517 
L 517.118229 392.036517 
L 512.934929 383.669917 
z
" clip-path="url(#p6ca3fbf691)" style="fill: none; stroke: #de8f05; stroke-opacity: 0.999; stroke-width: 1.2"/>
    <path d="M 531.820548 414.709147 
L 527.637248 423.075748 
L 536.003848 423.075748 
L 531.820548 414.709147 
z
" clip-path="url(#p6ca3fbf691)" style="fill: none; stroke: #de8f05; stroke-opacity: 0.999; stroke-width: 1.2"/>
    <path d="M 418.743321 34.148583 
L 414.560021 42.515183 
L 422.926621 42.515183 
L 418.743321 34.148583 
z
" clip-path="url(#p6ca3fbf691)" style="fill: none; stroke: #de8f05; stroke-opacity: 0.999; stroke-width: 1.2"/>
    <path d="M 400.38275 63.124139 
L 396.199449 71.490739 
L 404.56605 71.490739 
L 400.38275 63.124139 
z
" clip-path="url(#p6ca3fbf691)" style="fill: none; stroke: #de8f05; stroke-opacity: 0.999; stroke-width: 1.2"/>
    <path d="M 498.101995 405.502777 
L 493.918695 413.869377 
L 502.285295 413.869377 
L 498.101995 405.502777 
z
" clip-path="url(#p6ca3fbf691)" style="fill: none; stroke: #de8f05; stroke-opacity: 0.999; stroke-width: 1.2"/>
    <path d="M 397.748044 347.469263 
L 393.564743 355.835863 
L 401.931344 355.835863 
L 397.748044 347.469263 
z
" clip-path="url(#p6ca3fbf691)" style="fill: none; stroke: #de8f05; stroke-opacity: 0.999; stroke-width: 1.2"/>
    <path d="M 414.00418 70.520946 
L 409.82088 78.887546 
L 418.187481 78.887546 
L 414.00418 70.520946 
z
" clip-path="url(#p6ca3fbf691)" style="fill: none; stroke: #de8f05; stroke-opacity: 0.999; stroke-width: 1.2"/>
    <path d="M 393.503052 354.12076 
L 389.319752 362.48736 
L 397.686352 362.48736 
L 393.503052 354.12076 
z
" clip-path="url(#p6ca3fbf691)" style="fill: none; stroke: #de8f05; stroke-opacity: 0.999; stroke-width: 1.2"/>
    <path d="M 438.495011 320.389698 
L 434.311711 328.756299 
L 442.678311 328.756299 
L 438.495011 320.389698 
z
" clip-path="url(#p6ca3fbf691)" style="fill: none; stroke: #de8f05; stroke-opacity: 0.999; stroke-width: 1.2"/>
    <path d="M 399.542702 356.012366 
L 395.359402 364.378966 
L 403.726002 364.378966 
L 399.542702 356.012366 
z
" clip-path="url(#p6ca3fbf691)" style="fill: none; stroke: #de8f05; stroke-opacity: 0.999; stroke-width: 1.2"/>
    <path d="M 401.098801 49.671783 
L 396.915501 58.038383 
L 405.282101 58.038383 
L 401.098801 49.671783 
z
" clip-path="url(#p6ca3fbf691)" style="fill: none; stroke: #de8f05; stroke-opacity: 0.999; stroke-width: 1.2"/>
    <path d="M 411.622122 43.881072 
L 407.438822 52.247672 
L 415.805422 52.247672 
L 411.622122 43.881072 
z
" clip-path="url(#p6ca3fbf691)" style="fill: none; stroke: #de8f05; stroke-opacity: 0.999; stroke-width: 1.2"/>
    <path d="M 444.667705 334.753764 
L 440.484405 343.120365 
L 448.851005 343.120365 
L 444.667705 334.753764 
z
" clip-path="url(#p6ca3fbf691)" style="fill: none; stroke: #de8f05; stroke-opacity: 0.999; stroke-width: 1.2"/>
    <path d="M 408.734227 371.756031 
L 404.550927 380.122632 
L 412.917527 380.122632 
L 408.734227 371.756031 
z
" clip-path="url(#p6ca3fbf691)" style="fill: none; stroke: #de8f05; stroke-opacity: 0.999; stroke-width: 1.2"/>
    <path d="M 512.978789 413.357435 
L 508.795488 421.724035 
L 517.162089 421.724035 
L 512.978789 413.357435 
z
" clip-path="url(#p6ca3fbf691)" style="fill: none; stroke: #de8f05; stroke-opacity: 0.999; stroke-width: 1.2"/>
    <path d="M 396.571888 68.65046 
L 392.388588 77.01706 
L 400.755188 77.01706 
L 396.571888 68.65046 
z
" clip-path="url(#p6ca3fbf691)" style="fill: none; stroke: #de8f05; stroke-opacity: 0.999; stroke-width: 1.2"/>
    <path d="M 405.53545 53.761014 
L 401.352149 62.127614 
L 409.71875 62.127614 
L 405.53545 53.761014 
z
" clip-path="url(#p6ca3fbf691)" style="fill: none; stroke: #de8f05; stroke-opacity: 0.999; stroke-width: 1.2"/>
   </g>
   <g id="PathCollection_5">
    <defs>
     <path id="mb04d51dbfe" d="M 0 3.872983 
C 1.027127 3.872983 2.012324 3.464901 2.738613 2.738613 
C 3.464901 2.012324 3.872983 1.027127 3.872983 0 
C 3.872983 -1.027127 3.464901 -2.012324 2.738613 -2.738613 
C 2.012324 -3.464901 1.027127 -3.872983 0 -3.872983 
C -1.027127 -3.872983 -2.012324 -3.464901 -2.738613 -2.738613 
C -3.464901 -2.012324 -3.872983 -1.027127 -3.872983 0 
C -3.872983 1.027127 -3.464901 2.012324 -2.738613 2.738613 
C -2.012324 3.464901 -1.027127 3.872983 0 3.872983 
z
" style="stroke: #000000; stroke-opacity: 0.7; stroke-width: 0.3"/>
    </defs>
    <g clip-path="url(#p6ca3fbf691)">
     <use xlink:href="#mb04d51dbfe" x="250.000302" y="268.74156" style="fill: #029e73; fill-opacity: 0.7; stroke: #000000; stroke-opacity: 0.7; stroke-width: 0.3"/>
     <use xlink:href="#mb04d51dbfe" x="262.520784" y="179.592812" style="fill: #029e73; fill-opacity: 0.7; stroke: #000000; stroke-opacity: 0.7; stroke-width: 0.3"/>
     <use xlink:href="#mb04d51dbfe" x="136.512667" y="196.503978" style="fill: #029e73; fill-opacity: 0.7; stroke: #000000; stroke-opacity: 0.7; stroke-width: 0.3"/>
     <use xlink:href="#mb04d51dbfe" x="253.922219" y="204.609303" style="fill: #029e73; fill-opacity: 0.7; stroke: #000000; stroke-opacity: 0.7; stroke-width: 0.3"/>
     <use xlink:href="#mb04d51dbfe" x="131.99615" y="199.83848" style="fill: #029e73; fill-opacity: 0.7; stroke: #000000; stroke-opacity: 0.7; stroke-width: 0.3"/>
     <use xlink:href="#mb04d51dbfe" x="151.148821" y="199.344287" style="fill: #029e73; fill-opacity: 0.7; stroke: #000000; stroke-opacity: 0.7; stroke-width: 0.3"/>
     <use xlink:href="#mb04d51dbfe" x="280.986513" y="178.098965" style="fill: #029e73; fill-opacity: 0.7; stroke: #000000; stroke-opacity: 0.7; stroke-width: 0.3"/>
     <use xlink:href="#mb04d51dbfe" x="221.719004" y="240.150209" style="fill: #029e73; fill-opacity: 0.7; stroke: #000000; stroke-opacity: 0.7; stroke-width: 0.3"/>
     <use xlink:href="#mb04d51dbfe" x="247.59018" y="323.956139" style="fill: #029e73; fill-opacity: 0.7; stroke: #000000; stroke-opacity: 0.7; stroke-width: 0.3"/>
     <use xlink:href="#mb04d51dbfe" x="214.522563" y="235.663532" style="fill: #029e73; fill-opacity: 0.7; stroke: #000000; stroke-opacity: 0.7; stroke-width: 0.3"/>
     <use xlink:href="#mb04d51dbfe" x="129.309915" y="187.301363" style="fill: #029e73; fill-opacity: 0.7; stroke: #000000; stroke-opacity: 0.7; stroke-width: 0.3"/>
     <use xlink:href="#mb04d51dbfe" x="178.898645" y="203.849045" style="fill: #029e73; fill-opacity: 0.7; stroke: #000000; stroke-opacity: 0.7; stroke-width: 0.3"/>
     <use xlink:href="#mb04d51dbfe" x="244.414158" y="260.520261" style="fill: #029e73; fill-opacity: 0.7; stroke: #000000; stroke-opacity: 0.7; stroke-width: 0.3"/>
     <use xlink:href="#mb04d51dbfe" x="125.139156" y="195.8684" style="fill: #029e73; fill-opacity: 0.7; stroke: #000000; stroke-opacity: 0.7; stroke-width: 0.3"/>
     <use xlink:href="#mb04d51dbfe" x="238.587991" y="287.374977" style="fill: #029e73; fill-opacity: 0.7; stroke: #000000; stroke-opacity: 0.7; stroke-width: 0.3"/>
     <use xlink:href="#mb04d51dbfe" x="228.575734" y="304.073418" style="fill: #029e73; fill-opacity: 0.7; stroke: #000000; stroke-opacity: 0.7; stroke-width: 0.3"/>
     <use xlink:href="#mb04d51dbfe" x="272.667665" y="188.954686" style="fill: #029e73; fill-opacity: 0.7; stroke: #000000; stroke-opacity: 0.7; stroke-width: 0.3"/>
     <use xlink:href="#mb04d51dbfe" x="222.568157" y="309.531384" style="fill: #029e73; fill-opacity: 0.7; stroke: #000000; stroke-opacity: 0.7; stroke-width: 0.3"/>
     <use xlink:href="#mb04d51dbfe" x="259.537317" y="180.451096" style="fill: #029e73; fill-opacity: 0.7; stroke: #000000; stroke-opacity: 0.7; stroke-width: 0.3"/>
     <use xlink:href="#mb04d51dbfe" x="132.765249" y="185.277086" style="fill: #029e73; fill-opacity: 0.7; stroke: #000000; stroke-opacity: 0.7; stroke-width: 0.3"/>
     <use xlink:href="#mb04d51dbfe" x="178.647164" y="210.702295" style="fill: #029e73; fill-opacity: 0.7; stroke: #000000; stroke-opacity: 0.7; stroke-width: 0.3"/>
     <use xlink:href="#mb04d51dbfe" x="295.563805" y="178.446155" style="fill: #029e73; fill-opacity: 0.7; stroke: #000000; stroke-opacity: 0.7; stroke-width: 0.3"/>
     <use xlink:href="#mb04d51dbfe" x="226.70969" y="250.849372" style="fill: #029e73; fill-opacity: 0.7; stroke: #000000; stroke-opacity: 0.7; stroke-width: 0.3"/>
     <use xlink:href="#mb04d51dbfe" x="217.885632" y="313.647267" style="fill: #029e73; fill-opacity: 0.7; stroke: #000000; stroke-opacity: 0.7; stroke-width: 0.3"/>
     <use xlink:href="#mb04d51dbfe" x="149.343009" y="203.403977" style="fill: #029e73; fill-opacity: 0.7; stroke: #000000; stroke-opacity: 0.7; stroke-width: 0.3"/>
     <use xlink:href="#mb04d51dbfe" x="282.73453" y="188.612633" style="fill: #029e73; fill-opacity: 0.7; stroke: #000000; stroke-opacity: 0.7; stroke-width: 0.3"/>
     <use xlink:href="#mb04d51dbfe" x="190.359105" y="202.100211" style="fill: #029e73; fill-opacity: 0.7; stroke: #000000; stroke-opacity: 0.7; stroke-width: 0.3"/>
     <use xlink:href="#mb04d51dbfe" x="265.378863" y="197.78652" style="fill: #029e73; fill-opacity: 0.7; stroke: #000000; stroke-opacity: 0.7; stroke-width: 0.3"/>
     <use xlink:href="#mb04d51dbfe" x="231.819493" y="252.861528" style="fill: #029e73; fill-opacity: 0.7; stroke: #000000; stroke-opacity: 0.7; stroke-width: 0.3"/>
     <use xlink:href="#mb04d51dbfe" x="170.832725" y="193.800476" style="fill: #029e73; fill-opacity: 0.7; stroke: #000000; stroke-opacity: 0.7; stroke-width: 0.3"/>
     <use xlink:href="#mb04d51dbfe" x="219.937817" y="271.265632" style="fill: #029e73; fill-opacity: 0.7; stroke: #000000; stroke-opacity: 0.7; stroke-width: 0.3"/>
     <use xlink:href="#mb04d51dbfe" x="195.146619" y="217.466196" style="fill: #029e73; fill-opacity: 0.7; stroke: #000000; stroke-opacity: 0.7; stroke-width: 0.3"/>
     <use xlink:href="#mb04d51dbfe" x="280.513147" y="184.372536" style="fill: #029e73; fill-opacity: 0.7; stroke: #000000; stroke-opacity: 0.7; stroke-width: 0.3"/>
     <use xlink:href="#mb04d51dbfe" x="234.62353" y="348.864458" style="fill: #029e73; fill-opacity: 0.7; stroke: #000000; stroke-opacity: 0.7; stroke-width: 0.3"/>
     <use xlink:href="#mb04d51dbfe" x="160.139808" y="194.44539" style="fill: #029e73; fill-opacity: 0.7; stroke: #000000; stroke-opacity: 0.7; stroke-width: 0.3"/>
     <use xlink:href="#mb04d51dbfe" x="192.21511" y="203.750657" style="fill: #029e73; fill-opacity: 0.7; stroke: #000000; stroke-opacity: 0.7; stroke-width: 0.3"/>
     <use xlink:href="#mb04d51dbfe" x="162.619351" y="206.409658" style="fill: #029e73; fill-opacity: 0.7; stroke: #000000; stroke-opacity: 0.7; stroke-width: 0.3"/>
     <use xlink:href="#mb04d51dbfe" x="165.85385" y="203.077086" style="fill: #029e73; fill-opacity: 0.7; stroke: #000000; stroke-opacity: 0.7; stroke-width: 0.3"/>
     <use xlink:href="#mb04d51dbfe" x="234.622295" y="349.169115" style="fill: #029e73; fill-opacity: 0.7; stroke: #000000; stroke-opacity: 0.7; stroke-width: 0.3"/>
     <use xlink:href="#mb04d51dbfe" x="188.637243" y="201.809822" style="fill: #029e73; fill-opacity: 0.7; stroke: #000000; stroke-opacity: 0.7; stroke-width: 0.3"/>
     <use xlink:href="#mb04d51dbfe" x="211.760381" y="324.633471" style="fill: #029e73; fill-opacity: 0.7; stroke: #000000; stroke-opacity: 0.7; stroke-width: 0.3"/>
    </g>
   </g>
   <g id="PathCollection_6">
    <path d="M 148.125071 185.738601 
L 143.941771 194.105201 
L 152.308371 194.105201 
L 148.125071 185.738601 
z
" clip-path="url(#p6ca3fbf691)" style="fill: none; stroke: #029e73; stroke-opacity: 0.999; stroke-width: 1.2"/>
    <path d="M 227.584035 264.941318 
L 223.400735 273.307918 
L 231.767335 273.307918 
L 227.584035 264.941318 
z
" clip-path="url(#p6ca3fbf691)" style="fill: none; stroke: #029e73; stroke-opacity: 0.999; stroke-width: 1.2"/>
    <path d="M 220.608076 213.930333 
L 216.424776 222.296934 
L 224.791376 222.296934 
L 220.608076 213.930333 
z
" clip-path="url(#p6ca3fbf691)" style="fill: none; stroke: #029e73; stroke-opacity: 0.999; stroke-width: 1.2"/>
    <path d="M 233.636193 342.579686 
L 229.452893 350.946286 
L 237.819494 350.946286 
L 233.636193 342.579686 
z
" clip-path="url(#p6ca3fbf691)" style="fill: none; stroke: #029e73; stroke-opacity: 0.999; stroke-width: 1.2"/>
    <path d="M 275.956338 177.168714 
L 271.773038 185.535314 
L 280.139638 185.535314 
L 275.956338 177.168714 
z
" clip-path="url(#p6ca3fbf691)" style="fill: none; stroke: #029e73; stroke-opacity: 0.999; stroke-width: 1.2"/>
    <path d="M 219.534537 213.649159 
L 215.351236 222.015759 
L 223.717837 222.015759 
L 219.534537 213.649159 
z
" clip-path="url(#p6ca3fbf691)" style="fill: none; stroke: #029e73; stroke-opacity: 0.999; stroke-width: 1.2"/>
    <path d="M 218.455392 287.215355 
L 214.272092 295.581956 
L 222.638692 295.581956 
L 218.455392 287.215355 
z
" clip-path="url(#p6ca3fbf691)" style="fill: none; stroke: #029e73; stroke-opacity: 0.999; stroke-width: 1.2"/>
    <path d="M 247.805916 316.45108 
L 243.622616 324.81768 
L 251.989216 324.81768 
L 247.805916 316.45108 
z
" clip-path="url(#p6ca3fbf691)" style="fill: none; stroke: #029e73; stroke-opacity: 0.999; stroke-width: 1.2"/>
    <path d="M 247.188929 312.207002 
L 243.005629 320.573603 
L 251.372229 320.573603 
L 247.188929 312.207002 
z
" clip-path="url(#p6ca3fbf691)" style="fill: none; stroke: #029e73; stroke-opacity: 0.999; stroke-width: 1.2"/>
    <path d="M 241.358536 313.997395 
L 237.175236 322.363995 
L 245.541836 322.363995 
L 241.358536 313.997395 
z
" clip-path="url(#p6ca3fbf691)" style="fill: none; stroke: #029e73; stroke-opacity: 0.999; stroke-width: 1.2"/>
    <path d="M 151.388306 185.030728 
L 147.205006 193.397329 
L 155.571606 193.397329 
L 151.388306 185.030728 
z
" clip-path="url(#p6ca3fbf691)" style="fill: none; stroke: #029e73; stroke-opacity: 0.999; stroke-width: 1.2"/>
    <path d="M 143.644491 198.875222 
L 139.461191 207.241822 
L 147.827791 207.241822 
L 143.644491 198.875222 
z
" clip-path="url(#p6ca3fbf691)" style="fill: none; stroke: #029e73; stroke-opacity: 0.999; stroke-width: 1.2"/>
    <path d="M 247.162774 312.456462 
L 242.979474 320.823063 
L 251.346074 320.823063 
L 247.162774 312.456462 
z
" clip-path="url(#p6ca3fbf691)" style="fill: none; stroke: #029e73; stroke-opacity: 0.999; stroke-width: 1.2"/>
    <path d="M 247.575138 309.69084 
L 243.391838 318.057441 
L 251.758438 318.057441 
L 247.575138 309.69084 
z
" clip-path="url(#p6ca3fbf691)" style="fill: none; stroke: #029e73; stroke-opacity: 0.999; stroke-width: 1.2"/>
    <path d="M 214.60005 209.753876 
L 210.41675 218.120476 
L 218.78335 218.120476 
L 214.60005 209.753876 
z
" clip-path="url(#p6ca3fbf691)" style="fill: none; stroke: #029e73; stroke-opacity: 0.999; stroke-width: 1.2"/>
    <path d="M 213.359388 209.7222 
L 209.176088 218.088801 
L 217.542689 218.088801 
L 213.359388 209.7222 
z
" clip-path="url(#p6ca3fbf691)" style="fill: none; stroke: #029e73; stroke-opacity: 0.999; stroke-width: 1.2"/>
    <path d="M 220.449622 280.578199 
L 216.266322 288.944799 
L 224.632922 288.944799 
L 220.449622 280.578199 
z
" clip-path="url(#p6ca3fbf691)" style="fill: none; stroke: #029e73; stroke-opacity: 0.999; stroke-width: 1.2"/>
    <path d="M 142.93147 183.693573 
L 138.74817 192.060173 
L 147.11477 192.060173 
L 142.93147 183.693573 
z
" clip-path="url(#p6ca3fbf691)" style="fill: none; stroke: #029e73; stroke-opacity: 0.999; stroke-width: 1.2"/>
    <path d="M 184.964826 212.727866 
L 180.781526 221.094467 
L 189.148127 221.094467 
L 184.964826 212.727866 
z
" clip-path="url(#p6ca3fbf691)" style="fill: none; stroke: #029e73; stroke-opacity: 0.999; stroke-width: 1.2"/>
    <path d="M 199.27894 203.918388 
L 195.095639 212.284988 
L 203.46224 212.284988 
L 199.27894 203.918388 
z
" clip-path="url(#p6ca3fbf691)" style="fill: none; stroke: #029e73; stroke-opacity: 0.999; stroke-width: 1.2"/>
    <path d="M 188.21828 208.400251 
L 184.034979 216.766851 
L 192.40158 216.766851 
L 188.21828 208.400251 
z
" clip-path="url(#p6ca3fbf691)" style="fill: none; stroke: #029e73; stroke-opacity: 0.999; stroke-width: 1.2"/>
    <path d="M 234.043803 201.024598 
L 229.860503 209.391198 
L 238.227103 209.391198 
L 234.043803 201.024598 
z
" clip-path="url(#p6ca3fbf691)" style="fill: none; stroke: #029e73; stroke-opacity: 0.999; stroke-width: 1.2"/>
    <path d="M 274.226863 173.396291 
L 270.043563 181.762891 
L 278.410163 181.762891 
L 274.226863 173.396291 
z
" clip-path="url(#p6ca3fbf691)" style="fill: none; stroke: #029e73; stroke-opacity: 0.999; stroke-width: 1.2"/>
    <path d="M 203.11576 213.211522 
L 198.93246 221.578122 
L 207.29906 221.578122 
L 203.11576 213.211522 
z
" clip-path="url(#p6ca3fbf691)" style="fill: none; stroke: #029e73; stroke-opacity: 0.999; stroke-width: 1.2"/>
    <path d="M 234.27507 284.018322 
L 230.09177 292.384922 
L 238.45837 292.384922 
L 234.27507 284.018322 
z
" clip-path="url(#p6ca3fbf691)" style="fill: none; stroke: #029e73; stroke-opacity: 0.999; stroke-width: 1.2"/>
    <path d="M 240.619826 197.419472 
L 236.436526 205.786072 
L 244.803126 205.786072 
L 240.619826 197.419472 
z
" clip-path="url(#p6ca3fbf691)" style="fill: none; stroke: #029e73; stroke-opacity: 0.999; stroke-width: 1.2"/>
    <path d="M 211.664628 244.08815 
L 207.481328 252.45475 
L 215.847928 252.45475 
L 211.664628 244.08815 
z
" clip-path="url(#p6ca3fbf691)" style="fill: none; stroke: #029e73; stroke-opacity: 0.999; stroke-width: 1.2"/>
    <path d="M 184.397816 212.382658 
L 180.214516 220.749258 
L 188.581116 220.749258 
L 184.397816 212.382658 
z
" clip-path="url(#p6ca3fbf691)" style="fill: none; stroke: #029e73; stroke-opacity: 0.999; stroke-width: 1.2"/>
    <path d="M 213.316981 214.333045 
L 209.13368 222.699645 
L 217.500281 222.699645 
L 213.316981 214.333045 
z
" clip-path="url(#p6ca3fbf691)" style="fill: none; stroke: #029e73; stroke-opacity: 0.999; stroke-width: 1.2"/>
    <path d="M 122.362878 185.73735 
L 118.179577 194.103951 
L 126.546178 194.103951 
L 122.362878 185.73735 
z
" clip-path="url(#p6ca3fbf691)" style="fill: none; stroke: #029e73; stroke-opacity: 0.999; stroke-width: 1.2"/>
    <path d="M 215.198932 280.374734 
L 211.015632 288.741335 
L 219.382232 288.741335 
L 215.198932 280.374734 
z
" clip-path="url(#p6ca3fbf691)" style="fill: none; stroke: #029e73; stroke-opacity: 0.999; stroke-width: 1.2"/>
    <path d="M 247.597573 193.090815 
L 243.414273 201.457415 
L 251.780873 201.457415 
L 247.597573 193.090815 
z
" clip-path="url(#p6ca3fbf691)" style="fill: none; stroke: #029e73; stroke-opacity: 0.999; stroke-width: 1.2"/>
    <path d="M 221.784873 252.577225 
L 217.601573 260.943825 
L 225.968174 260.943825 
L 221.784873 252.577225 
z
" clip-path="url(#p6ca3fbf691)" style="fill: none; stroke: #029e73; stroke-opacity: 0.999; stroke-width: 1.2"/>
    <path d="M 228.84394 272.204904 
L 224.66064 280.571504 
L 233.027241 280.571504 
L 228.84394 272.204904 
z
" clip-path="url(#p6ca3fbf691)" style="fill: none; stroke: #029e73; stroke-opacity: 0.999; stroke-width: 1.2"/>
   </g>
   <g id="patch_3">
    <path d="M 53.791875 450.72 
L 53.791875 7.2 
" style="fill: none; stroke: #262626; stroke-width: 1.25; stroke-linejoin: miter; stroke-linecap: square"/>
   </g>
   <g id="patch_4">
    <path d="M 611.791875 450.72 
L 611.791875 7.2 
" style="fill: none; stroke: #262626; stroke-width: 1.25; stroke-linejoin: miter; stroke-linecap: square"/>
   </g>
   <g id="patch_5">
    <path d="M 53.791875 450.72 
L 611.791875 450.72 
" style="fill: none; stroke: #262626; stroke-width: 1.25; stroke-linejoin: miter; stroke-linecap: square"/>
   </g>
   <g id="patch_6">
    <path d="M 53.791875 7.2 
L 611.791875 7.2 
" style="fill: none; stroke: #262626; stroke-width: 1.25; stroke-linejoin: miter; stroke-linecap: square"/>
   </g>
   <g id="legend_1">
    <g id="patch_7">
     <path d="M 218.191875 104.775 
L 599.791875 104.775 
L 599.791875 19.2 
L 218.191875 19.2 
z
" style="fill: #ffffff; opacity: 0.8; stroke: #000000; stroke-linejoin: miter"/>
    </g>
    <g id="line2d_13">
     <defs>
      <path id="m1722933611" d="M 0 4 
C 1.060812 4 2.078319 3.578535 2.828427 2.828427 
C 3.578535 2.078319 4 1.060812 4 0 
C 4 -1.060812 3.578535 -2.078319 2.828427 -2.828427 
C 2.078319 -3.578535 1.060812 -4 0 -4 
C -1.060812 -4 -2.078319 -3.578535 -2.828427 -2.828427 
C -3.578535 -2.078319 -4 -1.060812 -4 0 
C -4 1.060812 -3.578535 2.078319 -2.828427 2.828427 
C -2.078319 3.578535 -1.060812 4 0 4 
z
" style="stroke: #000000; stroke-opacity: 0.9; stroke-width: 0.3"/>
     </defs>
     <g>
      <use xlink:href="#m1722933611" x="246.991875" y="34.63125" style="fill: #0173b2; fill-opacity: 0.9; stroke: #000000; stroke-opacity: 0.9; stroke-width: 0.3"/>
     </g>
    </g>
    <g id="text_15">
     <!-- 源域：消极 -->
     <g style="fill: #262626" transform="translate(273.391875 43.03125) scale(0.24 -0.24)">
      <defs>
       <path id="SimSun-6e90" d="M 3575 3525 
L 3575 2800 
L 5225 2800 
L 5225 3525 
L 3575 3525 
z
M 3575 2650 
L 3575 1900 
L 5225 1900 
L 5225 2650 
L 3575 2650 
z
M 3375 1325 
L 3825 975 
Q 3550 850 3250 500 
Q 2925 150 2275 -325 
L 2225 -250 
Q 3125 625 3375 1325 
z
M 4800 1150 
L 4850 1225 
Q 5675 700 5812 525 
Q 5950 350 5950 200 
Q 5950 75 5875 -87 
Q 5800 -250 5750 -250 
Q 5675 -250 5550 50 
Q 5375 475 4800 1150 
z
M 3225 1475 
Q 3250 2125 3250 2700 
Q 3250 3275 3225 3875 
L 3575 3675 
L 3925 3675 
Q 4175 4250 4225 4550 
L 2700 4550 
Q 2700 3525 2687 2575 
Q 2675 1625 2325 875 
Q 1975 125 1275 -550 
L 1225 -475 
Q 1850 300 2100 1112 
Q 2350 1925 2350 3112 
Q 2350 4300 2325 4950 
L 2700 4700 
L 5300 4700 
L 5650 5050 
L 6125 4550 
L 4350 4550 
L 4750 4325 
Q 4550 4250 4437 4137 
Q 4325 4025 4075 3675 
L 5200 3675 
L 5375 3925 
L 5750 3600 
L 5550 3425 
Q 5550 1875 5575 1675 
L 5225 1500 
L 5225 1750 
L 4575 1750 
L 4575 100 
Q 4600 -400 4050 -550 
Q 4025 -200 3450 -75 
L 3450 25 
Q 3775 0 4000 -12 
Q 4225 -25 4225 175 
L 4225 1750 
L 3575 1750 
L 3575 1625 
L 3225 1475 
z
M 2150 4250 
Q 1375 1525 1312 1200 
Q 1250 875 1237 425 
Q 1225 -25 1250 -200 
Q 1250 -300 1150 -300 
Q 1075 -300 912 -237 
Q 750 -175 750 25 
Q 750 200 800 375 
Q 875 625 875 775 
Q 875 925 762 1025 
Q 650 1125 275 1225 
L 275 1325 
Q 725 1275 837 1287 
Q 950 1300 1087 1512 
Q 1225 1725 2050 4275 
L 2150 4250 
z
M 275 3575 
Q 1150 3175 1150 2925 
Q 1150 2675 1050 2562 
Q 950 2450 900 2450 
Q 825 2450 750 2700 
Q 625 3025 225 3500 
L 275 3575 
z
M 825 5025 
Q 1550 4725 1625 4512 
Q 1700 4300 1587 4137 
Q 1475 3975 1425 3975 
Q 1325 3975 1275 4175 
Q 1150 4500 775 4950 
L 825 5025 
z
" transform="scale(0.015625)"/>
       <path id="SimSun-57df" d="M 2500 1375 
Q 2525 1825 2525 2350 
Q 2525 2875 2500 3275 
L 2825 3075 
L 3425 3075 
L 3600 3300 
L 3950 3000 
L 3750 2850 
L 3750 2075 
Q 3750 1925 3775 1600 
L 3450 1450 
L 3450 1700 
L 2825 1700 
L 2825 1500 
L 2500 1375 
z
M 2825 2925 
L 2825 1850 
L 3450 1850 
L 3450 2925 
L 2825 2925 
z
M 1850 625 
Q 2275 625 3975 1075 
L 4000 975 
Q 2325 425 2100 175 
L 1850 625 
z
M 4125 4625 
Q 4125 4900 4100 5250 
L 4625 4950 
L 4450 4775 
L 4450 3925 
L 5325 3925 
L 5650 4250 
L 6125 3775 
L 4450 3775 
Q 4450 2575 4650 1525 
Q 4825 1850 5012 2400 
Q 5200 2950 5250 3275 
L 5725 2875 
Q 5550 2800 5325 2200 
Q 5075 1600 4825 1100 
Q 5125 525 5675 125 
Q 5800 525 5975 1200 
L 6075 1175 
Q 6000 600 5987 212 
Q 5975 -175 6050 -425 
Q 6075 -525 6000 -525 
Q 5900 -525 5512 -300 
Q 5125 -75 4575 800 
Q 3750 -175 2700 -625 
L 2650 -550 
Q 3825 200 4400 1125 
Q 4125 2200 4125 3775 
L 2875 3775 
Q 2550 3775 2275 3700 
L 2050 3925 
L 4125 3925 
L 4125 4625 
z
M 4800 5050 
L 4850 5125 
Q 5375 4925 5525 4800 
Q 5675 4675 5675 4550 
Q 5675 4450 5612 4325 
Q 5550 4200 5525 4200 
Q 5450 4200 5375 4375 
Q 5225 4650 4800 5050 
z
M 275 3350 
L 1200 3350 
L 1200 4275 
Q 1200 4575 1175 5125 
L 1750 4850 
L 1550 4675 
L 1550 3350 
L 1725 3350 
L 2000 3625 
L 2425 3200 
L 1550 3200 
L 1550 1250 
L 2350 1450 
L 2375 1350 
Q 675 725 550 500 
L 275 975 
Q 700 1050 1200 1175 
L 1200 3200 
L 1100 3200 
Q 775 3200 500 3125 
L 275 3350 
z
" transform="scale(0.015625)"/>
       <path id="SimSun-ff1a" d="M 1550 675 
Q 1700 575 1687 337 
Q 1675 100 1500 0 
Q 1325 -100 1250 -100 
Q 1175 -100 1000 0 
Q 825 100 812 350 
Q 800 600 962 687 
Q 1125 775 1250 775 
Q 1400 775 1550 675 
z
M 1550 2187 
Q 1725 2100 1725 1837 
Q 1725 1575 1525 1487 
Q 1325 1400 1250 1400 
Q 1125 1400 962 1512 
Q 800 1625 812 1862 
Q 825 2100 1000 2187 
Q 1175 2275 1275 2275 
Q 1375 2275 1550 2187 
z
" transform="scale(0.015625)"/>
       <path id="SimSun-6d88" d="M 3900 3350 
Q 3900 4900 3875 5225 
L 4450 4950 
L 4250 4800 
L 4250 3350 
L 5050 3350 
L 5250 3600 
L 5650 3275 
L 5450 3100 
L 5450 125 
Q 5450 -400 4900 -600 
Q 4850 -200 4100 -75 
L 4100 25 
Q 4625 0 4875 -25 
Q 5100 -25 5100 250 
L 5100 1250 
L 3050 1250 
L 3050 -400 
L 2675 -575 
Q 2700 125 2700 1650 
Q 2700 3175 2675 3575 
L 3050 3350 
L 3900 3350 
z
M 2525 4850 
Q 3200 4500 3312 4337 
Q 3425 4175 3425 4075 
Q 3425 3950 3337 3800 
Q 3250 3650 3200 3650 
Q 3125 3650 3050 3875 
Q 2925 4225 2475 4800 
L 2525 4850 
z
M 5325 4950 
L 5775 4575 
Q 5600 4550 5300 4225 
Q 4975 3900 4575 3550 
L 4500 3600 
Q 5175 4525 5325 4950 
z
M 3050 2250 
L 3050 1400 
L 5100 1400 
L 5100 2250 
L 3050 2250 
z
M 3050 3200 
L 3050 2400 
L 5100 2400 
L 5100 3200 
L 3050 3200 
z
M 2525 4000 
Q 1675 1400 1600 1075 
Q 1525 750 1525 300 
Q 1525 -150 1550 -375 
Q 1550 -500 1450 -500 
Q 1400 -500 1237 -412 
Q 1075 -325 1075 -125 
Q 1075 50 1125 225 
Q 1175 425 1175 600 
Q 1175 800 1050 900 
Q 925 1000 450 1100 
L 450 1200 
Q 1000 1150 1100 1162 
Q 1200 1175 1350 1387 
Q 1500 1600 2425 4025 
L 2525 4000 
z
M 425 3550 
Q 1275 3175 1287 2925 
Q 1300 2675 1225 2562 
Q 1150 2450 1100 2450 
Q 1000 2450 925 2675 
Q 775 3000 375 3475 
L 425 3550 
z
M 1025 4950 
Q 1725 4625 1787 4475 
Q 1850 4325 1850 4250 
Q 1850 4125 1750 3987 
Q 1650 3850 1625 3850 
Q 1550 3850 1475 4075 
Q 1350 4425 975 4875 
L 1025 4950 
z
" transform="scale(0.015625)"/>
       <path id="SimSun-6781" d="M 5325 4475 
L 4600 2950 
L 5275 2950 
L 5525 3200 
L 5925 2825 
L 5675 2700 
Q 5300 1600 4700 825 
Q 5375 125 6125 -25 
L 6125 -125 
Q 5700 -175 5625 -425 
Q 5025 -100 4475 575 
Q 3625 -200 2675 -550 
L 2625 -475 
Q 3575 25 4275 825 
Q 3625 1750 3475 2850 
Q 3425 600 2000 -525 
L 1950 -450 
Q 2525 200 2775 837 
Q 3025 1475 3100 2125 
Q 3175 2775 3175 4575 
L 2875 4575 
L 2650 4525 
L 2450 4725 
L 4925 4725 
L 5150 4975 
L 5550 4650 
L 5325 4475 
z
M 3525 4575 
Q 3500 3575 3500 3075 
Q 3775 1975 4475 1075 
Q 4925 1650 5325 2800 
L 4550 2800 
L 4350 2575 
L 4000 2925 
Q 4250 3000 4462 3450 
Q 4675 3900 4950 4575 
L 3525 4575 
z
M 1725 2825 
Q 1725 0 1750 -450 
L 1350 -625 
Q 1375 575 1375 2525 
Q 1025 1550 425 800 
L 350 850 
Q 1025 2075 1350 3600 
L 750 3600 
L 525 3550 
L 325 3750 
L 1375 3750 
Q 1375 4650 1350 5250 
L 1925 4975 
L 1725 4800 
L 1725 3750 
L 2025 3750 
L 2325 4050 
L 2775 3600 
L 1725 3600 
L 1725 2950 
Q 2375 2650 2500 2487 
Q 2625 2325 2625 2200 
Q 2625 2075 2550 1937 
Q 2475 1800 2425 1800 
Q 2350 1800 2250 2050 
Q 2100 2425 1725 2825 
z
" transform="scale(0.015625)"/>
      </defs>
      <use xlink:href="#SimSun-6e90"/>
      <use xlink:href="#SimSun-57df" x="100"/>
      <use xlink:href="#SimSun-ff1a" x="200"/>
      <use xlink:href="#SimSun-6d88" x="300"/>
      <use xlink:href="#SimSun-6781" x="400"/>
     </g>
    </g>
    <g id="line2d_14">
     <defs>
      <path id="m31dca3e1e5" d="M 0 4 
C 1.060812 4 2.078319 3.578535 2.828427 2.828427 
C 3.578535 2.078319 4 1.060812 4 0 
C 4 -1.060812 3.578535 -2.078319 2.828427 -2.828427 
C 2.078319 -3.578535 1.060812 -4 0 -4 
C -1.060812 -4 -2.078319 -3.578535 -2.828427 -2.828427 
C -3.578535 -2.078319 -4 -1.060812 -4 0 
C -4 1.060812 -3.578535 2.078319 -2.828427 2.828427 
C -2.078319 3.578535 -1.060812 4 0 4 
z
" style="stroke: #000000; stroke-opacity: 0.9; stroke-width: 0.3"/>
     </defs>
     <g>
      <use xlink:href="#m31dca3e1e5" x="246.991875" y="61.4625" style="fill: #de8f05; fill-opacity: 0.9; stroke: #000000; stroke-opacity: 0.9; stroke-width: 0.3"/>
     </g>
    </g>
    <g id="text_16">
     <!-- 源域：中性 -->
     <g style="fill: #262626" transform="translate(273.391875 69.8625) scale(0.24 -0.24)">
      <defs>
       <path id="SimSun-4e2d" d="M 3325 3625 
L 3325 1975 
L 5125 1975 
L 5125 3625 
L 3325 3625 
z
M 2950 3775 
Q 2950 4750 2925 5250 
L 3525 4975 
L 3325 4775 
L 3325 3775 
L 5075 3775 
L 5275 4075 
L 5700 3750 
L 5475 3550 
L 5475 2100 
Q 5475 1825 5500 1525 
L 5125 1375 
L 5125 1825 
L 3325 1825 
Q 3325 -75 3350 -400 
L 2925 -625 
Q 2950 -50 2950 1825 
L 1225 1825 
L 1225 1525 
L 850 1325 
Q 875 1775 875 2625 
Q 875 3475 850 4000 
L 1225 3775 
L 2950 3775 
z
M 1225 3625 
L 1225 1975 
L 2950 1975 
L 2950 3625 
L 1225 3625 
z
" transform="scale(0.015625)"/>
       <path id="SimSun-6027" d="M 3975 3450 
Q 3975 4800 3950 5200 
L 4575 4925 
L 4325 4750 
L 4325 3450 
L 5050 3450 
L 5400 3800 
L 5900 3300 
L 4325 3300 
L 4325 1925 
L 4975 1925 
L 5300 2250 
L 5775 1775 
L 4325 1775 
L 4325 25 
L 5300 25 
L 5650 375 
L 6150 -125 
L 2875 -125 
Q 2550 -125 2275 -200 
L 2050 25 
L 3975 25 
L 3975 1775 
L 3450 1775 
Q 3125 1775 2850 1700 
L 2625 1925 
L 3975 1925 
L 3975 3300 
L 2950 3300 
Q 2625 2500 2225 2000 
L 2150 2050 
Q 2450 2650 2650 3387 
Q 2850 4125 2900 4600 
L 3475 4325 
L 3250 4175 
L 3000 3450 
L 3975 3450 
z
M 875 3625 
Q 950 2875 900 2687 
Q 850 2500 737 2437 
Q 625 2375 550 2375 
Q 500 2375 412 2412 
Q 325 2450 325 2475 
Q 325 2575 500 2775 
Q 725 3050 775 3625 
L 875 3625 
z
M 1575 3950 
Q 1975 3800 2150 3675 
Q 2325 3550 2300 3350 
Q 2275 3150 2175 3075 
Q 2075 3000 1975 3275 
Q 1850 3550 1575 3825 
L 1575 500 
Q 1575 75 1600 -425 
L 1200 -600 
Q 1225 125 1225 700 
L 1225 4225 
Q 1225 4650 1200 5250 
L 1800 4975 
L 1575 4800 
L 1575 3950 
z
" transform="scale(0.015625)"/>
      </defs>
      <use xlink:href="#SimSun-6e90"/>
      <use xlink:href="#SimSun-57df" x="100"/>
      <use xlink:href="#SimSun-ff1a" x="200"/>
      <use xlink:href="#SimSun-4e2d" x="300"/>
      <use xlink:href="#SimSun-6027" x="400"/>
     </g>
    </g>
    <g id="line2d_15">
     <defs>
      <path id="m2bf8410bf1" d="M 0 4 
C 1.060812 4 2.078319 3.578535 2.828427 2.828427 
C 3.578535 2.078319 4 1.060812 4 0 
C 4 -1.060812 3.578535 -2.078319 2.828427 -2.828427 
C 2.078319 -3.578535 1.060812 -4 0 -4 
C -1.060812 -4 -2.078319 -3.578535 -2.828427 -2.828427 
C -3.578535 -2.078319 -4 -1.060812 -4 0 
C -4 1.060812 -3.578535 2.078319 -2.828427 2.828427 
C -2.078319 3.578535 -1.060812 4 0 4 
z
" style="stroke: #000000; stroke-opacity: 0.9; stroke-width: 0.3"/>
     </defs>
     <g>
      <use xlink:href="#m2bf8410bf1" x="246.991875" y="88.29375" style="fill: #029e73; fill-opacity: 0.9; stroke: #000000; stroke-opacity: 0.9; stroke-width: 0.3"/>
     </g>
    </g>
    <g id="text_17">
     <!-- 源域：积极 -->
     <g style="fill: #262626" transform="translate(273.391875 96.69375) scale(0.24 -0.24)">
      <defs>
       <path id="SimSun-79ef" d="M 3125 1750 
Q 3150 2475 3150 3225 
Q 3150 3975 3125 4725 
L 3500 4525 
L 5225 4525 
L 5475 4775 
L 5850 4400 
L 5600 4250 
Q 5600 2300 5625 1975 
L 5275 1850 
L 5275 2175 
L 3475 2175 
L 3475 1875 
L 3125 1750 
z
M 3475 4375 
L 3475 2325 
L 5275 2325 
L 5275 4375 
L 3475 4375 
z
M 3825 1700 
L 4300 1300 
L 4075 1225 
Q 3125 -75 2200 -550 
L 2175 -450 
Q 2800 50 3225 625 
Q 3650 1200 3825 1700 
z
M 4700 1600 
Q 5725 650 5850 362 
Q 5975 75 5975 -75 
Q 5975 -225 5900 -337 
Q 5825 -450 5775 -450 
Q 5725 -450 5650 -250 
Q 5525 75 5350 450 
Q 5175 825 4650 1525 
L 4700 1600 
z
M 1875 2575 
Q 1875 225 1900 -400 
L 1525 -625 
Q 1550 125 1550 2350 
Q 1025 1275 300 625 
L 250 700 
Q 625 1200 962 1862 
Q 1300 2525 1500 3200 
L 1125 3200 
Q 800 3200 525 3125 
L 300 3350 
L 1550 3350 
L 1550 4475 
Q 900 4375 525 4350 
L 525 4450 
Q 1075 4550 1525 4712 
Q 1975 4875 2375 5150 
L 2725 4700 
Q 2425 4700 1875 4550 
L 1875 3350 
L 2250 3350 
L 2550 3650 
L 2975 3200 
L 1875 3200 
L 1875 2675 
Q 2475 2400 2612 2212 
Q 2750 2025 2750 1925 
Q 2750 1800 2662 1675 
Q 2575 1550 2550 1550 
Q 2450 1550 2375 1800 
Q 2250 2175 1875 2575 
z
" transform="scale(0.015625)"/>
      </defs>
      <use xlink:href="#SimSun-6e90"/>
      <use xlink:href="#SimSun-57df" x="100"/>
      <use xlink:href="#SimSun-ff1a" x="200"/>
      <use xlink:href="#SimSun-79ef" x="300"/>
      <use xlink:href="#SimSun-6781" x="400"/>
     </g>
    </g>
    <g id="line2d_16">
     <defs>
      <path id="mf60af2bf2d" d="M 0 -5 
L -5 5 
L 5 5 
z
" style="stroke: #0173b2; stroke-opacity: 0.999; stroke-width: 1.2; stroke-linejoin: miter"/>
     </defs>
     <g>
      <use xlink:href="#mf60af2bf2d" x="424.591875" y="34.63125" style="fill-opacity: 0; stroke: #0173b2; stroke-opacity: 0.999; stroke-width: 1.2; stroke-linejoin: miter"/>
     </g>
    </g>
    <g id="text_18">
     <!-- 目标域：消极 -->
     <g style="fill: #262626" transform="translate(450.991875 43.03125) scale(0.24 -0.24)">
      <defs>
       <path id="SimSun-76ee" d="M 1875 1700 
L 1875 325 
L 4550 325 
L 4550 1700 
L 1875 1700 
z
M 1475 -550 
Q 1500 350 1500 2087 
Q 1500 3825 1475 4950 
L 1875 4675 
L 4500 4675 
L 4700 4950 
L 5175 4600 
L 4925 4425 
L 4925 725 
Q 4925 -25 4950 -325 
L 4550 -525 
L 4550 175 
L 1875 175 
L 1875 -325 
L 1475 -550 
z
M 1875 4525 
L 1875 3250 
L 4550 3250 
L 4550 4525 
L 1875 4525 
z
M 1875 3100 
L 1875 1850 
L 4550 1850 
L 4550 3100 
L 1875 3100 
z
" transform="scale(0.015625)"/>
       <path id="SimSun-6807" d="M 4775 2225 
Q 5725 1275 5825 1050 
Q 5925 825 5925 700 
Q 5925 525 5825 375 
Q 5725 225 5700 225 
Q 5575 225 5475 650 
Q 5300 1225 4700 2175 
L 4775 2225 
z
M 2750 4600 
L 4975 4600 
L 5275 4900 
L 5725 4450 
L 3175 4450 
L 2950 4400 
L 2750 4600 
z
M 3100 75 
Q 3775 -50 3900 -25 
Q 4025 0 4025 175 
L 4025 2950 
L 2800 2950 
L 2575 2900 
L 2375 3100 
L 5350 3100 
L 5675 3425 
L 6150 2950 
L 4400 2950 
L 4400 -25 
Q 4375 -425 3850 -600 
Q 3850 -300 3100 -50 
L 3100 75 
z
M 3125 2275 
L 3675 1950 
L 3425 1825 
Q 2800 700 2100 25 
L 2025 100 
Q 2725 1025 3125 2275 
z
M 1675 2725 
Q 1675 25 1700 -475 
L 1300 -625 
Q 1325 450 1325 2325 
Q 950 1450 350 700 
L 275 800 
Q 975 1925 1325 3475 
L 700 3475 
L 475 3425 
L 275 3625 
L 1325 3625 
Q 1325 4575 1300 5275 
L 1900 4975 
L 1675 4800 
L 1675 3625 
L 2000 3625 
L 2275 3900 
L 2700 3475 
L 1675 3475 
L 1675 2850 
Q 2150 2600 2312 2425 
Q 2475 2250 2475 2125 
Q 2475 2050 2400 1912 
Q 2325 1775 2275 1775 
Q 2200 1775 2100 2075 
Q 1925 2475 1675 2725 
z
" transform="scale(0.015625)"/>
      </defs>
      <use xlink:href="#SimSun-76ee"/>
      <use xlink:href="#SimSun-6807" x="100"/>
      <use xlink:href="#SimSun-57df" x="200"/>
      <use xlink:href="#SimSun-ff1a" x="300"/>
      <use xlink:href="#SimSun-6d88" x="400"/>
      <use xlink:href="#SimSun-6781" x="500"/>
     </g>
    </g>
    <g id="line2d_17">
     <defs>
      <path id="mfd5ec9e34a" d="M 0 -5 
L -5 5 
L 5 5 
z
" style="stroke: #de8f05; stroke-opacity: 0.999; stroke-width: 1.2; stroke-linejoin: miter"/>
     </defs>
     <g>
      <use xlink:href="#mfd5ec9e34a" x="424.591875" y="61.55625" style="fill-opacity: 0; stroke: #de8f05; stroke-opacity: 0.999; stroke-width: 1.2; stroke-linejoin: miter"/>
     </g>
    </g>
    <g id="text_19">
     <!-- 目标域：中性 -->
     <g style="fill: #262626" transform="translate(450.991875 69.95625) scale(0.24 -0.24)">
      <use xlink:href="#SimSun-76ee"/>
      <use xlink:href="#SimSun-6807" x="100"/>
      <use xlink:href="#SimSun-57df" x="200"/>
      <use xlink:href="#SimSun-ff1a" x="300"/>
      <use xlink:href="#SimSun-4e2d" x="400"/>
      <use xlink:href="#SimSun-6027" x="500"/>
     </g>
    </g>
    <g id="line2d_18">
     <defs>
      <path id="m6ad0d2f0a1" d="M 0 -5 
L -5 5 
L 5 5 
z
" style="stroke: #029e73; stroke-opacity: 0.999; stroke-width: 1.2; stroke-linejoin: miter"/>
     </defs>
     <g>
      <use xlink:href="#m6ad0d2f0a1" x="424.591875" y="88.48125" style="fill-opacity: 0; stroke: #029e73; stroke-opacity: 0.999; stroke-width: 1.2; stroke-linejoin: miter"/>
     </g>
    </g>
    <g id="text_20">
     <!-- 目标域：积极 -->
     <g style="fill: #262626" transform="translate(450.991875 96.88125) scale(0.24 -0.24)">
      <use xlink:href="#SimSun-76ee"/>
      <use xlink:href="#SimSun-6807" x="100"/>
      <use xlink:href="#SimSun-57df" x="200"/>
      <use xlink:href="#SimSun-ff1a" x="300"/>
      <use xlink:href="#SimSun-79ef" x="400"/>
      <use xlink:href="#SimSun-6781" x="500"/>
     </g>
    </g>
   </g>
  </g>
 </g>
 <defs>
  <clipPath id="p6ca3fbf691">
   <rect x="53.791875" y="7.2" width="558" height="443.52"/>
  </clipPath>
 </defs>
</svg>
